<svg xmlns="http://www.w3.org/2000/svg" xmlns:xlink="http://www.w3.org/1999/xlink" viewBox="0 0 1080 1080" width="1080" height="1080" preserveAspectRatio="xMidYMid meet" style="width: 100%; height: 100%; transform: translate3d(0px, 0px, 0px); content-visibility: visible;"><defs><clipPath id="__lottie_element_888"><rect width="1080" height="1080" x="0" y="0"></rect></clipPath></defs><g clip-path="url(#__lottie_element_888)"><g transform="matrix(0.4797113239765167,0.016644561663269997,-0.016644561663269997,0.4797113239765167,544.6810913085938,471.6314697265625)" opacity="1" style="display: block;"><g opacity="1" transform="matrix(1,0,0,1,0,0)"><path fill="rgb(235,65,50)" fill-opacity="1" d=" M0,-281.239013671875 C-103.53399658203125,-281.239013671875 -187.4929962158203,-197.27999877929688 -187.4929962158203,-93.74600219726562 C-187.4929962158203,40.347999572753906 0,281.239013671875 0,281.239013671875 C0,281.239013671875 187.4929962158203,42.18600082397461 187.4929962158203,-93.74600219726562 C187.4929962158203,-197.27999877929688 103.53399658203125,-281.239013671875 0,-281.239013671875"></path></g><g opacity="1" transform="matrix(1,0,0,1,0,0)"><path fill="rgb(255,255,255)" fill-opacity="1" d=" M0,0 C-51.7859992980957,0 -93.74600219726562,-41.96099853515625 -93.74600219726562,-93.74600219726562 C-93.74600219726562,-145.53199768066406 -51.7859992980957,-187.4929962158203 0,-187.4929962158203 C51.7859992980957,-187.4929962158203 93.74600219726562,-145.53199768066406 93.74600219726562,-93.74600219726562 C93.74600219726562,-41.96099853515625 51.7859992980957,0 0,0"></path></g></g><g transform="matrix(0.8236601948738098,0,0,0.8236601948738098,582.830322265625,494.7558898925781)" opacity="1" style="display: block;"><g opacity="1" transform="matrix(1,0,0,1,-52,135)"><path stroke-linecap="round" stroke-linejoin="miter" fill-opacity="0" stroke-miterlimit="4" stroke="rgb(235,65,50)" stroke-opacity="1" stroke-width="6.27895006255963" d=" M0,-69 C145.70159912109375,-69 264,-38.08110046386719 264,0 C264,38.08110046386719 145.70159912109375,69 0,69 C-145.70159912109375,69 -264,38.08110046386719 -264,0 C-264,-38.08110046386719 -145.70159912109375,-69 0,-69z"></path></g></g></g></svg>