<svg xmlns="http://www.w3.org/2000/svg" width="151" height="214.294" viewBox="0 0 151 214.294">
  <g id="그룹_1833" data-name="그룹 1833" transform="translate(-301.874 -845.269)">
    <path id="패스_5930" data-name="패스 5930" d="M288.374,394.269h0a75.5,75.5,0,1,1,75.5-75.5,75.5,75.5,0,0,1-75.5,75.5" transform="translate(89 602)" fill="#ff0"/>
    <path id="패스_6035" data-name="패스 6035" d="M237.774,427.313h-3.2v-7.925h-7.85v7.925h-3.2v-17.85h3.2v7.2h7.85v-7.2h3.2Z" transform="translate(89 602)" fill="#fff"/>
    <path id="패스_6036" data-name="패스 6036" d="M247.525,413.514a6.044,6.044,0,0,1,3.987,1.149,4.392,4.392,0,0,1,1.363,3.551v9.1H250.65l-.625-1.875h-.1a5.962,5.962,0,0,1-1.85,1.612,5.736,5.736,0,0,1-2.65.513,4.491,4.491,0,0,1-3.025-1.026,3.947,3.947,0,0,1-1.2-3.175,3.557,3.557,0,0,1,1.538-3.149,9,9,0,0,1,4.662-1.176l2.35-.074v-.676a2.368,2.368,0,0,0-.625-1.837,2.525,2.525,0,0,0-1.75-.562,6.375,6.375,0,0,0-1.963.3q-.937.3-1.862.7l-1-2.2a10.378,10.378,0,0,1,2.287-.85,10.929,10.929,0,0,1,2.688-.325m.575,7.45a5.079,5.079,0,0,0-2.875.712,2.078,2.078,0,0,0-.8,1.713,1.611,1.611,0,0,0,.563,1.388,2.463,2.463,0,0,0,1.487.412,3.53,3.53,0,0,0,2.325-.787,2.865,2.865,0,0,0,.95-2.338v-1.151Z" transform="translate(89 602)" fill="#fff"/>
    <path id="패스_6037" data-name="패스 6037" d="M263.949,413.513a4.708,4.708,0,0,1,3.825,1.763,10.116,10.116,0,0,1-.038,10.5,4.791,4.791,0,0,1-3.862,1.787,4.714,4.714,0,0,1-2.425-.55,5.053,5.053,0,0,1-1.475-1.275h-.2c.05.317.1.663.137,1.038a9.373,9.373,0,0,1,.063,1.037v5.5h-3.15v-19.55h2.55l.45,1.8h.15a4.8,4.8,0,0,1,1.5-1.45,4.574,4.574,0,0,1,2.475-.6m-.9,2.55a2.66,2.66,0,0,0-2.362,1,5.49,5.49,0,0,0-.713,3.025v.4a6.835,6.835,0,0,0,.663,3.338,2.585,2.585,0,0,0,2.462,1.162,2.364,2.364,0,0,0,2.187-1.212,6.532,6.532,0,0,0,.713-3.313,6.177,6.177,0,0,0-.713-3.25,2.44,2.44,0,0,0-2.237-1.15" transform="translate(89 602)" fill="#fff"/>
    <path id="패스_6038" data-name="패스 6038" d="M279.6,413.513a4.708,4.708,0,0,1,3.825,1.763,10.116,10.116,0,0,1-.038,10.5,4.791,4.791,0,0,1-3.862,1.787,4.714,4.714,0,0,1-2.425-.55,5.053,5.053,0,0,1-1.475-1.275h-.2q.075.475.137,1.038a9.373,9.373,0,0,1,.063,1.037v5.5h-3.15v-19.55h2.55l.45,1.8h.15a4.8,4.8,0,0,1,1.5-1.45,4.574,4.574,0,0,1,2.475-.6m-.9,2.55a2.66,2.66,0,0,0-2.362,1,5.49,5.49,0,0,0-.713,3.025v.4a6.835,6.835,0,0,0,.663,3.338,2.585,2.585,0,0,0,2.462,1.162,2.364,2.364,0,0,0,2.187-1.212,6.532,6.532,0,0,0,.713-3.313,6.177,6.177,0,0,0-.713-3.25,2.44,2.44,0,0,0-2.237-1.15" transform="translate(89 602)" fill="#fff"/>
    <path id="패스_6039" data-name="패스 6039" d="M293.573,413.514a5.752,5.752,0,0,1,4.312,1.625,6.2,6.2,0,0,1,1.588,4.524v1.6h-8.95a4.123,4.123,0,0,0,1.026,2.862,3.569,3.569,0,0,0,2.7,1.013,9.7,9.7,0,0,0,2.349-.263,12.556,12.556,0,0,0,2.151-.763v2.526a9.293,9.293,0,0,1-2.075.7,12.832,12.832,0,0,1-2.576.225,7.794,7.794,0,0,1-3.512-.763,5.483,5.483,0,0,1-2.4-2.313,7.826,7.826,0,0,1-.863-3.849,7.428,7.428,0,0,1,1.726-5.3,5.935,5.935,0,0,1,4.524-1.825m0,2.325a2.747,2.747,0,0,0-2.063.812,3.787,3.787,0,0,0-.912,2.413h5.826a3.862,3.862,0,0,0-.713-2.313,2.5,2.5,0,0,0-2.138-.912" transform="translate(89 602)" fill="#fff"/>
    <path id="패스_6040" data-name="패스 6040" d="M309.9,413.513a5.1,5.1,0,0,1,3.563,1.175,4.93,4.93,0,0,1,1.287,3.8v8.825H311.6v-8.2q0-3.051-2.5-3.05a2.749,2.749,0,0,0-2.6,1.2,6.861,6.861,0,0,0-.7,3.425v6.625h-3.149v-13.55h2.425l.45,1.774h.175A3.821,3.821,0,0,1,307.485,414a6.06,6.06,0,0,1,2.413-.487" transform="translate(89 602)" fill="#fff"/>
    <path id="패스_6041" data-name="패스 6041" d="M320.273,408.538a2.089,2.089,0,0,1,1.239.363,1.471,1.471,0,0,1,.511,1.287,1.507,1.507,0,0,1-.511,1.3,2.231,2.231,0,0,1-2.476,0,1.506,1.506,0,0,1-.513-1.3,1.469,1.469,0,0,1,.513-1.287,2.085,2.085,0,0,1,1.237-.363m1.576,18.775H318.7v-13.55h3.149Z" transform="translate(89 602)" fill="#fff"/>
    <path id="패스_6042" data-name="패스 6042" d="M333.124,413.513a5.1,5.1,0,0,1,3.563,1.175,4.93,4.93,0,0,1,1.287,3.8v8.825h-3.151v-8.2q0-3.051-2.5-3.05a2.749,2.749,0,0,0-2.6,1.2,6.861,6.861,0,0,0-.7,3.425v6.625h-3.149v-13.55H328.3l.45,1.774h.175A3.821,3.821,0,0,1,330.711,414a6.06,6.06,0,0,1,2.413-.487" transform="translate(89 602)" fill="#fff"/>
    <path id="패스_6043" data-name="패스 6043" d="M346.474,413.514a4.693,4.693,0,0,1,4.024,2h.125l.3-1.75h2.625v13.649a5.674,5.674,0,0,1-1.638,4.4,7.016,7.016,0,0,1-4.887,1.5,17.717,17.717,0,0,1-2.675-.188,10.166,10.166,0,0,1-2.325-.638v-2.6a12.49,12.49,0,0,0,5.2,1.05,3.087,3.087,0,0,0,2.362-.863,3.535,3.535,0,0,0,.813-2.512v-.35c0-.25.007-.542.025-.875a7.269,7.269,0,0,1,.074-.8h-.1a4.294,4.294,0,0,1-1.713,1.538,5.194,5.194,0,0,1-2.287.488,4.587,4.587,0,0,1-3.875-1.85,10.174,10.174,0,0,1,.012-10.325,4.65,4.65,0,0,1,3.938-1.875m.825,2.575q-2.951,0-2.95,4.524,0,4.45,3,4.451a3.05,3.05,0,0,0,2.437-.912,4.743,4.743,0,0,0,.787-3.088v-.475a5.848,5.848,0,0,0-.787-3.45,2.906,2.906,0,0,0-2.487-1.05" transform="translate(89 602)" fill="#fff"/>
    <path id="패스_6044" data-name="패스 6044" d="M277.912,457.313h-3.975l-8.45-14h-.1q.075,1.125.137,2.412t.088,2.588v9h-2.875v-17.85h3.95l8.425,13.9h.075q-.051-1-.1-2.3t-.075-2.525v-9.075h2.9Z" transform="translate(89 602)" fill="#fff"/>
    <path id="패스_6045" data-name="패스 6045" d="M294.362,450.513a7.258,7.258,0,0,1-1.75,5.212,6.249,6.249,0,0,1-4.75,1.838,6.56,6.56,0,0,1-3.3-.825,5.739,5.739,0,0,1-2.275-2.4,8.148,8.148,0,0,1-.827-3.825,7.2,7.2,0,0,1,1.74-5.187,6.248,6.248,0,0,1,4.737-1.813,6.683,6.683,0,0,1,3.325.813,5.708,5.708,0,0,1,2.275,2.374,8.108,8.108,0,0,1,.824,3.813m-9.674,0a6.081,6.081,0,0,0,.763,3.325,3.167,3.167,0,0,0,4.924,0,6.1,6.1,0,0,0,.763-3.325,5.968,5.968,0,0,0-.763-3.3,2.765,2.765,0,0,0-2.487-1.15,2.71,2.71,0,0,0-2.437,1.15,5.951,5.951,0,0,0-.763,3.3" transform="translate(89 602)" fill="#fff"/>
    <path id="패스_6046" data-name="패스 6046" d="M307.212,451.488q-.126-.474-.3-1.187t-.362-1.488q-.187-.774-.338-1.425t-.225-1h-.1q-.075.351-.225,1c-.1.434-.209.912-.325,1.438s-.237,1.024-.362,1.5-.23.871-.313,1.187l-1.575,5.8h-3.45l-3.8-13.575h3.175l1.675,6.476q.175.674.338,1.487t.275,1.575q.111.762.187,1.237h.1q.049-.449.188-1.225c.091-.516.187-1.021.287-1.512s.183-.863.25-1.113l1.95-6.925h3.45l1.875,6.925c.066.3.154.692.263,1.176s.2.97.287,1.461a11.127,11.127,0,0,1,.15,1.188h.1c.033-.267.092-.649.175-1.149s.183-1.034.3-1.6.242-1.075.375-1.524l1.7-6.476h3.125l-3.85,13.575h-3.5Z" transform="translate(89 602)" fill="#fff"/>
    <path id="패스_6095" data-name="패스 6095" d="M253.455,267.655h3.353a1.244,1.244,0,0,1,1.244,1.244v17.614a1.245,1.245,0,0,0,1.244,1.245h7.958A1.244,1.244,0,0,1,268.5,289v2.288a1.244,1.244,0,0,1-1.244,1.244h-13.8a1.244,1.244,0,0,1-1.244-1.244V268.9a1.244,1.244,0,0,1,1.244-1.244" transform="translate(89 602)" fill="#592583"/>
    <path id="패스_6096" data-name="패스 6096" d="M276.151,292.534H272.8a1.244,1.244,0,0,1-1.244-1.244V268.9a1.244,1.244,0,0,1,1.244-1.244h3.353a1.244,1.244,0,0,1,1.244,1.244V291.29a1.244,1.244,0,0,1-1.244,1.244" transform="translate(89 602)" fill="#592583"/>
    <path id="패스_6097" data-name="패스 6097" d="M292.239,286.005h.207l5.4-17.473a1.246,1.246,0,0,1,1.189-.877h3.877a1.244,1.244,0,0,1,1.178,1.643l-7.577,22.391a1.244,1.244,0,0,1-1.178.845h-5.982a1.245,1.245,0,0,1-1.179-.844l-7.607-22.39a1.245,1.245,0,0,1,1.178-1.645h3.909a1.246,1.246,0,0,1,1.189.877Z" transform="translate(89 602)" fill="#592583"/>
    <path id="패스_6098" data-name="패스 6098" d="M308.531,267.655h14.727A1.244,1.244,0,0,1,324.5,268.9v2.288a1.244,1.244,0,0,1-1.245,1.244h-8.886a1.244,1.244,0,0,0-1.244,1.245v2.769a1.244,1.244,0,0,0,1.244,1.244h7.993a1.244,1.244,0,0,1,1.244,1.244v2.288a1.245,1.245,0,0,1-1.244,1.245h-7.993a1.244,1.244,0,0,0-1.244,1.244v2.8a1.245,1.245,0,0,0,1.244,1.245h8.921A1.244,1.244,0,0,1,324.537,289v2.288a1.244,1.244,0,0,1-1.244,1.244H308.531a1.244,1.244,0,0,1-1.244-1.244V268.9a1.244,1.244,0,0,1,1.244-1.244" transform="translate(89 602)" fill="#592583"/>
    <path id="패스_6099" data-name="패스 6099" d="M258.84,317a3.136,3.136,0,0,0-4.1,1.67,32.7,32.7,0,0,0,0,25.173,3.13,3.13,0,0,0,5.77-2.429,26.425,26.425,0,0,1,0-20.314,3.131,3.131,0,0,0-1.67-4.1" transform="translate(89 602)" fill="#14a0de"/>
    <path id="패스_6100" data-name="패스 6100" d="M250.153,308.155a3.13,3.13,0,0,0-4.262,1.2,44.841,44.841,0,0,0,0,43.819,3.13,3.13,0,1,0,5.459-3.065,38.569,38.569,0,0,1,0-37.689,3.131,3.131,0,0,0-1.2-4.262" transform="translate(89 602)" fill="#14a0de"/>
    <path id="패스_6101" data-name="패스 6101" d="M317.908,317a3.131,3.131,0,0,0-1.67,4.1,26.425,26.425,0,0,1,0,20.314,3.13,3.13,0,1,0,5.77,2.429,32.7,32.7,0,0,0,0-25.173,3.136,3.136,0,0,0-4.1-1.67" transform="translate(89 602)" fill="#14a0de"/>
    <path id="패스_6102" data-name="패스 6102" d="M330.858,309.353a3.13,3.13,0,1,0-5.459,3.062,38.589,38.589,0,0,1,0,37.692,3.13,3.13,0,1,0,5.459,3.062,44.842,44.842,0,0,0,0-43.816" transform="translate(89 602)" fill="#14a0de"/>
    <path id="패스_6103" data-name="패스 6103" d="M294.524,303.033h-12.3a13.818,13.818,0,0,0-13.8,13.8v28.852a13.818,13.818,0,0,0,13.8,13.8h3.021v10h-1.512a10.446,10.446,0,0,0-9.137,5.393,1.042,1.042,0,0,0,.9,1.554h25.757a1.043,1.043,0,0,0,.9-1.554,10.449,10.449,0,0,0-9.137-5.393H291.5v-10h3.021a13.817,13.817,0,0,0,13.8-13.8V316.835a13.817,13.817,0,0,0-13.8-13.8m0,50.2h-12.3a7.535,7.535,0,0,1-7.508-7.2h6.714a3.13,3.13,0,0,0,0-6.259h-6.748V334.39h6.748a3.13,3.13,0,0,0,0-6.259h-6.748v-5.38h6.748a3.13,3.13,0,0,0,0-6.259h-6.714a7.535,7.535,0,0,1,7.508-7.2h12.3a7.535,7.535,0,0,1,7.508,7.2h-6.713a3.13,3.13,0,1,0,0,6.259h6.748v5.38h-6.748a3.13,3.13,0,1,0,0,6.259h6.748v5.381h-6.748a3.13,3.13,0,1,0,0,6.259h6.713a7.535,7.535,0,0,1-7.508,7.2" transform="translate(89 602)" fill="#592583"/>
  </g>
</svg>
