<svg xmlns="http://www.w3.org/2000/svg" width="34.551" height="32.303" viewBox="0 0 34.551 32.303">
  <g id="그룹_1829" data-name="그룹 1829" transform="translate(-31.797 -93.232)">
    <path id="패스_5817" data-name="패스 5817" d="M52.352,121.7a.519.519,0,0,1,.511.6,3.838,3.838,0,0,1-7.581,0,.518.518,0,0,1,.51-.6Z" fill="#fcb400"/>
    <path id="패스_5818" data-name="패스 5818" d="M36.151,106.729a.614.614,0,0,1-.112-.01.669.669,0,0,1-.548-.77,13.349,13.349,0,0,1,6.619-9.366.669.669,0,1,1,.651,1.168,12,12,0,0,0-5.952,8.42.669.669,0,0,1-.658.558" fill="#fcb400"/>
    <path id="패스_5819" data-name="패스 5819" d="M32.466,106.108a.613.613,0,0,1-.112-.01.669.669,0,0,1-.548-.77A17.115,17.115,0,0,1,40.3,93.317a.668.668,0,0,1,.649,1.168,15.773,15.773,0,0,0-7.821,11.065.669.669,0,0,1-.658.558" fill="#fcb400"/>
    <path id="패스_5820" data-name="패스 5820" d="M61.993,106.729a.669.669,0,0,1-.658-.558,12,12,0,0,0-5.952-8.42.668.668,0,1,1,.65-1.168,13.348,13.348,0,0,1,6.62,9.366.669.669,0,0,1-.548.77.614.614,0,0,1-.112.01" fill="#fcb400"/>
    <path id="패스_5821" data-name="패스 5821" d="M65.678,106.108a.669.669,0,0,1-.658-.558A15.767,15.767,0,0,0,57.2,94.485a.668.668,0,0,1,.649-1.168,17.11,17.11,0,0,1,8.49,12.011.668.668,0,0,1-.548.77.613.613,0,0,1-.112.01" fill="#fcb400"/>
    <path id="패스_5822" data-name="패스 5822" d="M61.242,118.431c-.869-1.87-3.191-3.812-3.191-8.518v-1.6a8.979,8.979,0,0,0-5.512-8.284.741.741,0,0,1-.451-.689V99.33a3.016,3.016,0,0,0-6.031,0v.006a.742.742,0,0,1-.451.689,8.98,8.98,0,0,0-5.513,8.284v1.6c0,4.706-2.322,6.648-3.191,8.518a1.457,1.457,0,0,0,1.327,2.064H59.915a1.457,1.457,0,0,0,1.327-2.064" fill="#fcb400"/>
  </g>
</svg>
