<svg xmlns="http://www.w3.org/2000/svg" width="151.354" height="183.802" viewBox="0 0 151.354 183.802">
  <g id="그룹_1835" data-name="그룹 1835" transform="translate(-92.197 -1089.684)">
    <path id="패스_5932" data-name="패스 5932" d="M154.551,563.361a75.677,75.677,0,1,1-75.677-75.677,75.677,75.677,0,0,1,75.677,75.677" transform="translate(89 602)" fill="#fff"/>
    <path id="패스_6078" data-name="패스 6078" d="M18.237,653.386a11.019,11.019,0,0,1,5.263,1,3.645,3.645,0,0,1,1.788,3.475,4.263,4.263,0,0,1-.776,2.6,3.346,3.346,0,0,1-2.224,1.3v.125a5.462,5.462,0,0,1,1.775.637,3.3,3.3,0,0,1,1.262,1.325,4.8,4.8,0,0,1,.463,2.263,4.539,4.539,0,0,1-1.713,3.775,7.384,7.384,0,0,1-4.689,1.35H12.863v-17.85Zm.426,7.275a4.182,4.182,0,0,0,2.611-.6,2.186,2.186,0,0,0,.713-1.775,1.862,1.862,0,0,0-.862-1.725,5.388,5.388,0,0,0-2.712-.525h-2.35v4.625Zm-2.6,2.575v5.325h2.9a3.838,3.838,0,0,0,2.712-.75,2.681,2.681,0,0,0,.764-2,2.393,2.393,0,0,0-.789-1.862,4.269,4.269,0,0,0-2.836-.713Z" transform="translate(89 602)" fill="#fff"/>
    <path id="패스_6079" data-name="패스 6079" d="M41.262,664.436a7.263,7.263,0,0,1-1.75,5.212,6.249,6.249,0,0,1-4.75,1.838,6.561,6.561,0,0,1-3.3-.825,5.751,5.751,0,0,1-2.275-2.4,8.16,8.16,0,0,1-.826-3.825,7.2,7.2,0,0,1,1.739-5.187,6.249,6.249,0,0,1,4.737-1.813,6.682,6.682,0,0,1,3.325.813,5.7,5.7,0,0,1,2.275,2.374,8.1,8.1,0,0,1,.825,3.813m-9.675,0a6.089,6.089,0,0,0,.763,3.325,2.715,2.715,0,0,0,2.462,1.175,2.716,2.716,0,0,0,2.462-1.175,6.1,6.1,0,0,0,.763-3.325,5.968,5.968,0,0,0-.763-3.3,2.763,2.763,0,0,0-2.487-1.15,2.711,2.711,0,0,0-2.437,1.15,5.96,5.96,0,0,0-.763,3.3" transform="translate(89 602)" fill="#fff"/>
    <path id="패스_6080" data-name="패스 6080" d="M56.611,664.436a7.259,7.259,0,0,1-1.75,5.212,6.249,6.249,0,0,1-4.75,1.838,6.56,6.56,0,0,1-3.3-.825,5.753,5.753,0,0,1-2.276-2.4,8.16,8.16,0,0,1-.826-3.825,7.2,7.2,0,0,1,1.74-5.187,6.249,6.249,0,0,1,4.737-1.813,6.682,6.682,0,0,1,3.325.813,5.693,5.693,0,0,1,2.274,2.374,8.084,8.084,0,0,1,.825,3.813m-9.674,0a6.089,6.089,0,0,0,.763,3.325,3.167,3.167,0,0,0,4.924,0,6.1,6.1,0,0,0,.763-3.325,5.968,5.968,0,0,0-.763-3.3,2.765,2.765,0,0,0-2.487-1.15,2.711,2.711,0,0,0-2.437,1.15,5.96,5.96,0,0,0-.763,3.3" transform="translate(89 602)" fill="#fff"/>
    <path id="패스_6081" data-name="패스 6081" d="M65.112,668.961a5.782,5.782,0,0,0,1.137-.112,9.745,9.745,0,0,0,1.038-.263v2.351a6.338,6.338,0,0,1-1.3.387,8.431,8.431,0,0,1-1.676.162,5.509,5.509,0,0,1-2.1-.387,3.022,3.022,0,0,1-1.5-1.337,5.309,5.309,0,0,1-.55-2.651v-7.049H58.337v-1.375l2-1.1,1-2.875h1.974v2.976h3.851v2.375H63.311v7.024a1.674,1.674,0,0,0,1.8,1.875" transform="translate(89 602)" fill="#fff"/>
    <path id="패스_6082" data-name="패스 6082" d="M73.161,656.761q0,.8-.062,1.562t-.113,1.137h.2a4.045,4.045,0,0,1,1.7-1.524,5.336,5.336,0,0,1,2.324-.5,5.172,5.172,0,0,1,3.6,1.175,4.893,4.893,0,0,1,1.3,3.8v8.826h-3.15v-8.2q0-3.049-2.5-3.049a2.751,2.751,0,0,0-2.6,1.2,6.862,6.862,0,0,0-.7,3.425v6.625H70.012v-19h3.149Z" transform="translate(89 602)" fill="#fff"/>
    <path id="패스_6083" data-name="패스 6083" d="M99.261,671.236h-3.2v-15.15H90.937v-2.7h13.449v2.7H99.261Z" transform="translate(89 602)" fill="#fff"/>
    <path id="패스_6084" data-name="패스 6084" d="M118.911,664.436a7.263,7.263,0,0,1-1.75,5.212,6.249,6.249,0,0,1-4.75,1.838,6.561,6.561,0,0,1-3.3-.825,5.751,5.751,0,0,1-2.275-2.4,8.16,8.16,0,0,1-.826-3.825,7.2,7.2,0,0,1,1.739-5.187,6.249,6.249,0,0,1,4.737-1.813,6.682,6.682,0,0,1,3.325.813,5.7,5.7,0,0,1,2.275,2.374,8.1,8.1,0,0,1,.825,3.813m-9.675,0a6.089,6.089,0,0,0,.763,3.325,3.167,3.167,0,0,0,4.924,0,6.1,6.1,0,0,0,.763-3.325,5.968,5.968,0,0,0-.763-3.3,2.763,2.763,0,0,0-2.487-1.15,2.711,2.711,0,0,0-2.437,1.15,5.96,5.96,0,0,0-.763,3.3" transform="translate(89 602)" fill="#fff"/>
    <path id="패스_6085" data-name="패스 6085" d="M134.186,657.686v13.55H131.71l-.424-1.75h-.151a3.889,3.889,0,0,1-1.811,1.525,6.2,6.2,0,0,1-2.413.475,5.086,5.086,0,0,1-3.562-1.175,4.887,4.887,0,0,1-1.288-3.775v-8.85h3.15v8.225q0,3.024,2.5,3.025a2.794,2.794,0,0,0,2.613-1.187,6.769,6.769,0,0,0,.712-3.438v-6.625Z" transform="translate(89 602)" fill="#fff"/>
    <path id="패스_6086" data-name="패스 6086" d="M145.311,657.436c.216,0,.453.009.712.024a3.507,3.507,0,0,1,.663.1l-.275,2.925c-.166-.033-.367-.063-.6-.088a6.205,6.205,0,0,0-.625-.037,4.348,4.348,0,0,0-1.875.412,3.3,3.3,0,0,0-1.413,1.275,4.023,4.023,0,0,0-.537,2.162v7.026H138.21v-13.55h2.425l.45,2.35h.151a5.675,5.675,0,0,1,1.649-1.837,4.016,4.016,0,0,1,2.426-.763" transform="translate(89 602)" fill="#fff"/>
    <path id="패스_6090" data-name="패스 6090" d="M114.245,594.536l-9.541,9.51a2.838,2.838,0,0,1-2.079.881,2.906,2.906,0,0,1-2.109-.881,2.946,2.946,0,0,1,0-4.188l4.471-4.472H70.192a15.621,15.621,0,0,0,0-5.92h34.795l-4.471-4.471a2.961,2.961,0,1,1,4.188-4.188l9.541,9.51a2.983,2.983,0,0,1,0,4.219" transform="translate(89 602)" fill="#14a0de"/>
    <path id="패스_6091" data-name="패스 6091" d="M121.242,538.808l-13.115-13.115a2.951,2.951,0,0,0-4.191,0L91.684,537.935H66.753v-6.3a2.968,2.968,0,0,0-2.968-2.969H45.227a2.966,2.966,0,0,0-2.958,2.969v18.557a2.964,2.964,0,0,0,2.958,2.959H63.785a2.966,2.966,0,0,0,2.968-2.959v-6.315H91.684l3.589,3.589L61.224,581.51a12.839,12.839,0,1,0-8.091,23.7,13.1,13.1,0,0,0,1.378.068,12.82,12.82,0,0,0,10.913-19.566l34.049-34.05,4.453,4.463a3.007,3.007,0,0,0,2.1.863,2.967,2.967,0,0,0,2.1-.863L121.242,543a2.952,2.952,0,0,0,0-4.191" transform="translate(89 602)" fill="#592583"/>
  </g>
</svg>
