<svg xmlns="http://www.w3.org/2000/svg" width="151.354" height="220.056" viewBox="0 0 151.354 220.056">
  <g id="그룹_1832" data-name="그룹 1832" transform="translate(-92.197 -845.092)">
    <path id="패스_5931" data-name="패스 5931" d="M154.551,318.769a75.677,75.677,0,1,1-75.677-75.677,75.677,75.677,0,0,1,75.677,75.677" transform="translate(89 602)" fill="#fff"/>
    <path id="패스_6064" data-name="패스 6064" d="M44,427.148H36.5v-1.825l2.15-.8V411.948l-2.15-.825V409.3H44v1.825l-2.15.825v12.575l2.15.8Z" transform="translate(89 602)" fill="#fff"/>
    <path id="패스_6065" data-name="패스 6065" d="M54.15,413.348a5.1,5.1,0,0,1,3.563,1.175,4.93,4.93,0,0,1,1.287,3.8v8.825H55.849v-8.2q0-3.051-2.5-3.05a2.749,2.749,0,0,0-2.6,1.2,6.861,6.861,0,0,0-.7,3.425v6.625H46.9V413.6h2.425l.45,1.774h.175a3.821,3.821,0,0,1,1.787-1.537,6.061,6.061,0,0,1,2.413-.487" transform="translate(89 602)" fill="#fff"/>
    <path id="패스_6066" data-name="패스 6066" d="M66.075,427.148l-5.15-13.55H64.25l2.7,7.825q.249.726.462,1.6a10.021,10.021,0,0,1,.263,1.475h.1a11.651,11.651,0,0,1,.3-1.488q.224-.863.475-1.587l2.7-7.825h3.325l-5.15,13.55Z" transform="translate(89 602)" fill="#fff"/>
    <path id="패스_6067" data-name="패스 6067" d="M78.173,408.373a2.09,2.09,0,0,1,1.239.363,1.474,1.474,0,0,1,.511,1.287,1.51,1.51,0,0,1-.511,1.3,2.231,2.231,0,0,1-2.476,0,1.505,1.505,0,0,1-.513-1.3,1.469,1.469,0,0,1,.513-1.287,2.085,2.085,0,0,1,1.237-.363m1.576,18.775H76.6V413.6h3.149Z" transform="translate(89 602)" fill="#fff"/>
    <path id="패스_6068" data-name="패스 6068" d="M89.024,424.873a5.782,5.782,0,0,0,1.137-.112A9.738,9.738,0,0,0,91.2,424.5v2.351a6.34,6.34,0,0,1-1.3.387,8.433,8.433,0,0,1-1.676.162,5.509,5.509,0,0,1-2.1-.387,3.022,3.022,0,0,1-1.5-1.337,5.309,5.309,0,0,1-.55-2.651v-7.049H82.249V414.6l2-1.1,1-2.875h1.974V413.6h3.851v2.375H87.223V423a1.674,1.674,0,0,0,1.8,1.875" transform="translate(89 602)" fill="#fff"/>
    <path id="패스_6069" data-name="패스 6069" d="M99.373,413.349a5.752,5.752,0,0,1,4.312,1.625,6.2,6.2,0,0,1,1.588,4.524v1.6h-8.95a4.123,4.123,0,0,0,1.026,2.862,3.569,3.569,0,0,0,2.7,1.013,9.7,9.7,0,0,0,2.349-.263,12.552,12.552,0,0,0,2.151-.763v2.526a9.293,9.293,0,0,1-2.075.7,12.834,12.834,0,0,1-2.576.225,7.794,7.794,0,0,1-3.512-.763,5.488,5.488,0,0,1-2.4-2.313,7.826,7.826,0,0,1-.863-3.849,7.428,7.428,0,0,1,1.726-5.3,5.935,5.935,0,0,1,4.524-1.825m0,2.325a2.748,2.748,0,0,0-2.063.812A3.788,3.788,0,0,0,96.4,418.9h5.826a3.862,3.862,0,0,0-.713-2.313,2.5,2.5,0,0,0-2.138-.912" transform="translate(89 602)" fill="#fff"/>
    <path id="패스_6070" data-name="패스 6070" d="M112.924,427.4a4.7,4.7,0,0,1-3.826-1.776,10.149,10.149,0,0,1,.025-10.5A4.794,4.794,0,0,1,113,413.348a4.737,4.737,0,0,1,2.462.575,4.9,4.9,0,0,1,1.538,1.4h.149c-.049-.234-.1-.591-.149-1.076a13.112,13.112,0,0,1-.074-1.349v-4.75h3.149v19h-2.45l-.574-1.776h-.125a4.95,4.95,0,0,1-1.527,1.438,4.641,4.641,0,0,1-2.473.588m.949-2.55a2.817,2.817,0,0,0,2.462-1,5.332,5.332,0,0,0,.738-3.025v-.4a6.633,6.633,0,0,0-.687-3.338,2.725,2.725,0,0,0-2.563-1.162,2.47,2.47,0,0,0-2.213,1.188,6.165,6.165,0,0,0-.762,3.337,5.76,5.76,0,0,0,.775,3.275,2.563,2.563,0,0,0,2.25,1.125" transform="translate(89 602)" fill="#fff"/>
    <path id="패스_6071" data-name="패스 6071" d="M42.137,452.273a4.534,4.534,0,0,1-1.726,3.75,7.463,7.463,0,0,1-4.774,1.375,11.323,11.323,0,0,1-5-1v-3a21.437,21.437,0,0,0,2.475.912,9.325,9.325,0,0,0,2.75.413,3.634,3.634,0,0,0,2.35-.625,2.159,2.159,0,0,0-.2-3.425,16.706,16.706,0,0,0-2.775-1.425,14.1,14.1,0,0,1-2.1-1.125,5.546,5.546,0,0,1-1.65-1.65,4.59,4.59,0,0,1-.65-2.55,4.335,4.335,0,0,1,1.612-3.588,6.72,6.72,0,0,1,4.313-1.287,11.276,11.276,0,0,1,2.662.3,14.93,14.93,0,0,1,2.487.85l-1.024,2.575a17.149,17.149,0,0,0-2.138-.75,7.9,7.9,0,0,0-2.088-.275,2.929,2.929,0,0,0-1.974.587,1.916,1.916,0,0,0-.675,1.513,2.024,2.024,0,0,0,.375,1.25,3.515,3.515,0,0,0,1.162.925q.789.424,2.038.975a16.626,16.626,0,0,1,2.449,1.3,4.366,4.366,0,0,1,2.1,3.975" transform="translate(89 602)" fill="#fff"/>
    <path id="패스_6072" data-name="패스 6072" d="M52.337,443.348a4.708,4.708,0,0,1,3.825,1.763,10.116,10.116,0,0,1-.038,10.5,4.791,4.791,0,0,1-3.862,1.787,4.714,4.714,0,0,1-2.425-.55,5.053,5.053,0,0,1-1.475-1.275h-.2c.05.317.1.663.137,1.038a9.372,9.372,0,0,1,.063,1.037v5.5h-3.15V443.6h2.55l.45,1.8h.15a4.8,4.8,0,0,1,1.5-1.45,4.574,4.574,0,0,1,2.475-.6m-.9,2.55a2.66,2.66,0,0,0-2.362,1,5.49,5.49,0,0,0-.713,3.025v.4a6.834,6.834,0,0,0,.663,3.338,2.585,2.585,0,0,0,2.462,1.162,2.364,2.364,0,0,0,2.187-1.212,6.532,6.532,0,0,0,.713-3.313,6.177,6.177,0,0,0-.713-3.25,2.44,2.44,0,0,0-2.237-1.15" transform="translate(89 602)" fill="#fff"/>
    <path id="패스_6073" data-name="패스 6073" d="M66.311,443.349a5.752,5.752,0,0,1,4.312,1.625,6.2,6.2,0,0,1,1.588,4.524v1.6h-8.95a4.123,4.123,0,0,0,1.026,2.862,3.569,3.569,0,0,0,2.7,1.013,9.7,9.7,0,0,0,2.349-.263,12.552,12.552,0,0,0,2.151-.763v2.526a9.293,9.293,0,0,1-2.075.7,12.834,12.834,0,0,1-2.576.225,7.794,7.794,0,0,1-3.512-.763,5.483,5.483,0,0,1-2.4-2.313,7.826,7.826,0,0,1-.863-3.849,7.428,7.428,0,0,1,1.726-5.3,5.935,5.935,0,0,1,4.524-1.825m0,2.325a2.748,2.748,0,0,0-2.063.812,3.787,3.787,0,0,0-.912,2.413h5.826a3.862,3.862,0,0,0-.713-2.313,2.5,2.5,0,0,0-2.138-.912" transform="translate(89 602)" fill="#fff"/>
    <path id="패스_6074" data-name="패스 6074" d="M80.787,443.349a6.044,6.044,0,0,1,3.987,1.149,4.392,4.392,0,0,1,1.363,3.551v9.1H83.912l-.625-1.875h-.1a5.962,5.962,0,0,1-1.85,1.612,5.736,5.736,0,0,1-2.65.513,4.49,4.49,0,0,1-3.025-1.026,3.947,3.947,0,0,1-1.2-3.175A3.557,3.557,0,0,1,76,450.049a9,9,0,0,1,4.662-1.176l2.35-.074v-.676a2.368,2.368,0,0,0-.625-1.837,2.525,2.525,0,0,0-1.75-.562,6.375,6.375,0,0,0-1.963.3q-.937.3-1.862.7l-1-2.2a10.377,10.377,0,0,1,2.287-.85,10.928,10.928,0,0,1,2.688-.325m.575,7.45a5.079,5.079,0,0,0-2.875.712,2.078,2.078,0,0,0-.8,1.713,1.611,1.611,0,0,0,.563,1.388,2.463,2.463,0,0,0,1.487.412,3.53,3.53,0,0,0,2.325-.787,2.865,2.865,0,0,0,.95-2.338v-1.151Z" transform="translate(89 602)" fill="#fff"/>
    <path id="패스_6075" data-name="패스 6075" d="M93.211,447.174c0,.434-.018.892-.051,1.375s-.066.941-.1,1.375h.075q.3-.452.75-1.025t.849-1.026l4-4.274h3.576l-5.425,5.849,5.774,7.7H98.985l-4.2-5.8-1.574,1.3v4.5H90.086v-19h3.125Z" transform="translate(89 602)" fill="#fff"/>
    <path id="패스_6076" data-name="패스 6076" d="M110.236,443.349a5.752,5.752,0,0,1,4.312,1.625,6.2,6.2,0,0,1,1.588,4.524v1.6h-8.95a4.123,4.123,0,0,0,1.026,2.862,3.569,3.569,0,0,0,2.7,1.013,9.7,9.7,0,0,0,2.349-.263,12.552,12.552,0,0,0,2.151-.763v2.526a9.293,9.293,0,0,1-2.075.7,12.834,12.834,0,0,1-2.576.225,7.794,7.794,0,0,1-3.512-.763,5.483,5.483,0,0,1-2.4-2.313,7.826,7.826,0,0,1-.863-3.849,7.428,7.428,0,0,1,1.726-5.3,5.935,5.935,0,0,1,4.524-1.825m0,2.325a2.748,2.748,0,0,0-2.063.812,3.788,3.788,0,0,0-.912,2.413h5.826a3.862,3.862,0,0,0-.713-2.313,2.5,2.5,0,0,0-2.138-.912" transform="translate(89 602)" fill="#fff"/>
    <path id="패스_6077" data-name="패스 6077" d="M126.411,443.348c.217,0,.454.009.713.024a3.482,3.482,0,0,1,.662.1l-.275,2.925c-.166-.033-.367-.063-.6-.088a6.189,6.189,0,0,0-.625-.037,4.354,4.354,0,0,0-1.875.412A3.289,3.289,0,0,0,123,447.96a4.014,4.014,0,0,0-.538,2.162v7.026h-3.15V443.6h2.425l.45,2.35h.15a5.678,5.678,0,0,1,1.65-1.837,4.014,4.014,0,0,1,2.425-.763" transform="translate(89 602)" fill="#fff"/>
    <path id="패스_6092" data-name="패스 6092" d="M69.315,315.187A9.585,9.585,0,1,0,78.9,305.6a9.585,9.585,0,0,0-9.585,9.584" transform="translate(89 602)" fill="#592583"/>
    <path id="패스_6093" data-name="패스 6093" d="M129.123,345.748h-12.3v-9.8l2.793,1.58a1.944,1.944,0,0,0,1.915-3.383l-12.767-7.224.147-.26a2.334,2.334,0,0,0-.881-3.181l-3.74-2.115a2.331,2.331,0,0,0-3.179.882l-2.208,3.9a2.333,2.333,0,0,0,.882,3.179l3.739,2.115a2.332,2.332,0,0,0,3.179-.882l.148-.259,6.083,3.444v12H96.589l-.771-9.076a12.583,12.583,0,0,0-8.779-10.5.9.9,0,0,0-1.1.577l-4.725,13.514-1.084-8.833h.722a.791.791,0,0,0,.789-.791v-2.429a.788.788,0,0,0-.787-.787H76.893a.787.787,0,0,0-.787.788v2.428a.789.789,0,0,0,.787.791h.722l-1.084,8.833L71.808,326.75a.9.9,0,0,0-1.1-.577,12.581,12.581,0,0,0-8.777,10.5l-.772,9.078H44.812v-12L50.9,330.3l.148.259a2.332,2.332,0,0,0,3.179.882l3.739-2.116a2.332,2.332,0,0,0,.882-3.178l-2.208-3.9a2.333,2.333,0,0,0-3.179-.882l-3.742,2.115a2.338,2.338,0,0,0-.882,3.181l.148.26-12.765,7.224a1.944,1.944,0,0,0,.962,3.636,1.922,1.922,0,0,0,.953-.253l2.788-1.58v9.8h-12.3a2.191,2.191,0,0,0-2.191,2.192v3.64a2.19,2.19,0,0,0,2.189,2.19h100.5a2.192,2.192,0,0,0,2.192-2.192V347.94a2.192,2.192,0,0,0-2.192-2.192" transform="translate(89 602)" fill="#592583"/>
    <path id="패스_6094" data-name="패스 6094" d="M62.394,294.653h11.54l3.3,5.89a1.876,1.876,0,0,0,3.272,0l3.305-5.89h11.54a3.99,3.99,0,0,0,3.99-3.99V272.932a3.99,3.99,0,0,0-3.99-3.99H62.394a3.99,3.99,0,0,0-3.991,3.99v17.731a3.99,3.99,0,0,0,3.991,3.99m27.731-16.171a3.316,3.316,0,1,1-3.317,3.315,3.319,3.319,0,0,1,3.317-3.315m-11.251,0a3.316,3.316,0,1,1-3.315,3.315,3.321,3.321,0,0,1,3.315-3.315m-11.25,0a3.316,3.316,0,1,1-3.317,3.315,3.321,3.321,0,0,1,3.317-3.315" transform="translate(89 602)" fill="#29aae1"/>
  </g>
</svg>
