<svg xmlns="http://www.w3.org/2000/svg" width="151.354" height="183.637" viewBox="0 0 151.354 183.637">
  <g id="그룹_1837" data-name="그룹 1837" transform="translate(-511.197 -1089.684)">
    <path id="패스_5936" data-name="패스 5936" d="M573.551,563.361a75.677,75.677,0,1,1-75.677-75.677,75.677,75.677,0,0,1,75.677,75.677" transform="translate(89 602)" fill="#fff"/>
    <rect id="사각형_2046" data-name="사각형 2046" width="8.97" height="41.678" transform="translate(538.071 1136.39)" fill="#592583"/>
    <path id="패스_5975" data-name="패스 5975" d="M467.933,554.677l13.708-20.287H471.428l-13.7,20.3.2.274,12.26,21.38H480.4l-12.318-21.38Z" transform="translate(89 602)" fill="#592583"/>
    <path id="패스_5976" data-name="패스 5976" d="M482.56,554.964l-.148-.287,13.707-20.287H485.907l-13.7,20.3.2.274,12.25,21.364-17.178,25.635,10.6.027,16.536-25.306.251-.4Z" transform="translate(89 602)" fill="#592583"/>
    <path id="패스_5977" data-name="패스 5977" d="M497.07,554.964l-.148-.287,13.707-20.287H500.417l-13.7,20.3.2.274,12.251,21.364-17.2,25.643,10.618-.01,16.535-25.277.252-.4Z" transform="translate(89 602)" fill="#592583"/>
    <path id="패스_5978" data-name="패스 5978" d="M525.458,533.906a21.352,21.352,0,1,0,21.351,21.352,21.351,21.351,0,0,0-21.351-21.352m.577,34.174a12.823,12.823,0,1,1,12.824-12.823,12.823,12.823,0,0,1-12.824,12.823" transform="translate(89 602)" fill="#592583"/>
    <path id="패스_5979" data-name="패스 5979" d="M517.493,581.615h-1.757l-1.935-1.166-.223.134v1.032h-1.489v-3.172h1.489v1.343l2.069-1.343h1.492l-2.516,1.485Z" transform="translate(89 602)" fill="#592583"/>
    <path id="패스_5980" data-name="패스 5980" d="M521.266,580.952a1.362,1.362,0,0,1-.929.261.934.934,0,0,1-1.211-1.135V580a1.305,1.305,0,0,1,.239-.9,1.363,1.363,0,0,1,.972-.252q.8,0,1.006.282a1.471,1.471,0,0,1,.21.87v.083a1.126,1.126,0,0,1-.287.87m1.787-1a1.3,1.3,0,0,0-.677-1.118,3.7,3.7,0,0,0-2-.442,3.938,3.938,0,0,0-2.052.435,1.292,1.292,0,0,0-.7,1.125v.18a1.233,1.233,0,0,0,.751,1.136,5.111,5.111,0,0,0,3.931,0,1.239,1.239,0,0,0,.746-1.144Z" transform="translate(89 602)" fill="#592583"/>
    <path id="패스_5981" data-name="패스 5981" d="M526.61,579.644a2.2,2.2,0,0,1-.759.093h-.4V578.9h.487a1.973,1.973,0,0,1,.676.088.306.306,0,0,1,.228.3v.089c0,.123-.076.215-.228.277m1.483.778a2.038,2.038,0,0,0-1.172-.494,2.906,2.906,0,0,0,1.045-.193c.232-.109.348-.253.348-.435v-.171c0-.193-.133-.356-.4-.487a3.279,3.279,0,0,0-1.349-.2H523.96v3.171h1.487v-1.427h.35a1.136,1.136,0,0,1,.907.331,1.727,1.727,0,0,1,.3,1.1h1.476a1.609,1.609,0,0,0-.391-1.193" transform="translate(89 602)" fill="#592583"/>
    <path id="패스_5982" data-name="패스 5982" d="M533.658,581.615H529.45v-3.172h4.025v.477h-2.537v.853h1.975v.488h-1.975v.878h2.72Z" transform="translate(89 602)" fill="#592583"/>
    <path id="패스_5983" data-name="패스 5983" d="M535.937,580.4l.776-1.174.828,1.174Zm1.629-1.952h-1.394l-2.234,3.172h1.209l.5-.769h2.2l.493.769h1.521Z" transform="translate(89 602)" fill="#592583"/>
    <path id="패스_5984" data-name="패스 5984" d="M545.461,581.615h-.64l-3.312-1.992v1.992h-1.061v-3.172h.8l3.155,1.879v-1.879h1.061Z" transform="translate(89 602)" fill="#592583"/>
    <path id="패스_5985" data-name="패스 5985" d="M516.237,585.761q0,.5-.7.745a6.221,6.221,0,0,1-1.951.242q-.715,0-1.207-.041a7.445,7.445,0,0,1-.811-.106v-.536a5.754,5.754,0,0,0,.784.132,8.977,8.977,0,0,0,1.051.063,3.526,3.526,0,0,0,1-.1c.182-.064.274-.166.274-.307q0-.141-.2-.249a5.429,5.429,0,0,0-1.123-.284,4.074,4.074,0,0,1-1.142-.368.674.674,0,0,1-.4-.606q0-.366.652-.619a5.134,5.134,0,0,1,1.8-.253c.372,0,.706.015,1,.045s.506.056.626.077v.488c-.252-.033-.5-.061-.751-.086s-.515-.037-.8-.037a2.965,2.965,0,0,0-.861.09c-.175.06-.264.135-.264.225a.277.277,0,0,0,.2.257,7.422,7.422,0,0,0,1.16.253,3.862,3.862,0,0,1,1.276.4.68.68,0,0,1,.379.573" transform="translate(89 602)" fill="#592583"/>
    <path id="패스_5986" data-name="패스 5986" d="M520.459,586.036a1.362,1.362,0,0,1-.929.261,1.387,1.387,0,0,1-1-.243,1.373,1.373,0,0,1-.216-.892v-.079a1.311,1.311,0,0,1,.239-.9,1.365,1.365,0,0,1,.973-.252q.795,0,1,.283a1.458,1.458,0,0,1,.21.869v.083a1.13,1.13,0,0,1-.286.87m1.787-1a1.3,1.3,0,0,0-.678-1.118,3.691,3.691,0,0,0-2-.442,3.923,3.923,0,0,0-2.051.436,1.29,1.29,0,0,0-.7,1.124v.18a1.232,1.232,0,0,0,.751,1.136,5.111,5.111,0,0,0,3.931,0,1.239,1.239,0,0,0,.746-1.144Z" transform="translate(89 602)" fill="#592583"/>
    <path id="패스_5987" data-name="패스 5987" d="M527.372,586.614a3.449,3.449,0,0,1-.558.091,8.874,8.874,0,0,1-.936.043,5.17,5.17,0,0,1-2.185-.395,1.256,1.256,0,0,1-.847-1.165v-.127a1.3,1.3,0,0,1,.86-1.149,4.772,4.772,0,0,1,2.155-.433c.372,0,.682.012.931.034a3.971,3.971,0,0,1,.58.088v.488a4.106,4.106,0,0,0-.513-.085,6.877,6.877,0,0,0-.758-.037,2.268,2.268,0,0,0-1.263.3.952.952,0,0,0-.454.836v.044a.927.927,0,0,0,.423.84,2.138,2.138,0,0,0,1.159.271,6.807,6.807,0,0,0,.847-.045c.234-.03.421-.06.559-.089Z" transform="translate(89 602)" fill="#592583"/>
    <rect id="사각형_2047" data-name="사각형 2047" width="1.487" height="3.172" transform="translate(617.631 1185.527)" fill="#592583"/>
    <path id="패스_5988" data-name="패스 5988" d="M535.875,586.7h-4.208v-3.172h4.025V584h-2.537v.853h1.976v.488h-1.976v.878h2.72Z" transform="translate(89 602)" fill="#592583"/>
    <path id="패스_5989" data-name="패스 5989" d="M540.595,584h-1.44v2.7h-1.488V584h-1.476v-.476h4.4Z" transform="translate(89 602)" fill="#592583"/>
    <path id="패스_5990" data-name="패스 5990" d="M546.517,583.528l-2.2,1.832v1.34h-1.488v-1.274l-2.244-1.9h1.738l1.466,1.272,1.543-1.272Z" transform="translate(89 602)" fill="#592583"/>
    <path id="패스_5991" data-name="패스 5991" d="M516.115,589.088h-2.537v.854h1.975v.488h-1.975v1.354h-1.489v-3.172h4.026Z" transform="translate(89 602)" fill="#592583"/>
    <path id="패스_5992" data-name="패스 5992" d="M520.26,591.12a1.355,1.355,0,0,1-.927.261,1.387,1.387,0,0,1-1-.243,1.373,1.373,0,0,1-.216-.892v-.079a1.321,1.321,0,0,1,.238-.9,1.372,1.372,0,0,1,.974-.251q.793,0,1.005.283a1.458,1.458,0,0,1,.21.869v.083a1.123,1.123,0,0,1-.288.87m1.789-1a1.3,1.3,0,0,0-.678-1.118,3.693,3.693,0,0,0-2-.442,3.927,3.927,0,0,0-2.052.436,1.29,1.29,0,0,0-.7,1.124v.18a1.233,1.233,0,0,0,.75,1.136,5.115,5.115,0,0,0,3.932,0,1.241,1.241,0,0,0,.746-1.144Z" transform="translate(89 602)" fill="#592583"/>
    <path id="패스_5993" data-name="패스 5993" d="M525.6,589.812a2.2,2.2,0,0,1-.759.093h-.4v-.842h.487a1.991,1.991,0,0,1,.675.088.308.308,0,0,1,.229.3v.088c0,.123-.077.216-.229.277m1.483.778a2.038,2.038,0,0,0-1.171-.5,2.893,2.893,0,0,0,1.045-.192q.347-.164.347-.435V589.3q0-.289-.4-.488a3.3,3.3,0,0,0-1.349-.2h-2.608v3.171h1.489v-1.427h.349a1.139,1.139,0,0,1,.908.331,1.731,1.731,0,0,1,.3,1.1h1.476a1.608,1.608,0,0,0-.392-1.193" transform="translate(89 602)" fill="#592583"/>
    <path id="패스_5994" data-name="패스 5994" d="M536.468,589.088h-1.44v2.7H533.54v-2.7h-1.476v-.476h4.4Z" transform="translate(89 602)" fill="#592583"/>
    <path id="패스_5995" data-name="패스 5995" d="M541.828,591.783h-1.487v-1.366h-1.7v1.366h-1.489v-3.172h1.489v1.318h1.7v-1.318h1.487Z" transform="translate(89 602)" fill="#592583"/>
    <path id="패스_5996" data-name="패스 5996" d="M547.334,591.783h-4.208v-3.172h4.025v.476h-2.537v.854h1.975v.488h-1.975v.878h2.72Z" transform="translate(89 602)" fill="#592583"/>
    <path id="패스_5997" data-name="패스 5997" d="M516.237,595.929q0,.5-.7.745a6.221,6.221,0,0,1-1.951.242q-.715,0-1.207-.041a7.745,7.745,0,0,1-.811-.1v-.537a5.754,5.754,0,0,0,.784.132,8.977,8.977,0,0,0,1.051.063,3.529,3.529,0,0,0,1-.095c.182-.063.274-.165.274-.306,0-.095-.066-.178-.2-.25a5.507,5.507,0,0,0-1.123-.284,4.042,4.042,0,0,1-1.142-.368.673.673,0,0,1-.4-.6q0-.366.652-.619a5.13,5.13,0,0,1,1.8-.254c.372,0,.706.015,1,.045s.506.056.626.077v.488c-.252-.033-.5-.061-.751-.086s-.515-.036-.8-.036a2.932,2.932,0,0,0-.861.09c-.175.06-.264.134-.264.224a.278.278,0,0,0,.2.258,7.674,7.674,0,0,0,1.16.253,3.813,3.813,0,0,1,1.276.4.677.677,0,0,1,.379.572" transform="translate(89 602)" fill="#592583"/>
    <path id="패스_5998" data-name="패스 5998" d="M520.965,594.172h-1.439v2.7h-1.489v-2.7h-1.475V593.7h4.4Z" transform="translate(89 602)" fill="#592583"/>
    <path id="패스_5999" data-name="패스 5999" d="M526.4,595.96q0,.45-.576.7a6.5,6.5,0,0,1-3.65-.017.866.866,0,0,1-.567-.809V593.7h1.487v2.229a.414.414,0,0,0,.246.388,1.99,1.99,0,0,0,.848.128,2.266,2.266,0,0,0,.831-.115.416.416,0,0,0,.272-.414V593.7H526.4Z" transform="translate(89 602)" fill="#592583"/>
    <path id="패스_6000" data-name="패스 6000" d="M530.681,596.17a1.689,1.689,0,0,1-.958.222h-.685v-2.221h.558a1.724,1.724,0,0,1,1.028.274.92.92,0,0,1,.377.795v.087a.959.959,0,0,1-.32.843m1.821-.95a1.267,1.267,0,0,0-.643-1.116,4.157,4.157,0,0,0-2.134-.408h-2.176v3.171h2.426a3.811,3.811,0,0,0,1.889-.373,1.24,1.24,0,0,0,.638-1.147Z" transform="translate(89 602)" fill="#592583"/>
    <path id="패스_6001" data-name="패스 6001" d="M538.751,593.7l-2.2,1.832v1.339h-1.489v-1.273l-2.244-1.9h1.739l1.466,1.272,1.543-1.272Z" transform="translate(89 602)" fill="#592583"/>
    <path id="패스_6002" data-name="패스 6002" d="M546.7,596.2a1.362,1.362,0,0,1-.929.261.934.934,0,0,1-1.211-1.135v-.079a1.315,1.315,0,0,1,.238-.9,1.372,1.372,0,0,1,.973-.251q.793,0,1.006.282a1.471,1.471,0,0,1,.21.87v.083a1.13,1.13,0,0,1-.287.87m1.787-1a1.3,1.3,0,0,0-.678-1.118,3.689,3.689,0,0,0-2-.442,3.927,3.927,0,0,0-2.052.436,1.288,1.288,0,0,0-.7,1.124v.18a1.234,1.234,0,0,0,.75,1.136,5.114,5.114,0,0,0,3.932,0,1.239,1.239,0,0,0,.746-1.144Z" transform="translate(89 602)" fill="#592583"/>
    <path id="패스_6003" data-name="패스 6003" d="M553.412,594.172h-2.537v.854h1.976v.488h-1.976v1.354h-1.489V593.7h4.026Z" transform="translate(89 602)" fill="#592583"/>
    <path id="패스_6004" data-name="패스 6004" d="M515.388,601.289a1.356,1.356,0,0,1-.927.261,1.386,1.386,0,0,1-1-.244,1.368,1.368,0,0,1-.215-.891v-.079a1.312,1.312,0,0,1,.238-.9,1.368,1.368,0,0,1,.974-.252q.793,0,1.005.283a1.461,1.461,0,0,1,.21.87v.083a1.124,1.124,0,0,1-.288.87m1.789-1a1.305,1.305,0,0,0-.678-1.119,3.7,3.7,0,0,0-2-.441,3.928,3.928,0,0,0-2.052.435,1.292,1.292,0,0,0-.7,1.125v.18a1.233,1.233,0,0,0,.75,1.136,5.114,5.114,0,0,0,3.932,0,1.242,1.242,0,0,0,.746-1.145Z" transform="translate(89 602)" fill="#592583"/>
    <path id="패스_6005" data-name="패스 6005" d="M520.7,599.844a1.594,1.594,0,0,1-.651.1h-.525v-.708h.516a1.824,1.824,0,0,1,.637.085.274.274,0,0,1,.023.528m1.627.478a2.666,2.666,0,0,0-1.1-.276,1.99,1.99,0,0,0,.8-.2.469.469,0,0,0,.261-.422q0-.3-.424-.473a4.282,4.282,0,0,0-1.431-.169h-2.353v3.171h2.308a4.634,4.634,0,0,0,1.736-.261q.627-.261.628-.744a.7.7,0,0,0-.429-.624m-1.315,1.027a1.961,1.961,0,0,1-.9.152h-.585v-1.135h.506a2.276,2.276,0,0,1,.957.147.444.444,0,0,1,.293.4.476.476,0,0,1-.268.436" transform="translate(89 602)" fill="#592583"/>
    <path id="패스_6006" data-name="패스 6006" d="M527.987,601.952h-4.208v-3.171H527.8v.476h-2.537v.853h1.975v.488h-1.975v.878h2.72Z" transform="translate(89 602)" fill="#592583"/>
    <path id="패스_6007" data-name="패스 6007" d="M533.048,601.014c0,.335-.233.583-.7.744A6.188,6.188,0,0,1,530.4,602q-.715,0-1.207-.041a7.484,7.484,0,0,1-.812-.106v-.536a5.806,5.806,0,0,0,.785.132,8.988,8.988,0,0,0,1.051.063,3.53,3.53,0,0,0,1-.095c.182-.063.274-.166.274-.307q0-.141-.2-.249a5.427,5.427,0,0,0-1.123-.284,4.057,4.057,0,0,1-1.141-.368.673.673,0,0,1-.4-.606q0-.364.652-.619a5.137,5.137,0,0,1,1.8-.253c.372,0,.707.015,1,.045s.507.056.627.077v.488c-.252-.033-.5-.061-.751-.086s-.515-.036-.8-.036a2.973,2.973,0,0,0-.861.089c-.175.06-.264.135-.264.224a.277.277,0,0,0,.2.258,7.5,7.5,0,0,0,1.159.254,3.8,3.8,0,0,1,1.276.4.679.679,0,0,1,.38.573" transform="translate(89 602)" fill="#592583"/>
    <rect id="사각형_2048" data-name="사각형 2048" width="1.487" height="3.171" transform="translate(623.229 1200.781)" fill="#592583"/>
    <path id="패스_6008" data-name="패스 6008" d="M541.068,599.256h-1.439v2.695H538.14v-2.695h-1.475v-.476h4.4Z" transform="translate(89 602)" fill="#592583"/>
    <path id="패스_6009" data-name="패스 6009" d="M546.99,598.781l-2.2,1.832v1.339h-1.489v-1.274l-2.244-1.9H542.8l1.467,1.272,1.543-1.272Z" transform="translate(89 602)" fill="#592583"/>
    <path id="패스_6060" data-name="패스 6060" d="M482.338,671.071h-3.675l-5.3-7.9-1.674,1.325v6.575h-3.2v-17.85h3.2v8.4q.5-.624,1.024-1.275t1.05-1.3l4.825-5.825h3.625l-6.55,7.85Z" transform="translate(89 602)" fill="#fff"/>
    <path id="패스_6061" data-name="패스 6061" d="M495.038,666.2a4.534,4.534,0,0,1-1.726,3.75,7.463,7.463,0,0,1-4.774,1.375,11.323,11.323,0,0,1-5-1v-3a21.426,21.426,0,0,0,2.475.912,9.325,9.325,0,0,0,2.75.413,3.634,3.634,0,0,0,2.35-.625,2.159,2.159,0,0,0-.2-3.425,16.7,16.7,0,0,0-2.775-1.425,14.109,14.109,0,0,1-2.1-1.125,5.548,5.548,0,0,1-1.65-1.65,4.59,4.59,0,0,1-.65-2.55,4.335,4.335,0,0,1,1.612-3.588,6.72,6.72,0,0,1,4.313-1.287,11.274,11.274,0,0,1,2.662.3,14.933,14.933,0,0,1,2.487.85l-1.024,2.575a17.158,17.158,0,0,0-2.138-.75,7.9,7.9,0,0,0-2.088-.275,2.929,2.929,0,0,0-1.974.587,1.916,1.916,0,0,0-.675,1.513,2.024,2.024,0,0,0,.375,1.25,3.515,3.515,0,0,0,1.162.925q.789.425,2.038.975a16.623,16.623,0,0,1,2.449,1.3,4.366,4.366,0,0,1,2.1,3.975" transform="translate(89 602)" fill="#fff"/>
    <path id="패스_6062" data-name="패스 6062" d="M508.788,666.2a4.534,4.534,0,0,1-1.726,3.75,7.463,7.463,0,0,1-4.774,1.375,11.323,11.323,0,0,1-5-1v-3a21.426,21.426,0,0,0,2.475.912,9.325,9.325,0,0,0,2.75.413,3.634,3.634,0,0,0,2.35-.625,2.159,2.159,0,0,0-.2-3.425,16.7,16.7,0,0,0-2.775-1.425,14.109,14.109,0,0,1-2.1-1.125,5.548,5.548,0,0,1-1.65-1.65,4.59,4.59,0,0,1-.65-2.55,4.335,4.335,0,0,1,1.612-3.588,6.72,6.72,0,0,1,4.313-1.287,11.274,11.274,0,0,1,2.662.3,14.933,14.933,0,0,1,2.487.85l-1.024,2.575a17.158,17.158,0,0,0-2.138-.75,7.9,7.9,0,0,0-2.088-.275,2.929,2.929,0,0,0-1.974.587,1.916,1.916,0,0,0-.675,1.513,2.024,2.024,0,0,0,.375,1.25,3.515,3.515,0,0,0,1.162.925q.789.425,2.038.975a16.623,16.623,0,0,1,2.449,1.3,4.366,4.366,0,0,1,2.1,3.975" transform="translate(89 602)" fill="#fff"/>
    <path id="패스_6063" data-name="패스 6063" d="M528.113,662.121a11.9,11.9,0,0,1-.913,4.838,6.99,6.99,0,0,1-2.787,3.212,10.208,10.208,0,0,1-9.414,0,7,7,0,0,1-2.774-3.225,11.966,11.966,0,0,1-.913-4.849,11.812,11.812,0,0,1,.913-4.813,6.945,6.945,0,0,1,2.774-3.2,8.962,8.962,0,0,1,4.739-1.138,8.848,8.848,0,0,1,4.686,1.138,6.949,6.949,0,0,1,2.776,3.2,11.893,11.893,0,0,1,.913,4.837m-13.426,0a8.205,8.205,0,0,0,1.2,4.75,5.115,5.115,0,0,0,7.662,0,10.132,10.132,0,0,0,.013-9.5,4.294,4.294,0,0,0-3.824-1.725,4.367,4.367,0,0,0-3.838,1.725,8.138,8.138,0,0,0-1.213,4.75" transform="translate(89 602)" fill="#fff"/>
  </g>
</svg>
