<svg xmlns="http://www.w3.org/2000/svg" width="151.354" height="189.857" viewBox="0 0 151.354 189.857">
  <g id="그룹_1830" data-name="그룹 1830" transform="translate(-301.697 -602)">
    <path id="패스_5933" data-name="패스 5933" d="M364.051,75.677A75.677,75.677,0,1,1,288.374,0a75.677,75.677,0,0,1,75.677,75.677" transform="translate(89 602)" fill="#fff"/>
    <path id="패스_5939" data-name="패스 5939" d="M256,104.246a3.311,3.311,0,0,1-3.295-3.3V58.725H317v25.05a25.222,25.222,0,0,1,7.417,2.953V47.6a10.1,10.1,0,0,0-10.073-10.076h-2.176v4.262a8.3,8.3,0,0,1-8.266,8.288h-5.084a8.3,8.3,0,0,1-8.266-8.288V37.519h-11.4v4.262a8.3,8.3,0,0,1-8.291,8.288H265.8a8.3,8.3,0,0,1-8.267-8.288V37.519H256a10.728,10.728,0,0,0-10.716,10.7v52.731A10.731,10.731,0,0,0,256,111.665h29.1a19.043,19.043,0,0,1-.115-2.314,25.169,25.169,0,0,1,.5-5.1Z" transform="translate(89 602)" fill="#592583"/>
    <rect id="사각형_2043" data-name="사각형 2043" width="12.791" height="8.183" rx="1.273" transform="translate(348.356 666.787)" fill="#592583"/>
    <path id="패스_5940" data-name="패스 5940" d="M270.875,90H260.63a1.274,1.274,0,0,0-1.273,1.275v5.636a1.273,1.273,0,0,0,1.273,1.273h10.245a1.273,1.273,0,0,0,1.273-1.273V91.27A1.274,1.274,0,0,0,270.875,90" transform="translate(89 602)" fill="#592583"/>
    <path id="패스_5941" data-name="패스 5941" d="M298.826,72.97H309.07a1.272,1.272,0,0,0,1.274-1.273V66.06a1.274,1.274,0,0,0-1.274-1.273H298.826a1.274,1.274,0,0,0-1.273,1.273V71.7a1.272,1.272,0,0,0,1.273,1.273" transform="translate(89 602)" fill="#592583"/>
    <path id="사각형_2044" data-name="사각형 2044" d="M1.273,0H11.518a1.273,1.273,0,0,1,1.273,1.273V6.91a1.273,1.273,0,0,1-1.273,1.273H1.274A1.274,1.274,0,0,1,0,6.909V1.273A1.273,1.273,0,0,1,1.273,0Z" transform="translate(367.455 666.787)" fill="#592583"/>
    <path id="패스_5942" data-name="패스 5942" d="M291.237,91.263A1.255,1.255,0,0,0,289.976,90H279.719a1.27,1.27,0,0,0-1.259,1.259v5.654a1.27,1.27,0,0,0,1.259,1.259h7.761a24.968,24.968,0,0,1,3.757-5.792Z" transform="translate(89 602)" fill="#592583"/>
    <rect id="사각형_2045" data-name="사각형 2045" width="12.791" height="8.183" rx="1.273" transform="translate(348.356 679.392)" fill="#592583"/>
    <path id="패스_5943" data-name="패스 5943" d="M298.815,85.583h1.329a25.816,25.816,0,0,1,10.212-2.425V78.67a1.281,1.281,0,0,0-1.282-1.285H298.815a1.276,1.276,0,0,0-1.259,1.285V84.3a1.275,1.275,0,0,0,1.259,1.282" transform="translate(89 602)" fill="#592583"/>
    <path id="패스_5944" data-name="패스 5944" d="M289.971,77.393H279.727a1.272,1.272,0,0,0-1.272,1.273V84.3a1.274,1.274,0,0,0,1.272,1.273h10.244a1.274,1.274,0,0,0,1.274-1.273V78.666a1.272,1.272,0,0,0-1.274-1.273" transform="translate(89 602)" fill="#592583"/>
    <path id="패스_5945" data-name="패스 5945" d="M265.8,44.452h5.074a2.673,2.673,0,0,0,2.673-2.673V31.426a2.673,2.673,0,0,0-2.673-2.673H265.8a2.675,2.675,0,0,0-2.675,2.673V41.779a2.675,2.675,0,0,0,2.675,2.673" transform="translate(89 602)" fill="#592583"/>
    <path id="패스_5946" data-name="패스 5946" d="M298.824,44.452H303.9a2.673,2.673,0,0,0,2.673-2.673V31.426a2.673,2.673,0,0,0-2.673-2.673h-5.074a2.673,2.673,0,0,0-2.673,2.673V41.779a2.673,2.673,0,0,0,2.673,2.673" transform="translate(89 602)" fill="#592583"/>
    <path id="패스_5947" data-name="패스 5947" d="M311.207,89.084a20.258,20.258,0,1,0,20.261,20.259,20.257,20.257,0,0,0-20.261-20.259m8.279,23.235h-8.279a2.977,2.977,0,0,1-2.976-2.976V98.1a2.977,2.977,0,1,1,5.953,0v8.269h5.3a2.977,2.977,0,0,1,0,5.953" transform="translate(89 602)" fill="#29aae1"/>
    <path id="패스_6020" data-name="패스 6020" d="M242.412,166.007q3.476,0,5.063,1.449a5.152,5.152,0,0,1,1.587,4,6.47,6.47,0,0,1-.65,2.863,4.832,4.832,0,0,1-2.187,2.149,8.967,8.967,0,0,1-4.163.813h-1.775v6.575h-3.2V166.007Zm-.2,2.649h-1.925v5.976h1.449a5.392,5.392,0,0,0,3.013-.713,2.608,2.608,0,0,0,1.063-2.338,2.692,2.692,0,0,0-.875-2.2,4.223,4.223,0,0,0-2.725-.726" transform="translate(89 602)" fill="#fff"/>
    <path id="패스_6021" data-name="패스 6021" d="M259.361,170.057c.217,0,.454.009.713.024a3.481,3.481,0,0,1,.662.1l-.275,2.925c-.166-.033-.367-.063-.6-.088a6.184,6.184,0,0,0-.625-.037,4.354,4.354,0,0,0-1.875.412,3.289,3.289,0,0,0-1.412,1.275,4.014,4.014,0,0,0-.538,2.162v7.026h-3.15v-13.55h2.425l.45,2.35h.15a5.678,5.678,0,0,1,1.65-1.837,4.014,4.014,0,0,1,2.425-.763" transform="translate(89 602)" fill="#fff"/>
    <path id="패스_6022" data-name="패스 6022" d="M275.336,177.057a7.263,7.263,0,0,1-1.75,5.212,6.249,6.249,0,0,1-4.75,1.838,6.561,6.561,0,0,1-3.3-.825,5.751,5.751,0,0,1-2.275-2.4,8.16,8.16,0,0,1-.826-3.825,7.2,7.2,0,0,1,1.739-5.187,6.249,6.249,0,0,1,4.737-1.813,6.683,6.683,0,0,1,3.325.813,5.7,5.7,0,0,1,2.275,2.374,8.1,8.1,0,0,1,.825,3.813m-9.675,0a6.089,6.089,0,0,0,.763,3.325,3.167,3.167,0,0,0,4.924,0,6.1,6.1,0,0,0,.763-3.325,5.968,5.968,0,0,0-.763-3.3,2.763,2.763,0,0,0-2.487-1.15,2.711,2.711,0,0,0-2.437,1.15,5.959,5.959,0,0,0-.763,3.3" transform="translate(89 602)" fill="#fff"/>
    <path id="패스_6023" data-name="패스 6023" d="M283.137,170.057a4.693,4.693,0,0,1,4.024,2h.125l.3-1.75h2.625v13.649a5.674,5.674,0,0,1-1.638,4.4,7.016,7.016,0,0,1-4.887,1.5,17.717,17.717,0,0,1-2.675-.188,10.166,10.166,0,0,1-2.325-.638v-2.6a12.49,12.49,0,0,0,5.2,1.05,3.087,3.087,0,0,0,2.362-.863,3.535,3.535,0,0,0,.813-2.512v-.35c0-.25.007-.542.025-.875a7.26,7.26,0,0,1,.074-.8h-.1a4.294,4.294,0,0,1-1.713,1.538,5.194,5.194,0,0,1-2.287.488,4.587,4.587,0,0,1-3.875-1.85,10.175,10.175,0,0,1,.012-10.325,4.65,4.65,0,0,1,3.938-1.875m.825,2.575q-2.951,0-2.95,4.524,0,4.45,3,4.451a3.05,3.05,0,0,0,2.437-.912,4.743,4.743,0,0,0,.787-3.088v-.475a5.848,5.848,0,0,0-.787-3.45,2.906,2.906,0,0,0-2.487-1.05" transform="translate(89 602)" fill="#fff"/>
    <path id="패스_6024" data-name="패스 6024" d="M301.336,170.057c.217,0,.454.009.713.024a3.481,3.481,0,0,1,.662.1l-.275,2.925c-.166-.033-.367-.063-.6-.088a6.185,6.185,0,0,0-.625-.037,4.354,4.354,0,0,0-1.875.412,3.289,3.289,0,0,0-1.412,1.275,4.014,4.014,0,0,0-.538,2.162v7.026h-3.15v-13.55h2.425l.45,2.35h.15a5.678,5.678,0,0,1,1.65-1.837,4.014,4.014,0,0,1,2.425-.763" transform="translate(89 602)" fill="#fff"/>
    <path id="패스_6025" data-name="패스 6025" d="M310.61,170.057a6.044,6.044,0,0,1,3.987,1.149,4.392,4.392,0,0,1,1.363,3.551v9.1h-2.225l-.625-1.875h-.1a5.962,5.962,0,0,1-1.85,1.612,5.736,5.736,0,0,1-2.65.513,4.491,4.491,0,0,1-3.025-1.026,3.947,3.947,0,0,1-1.2-3.175,3.557,3.557,0,0,1,1.538-3.149,9,9,0,0,1,4.662-1.176l2.35-.074v-.676a2.368,2.368,0,0,0-.625-1.837,2.525,2.525,0,0,0-1.75-.562,6.375,6.375,0,0,0-1.963.3q-.937.3-1.862.7l-1-2.2a10.377,10.377,0,0,1,2.287-.85,10.928,10.928,0,0,1,2.688-.325m.575,7.45a5.079,5.079,0,0,0-2.875.712,2.078,2.078,0,0,0-.8,1.713,1.611,1.611,0,0,0,.563,1.388,2.463,2.463,0,0,0,1.487.412,3.53,3.53,0,0,0,2.325-.787,2.865,2.865,0,0,0,.95-2.338v-1.151Z" transform="translate(89 602)" fill="#fff"/>
    <path id="패스_6026" data-name="패스 6026" d="M335.435,170.057a4.672,4.672,0,0,1,3.463,1.175,5.254,5.254,0,0,1,1.162,3.8v8.825h-3.149v-8.225q0-3.024-2.3-3.025a2.59,2.59,0,0,0-2.35,1.075,5.748,5.748,0,0,0-.7,3.125v7.05h-3.149v-8.225q0-3.024-2.326-3.025a2.458,2.458,0,0,0-2.375,1.2,7.315,7.315,0,0,0-.65,3.425v6.625h-3.149v-13.55h2.424l.451,1.774h.174a3.6,3.6,0,0,1,1.688-1.537,5.465,5.465,0,0,1,2.263-.487,5.753,5.753,0,0,1,2.562.513,3.484,3.484,0,0,1,1.587,1.587h.25a3.7,3.7,0,0,1,1.75-1.6,5.789,5.789,0,0,1,2.375-.5" transform="translate(89 602)" fill="#fff"/>
  </g>
</svg>
