<svg xmlns="http://www.w3.org/2000/svg" width="151.354" height="183.802" viewBox="0 0 151.354 183.802">
  <g id="그룹_1836" data-name="그룹 1836" transform="translate(-301.697 -1089.684)">
    <path id="패스_5937" data-name="패스 5937" d="M364.051,563.361a75.677,75.677,0,1,1-75.677-75.677,75.677,75.677,0,0,1,75.677,75.677" transform="translate(89 602)" fill="#fff"/>
    <path id="패스_6047" data-name="패스 6047" d="M266.1,671.236h-3.975l-8.45-14h-.1q.075,1.125.137,2.412t.088,2.588v9h-2.875v-17.85h3.95l8.425,13.9h.075q-.051-1-.1-2.3t-.075-2.525v-9.075h2.9Z" transform="translate(89 602)" fill="#fff"/>
    <path id="패스_6048" data-name="패스 6048" d="M282.55,664.436a7.263,7.263,0,0,1-1.75,5.212,6.249,6.249,0,0,1-4.75,1.838,6.561,6.561,0,0,1-3.3-.825,5.751,5.751,0,0,1-2.275-2.4,8.16,8.16,0,0,1-.826-3.825,7.2,7.2,0,0,1,1.739-5.187,6.249,6.249,0,0,1,4.737-1.813,6.683,6.683,0,0,1,3.325.813,5.7,5.7,0,0,1,2.275,2.374,8.1,8.1,0,0,1,.825,3.813m-9.675,0a6.089,6.089,0,0,0,.763,3.325,3.167,3.167,0,0,0,4.924,0,6.1,6.1,0,0,0,.763-3.325,5.968,5.968,0,0,0-.763-3.3,2.763,2.763,0,0,0-2.487-1.15,2.711,2.711,0,0,0-2.437,1.15,5.96,5.96,0,0,0-.763,3.3" transform="translate(89 602)" fill="#fff"/>
    <path id="패스_6049" data-name="패스 6049" d="M291.05,668.961a5.782,5.782,0,0,0,1.137-.112,9.744,9.744,0,0,0,1.038-.263v2.351a6.338,6.338,0,0,1-1.3.387,8.431,8.431,0,0,1-1.676.162,5.509,5.509,0,0,1-2.1-.387,3.022,3.022,0,0,1-1.5-1.337,5.309,5.309,0,0,1-.55-2.651v-7.049h-1.825v-1.375l2-1.1,1-2.875h1.974v2.976H293.1v2.375h-3.851v7.024a1.674,1.674,0,0,0,1.8,1.875" transform="translate(89 602)" fill="#fff"/>
    <path id="패스_6050" data-name="패스 6050" d="M297.524,652.461a2.09,2.09,0,0,1,1.239.363,1.471,1.471,0,0,1,.511,1.287,1.507,1.507,0,0,1-.511,1.3,2.231,2.231,0,0,1-2.476,0,1.506,1.506,0,0,1-.513-1.3,1.469,1.469,0,0,1,.513-1.287,2.085,2.085,0,0,1,1.237-.363m1.576,18.775h-3.149v-13.55H299.1Z" transform="translate(89 602)" fill="#fff"/>
    <path id="패스_6051" data-name="패스 6051" d="M308.6,671.486a6.219,6.219,0,0,1-4.6-1.675q-1.676-1.674-1.675-5.275a8.577,8.577,0,0,1,.838-4.063,5.278,5.278,0,0,1,2.312-2.3,7.454,7.454,0,0,1,3.375-.737,9.4,9.4,0,0,1,2.275.25,8.359,8.359,0,0,1,1.7.6l-.925,2.475a15.858,15.858,0,0,0-1.55-.512,5.654,5.654,0,0,0-1.5-.213q-3.3,0-3.3,4.475a5.364,5.364,0,0,0,.837,3.275,2.852,2.852,0,0,0,2.413,1.1,6.653,6.653,0,0,0,2-.275,8,8,0,0,0,1.675-.75v2.725a6.46,6.46,0,0,1-1.662.675,9.185,9.185,0,0,1-2.213.225" transform="translate(89 602)" fill="#fff"/>
    <path id="패스_6052" data-name="패스 6052" d="M321.1,657.436a5.753,5.753,0,0,1,4.312,1.625A6.2,6.2,0,0,1,327,663.585v1.6h-8.95a4.123,4.123,0,0,0,1.026,2.862,3.569,3.569,0,0,0,2.7,1.013,9.693,9.693,0,0,0,2.349-.263,12.548,12.548,0,0,0,2.151-.763v2.526a9.288,9.288,0,0,1-2.075.7,12.834,12.834,0,0,1-2.576.225,7.8,7.8,0,0,1-3.512-.763,5.483,5.483,0,0,1-2.4-2.313,7.826,7.826,0,0,1-.863-3.849,7.428,7.428,0,0,1,1.726-5.3,5.935,5.935,0,0,1,4.524-1.825m0,2.325a2.747,2.747,0,0,0-2.063.812,3.787,3.787,0,0,0-.912,2.413h5.826a3.862,3.862,0,0,0-.713-2.313,2.5,2.5,0,0,0-2.138-.912" transform="translate(89 602)" fill="#fff"/>
    <path id="패스_6087" data-name="패스 6087" d="M314.746,587.3H262a4.2,4.2,0,0,1-2.308-7.714,8.2,8.2,0,0,0,3.57-4.4c.348-1.363,1.392-5.953,2.453-19.51s10.2-22.555,22.657-22.555a22.518,22.518,0,0,1,22.658,22.555c0,12.652,2.1,18.147,2.453,19.51a8.2,8.2,0,0,0,3.57,4.4,4.2,4.2,0,0,1-2.308,7.714" transform="translate(89 602)" fill="#592583"/>
    <path id="패스_6088" data-name="패스 6088" d="M298.378,591.142a10,10,0,0,1-20.008,0" transform="translate(89 602)" fill="#592583"/>
    <path id="패스_6089" data-name="패스 6089" d="M288.374,525.576a6.9,6.9,0,1,0,6.9,6.9,6.9,6.9,0,0,0-6.9-6.9" transform="translate(89 602)" fill="#592583"/>
    <path id="패스_6104" data-name="패스 6104" d="M315.637,519.318a16.8,16.8,0,1,0,16.8,16.8,16.8,16.8,0,0,0-16.8-16.8m7.925,14.216-8.415,8.414a2.3,2.3,0,0,1-3.253,0l-4.183-4.181a2.3,2.3,0,0,1,3.253-3.253l2.556,2.554,6.789-6.787a2.3,2.3,0,0,1,3.253,3.253" transform="translate(89 602)" fill="#29aae1"/>
  </g>
</svg>
