<svg id="그룹_1816" data-name="그룹 1816" xmlns="http://www.w3.org/2000/svg" xmlns:xlink="http://www.w3.org/1999/xlink" width="525.896" height="446.431" viewBox="0 0 525.896 446.431">
  <defs>
    <clipPath id="clip-path">
      <rect id="사각형_2123" data-name="사각형 2123" width="525.896" height="446.431" fill="none"/>
    </clipPath>
    <clipPath id="clip-path-2">
      <path id="패스_6963" data-name="패스 6963" d="M146.131,156.3a35.128,35.128,0,1,1,35.128,35.127A35.129,35.129,0,0,1,146.131,156.3m-23.475,0a58.6,58.6,0,1,0,58.6-58.6,58.6,58.6,0,0,0-58.6,58.6" fill="none"/>
    </clipPath>
    <clipPath id="clip-path-3">
      <path id="패스_7015" data-name="패스 7015" d="M202.31,128.172a35.13,35.13,0,0,1-42.1,56.248A29.324,29.324,0,0,1,122.656,156.3a58.6,58.6,0,0,0,117.206,0,29.327,29.327,0,0,0-37.552-28.124" fill="none"/>
    </clipPath>
  </defs>
  <g id="그룹_1809" data-name="그룹 1809">
    <g id="그룹_1808" data-name="그룹 1808" clip-path="url(#clip-path)">
      <path id="패스_6847" data-name="패스 6847" d="M66.014,350.021c-2.44,0-3.773,1.106-3.773,2.6-.066,1.725,1.659,2.472,3.643,2.927l2.082.522c3.936.845,6.864,2.863,6.9,6.7-.033,4.2-3.319,6.9-8.914,6.9-5.563,0-9.109-2.57-9.239-7.482h4.619c.2,2.309,2.018,3.447,4.555,3.447,2.5,0,4.131-1.138,4.164-2.863-.033-1.56-1.431-2.309-3.969-2.927l-2.472-.586c-3.9-.975-6.279-2.894-6.311-6.31,0-4.133,3.708-6.929,8.718-6.9,5.107-.031,8.458,2.8,8.523,6.9H69.918c-.13-1.856-1.594-2.928-3.9-2.928" fill="#ff0"/>
      <path id="패스_6848" data-name="패스 6848" d="M77.141,360.821c.033-5.335,3.318-8.947,8.393-8.979,4.49.032,8.068,2.895,8.068,8.783v1.3H81.825c0,2.6,1.53,4.229,3.969,4.229a3.341,3.341,0,0,0,3.189-1.692h4.489c-.683,3.156-3.514,5.205-7.743,5.205-5.335,0-8.555-3.415-8.588-8.848M89.178,359a3.525,3.525,0,0,0-3.579-3.644A3.711,3.711,0,0,0,81.825,359Z" fill="#ff0"/>
      <path id="패스_6849" data-name="패스 6849" d="M96.531,352.1h4.619v2.862h.261a5.106,5.106,0,0,1,4.88-3.123c3.838.033,7.026,2.993,7.026,8.914,0,5.758-3.058,8.881-7.026,8.848a5.024,5.024,0,0,1-4.88-2.992h-.2v9.174H96.531Zm8.263,13.793c2.407-.033,3.708-2.147,3.708-5.2,0-2.993-1.268-5.075-3.708-5.075-2.342,0-3.644,1.984-3.644,5.075,0,3.123,1.334,5.172,3.644,5.2" fill="#ff0"/>
      <path id="패스_6850" data-name="패스 6850" d="M116.441,366.937a2.566,2.566,0,0,1,2.668-2.6,2.635,2.635,0,1,1,0,5.27,2.58,2.58,0,0,1-2.668-2.667" fill="#ff0"/>
      <path id="패스_6851" data-name="패스 6851" d="M131.993,362.9h4.62c.1,1.757,1.756,2.993,3.773,2.993a4.1,4.1,0,0,0-.065-8.2,3.7,3.7,0,0,0-3.643,1.887h-4.294l1.235-13.273h14.12v3.969H137.524l-.586,5.79h.13a5.86,5.86,0,0,1,4.62-1.951,7.2,7.2,0,0,1,7.352,7.547c.032,4.684-3.514,8-8.654,8-4.814,0-8.328-2.83-8.393-6.767" fill="#ff0"/>
      <path id="패스_6852" data-name="패스 6852" d="M165.437,345.856h4.489c-2.342,2.994-4.132,8.915-4.164,14.249.032,5.335,1.822,11.256,4.164,14.249h-4.489a24.564,24.564,0,0,1,0-28.5" fill="#ff0"/>
      <path id="패스_6853" data-name="패스 6853" d="M171.749,346.312h18.8v3.969h-7.027v19.063h-4.749V350.281h-7.027Z" fill="#ff0"/>
      <path id="패스_6854" data-name="패스 6854" d="M198.1,369.344h-4.685V346.312h4.555V355.1h.26c.748-1.984,2.505-3.221,5.14-3.253,3.579.032,5.954,2.44,5.921,6.506v11h-4.685v-10.15c.033-2.147-1.138-3.416-3.123-3.448a3.316,3.316,0,0,0-3.383,3.578Z" fill="#ff0"/>
      <path id="패스_6855" data-name="패스 6855" d="M224,352.1h4.685v17.242h-4.49v-3.123H224a5.188,5.188,0,0,1-5.205,3.318c-3.481.032-5.823-2.407-5.856-6.441v-11h4.685v10.15c.033,2.049,1.2,3.318,3.058,3.318A3.266,3.266,0,0,0,224,361.993Z" fill="#ff0"/>
      <path id="패스_6856" data-name="패스 6856" d="M232.523,366.937a2.566,2.566,0,0,1,2.667-2.6,2.635,2.635,0,1,1,0,5.27,2.58,2.58,0,0,1-2.667-2.667" fill="#ff0"/>
      <path id="패스_6857" data-name="패스 6857" d="M245.016,374.354h-4.489c2.341-2.993,4.131-8.914,4.164-14.249-.033-5.335-1.823-11.256-4.164-14.249h4.489a24.569,24.569,0,0,1,0,28.5" fill="#ff0"/>
      <path id="패스_6858" data-name="패스 6858" d="M267.074,354.314c1.4-.031,2.57.488,4.229,1.953.846.747,1.333,1.171,2.147,1.171,1.041,0,1.822-.814,1.757-2.6h3.643c.163,4.228-1.886,6.538-4.815,6.505-1.5.033-2.667-.553-4.229-1.952-.976-.813-1.366-1.171-2.147-1.171-1.041,0-1.854.748-1.821,2.6h-3.579c-.163-4.229,1.789-6.537,4.815-6.506" fill="#ff0"/>
      <path id="패스_6859" data-name="패스 6859" d="M299.152,350.021c-2.44,0-3.773,1.106-3.773,2.6-.065,1.725,1.659,2.472,3.643,2.927l2.082.522c3.936.845,6.864,2.863,6.9,6.7-.033,4.2-3.318,6.9-8.914,6.9-5.563,0-9.109-2.57-9.239-7.482h4.619c.2,2.309,2.018,3.447,4.555,3.447,2.505,0,4.131-1.138,4.164-2.863-.033-1.56-1.431-2.309-3.969-2.927l-2.472-.586c-3.9-.975-6.279-2.894-6.311-6.31,0-4.133,3.708-6.929,8.718-6.9,5.107-.031,8.458,2.8,8.523,6.9h-4.619c-.13-1.856-1.594-2.928-3.9-2.928" fill="#ff0"/>
      <path id="패스_6860" data-name="패스 6860" d="M310.278,360.821c.033-5.335,3.319-8.947,8.393-8.979,4.49.032,8.069,2.895,8.069,8.783v1.3H314.963c0,2.6,1.529,4.229,3.969,4.229a3.338,3.338,0,0,0,3.188-1.692h4.489c-.683,3.156-3.513,5.205-7.742,5.205-5.335,0-8.556-3.415-8.589-8.848M322.315,359a3.524,3.524,0,0,0-3.578-3.644A3.71,3.71,0,0,0,314.963,359Z" fill="#ff0"/>
      <path id="패스_6861" data-name="패스 6861" d="M329.669,352.1h4.619v2.862h.261a5.106,5.106,0,0,1,4.879-3.123c3.839.033,7.028,2.993,7.028,8.914,0,5.758-3.059,8.881-7.028,8.848a5.025,5.025,0,0,1-4.879-2.992h-.2v9.174h-4.684Zm8.263,13.793c2.408-.033,3.709-2.147,3.709-5.2,0-2.993-1.269-5.075-3.709-5.075-2.342,0-3.644,1.984-3.644,5.075,0,3.123,1.334,5.172,3.644,5.2" fill="#ff0"/>
      <path id="패스_6862" data-name="패스 6862" d="M349.58,366.937a2.566,2.566,0,0,1,2.667-2.6,2.635,2.635,0,1,1,0,5.27,2.58,2.58,0,0,1-2.667-2.667" fill="#ff0"/>
      <path id="패스_6863" data-name="패스 6863" d="M375.606,350.411v-.13H364.35v-3.969h16.266v4.034l-9.76,19h-4.945Z" fill="#ff0"/>
      <path id="패스_6864" data-name="패스 6864" d="M396.884,345.856h4.489c-2.342,2.994-4.132,8.915-4.164,14.249.032,5.335,1.822,11.256,4.164,14.249h-4.489a24.564,24.564,0,0,1,0-28.5" fill="#ff0"/>
      <path id="패스_6865" data-name="패스 6865" d="M412.63,350.021c-2.44,0-3.773,1.106-3.773,2.6-.066,1.725,1.659,2.472,3.643,2.927l2.082.522c3.936.845,6.864,2.863,6.9,6.7-.033,4.2-3.319,6.9-8.914,6.9-5.563,0-9.109-2.57-9.239-7.482h4.619c.2,2.309,2.018,3.447,4.555,3.447,2.505,0,4.131-1.138,4.164-2.863-.033-1.56-1.431-2.309-3.969-2.927l-2.472-.586c-3.9-.975-6.279-2.894-6.311-6.31,0-4.133,3.708-6.929,8.718-6.9,5.107-.031,8.458,2.8,8.523,6.9h-4.619c-.13-1.856-1.594-2.928-3.9-2.928" fill="#ff0"/>
      <path id="패스_6866" data-name="패스 6866" d="M430.069,359.194l4.294-.2v-1.367c0-1.5-1.009-2.309-2.733-2.342-1.627.033-2.635.748-2.863,1.952h-4.489c.26-3.026,2.895-5.368,7.482-5.4,3.741.032,7.287,1.724,7.287,5.855v11.647h-4.424v-2.406h-.2c-.812,1.625-2.439,2.731-5.009,2.731-3.286,0-5.726-1.724-5.726-5.14,0-3.871,3.09-5.108,6.377-5.335m.65,7.222c2.18,0,3.676-1.432,3.644-3.253v-1.236c-.716.032-2.733.13-3.514.2-1.627.163-2.668.943-2.668,2.277,0,1.3,1.074,2.017,2.538,2.017" fill="#ff0"/>
      <path id="패스_6867" data-name="패스 6867" d="M451.736,355.616h-3.253v8.458c0,1.334.683,1.692,1.627,1.692.487.033,1.3-.032,1.886-.065v3.708c-.52.065-1.366.163-2.472.2-3.449-.033-5.758-1.562-5.726-4.945v-9.044h-2.407V352.1H443.8v-4.164h4.685V352.1h3.253Z" fill="#ff0"/>
      <path id="패스_6868" data-name="패스 6868" d="M454.8,366.937a2.566,2.566,0,0,1,2.667-2.6,2.635,2.635,0,1,1,0,5.27,2.58,2.58,0,0,1-2.667-2.667" fill="#ff0"/>
      <path id="패스_6869" data-name="패스 6869" d="M467.288,374.354H462.8c2.343-2.993,4.132-8.914,4.164-14.249-.032-5.335-1.821-11.256-4.164-14.249h4.49a24.569,24.569,0,0,1,0,28.5" fill="#ff0"/>
      <path id="패스_6870" data-name="패스 6870" d="M64.288,401.092c-3.579-.033-5.953,2.732-5.92,7.547-.033,4.977,2.374,7.58,5.92,7.613a4.781,4.781,0,0,0,5.011-3.9h4.814c-.521,4.262-4.066,8.133-9.954,8.133-6.117,0-10.671-4.327-10.671-11.842,0-7.482,4.619-11.809,10.671-11.776,5.334-.033,9.336,3.025,9.954,8.328H69.3a4.67,4.67,0,0,0-5.011-4.1" fill="#ff0"/>
      <path id="패스_6871" data-name="패스 6871" d="M87.778,420.481c-6.116,0-10.735-4.359-10.735-11.841s4.619-11.809,10.735-11.777c6.116-.032,10.768,4.294,10.735,11.777.033,7.514-4.619,11.841-10.735,11.841m0-4.229c3.579-.033,5.921-2.7,5.921-7.612s-2.342-7.58-5.921-7.548c-3.546-.032-5.888,2.635-5.855,7.548-.033,4.912,2.309,7.579,5.855,7.612" fill="#ff0"/>
      <path id="패스_6872" data-name="패스 6872" d="M121.223,420.156h-4.164l-10.085-14.639h-.195v14.639H102.03V397.124h4.164l10.084,14.639h.195V397.124h4.75Z" fill="#ff0"/>
      <path id="패스_6873" data-name="패스 6873" d="M125.128,397.123h8.979c5.27.033,8.263,2.96,8.263,7.547a6.628,6.628,0,0,1-4.067,6.539l4.913,8.947h-5.335l-4.392-8.2h-3.611v8.2h-4.75Zm8.133,11c2.83,0,4.2-1.171,4.164-3.449.032-2.342-1.334-3.611-4.164-3.578h-3.383v7.027Z" fill="#ff0"/>
      <path id="패스_6874" data-name="패스 6874" d="M144.389,420.156l7.937-23.032h6.181l7.938,23.032H161.3l-1.724-5.27h-8.329l-1.724,5.27Zm13.988-9.044-2.863-8.783h-.2l-2.863,8.783Z" fill="#ff0"/>
      <path id="패스_6875" data-name="패스 6875" d="M169.049,420.156V397.124h8.2c6.9.032,11.158,4.327,11.126,11.516.032,7.189-4.229,11.516-11.256,11.516Zm7.873-4.1c4.392,0,6.7-2.277,6.7-7.417s-2.309-7.385-6.636-7.417H173.8v14.834Z" fill="#ff0"/>
      <path id="패스_6876" data-name="패스 6876" d="M207.829,400.832c-2.44,0-3.773,1.106-3.773,2.6-.065,1.724,1.659,2.472,3.643,2.927l2.082.521c3.936.845,6.864,2.863,6.9,6.7-.033,4.2-3.318,6.9-8.914,6.9-5.563,0-9.109-2.57-9.239-7.482h4.619c.2,2.31,2.017,3.448,4.555,3.448,2.5,0,4.131-1.138,4.164-2.863-.033-1.561-1.431-2.31-3.969-2.927l-2.472-.586c-3.9-.976-6.279-2.9-6.311-6.311,0-4.132,3.708-6.929,8.718-6.9,5.107-.032,8.457,2.8,8.523,6.9h-4.619c-.13-1.855-1.594-2.928-3.9-2.928" fill="#ff0"/>
      <path id="패스_6877" data-name="패스 6877" d="M218.956,411.633c.033-5.335,3.318-8.947,8.393-8.979,4.49.032,8.068,2.9,8.068,8.783v1.3H223.64c0,2.6,1.53,4.229,3.969,4.229a3.341,3.341,0,0,0,3.189-1.692h4.489c-.683,3.156-3.514,5.2-7.743,5.2-5.335,0-8.555-3.415-8.588-8.848m12.037-1.822a3.525,3.525,0,0,0-3.579-3.644,3.711,3.711,0,0,0-3.774,3.644Z" fill="#ff0"/>
      <path id="패스_6878" data-name="패스 6878" d="M237.631,411.567c.032-5.3,3.285-8.881,8.523-8.914,5.2.033,8.426,3.611,8.458,8.914-.032,5.335-3.253,8.914-8.458,8.914-5.238,0-8.491-3.579-8.523-8.914m8.523,5.27c2.407,0,3.676-2.245,3.644-5.27.032-3.025-1.237-5.3-3.644-5.27-2.472-.033-3.741,2.245-3.708,5.27-.033,3.025,1.236,5.27,3.708,5.27" fill="#ff0"/>
      <path id="패스_6879" data-name="패스 6879" d="M268.6,402.914h4.685v17.242H268.8v-3.123h-.2a5.189,5.189,0,0,1-5.2,3.318c-3.481.032-5.823-2.407-5.856-6.441v-11h4.685v10.15c.032,2.049,1.2,3.318,3.058,3.318A3.266,3.266,0,0,0,268.6,412.8Z" fill="#ff0"/>
      <rect id="사각형_2117" data-name="사각형 2117" width="4.685" height="23.032" transform="translate(276.996 397.124)" fill="#ff0"/>
      <path id="패스_6880" data-name="패스 6880" d="M293,397.124h4.75v9.564h9.955v-9.564h4.815v23.032h-4.815v-9.564h-9.955v9.564H293Z" fill="#ff0"/>
      <path id="패스_6881" data-name="패스 6881" d="M315.582,411.567c.032-5.3,3.285-8.881,8.523-8.914,5.2.033,8.426,3.611,8.458,8.914-.032,5.335-3.253,8.914-8.458,8.914-5.238,0-8.491-3.579-8.523-8.914m8.523,5.27c2.407,0,3.676-2.245,3.644-5.27.032-3.025-1.237-5.3-3.644-5.27-2.472-.033-3.741,2.245-3.708,5.27-.033,3.025,1.236,5.27,3.708,5.27" fill="#ff0"/>
      <path id="패스_6882" data-name="패스 6882" d="M344.6,406.427h-3.253v8.458c0,1.334.682,1.692,1.626,1.692.487.033,1.3-.032,1.887-.065v3.708c-.521.065-1.366.163-2.473.2-3.449-.033-5.757-1.562-5.725-4.945v-9.044h-2.407v-3.513h2.407V398.75h4.685v4.164H344.6Z" fill="#ff0"/>
      <path id="패스_6883" data-name="패스 6883" d="M346.619,411.633c.033-5.335,3.318-8.947,8.393-8.979,4.49.032,8.068,2.9,8.068,8.783v1.3H351.3c0,2.6,1.53,4.229,3.969,4.229a3.341,3.341,0,0,0,3.189-1.692h4.489c-.683,3.156-3.514,5.2-7.743,5.2-5.335,0-8.555-3.415-8.588-8.848m12.037-1.822a3.525,3.525,0,0,0-3.579-3.644,3.711,3.711,0,0,0-3.774,3.644Z" fill="#ff0"/>
      <rect id="사각형_2118" data-name="사각형 2118" width="4.685" height="23.032" transform="translate(366.009 397.124)" fill="#ff0"/>
      <path id="패스_6884" data-name="패스 6884" d="M376.81,426.858h-3.383l1.561-9.044h4.555Z" fill="#ff0"/>
      <path id="패스_6885" data-name="패스 6885" d="M390.345,397.124h4.75v10.215h.325l8.328-10.215h5.79l-8.588,10.345,8.654,12.687h-5.726l-6.376-9.5-2.407,2.928v6.571h-4.75Z" fill="#ff0"/>
      <path id="패스_6886" data-name="패스 6886" d="M409.768,411.567c.032-5.3,3.285-8.881,8.523-8.914,5.205.033,8.426,3.611,8.458,8.914-.032,5.335-3.253,8.914-8.458,8.914-5.238,0-8.491-3.579-8.523-8.914m8.523,5.27c2.407,0,3.676-2.245,3.644-5.27.032-3.025-1.237-5.3-3.644-5.27-2.473-.033-3.741,2.245-3.708,5.27-.033,3.025,1.235,5.27,3.708,5.27" fill="#ff0"/>
      <path id="패스_6887" data-name="패스 6887" d="M429.679,402.914h4.555v2.993h.195a4.17,4.17,0,0,1,4.164-3.253,10.683,10.683,0,0,1,1.5.13v4.229a7.053,7.053,0,0,0-2.017-.261,3.54,3.54,0,0,0-3.708,3.579v9.825h-4.685Z" fill="#ff0"/>
      <path id="패스_6888" data-name="패스 6888" d="M441.1,411.633c.033-5.335,3.319-8.947,8.393-8.979,4.49.032,8.069,2.9,8.069,8.783v1.3H445.783c0,2.6,1.529,4.229,3.969,4.229a3.338,3.338,0,0,0,3.188-1.692h4.489c-.683,3.156-3.513,5.2-7.742,5.2-5.335,0-8.556-3.415-8.589-8.848m12.037-1.822a3.524,3.524,0,0,0-3.578-3.644,3.71,3.71,0,0,0-3.774,3.644Z" fill="#ff0"/>
      <path id="패스_6889" data-name="패스 6889" d="M466.084,410.006l4.294-.2v-1.367c0-1.5-1.009-2.309-2.733-2.342-1.627.033-2.635.748-2.863,1.952h-4.489c.26-3.026,2.895-5.368,7.482-5.4,3.741.032,7.287,1.724,7.287,5.855v11.647h-4.424v-2.407h-.2c-.812,1.626-2.439,2.732-5.009,2.732-3.286,0-5.726-1.724-5.726-5.14,0-3.871,3.09-5.108,6.377-5.335m.65,7.222c2.18,0,3.676-1.432,3.644-3.253v-1.236c-.716.032-2.733.13-3.514.195-1.627.162-2.668.943-2.668,2.277,0,1.3,1.074,2.017,2.538,2.017" fill="#ff0"/>
      <path id="패스_6890" data-name="패스 6890" d="M488.84,190.928c6.4,0,13.471-5.318,13.471-11.721,0-10.532-14.137-12-22.115-14.766-14.067-4.795-26.487-16.342-26.487-32.054a35.2,35.2,0,0,1,70.052-4.864l-23.023,4.864a11.706,11.706,0,0,0-23.411.07c0,10.392,13.157,13.156,21.171,15.536,14.556,4.2,27.4,15.291,27.4,31.354,0,19.455-17.461,35.166-36.882,35.166-17.845,0-33.976-13.087-36.6-30.268l23.023-4.9c0,6.437,7,11.687,13.507,11.687Z" fill="#fff"/>
      <rect id="사각형_2119" data-name="사각형 2119" width="23.189" height="115.369" transform="translate(1.954 98.611)" fill="#fff"/>
      <path id="패스_6891" data-name="패스 6891" d="M306.279,173.062l56.468-77.51V213.641H339.558V165.832l-33.279,45.949-33.351-45.949v47.809H249.739V95.552Z" fill="#fff"/>
      <path id="패스_6892" data-name="패스 6892" d="M446.651,97.985V121.1H400.275v23.261h34.783v23.115H400.275v23.261h46.376v23.045H377.088V97.985Z" fill="#fff"/>
      <path id="패스_6893" data-name="패스 6893" d="M15.053,26.185H.274A25.23,25.23,0,0,1,7.938,7.664,25.44,25.44,0,0,1,26.551,0,25.239,25.239,0,0,1,45.072,7.664a25.254,25.254,0,0,1,7.709,18.521A26.122,26.122,0,0,1,49.223,39.1a62.1,62.1,0,0,1-8.9,12.042,86,86,0,0,1-8.3,8.074H52.462V73.95H0l2.509-8.4A160.609,160.609,0,0,0,26.551,44.547a80.416,80.416,0,0,0,8.233-10.356q3.171-4.857,3.171-8.006a11.451,11.451,0,0,0-22.9,0" fill="#fff"/>
      <path id="패스_6894" data-name="패스 6894" d="M86,0q13.139,0,21.03,11.132,7.62,10.583,7.619,26,0,15.511-7.619,26.094Q99.1,74.315,86,74.313c-18.158,0-28.648-17.416-28.648-37.179C57.357,17.426,67.911,0,86,0M85.96,14.872a10.75,10.75,0,0,0-9.033,4.789q-4.836,6.89-4.836,17.473,0,10.72,4.836,17.473a10.956,10.956,0,0,0,18.111,0q4.791-6.708,4.791-17.473,0-10.675-4.791-17.471a10.784,10.784,0,0,0-9.078-4.791" fill="#fff"/>
      <path id="패스_6895" data-name="패스 6895" d="M134.284,26.185H119.5a25.23,25.23,0,0,1,7.664-18.521,26.322,26.322,0,0,1,37.134,0,25.254,25.254,0,0,1,7.709,18.521A26.122,26.122,0,0,1,168.454,39.1a62.1,62.1,0,0,1-8.9,12.042,86.007,86.007,0,0,1-8.3,8.074h20.438V73.95H119.231l2.509-8.4a160.609,160.609,0,0,0,24.042-21.007,80.416,80.416,0,0,0,8.233-10.356q3.171-4.857,3.171-8.006a11.451,11.451,0,0,0-22.9,0" fill="#fff"/>
      <path id="패스_6896" data-name="패스 6896" d="M214.5.183,198.758,43.431H214.5v-28.6h14.736v28.6h7.39V58.165h-7.39V73.95H214.5V58.165H176.588L198.531.092Z" fill="#fff"/>
      <path id="패스_6897" data-name="패스 6897" d="M251.176,53.46v-.9l1.152-1.117c2.77-2.638,4.021-4.039,4.038-5.675a1.935,1.935,0,0,0-2.153-2.119,3.7,3.7,0,0,0-2.3.917l-.468-1.034a4.766,4.766,0,0,1,3.072-1.1,3.052,3.052,0,0,1,3.32,3.155c0,2-1.451,3.621-3.738,5.824l-.867.8v.033H258.1V53.46Z" fill="#fff"/>
      <path id="패스_6898" data-name="패스 6898" d="M266.949,47.919c0,3.688-1.369,5.724-3.772,5.724-2.119,0-3.554-1.986-3.587-5.574,0-3.638,1.568-5.641,3.771-5.641,2.286,0,3.588,2.037,3.588,5.491m-5.891.167c0,2.821.867,4.423,2.2,4.423,1.5,0,2.22-1.753,2.22-4.523,0-2.671-.685-4.423-2.2-4.423-1.286,0-2.22,1.569-2.22,4.523" fill="#fff"/>
      <path id="패스_6899" data-name="패스 6899" d="M268.3,53.46v-.9l1.152-1.117c2.77-2.638,4.022-4.039,4.039-5.675a1.935,1.935,0,0,0-2.153-2.119,3.7,3.7,0,0,0-2.3.917l-.467-1.034a4.756,4.756,0,0,1,3.07-1.1,3.052,3.052,0,0,1,3.321,3.155c0,2-1.451,3.621-3.738,5.824l-.867.8v.033h4.872V53.46Z" fill="#fff"/>
      <path id="패스_6900" data-name="패스 6900" d="M281.407,53.46V50.506h-5.039v-.968l4.839-6.926h1.586v6.742h1.518v1.152h-1.518V53.46Zm0-4.106V45.733q0-.852.05-1.7h-.05c-.333.635-.6,1.1-.9,1.6l-2.653,3.69v.032Z" fill="#fff"/>
      <rect id="사각형_2120" data-name="사각형 2120" width="2.553" height="11.248" transform="translate(289.322 42.212)" fill="#fff"/>
      <path id="패스_6901" data-name="패스 6901" d="M294.2,47.569c0-.835-.016-1.518-.066-2.186h1.3l.084,1.334h.033a2.972,2.972,0,0,1,2.671-1.518c1.118,0,2.854.668,2.854,3.438V53.46H299.6V48.8c0-1.3-.484-2.386-1.868-2.386a2.087,2.087,0,0,0-1.969,1.5,2.108,2.108,0,0,0-.1.685V53.46H294.2Z" fill="#fff"/>
      <path id="패스_6902" data-name="패스 6902" d="M305.165,43.062v2.32h2.1V46.5h-2.1v4.356c0,1,.284,1.569,1.1,1.569a3.278,3.278,0,0,0,.851-.1l.066,1.1a3.586,3.586,0,0,1-1.3.2,2.034,2.034,0,0,1-1.585-.617,3,3,0,0,1-.568-2.1V46.5h-1.252V45.382h1.252V43.447Z" fill="#fff"/>
      <path id="패스_6903" data-name="패스 6903" d="M309.64,49.688a2.588,2.588,0,0,0,2.771,2.8,5.3,5.3,0,0,0,2.236-.418l.25,1.052a6.534,6.534,0,0,1-2.687.5,3.749,3.749,0,0,1-3.971-4.071c0-2.436,1.435-4.356,3.787-4.356,2.638,0,3.338,2.32,3.338,3.805a5.462,5.462,0,0,1-.05.684Zm4.306-1.051a2.092,2.092,0,0,0-2.036-2.387,2.434,2.434,0,0,0-2.253,2.387Z" fill="#fff"/>
      <path id="패스_6904" data-name="패스 6904" d="M317.185,47.9c0-.951-.016-1.769-.066-2.52H318.4l.05,1.586h.067a2.423,2.423,0,0,1,2.236-1.77,1.567,1.567,0,0,1,.417.051v1.385a2.223,2.223,0,0,0-.5-.05,2.058,2.058,0,0,0-1.969,1.885,4.077,4.077,0,0,0-.067.685V53.46h-1.453Z" fill="#fff"/>
      <path id="패스_6905" data-name="패스 6905" d="M322.712,47.569c0-.835-.017-1.518-.067-2.186h1.3l.084,1.334h.032a2.974,2.974,0,0,1,2.67-1.518c1.119,0,2.855.668,2.855,3.438V53.46h-1.469V48.8c0-1.3-.484-2.386-1.869-2.386a2.157,2.157,0,0,0-2.07,2.187V53.46h-1.468Z" fill="#fff"/>
      <path id="패스_6906" data-name="패스 6906" d="M336.45,53.46l-.117-1.018h-.05a3.009,3.009,0,0,1-2.469,1.2,2.3,2.3,0,0,1-2.47-2.319c0-1.954,1.735-3.022,4.857-3.005v-.166a1.666,1.666,0,0,0-1.837-1.87,4.022,4.022,0,0,0-2.1.6l-.334-.968a5.022,5.022,0,0,1,2.654-.718c2.469,0,3.07,1.686,3.07,3.3v3.02a11.39,11.39,0,0,0,.134,1.937Zm-.216-4.123c-1.6-.032-3.422.251-3.422,1.82a1.3,1.3,0,0,0,1.385,1.4,2.011,2.011,0,0,0,1.953-1.351,1.51,1.51,0,0,0,.084-.467Z" fill="#fff"/>
      <path id="패스_6907" data-name="패스 6907" d="M341.727,43.062v2.32h2.1V46.5h-2.1v4.356c0,1,.284,1.569,1.1,1.569a3.278,3.278,0,0,0,.851-.1l.066,1.1a3.586,3.586,0,0,1-1.3.2,2.034,2.034,0,0,1-1.585-.617,3,3,0,0,1-.568-2.1V46.5H339.04V45.382h1.252V43.447Z" fill="#fff"/>
      <path id="패스_6908" data-name="패스 6908" d="M347.118,43.112a.909.909,0,0,1-1.818,0,.894.894,0,0,1,.918-.917.871.871,0,0,1,.9.917m-1.635,2.27h1.469v8.077h-1.469Z" fill="#fff"/>
      <path id="패스_6909" data-name="패스 6909" d="M356.7,49.353a3.947,3.947,0,0,1-4.022,4.289,3.84,3.84,0,0,1-3.871-4.155,3.944,3.944,0,0,1,4.005-4.289,3.825,3.825,0,0,1,3.888,4.155m-6.408.084c0,1.769,1.018,3.1,2.453,3.1,1.4,0,2.454-1.318,2.454-3.137,0-1.368-.685-3.1-2.421-3.1s-2.486,1.6-2.486,3.137" fill="#fff"/>
      <path id="패스_6910" data-name="패스 6910" d="M358.555,47.569c0-.835-.016-1.518-.066-2.186h1.3l.084,1.334h.033a2.972,2.972,0,0,1,2.671-1.518c1.118,0,2.854.668,2.854,3.438V53.46h-1.47V48.8c0-1.3-.484-2.386-1.868-2.386a2.087,2.087,0,0,0-1.969,1.5,2.108,2.108,0,0,0-.1.685V53.46h-1.469Z" fill="#fff"/>
      <path id="패스_6911" data-name="패스 6911" d="M372.294,53.46l-.117-1.018h-.05a3.009,3.009,0,0,1-2.469,1.2,2.3,2.3,0,0,1-2.47-2.319c0-1.954,1.735-3.022,4.857-3.005v-.166a1.666,1.666,0,0,0-1.837-1.87,4.022,4.022,0,0,0-2.1.6l-.334-.968a5.022,5.022,0,0,1,2.654-.718c2.469,0,3.07,1.686,3.07,3.3v3.02a11.39,11.39,0,0,0,.134,1.937Zm-.216-4.123c-1.6-.032-3.422.251-3.422,1.82a1.3,1.3,0,0,0,1.385,1.4,2.011,2.011,0,0,0,1.953-1.351,1.509,1.509,0,0,0,.084-.467Z" fill="#fff"/>
      <rect id="사각형_2121" data-name="사각형 2121" width="1.468" height="11.849" transform="translate(375.868 41.611)" fill="#fff"/>
      <path id="패스_6912" data-name="패스 6912" d="M391.491,53.142a7.241,7.241,0,0,1-2.888.484c-3.888,0-5.891-2.419-5.891-5.624,0-3.838,2.737-5.974,6.142-5.974a6.646,6.646,0,0,1,2.77.5l-.518,2.019a5.505,5.505,0,0,0-2.136-.417,3.384,3.384,0,0,0-3.588,3.722,3.359,3.359,0,0,0,3.605,3.671,6.329,6.329,0,0,0,2.119-.367Z" fill="#fff"/>
      <path id="패스_6913" data-name="패스 6913" d="M400.591,49.353a3.948,3.948,0,0,1-4.022,4.289,3.84,3.84,0,0,1-3.872-4.155A3.945,3.945,0,0,1,396.7,45.2a3.825,3.825,0,0,1,3.888,4.155m-6.408.084c0,1.769,1.018,3.1,2.453,3.1,1.4,0,2.453-1.318,2.453-3.137,0-1.368-.684-3.1-2.42-3.1s-2.486,1.6-2.486,3.137" fill="#fff"/>
      <path id="패스_6914" data-name="패스 6914" d="M402.447,47.569c0-.835-.017-1.518-.067-2.186h1.3l.083,1.334h.034a2.971,2.971,0,0,1,2.669-1.518c1.12,0,2.856.668,2.856,3.438V53.46h-1.469V48.8c0-1.3-.486-2.386-1.87-2.386a2.085,2.085,0,0,0-1.968,1.5,2.107,2.107,0,0,0-.1.685V53.46h-1.467Z" fill="#fff"/>
      <path id="패스_6915" data-name="패스 6915" d="M418.671,45.382c-.033.585-.066,1.236-.066,2.22v4.69c0,1.851-.368,2.986-1.152,3.688a4.284,4.284,0,0,1-2.938.967,5.213,5.213,0,0,1-2.687-.667l.368-1.118a4.55,4.55,0,0,0,2.369.634c1.5,0,2.6-.784,2.6-2.82v-.9h-.033a2.884,2.884,0,0,1-2.571,1.353c-2,0-3.437-1.7-3.437-3.939,0-2.738,1.785-4.289,3.638-4.289a2.686,2.686,0,0,1,2.52,1.4h.033l.067-1.219Zm-1.518,3.188a2.088,2.088,0,0,0-.084-.668,2.116,2.116,0,0,0-2.052-1.552c-1.4,0-2.4,1.185-2.4,3.054,0,1.585.8,2.9,2.387,2.9a2.147,2.147,0,0,0,2.036-1.5,2.537,2.537,0,0,0,.117-.784Z" fill="#fff"/>
      <path id="패스_6916" data-name="패스 6916" d="M420.945,47.9c0-.951-.017-1.769-.067-2.52h1.284l.051,1.586h.067a2.424,2.424,0,0,1,2.236-1.77,1.561,1.561,0,0,1,.417.051v1.385a2.22,2.22,0,0,0-.5-.05,2.06,2.06,0,0,0-1.969,1.885,4.188,4.188,0,0,0-.066.685V53.46h-1.452Z" fill="#fff"/>
      <path id="패스_6917" data-name="패스 6917" d="M427.054,49.688a2.588,2.588,0,0,0,2.771,2.8,5.3,5.3,0,0,0,2.236-.418l.25,1.052a6.534,6.534,0,0,1-2.687.5,3.749,3.749,0,0,1-3.971-4.071c0-2.436,1.435-4.356,3.788-4.356,2.637,0,3.337,2.32,3.337,3.805a5.5,5.5,0,0,1-.049.684Zm4.306-1.051a2.092,2.092,0,0,0-2.036-2.387,2.435,2.435,0,0,0-2.253,2.387Z" fill="#fff"/>
      <path id="패스_6918" data-name="패스 6918" d="M434.4,51.958a3.857,3.857,0,0,0,1.935.583c1.069,0,1.57-.534,1.57-1.2,0-.7-.418-1.084-1.5-1.485-1.451-.518-2.136-1.319-2.136-2.286a2.492,2.492,0,0,1,2.787-2.371,4.026,4.026,0,0,1,1.986.5l-.367,1.068a3.142,3.142,0,0,0-1.652-.467c-.867,0-1.351.5-1.351,1.1,0,.668.484.968,1.535,1.369,1.4.535,2.119,1.235,2.119,2.437,0,1.418-1.1,2.419-3.02,2.419a4.6,4.6,0,0,1-2.27-.551Z" fill="#fff"/>
      <path id="패스_6919" data-name="패스 6919" d="M441.012,51.958a3.857,3.857,0,0,0,1.935.583c1.069,0,1.57-.534,1.57-1.2,0-.7-.418-1.084-1.5-1.485-1.451-.518-2.136-1.319-2.136-2.286a2.492,2.492,0,0,1,2.787-2.371,4.026,4.026,0,0,1,1.986.5l-.367,1.068a3.142,3.142,0,0,0-1.652-.467c-.867,0-1.351.5-1.351,1.1,0,.668.484.968,1.535,1.369,1.4.535,2.119,1.235,2.119,2.437,0,1.418-1.1,2.419-3.02,2.419a4.6,4.6,0,0,1-2.27-.551Z" fill="#fff"/>
      <path id="패스_6920" data-name="패스 6920" d="M458.672,49.353a3.947,3.947,0,0,1-4.021,4.289,3.84,3.84,0,0,1-3.872-4.155,3.944,3.944,0,0,1,4.005-4.289,3.825,3.825,0,0,1,3.888,4.155m-6.408.084c0,1.769,1.018,3.1,2.453,3.1,1.4,0,2.454-1.318,2.454-3.137,0-1.368-.685-3.1-2.421-3.1s-2.486,1.6-2.486,3.137" fill="#fff"/>
      <path id="패스_6921" data-name="패스 6921" d="M460.528,47.569c0-.835-.017-1.518-.067-2.186h1.3l.084,1.334h.033a2.971,2.971,0,0,1,2.67-1.518c1.119,0,2.855.668,2.855,3.438V53.46h-1.469V48.8c0-1.3-.485-2.386-1.869-2.386a2.086,2.086,0,0,0-1.969,1.5,2.108,2.108,0,0,0-.1.685V53.46h-1.468Z" fill="#fff"/>
      <path id="패스_6922" data-name="패스 6922" d="M483.513,47.72c0,3.688-2.237,5.923-5.525,5.923-3.337,0-5.29-2.52-5.29-5.724,0-3.371,2.154-5.891,5.474-5.891,3.454,0,5.341,2.587,5.341,5.692m-8.128.149c0,2.2,1.036,3.755,2.737,3.755,1.719,0,2.7-1.636,2.7-3.822,0-2.019-.97-3.755-2.722-3.755-1.718,0-2.72,1.636-2.72,3.822" fill="#fff"/>
      <path id="패스_6923" data-name="패스 6923" d="M485.237,53.46c.033-.551.066-1.369.066-2.086V41.61h1.452v5.073h.033a3.01,3.01,0,0,1,2.754-1.485c2,0,3.421,1.669,3.4,4.123,0,2.887-1.818,4.322-3.621,4.322a2.878,2.878,0,0,1-2.7-1.519h-.05L486.5,53.46Zm1.518-3.238a2.709,2.709,0,0,0,.067.534,2.266,2.266,0,0,0,2.2,1.719c1.535,0,2.453-1.252,2.453-3.1,0-1.619-.834-3-2.4-3a2.341,2.341,0,0,0-2.236,1.8,2.85,2.85,0,0,0-.084.6Z" fill="#fff"/>
      <path id="패스_6924" data-name="패스 6924" d="M495.62,49.688a2.588,2.588,0,0,0,2.771,2.8,5.3,5.3,0,0,0,2.236-.418l.25,1.052a6.534,6.534,0,0,1-2.687.5,3.75,3.75,0,0,1-3.971-4.071c0-2.436,1.435-4.356,3.788-4.356,2.637,0,3.337,2.32,3.337,3.805a5.505,5.505,0,0,1-.049.684Zm4.306-1.051a2.092,2.092,0,0,0-2.036-2.387,2.435,2.435,0,0,0-2.253,2.387Z" fill="#fff"/>
      <path id="패스_6925" data-name="패스 6925" d="M502.966,51.958a3.857,3.857,0,0,0,1.935.583c1.069,0,1.57-.534,1.57-1.2,0-.7-.418-1.084-1.5-1.485-1.451-.518-2.136-1.319-2.136-2.286a2.492,2.492,0,0,1,2.787-2.371,4.026,4.026,0,0,1,1.986.5l-.367,1.068a3.142,3.142,0,0,0-1.652-.467c-.867,0-1.351.5-1.351,1.1,0,.668.484.968,1.535,1.369,1.4.535,2.119,1.235,2.119,2.437,0,1.418-1.1,2.419-3.02,2.419a4.6,4.6,0,0,1-2.27-.551Z" fill="#fff"/>
      <path id="패스_6926" data-name="패스 6926" d="M511.414,43.112a.91.91,0,0,1-1.82,0,.894.894,0,0,1,.918-.917.872.872,0,0,1,.9.917m-1.636,2.27h1.468v8.077h-1.468Z" fill="#fff"/>
      <path id="패스_6927" data-name="패스 6927" d="M515.453,43.062v2.32h2.1V46.5h-2.1v4.356c0,1,.284,1.569,1.1,1.569a3.272,3.272,0,0,0,.851-.1l.067,1.1a3.6,3.6,0,0,1-1.3.2,2.034,2.034,0,0,1-1.585-.617,3,3,0,0,1-.568-2.1V46.5h-1.252V45.382h1.252V43.447Z" fill="#fff"/>
      <path id="패스_6928" data-name="패스 6928" d="M519.9,45.382l1.768,4.773c.184.534.385,1.168.518,1.652h.033c.15-.484.318-1.1.517-1.686l1.6-4.739h1.552l-2.2,5.757c-1.051,2.771-1.769,4.189-2.77,5.058a4,4,0,0,1-1.8.951l-.367-1.236a3.89,3.89,0,0,0,1.285-.717,4.445,4.445,0,0,0,1.235-1.635,1.06,1.06,0,0,0,.117-.351,1.272,1.272,0,0,0-.1-.384l-2.987-7.443Z" fill="#fff"/>
      <path id="패스_6929" data-name="패스 6929" d="M255.889,73.494l-.111-1.018h-.049a2.852,2.852,0,0,1-2.371,1.2,2.255,2.255,0,0,1-2.373-2.32c0-1.953,1.667-3.021,4.665-3v-.167a1.641,1.641,0,0,0-1.764-1.869,3.745,3.745,0,0,0-2.019.6l-.32-.969a4.676,4.676,0,0,1,2.547-.717c2.373,0,2.949,1.686,2.949,3.305v3.02a11.84,11.84,0,0,0,.129,1.936Zm-.208-4.122c-1.539-.033-3.286.251-3.286,1.82a1.274,1.274,0,0,0,1.332,1.4,1.937,1.937,0,0,0,1.874-1.352,1.559,1.559,0,0,0,.08-.468Z" fill="#fff"/>
      <path id="패스_6930" data-name="패스 6930" d="M259.223,67.6c0-.834-.016-1.518-.064-2.186h1.25l.081,1.335h.032a2.836,2.836,0,0,1,2.564-1.518c1.074,0,2.741.667,2.741,3.437v4.823h-1.411V68.837c0-1.3-.465-2.387-1.795-2.387a2.021,2.021,0,0,0-1.892,1.5,2.222,2.222,0,0,0-.1.684v4.856h-1.41Z" fill="#fff"/>
      <path id="패스_6931" data-name="패스 6931" d="M274.721,61.644v9.764c0,.718.016,1.535.064,2.086h-1.266l-.064-1.4h-.031a2.859,2.859,0,0,1-2.645,1.586c-1.875,0-3.318-1.653-3.318-4.106-.016-2.686,1.587-4.339,3.477-4.339a2.573,2.573,0,0,1,2.341,1.234h.032V61.644Zm-1.41,7.06a2.655,2.655,0,0,0-.065-.618,2.093,2.093,0,0,0-2.034-1.7c-1.459,0-2.325,1.335-2.325,3.121,0,1.635.769,2.986,2.292,2.986a2.14,2.14,0,0,0,2.067-1.752,2.6,2.6,0,0,0,.065-.633Z" fill="#fff"/>
      <path id="패스_6932" data-name="패스 6932" d="M289.711,69.188c-.05-1.351-.1-2.987-.1-4.622h-.051c-.35,1.434-.817,3.037-1.25,4.356l-1.37,4.389h-1.985l-1.2-4.356c-.367-1.319-.751-2.921-1.018-4.389H282.7c-.067,1.518-.117,3.254-.2,4.655l-.2,4.273h-2.353l.718-11.248h3.387l1.1,3.754c.352,1.3.7,2.7.953,4.023h.05c.316-1.3.7-2.787,1.068-4.039l1.2-3.738h3.321l.617,11.248h-2.486Z" fill="#fff"/>
      <path id="패스_6933" data-name="패스 6933" d="M300.918,68.737h-4.139v2.67H301.4v2.086h-7.176V62.245h6.943v2.086h-4.39v2.337h4.139Z" fill="#fff"/>
      <path id="패스_6934" data-name="패스 6934" d="M304.812,63.1v2.319h2.019v1.118h-2.019V70.89c0,1,.272,1.569,1.058,1.569a2.975,2.975,0,0,0,.817-.1l.064,1.1a3.32,3.32,0,0,1-1.25.2,1.919,1.919,0,0,1-1.523-.618,3.086,3.086,0,0,1-.544-2.1V66.534h-1.2V65.416h1.2V63.481Z" fill="#fff"/>
      <path id="패스_6935" data-name="패스 6935" d="M312.617,73.494l-.112-1.018h-.048a2.856,2.856,0,0,1-2.373,1.2,2.255,2.255,0,0,1-2.371-2.32c0-1.953,1.667-3.021,4.664-3v-.167a1.64,1.64,0,0,0-1.763-1.869,3.742,3.742,0,0,0-2.019.6l-.321-.969a4.679,4.679,0,0,1,2.548-.717c2.372,0,2.949,1.686,2.949,3.305v3.02a11.733,11.733,0,0,0,.129,1.936Zm-.208-4.122c-1.539-.033-3.286.251-3.286,1.82a1.273,1.273,0,0,0,1.33,1.4,1.938,1.938,0,0,0,1.876-1.352,1.591,1.591,0,0,0,.08-.468Z" fill="#fff"/>
      <path id="패스_6936" data-name="패스 6936" d="M315.887,73.494c.032-.551.064-1.368.064-2.086V61.644h1.394v5.074h.032a2.87,2.87,0,0,1,2.645-1.485c1.923,0,3.285,1.669,3.269,4.122,0,2.888-1.746,4.323-3.478,4.323a2.744,2.744,0,0,1-2.6-1.519h-.048l-.064,1.335Zm1.458-3.238a2.768,2.768,0,0,0,.065.534,2.193,2.193,0,0,0,2.115,1.719c1.475,0,2.355-1.252,2.355-3.1,0-1.619-.8-3-2.307-3a2.27,2.27,0,0,0-2.148,1.8,3.022,3.022,0,0,0-.08.6Z" fill="#fff"/>
      <path id="패스_6937" data-name="패스 6937" d="M331.993,69.388c0,2.987-1.988,4.289-3.862,4.289-2.1,0-3.718-1.6-3.718-4.155,0-2.7,1.7-4.289,3.846-4.289,2.228,0,3.734,1.686,3.734,4.155m-6.154.084c0,1.768.978,3.1,2.356,3.1,1.347,0,2.356-1.319,2.356-3.137,0-1.37-.657-3.1-2.324-3.1s-2.388,1.6-2.388,3.137" fill="#fff"/>
      <rect id="사각형_2122" data-name="사각형 2122" width="1.41" height="11.849" transform="translate(333.677 61.644)" fill="#fff"/>
      <path id="패스_6938" data-name="패스 6938" d="M338.934,63.147a.874.874,0,1,1-1.747,0,.878.878,0,0,1,.882-.918.856.856,0,0,1,.865.918m-1.571,2.269h1.41v8.077h-1.41Z" fill="#fff"/>
      <path id="패스_6939" data-name="패스 6939" d="M346.546,73.194a5.028,5.028,0,0,1-2.228.467c-2.34,0-3.862-1.652-3.862-4.122a4.024,4.024,0,0,1,4.167-4.289,4.555,4.555,0,0,1,1.955.417l-.321,1.135a3.166,3.166,0,0,0-1.634-.383,3.056,3.056,0,0,0-.048,6.074,3.864,3.864,0,0,0,1.73-.4Z" fill="#fff"/>
      <path id="패스_6940" data-name="패스 6940" d="M351.417,70.874a6.487,6.487,0,0,0,2.821.7c1.168,0,1.785-.483,1.785-1.217,0-.7-.534-1.1-1.886-1.586-1.869-.651-3.087-1.685-3.087-3.322,0-1.918,1.6-3.386,4.256-3.386a6.867,6.867,0,0,1,2.87.567l-.568,2.052a5.355,5.355,0,0,0-2.352-.534c-1.1,0-1.636.5-1.636,1.085,0,.718.634,1.035,2.086,1.586,1.986.733,2.921,1.768,2.921,3.354,0,1.886-1.453,3.487-4.54,3.487a7.352,7.352,0,0,1-3.187-.683Z" fill="#fff"/>
      <path id="패스_6941" data-name="패스 6941" d="M360.835,65.416l1.7,4.773c.177.534.369,1.168.5,1.652h.033c.143-.484.3-1.1.5-1.684l1.538-4.741h1.491l-2.115,5.758c-1.01,2.77-1.7,4.189-2.66,5.057a3.775,3.775,0,0,1-1.732.951l-.352-1.235a3.706,3.706,0,0,0,1.234-.718,4.414,4.414,0,0,0,1.185-1.635,1.076,1.076,0,0,0,.113-.35,1.33,1.33,0,0,0-.1-.385L359.3,65.416Z" fill="#fff"/>
      <path id="패스_6942" data-name="패스 6942" d="M367.774,67.6c0-.834-.016-1.518-.064-2.186h1.25l.081,1.335h.032a2.836,2.836,0,0,1,2.564-1.518c1.074,0,2.741.667,2.741,3.437v4.823h-1.411V68.837c0-1.3-.465-2.387-1.8-2.387a2.021,2.021,0,0,0-1.892,1.5,2.223,2.223,0,0,0-.1.684v4.856h-1.41Z" fill="#fff"/>
      <path id="패스_6943" data-name="패스 6943" d="M383.272,61.644v9.764c0,.718.016,1.535.064,2.086H382.07l-.064-1.4h-.031a2.859,2.859,0,0,1-2.645,1.586c-1.875,0-3.318-1.653-3.318-4.106-.016-2.686,1.587-4.339,3.477-4.339a2.573,2.573,0,0,1,2.341,1.234h.032V61.644Zm-1.41,7.06a2.655,2.655,0,0,0-.065-.618,2.093,2.093,0,0,0-2.034-1.7c-1.459,0-2.325,1.335-2.325,3.121,0,1.635.769,2.986,2.292,2.986A2.14,2.14,0,0,0,381.8,70.74a2.6,2.6,0,0,0,.065-.633Z" fill="#fff"/>
      <path id="패스_6944" data-name="패스 6944" d="M385.517,67.937c0-.952-.017-1.769-.065-2.521h1.235L386.734,67h.065a2.345,2.345,0,0,1,2.147-1.769,1.446,1.446,0,0,1,.4.051v1.384a2.054,2.054,0,0,0-.481-.05,2.015,2.015,0,0,0-1.891,1.886,4.3,4.3,0,0,0-.064.684v4.306h-1.394Z" fill="#fff"/>
      <path id="패스_6945" data-name="패스 6945" d="M397.521,69.388c0,2.987-1.988,4.289-3.863,4.289-2.1,0-3.718-1.6-3.718-4.155,0-2.7,1.7-4.289,3.846-4.289,2.228,0,3.735,1.686,3.735,4.155m-6.155.084c0,1.768.978,3.1,2.357,3.1,1.346,0,2.356-1.319,2.356-3.137,0-1.37-.657-3.1-2.325-3.1s-2.388,1.6-2.388,3.137" fill="#fff"/>
      <path id="패스_6946" data-name="패스 6946" d="M399.2,67.6c0-.834-.016-1.518-.064-2.186h1.235l.063,1.3h.048a2.662,2.662,0,0,1,2.436-1.485,2.3,2.3,0,0,1,2.2,1.619h.032a3.276,3.276,0,0,1,.865-1.052,2.575,2.575,0,0,1,1.715-.567c1.025,0,2.548.7,2.548,3.5v4.756H408.9V68.921c0-1.552-.545-2.487-1.682-2.487a1.839,1.839,0,0,0-1.667,1.335,2.484,2.484,0,0,0-.112.735v4.989H404.06v-4.84c0-1.284-.546-2.219-1.619-2.219a1.947,1.947,0,0,0-1.747,1.469,2.074,2.074,0,0,0-.112.717v4.873H399.2Z" fill="#fff"/>
      <path id="패스_6947" data-name="패스 6947" d="M413.26,69.721a2.534,2.534,0,0,0,2.66,2.8,4.928,4.928,0,0,0,2.147-.417l.241,1.052a6.083,6.083,0,0,1-2.58.5c-2.388,0-3.815-1.635-3.815-4.071s1.378-4.356,3.638-4.356c2.533,0,3.205,2.319,3.205,3.805a5.527,5.527,0,0,1-.048.683Zm4.134-1.051c.017-.934-.368-2.386-1.954-2.386-1.428,0-2.052,1.368-2.164,2.386Z" fill="#fff"/>
      <path id="패스_6948" data-name="패스 6948" d="M423.709,61.644h1.41v5.04h.033a2.672,2.672,0,0,1,1.01-1.034,2.809,2.809,0,0,1,1.442-.417c1.042,0,2.709.667,2.709,3.454v4.806H428.9V68.854c0-1.3-.465-2.4-1.8-2.4a2.039,2.039,0,0,0-1.891,1.47,1.84,1.84,0,0,0-.1.7v4.873h-1.41Z" fill="#fff"/>
      <path id="패스_6949" data-name="패스 6949" d="M439.528,69.388c0,2.987-1.988,4.289-3.863,4.289-2.1,0-3.718-1.6-3.718-4.155,0-2.7,1.7-4.289,3.846-4.289,2.228,0,3.735,1.686,3.735,4.155m-6.154.084c0,1.768.978,3.1,2.356,3.1,1.346,0,2.356-1.319,2.356-3.137,0-1.37-.657-3.1-2.325-3.1s-2.387,1.6-2.387,3.137" fill="#fff"/>
      <path id="패스_6950" data-name="패스 6950" d="M441.019,71.992a3.591,3.591,0,0,0,1.859.584c1.025,0,1.507-.534,1.507-1.2,0-.7-.4-1.084-1.443-1.485-1.395-.517-2.051-1.319-2.051-2.286a2.43,2.43,0,0,1,2.677-2.37,3.737,3.737,0,0,1,1.906.5l-.352,1.068a2.927,2.927,0,0,0-1.587-.467,1.149,1.149,0,0,0-1.3,1.1c0,.666.465.967,1.476,1.367,1.345.535,2.034,1.236,2.034,2.437,0,1.419-1.057,2.42-2.9,2.42a4.279,4.279,0,0,1-2.179-.551Z" fill="#fff"/>
      <path id="패스_6951" data-name="패스 6951" d="M449.16,63.1v2.319h2.019v1.118H449.16V70.89c0,1,.272,1.569,1.058,1.569a2.969,2.969,0,0,0,.817-.1l.065,1.1a3.33,3.33,0,0,1-1.251.2,1.915,1.915,0,0,1-1.522-.618,3.081,3.081,0,0,1-.545-2.1V66.534h-1.2V65.416h1.2V63.481Z" fill="#fff"/>
      <path id="패스_6952" data-name="패스 6952" d="M453.36,69.721a2.535,2.535,0,0,0,2.66,2.8,4.928,4.928,0,0,0,2.147-.417l.241,1.052a6.085,6.085,0,0,1-2.581.5c-2.387,0-3.814-1.635-3.814-4.071s1.379-4.356,3.638-4.356c2.533,0,3.2,2.319,3.2,3.805a5.528,5.528,0,0,1-.048.683Zm4.135-1.051c.016-.934-.369-2.386-1.956-2.386-1.427,0-2.051,1.368-2.164,2.386Z" fill="#fff"/>
      <path id="패스_6953" data-name="패스 6953" d="M467.2,61.644v9.764c0,.718.016,1.535.065,2.086H466l-.064-1.4h-.031a2.855,2.855,0,0,1-2.645,1.586c-1.875,0-3.318-1.653-3.318-4.106-.016-2.686,1.587-4.339,3.479-4.339a2.572,2.572,0,0,1,2.339,1.234h.032V61.644ZM465.8,68.7a2.709,2.709,0,0,0-.064-.618,2.1,2.1,0,0,0-2.035-1.7c-1.459,0-2.324,1.335-2.324,3.121,0,1.635.769,2.986,2.291,2.986a2.141,2.141,0,0,0,2.068-1.752,2.648,2.648,0,0,0,.064-.633Z" fill="#fff"/>
      <path id="패스_6954" data-name="패스 6954" d="M472.688,73.494c.032-.551.063-1.368.063-2.086V61.644h1.395v5.074h.032a2.867,2.867,0,0,1,2.645-1.485c1.923,0,3.284,1.669,3.269,4.122,0,2.888-1.747,4.323-3.478,4.323a2.743,2.743,0,0,1-2.6-1.519h-.048l-.065,1.335Zm1.458-3.238a2.85,2.85,0,0,0,.064.534,2.2,2.2,0,0,0,2.116,1.719c1.474,0,2.355-1.252,2.355-3.1,0-1.619-.8-3-2.307-3a2.27,2.27,0,0,0-2.148,1.8,3.02,3.02,0,0,0-.08.6Z" fill="#fff"/>
      <path id="패스_6955" data-name="패스 6955" d="M482.175,65.416l1.7,4.773c.176.534.369,1.168.5,1.652h.033c.143-.484.3-1.1.5-1.684l1.538-4.741h1.491l-2.116,5.758c-1.009,2.77-1.7,4.189-2.66,5.057a3.768,3.768,0,0,1-1.731.951l-.352-1.235a3.693,3.693,0,0,0,1.233-.718,4.414,4.414,0,0,0,1.186-1.635,1.077,1.077,0,0,0,.113-.35,1.307,1.307,0,0,0-.1-.385l-2.869-7.443Z" fill="#fff"/>
      <path id="패스_6956" data-name="패스 6956" d="M492.465,62.245h1.395v5.424h.048c.288-.434.577-.834.849-1.2l3.3-4.222h1.732l-3.911,4.773,4.215,6.475h-1.651l-3.558-5.523L493.86,69.2v4.289h-1.395Z" fill="#fff"/>
      <path id="패스_6957" data-name="패스 6957" d="M500.863,71.725a4.8,4.8,0,0,0,2.5.734c1.426,0,2.259-.784,2.259-1.919,0-1.051-.577-1.652-2.035-2.237-1.763-.651-2.853-1.6-2.853-3.187,0-1.753,1.4-3.054,3.494-3.054a4.75,4.75,0,0,1,2.388.551l-.385,1.184a4.172,4.172,0,0,0-2.051-.534c-1.475,0-2.036.919-2.036,1.686,0,1.051.657,1.568,2.147,2.169,1.828.735,2.758,1.653,2.758,3.305,0,1.736-1.235,3.237-3.783,3.237a5.389,5.389,0,0,1-2.756-.718Z" fill="#fff"/>
      <path id="패스_6958" data-name="패스 6958" d="M508.669,71.725a4.8,4.8,0,0,0,2.5.734c1.427,0,2.26-.784,2.26-1.919,0-1.051-.577-1.652-2.035-2.237-1.764-.651-2.853-1.6-2.853-3.187,0-1.753,1.4-3.054,3.494-3.054a4.75,4.75,0,0,1,2.388.551l-.385,1.184a4.176,4.176,0,0,0-2.051-.534c-1.475,0-2.036.919-2.036,1.686,0,1.051.657,1.568,2.147,2.169,1.828.735,2.758,1.653,2.758,3.305,0,1.736-1.235,3.237-3.783,3.237a5.389,5.389,0,0,1-2.756-.718Z" fill="#fff"/>
      <path id="패스_6959" data-name="패스 6959" d="M525.9,67.753c0,3.872-2.259,5.925-5.016,5.925-2.853,0-4.856-2.3-4.856-5.708,0-3.572,2.131-5.907,5.016-5.907,2.949,0,4.856,2.352,4.856,5.69m-8.382.184c0,2.4,1.251,4.555,3.446,4.555,2.212,0,3.462-2.119,3.462-4.672,0-2.237-1.122-4.573-3.446-4.573-2.308,0-3.462,2.219-3.462,4.69" fill="#fff"/>
      <path id="패스_6960" data-name="패스 6960" d="M93.441,191.666a35.151,35.151,0,0,1-35.157-35.144v-.013a34.245,34.245,0,0,1,10.331-24.9A33.544,33.544,0,0,1,93.441,121.28a34.083,34.083,0,0,1,23.941,9.469,67.687,67.687,0,0,1,12.629-19.987A58.53,58.53,0,0,0,93.368,97.6q-24.1,0-41.4,17.291Q34.747,132.258,34.75,156.436a56.528,56.528,0,0,0,17.219,41.472,56.9,56.9,0,0,0,41.4,17.075,58.233,58.233,0,0,0,36.748-12.766A66.97,66.97,0,0,1,117.4,182.253a33.9,33.9,0,0,1-23.964,9.413" fill="#fff"/>
    </g>
  </g>
  <g id="그룹_1811" data-name="그룹 1811">
    <g id="그룹_1810" data-name="그룹 1810" clip-path="url(#clip-path-2)">
      <path id="패스_6961" data-name="패스 6961" d="M239.862,156.3a58.6,58.6,0,1,1-58.6-58.6,58.6,58.6,0,0,1,58.6,58.6" fill="#005392"/>
      <path id="패스_6962" data-name="패스 6962" d="M181.259,97.693a58.6,58.6,0,0,0-58.6,58.6,29.3,29.3,0,0,0,58.6,0,29.3,29.3,0,1,1,58.6,0,58.6,58.6,0,0,0-58.6-58.6" fill="#f04e3e"/>
    </g>
  </g>
  <g id="그룹_1813" data-name="그룹 1813">
    <g id="그룹_1812" data-name="그룹 1812" clip-path="url(#clip-path-3)">
      <path id="패스_6964" data-name="패스 6964" d="M238.4,111.607a1.366,1.366,0,0,1-.95-.4,1.632,1.632,0,0,1-.17-.2,1.666,1.666,0,0,1-.12-.23,2.584,2.584,0,0,1-.08-.26,1.7,1.7,0,0,1,0-.52,2.584,2.584,0,0,1,.08-.26,1.665,1.665,0,0,1,.12-.23,1.632,1.632,0,0,1,.17-.2,1.393,1.393,0,0,1,1.91,0,1.632,1.632,0,0,1,.17.2,1.008,1.008,0,0,1,.12.23,2.58,2.58,0,0,1,.08.26,1.7,1.7,0,0,1,0,.52,2.58,2.58,0,0,1-.08.26,1.008,1.008,0,0,1-.12.23,1.632,1.632,0,0,1-.17.2,1.371,1.371,0,0,1-.96.4" fill="#fff"/>
      <path id="패스_6965" data-name="패스 6965" d="M237.064,240.747a1.345,1.345,0,1,1,1.35,1.35,1.344,1.344,0,0,1-1.35-1.35m0-7.25a1.345,1.345,0,1,1,1.35,1.35,1.344,1.344,0,0,1-1.35-1.35m0-7.25a1.345,1.345,0,1,1,1.35,1.35,1.344,1.344,0,0,1-1.35-1.35m0-7.25a1.345,1.345,0,1,1,1.35,1.35,1.351,1.351,0,0,1-1.35-1.35m0-7.25a1.345,1.345,0,1,1,1.35,1.35,1.351,1.351,0,0,1-1.35-1.35m0-7.25a1.345,1.345,0,1,1,1.35,1.35,1.351,1.351,0,0,1-1.35-1.35m0-7.25a1.345,1.345,0,1,1,1.35,1.35,1.351,1.351,0,0,1-1.35-1.35m0-7.25a1.345,1.345,0,1,1,1.35,1.35,1.351,1.351,0,0,1-1.35-1.35m0-7.25a1.345,1.345,0,1,1,1.35,1.35,1.351,1.351,0,0,1-1.35-1.35m0-7.25a1.345,1.345,0,1,1,1.35,1.35,1.342,1.342,0,0,1-1.35-1.35m0-7.24a1.345,1.345,0,1,1,1.35,1.34,1.344,1.344,0,0,1-1.35-1.34m0-7.25a1.345,1.345,0,1,1,1.35,1.34,1.344,1.344,0,0,1-1.35-1.34m0-7.25a1.345,1.345,0,1,1,1.35,1.35,1.344,1.344,0,0,1-1.35-1.35m0-7.25a1.345,1.345,0,1,1,1.35,1.35,1.344,1.344,0,0,1-1.35-1.35m0-7.25a1.345,1.345,0,1,1,1.35,1.35,1.344,1.344,0,0,1-1.35-1.35m0-7.25a1.345,1.345,0,1,1,1.35,1.35,1.344,1.344,0,0,1-1.35-1.35m0-7.25a1.345,1.345,0,1,1,1.35,1.35,1.344,1.344,0,0,1-1.35-1.35m0-7.25a1.345,1.345,0,1,1,1.35,1.35,1.344,1.344,0,0,1-1.35-1.35" fill="#fff"/>
      <path id="패스_6966" data-name="패스 6966" d="M238.4,249.347a1.366,1.366,0,0,1-.95-.4,1.633,1.633,0,0,1-.17-.2c-.04-.08-.09-.16-.12-.24a1.83,1.83,0,0,1-.08-.25,2.276,2.276,0,0,1-.02-.26,2.453,2.453,0,0,1,.02-.27,2.414,2.414,0,0,1,.08-.25,1.666,1.666,0,0,1,.12-.23,1.734,1.734,0,0,1,.17-.21,1.4,1.4,0,0,1,1.22-.37,2.411,2.411,0,0,1,.25.08,1.711,1.711,0,0,1,.23.13.834.834,0,0,1,.21.16,1.734,1.734,0,0,1,.17.21,1.008,1.008,0,0,1,.12.23,2.411,2.411,0,0,1,.08.25,1.228,1.228,0,0,1,.02.27,1.14,1.14,0,0,1-.02.26,1.827,1.827,0,0,1-.08.25,1.344,1.344,0,0,1-.12.24,1.633,1.633,0,0,1-.17.2,1.2,1.2,0,0,1-.21.17,1.008,1.008,0,0,1-.23.12,1.21,1.21,0,0,1-.25.08,1.241,1.241,0,0,1-.27.03" fill="#fff"/>
      <path id="패스_6967" data-name="패스 6967" d="M231.254,111.607a1.09,1.09,0,0,1-.26-.03,1.255,1.255,0,0,1-.26-.07,1.711,1.711,0,0,1-.23-.13,1.061,1.061,0,0,1-.2-.17,1.632,1.632,0,0,1-.17-.2,1.008,1.008,0,0,1-.12-.23.865.865,0,0,1-.08-.26,1.142,1.142,0,0,1,0-.52.865.865,0,0,1,.08-.26,1.007,1.007,0,0,1,.12-.23,1.632,1.632,0,0,1,.17-.2,1.381,1.381,0,0,1,1.9,0,1.06,1.06,0,0,1,.17.2,1.007,1.007,0,0,1,.12.23,1.294,1.294,0,0,1,.08.26,1.142,1.142,0,0,1,0,.52,1.294,1.294,0,0,1-.08.26,1.008,1.008,0,0,1-.12.23,1.061,1.061,0,0,1-.17.2,1.366,1.366,0,0,1-.95.4" fill="#fff"/>
      <path id="패스_6968" data-name="패스 6968" d="M229.9,240.747a1.35,1.35,0,1,1,1.35,1.35,1.351,1.351,0,0,1-1.35-1.35m0-7.25a1.35,1.35,0,1,1,1.35,1.35,1.351,1.351,0,0,1-1.35-1.35m0-7.25a1.35,1.35,0,1,1,1.35,1.35,1.351,1.351,0,0,1-1.35-1.35m0-7.25a1.35,1.35,0,1,1,1.35,1.35A1.357,1.357,0,0,1,229.9,219m0-7.25a1.35,1.35,0,1,1,1.35,1.35,1.357,1.357,0,0,1-1.35-1.35m0-7.25a1.35,1.35,0,1,1,1.35,1.35,1.357,1.357,0,0,1-1.35-1.35m0-7.25a1.35,1.35,0,1,1,1.35,1.35,1.357,1.357,0,0,1-1.35-1.35m0-7.25a1.35,1.35,0,1,1,1.35,1.35A1.357,1.357,0,0,1,229.9,190m0-7.25a1.35,1.35,0,1,1,1.35,1.35,1.357,1.357,0,0,1-1.35-1.35m0-7.25a1.35,1.35,0,1,1,1.35,1.35,1.349,1.349,0,0,1-1.35-1.35m0-7.24a1.35,1.35,0,1,1,1.35,1.34,1.351,1.351,0,0,1-1.35-1.34m0-7.25a1.35,1.35,0,1,1,1.35,1.34,1.351,1.351,0,0,1-1.35-1.34m0-7.25a1.35,1.35,0,1,1,1.35,1.35,1.351,1.351,0,0,1-1.35-1.35m0-7.25a1.35,1.35,0,1,1,1.35,1.35,1.351,1.351,0,0,1-1.35-1.35m0-7.25a1.35,1.35,0,1,1,1.35,1.35,1.351,1.351,0,0,1-1.35-1.35m0-7.25a1.35,1.35,0,1,1,1.35,1.35,1.351,1.351,0,0,1-1.35-1.35m0-7.25a1.35,1.35,0,1,1,1.35,1.35,1.351,1.351,0,0,1-1.35-1.35m0-7.25a1.35,1.35,0,1,1,1.35,1.35,1.351,1.351,0,0,1-1.35-1.35" fill="#fff"/>
      <path id="패스_6969" data-name="패스 6969" d="M231.254,249.347a1.09,1.09,0,0,1-.26-.03,1.3,1.3,0,0,1-.26-.08,1.008,1.008,0,0,1-.23-.12,1.633,1.633,0,0,1-.2-.17,1.062,1.062,0,0,1-.17-.2c-.05-.08-.09-.16-.13-.24a1.027,1.027,0,0,1-.07-.25,1.153,1.153,0,0,1-.03-.26,1.241,1.241,0,0,1,.03-.27,1.17,1.17,0,0,1,.07-.25,1.711,1.711,0,0,1,.13-.23,1.118,1.118,0,0,1,.17-.21,1,1,0,0,1,.2-.16,1.712,1.712,0,0,1,.23-.13,2.581,2.581,0,0,1,.26-.08,1.513,1.513,0,0,1,.52,0,2.58,2.58,0,0,1,.26.08,1.71,1.71,0,0,1,.23.13,1,1,0,0,1,.2.16,1.731,1.731,0,0,1,.17.21,1.008,1.008,0,0,1,.12.23,1.21,1.21,0,0,1,.08.25,1.242,1.242,0,0,1,.03.27,1.154,1.154,0,0,1-.03.26,1.044,1.044,0,0,1-.08.25,1.343,1.343,0,0,1-.12.24,1.624,1.624,0,0,1-.37.37,1.007,1.007,0,0,1-.23.12,1.294,1.294,0,0,1-.26.08,1.09,1.09,0,0,1-.26.03" fill="#fff"/>
      <path id="패스_6970" data-name="패스 6970" d="M224.094,111.607a1.222,1.222,0,0,1-.26-.03,1.027,1.027,0,0,1-.25-.07,1.709,1.709,0,0,1-.23-.13.87.87,0,0,1-.21-.17,1.632,1.632,0,0,1-.17-.2,1.666,1.666,0,0,1-.12-.23,2.584,2.584,0,0,1-.08-.26,1.7,1.7,0,0,1,0-.52,2.584,2.584,0,0,1,.08-.26,1.665,1.665,0,0,1,.12-.23,1.632,1.632,0,0,1,.17-.2.87.87,0,0,1,.21-.17,1.007,1.007,0,0,1,.23-.12,1.044,1.044,0,0,1,.25-.08,1.186,1.186,0,0,1,.53,0,1.209,1.209,0,0,1,.25.08,1.007,1.007,0,0,1,.23.12.87.87,0,0,1,.21.17,1.632,1.632,0,0,1,.17.2,1.664,1.664,0,0,1,.12.23,2.58,2.58,0,0,1,.08.26,1.7,1.7,0,0,1,0,.52,2.58,2.58,0,0,1-.08.26,1.664,1.664,0,0,1-.12.23,1.632,1.632,0,0,1-.17.2.87.87,0,0,1-.21.17,1.709,1.709,0,0,1-.23.13,1.17,1.17,0,0,1-.25.07,1.241,1.241,0,0,1-.27.03" fill="#fff"/>
      <path id="패스_6971" data-name="패스 6971" d="M222.754,240.747a1.345,1.345,0,1,1,1.34,1.35,1.342,1.342,0,0,1-1.34-1.35m0-7.25a1.345,1.345,0,1,1,1.34,1.35,1.342,1.342,0,0,1-1.34-1.35m0-7.25a1.345,1.345,0,1,1,1.34,1.35,1.342,1.342,0,0,1-1.34-1.35m0-7.25a1.345,1.345,0,1,1,1.34,1.35,1.349,1.349,0,0,1-1.34-1.35m0-7.25a1.345,1.345,0,1,1,1.34,1.35,1.349,1.349,0,0,1-1.34-1.35m0-7.25a1.345,1.345,0,1,1,1.34,1.35,1.349,1.349,0,0,1-1.34-1.35m0-7.25a1.345,1.345,0,1,1,1.34,1.35,1.349,1.349,0,0,1-1.34-1.35m0-7.25a1.345,1.345,0,1,1,1.34,1.35,1.349,1.349,0,0,1-1.34-1.35m0-7.25a1.345,1.345,0,1,1,1.34,1.35,1.349,1.349,0,0,1-1.34-1.35m0-7.25a1.345,1.345,0,1,1,1.34,1.35,1.34,1.34,0,0,1-1.34-1.35m0-7.24a1.345,1.345,0,1,1,1.34,1.34,1.342,1.342,0,0,1-1.34-1.34m0-7.25a1.345,1.345,0,1,1,1.34,1.34,1.342,1.342,0,0,1-1.34-1.34m0-7.25a1.345,1.345,0,1,1,1.34,1.35,1.342,1.342,0,0,1-1.34-1.35m0-7.25a1.345,1.345,0,1,1,1.34,1.35,1.342,1.342,0,0,1-1.34-1.35m0-7.25a1.345,1.345,0,1,1,1.34,1.35,1.342,1.342,0,0,1-1.34-1.35m0-7.25a1.345,1.345,0,1,1,1.34,1.35,1.342,1.342,0,0,1-1.34-1.35m0-7.25a1.345,1.345,0,1,1,1.34,1.35,1.342,1.342,0,0,1-1.34-1.35m0-7.25a1.345,1.345,0,1,1,1.34,1.35,1.342,1.342,0,0,1-1.34-1.35" fill="#fff"/>
      <path id="패스_6972" data-name="패스 6972" d="M224.094,249.347a1.366,1.366,0,0,1-.95-.4,1.633,1.633,0,0,1-.17-.2,1.343,1.343,0,0,1-.12-.24,1.83,1.83,0,0,1-.08-.25,2.276,2.276,0,0,1-.02-.26,2.453,2.453,0,0,1,.02-.27,2.414,2.414,0,0,1,.08-.25,1.008,1.008,0,0,1,.12-.23,1.734,1.734,0,0,1,.17-.21,1.4,1.4,0,0,1,1.22-.37,2.411,2.411,0,0,1,.25.08,1.71,1.71,0,0,1,.23.13.834.834,0,0,1,.21.16,1.734,1.734,0,0,1,.17.21,1.664,1.664,0,0,1,.12.23,2.411,2.411,0,0,1,.08.25,1.228,1.228,0,0,1,.02.27,1.14,1.14,0,0,1-.02.26,1.827,1.827,0,0,1-.08.25,2.68,2.68,0,0,1-.12.24,1.633,1.633,0,0,1-.17.2,1.2,1.2,0,0,1-.21.17,1.007,1.007,0,0,1-.23.12,1.21,1.21,0,0,1-.25.08,1.241,1.241,0,0,1-.27.03" fill="#fff"/>
      <path id="패스_6973" data-name="패스 6973" d="M216.944,111.607a1.09,1.09,0,0,1-.26-.03,1.255,1.255,0,0,1-.26-.07,1.71,1.71,0,0,1-.23-.13,1.061,1.061,0,0,1-.2-.17,1.631,1.631,0,0,1-.17-.2,1.709,1.709,0,0,1-.13-.23,2.506,2.506,0,0,1-.07-.26,1.142,1.142,0,0,1,0-.52,2.506,2.506,0,0,1,.07-.26,1.709,1.709,0,0,1,.13-.23,1.63,1.63,0,0,1,.17-.2,1.381,1.381,0,0,1,1.9,0,1.06,1.06,0,0,1,.17.2,1.709,1.709,0,0,1,.13.23,2.506,2.506,0,0,1,.07.26,1.142,1.142,0,0,1,0,.52,2.506,2.506,0,0,1-.07.26,1.709,1.709,0,0,1-.13.23,1.624,1.624,0,0,1-.37.37,1.71,1.71,0,0,1-.23.13,1.255,1.255,0,0,1-.26.07,1.09,1.09,0,0,1-.26.03" fill="#fff"/>
      <path id="패스_6974" data-name="패스 6974" d="M215.594,240.747a1.35,1.35,0,1,1,1.35,1.35,1.344,1.344,0,0,1-1.35-1.35m0-7.25a1.35,1.35,0,1,1,1.35,1.35,1.344,1.344,0,0,1-1.35-1.35m0-7.25a1.35,1.35,0,1,1,1.35,1.35,1.344,1.344,0,0,1-1.35-1.35m0-7.25a1.35,1.35,0,1,1,1.35,1.35,1.351,1.351,0,0,1-1.35-1.35m0-7.25a1.35,1.35,0,1,1,1.35,1.35,1.351,1.351,0,0,1-1.35-1.35m0-7.25a1.35,1.35,0,1,1,1.35,1.35,1.351,1.351,0,0,1-1.35-1.35m0-7.25a1.35,1.35,0,1,1,1.35,1.35,1.351,1.351,0,0,1-1.35-1.35m0-7.25a1.35,1.35,0,1,1,1.35,1.35,1.351,1.351,0,0,1-1.35-1.35m0-7.25a1.35,1.35,0,1,1,1.35,1.35,1.351,1.351,0,0,1-1.35-1.35m0-7.25a1.35,1.35,0,1,1,1.35,1.35,1.342,1.342,0,0,1-1.35-1.35m0-7.24a1.35,1.35,0,1,1,1.35,1.34,1.344,1.344,0,0,1-1.35-1.34m0-7.25a1.35,1.35,0,1,1,1.35,1.34,1.344,1.344,0,0,1-1.35-1.34m0-7.25a1.35,1.35,0,1,1,1.35,1.35,1.344,1.344,0,0,1-1.35-1.35m0-7.25a1.35,1.35,0,1,1,1.35,1.35,1.344,1.344,0,0,1-1.35-1.35m0-7.25a1.35,1.35,0,1,1,1.35,1.35,1.344,1.344,0,0,1-1.35-1.35m0-7.25a1.35,1.35,0,1,1,1.35,1.35,1.344,1.344,0,0,1-1.35-1.35m0-7.25a1.35,1.35,0,1,1,1.35,1.35,1.344,1.344,0,0,1-1.35-1.35m0-7.25a1.35,1.35,0,1,1,1.35,1.35,1.344,1.344,0,0,1-1.35-1.35" fill="#fff"/>
      <path id="패스_6975" data-name="패스 6975" d="M216.944,249.347a1.09,1.09,0,0,1-.26-.03,1.294,1.294,0,0,1-.26-.08,1.007,1.007,0,0,1-.23-.12,1.632,1.632,0,0,1-.2-.17,1.061,1.061,0,0,1-.17-.2,1.343,1.343,0,0,1-.12-.24,1.044,1.044,0,0,1-.08-.25,1.154,1.154,0,0,1-.03-.26,1.242,1.242,0,0,1,.03-.27,1.21,1.21,0,0,1,.08-.25,1.008,1.008,0,0,1,.12-.23,1.118,1.118,0,0,1,.17-.21,1,1,0,0,1,.2-.16,1.711,1.711,0,0,1,.23-.13,2.58,2.58,0,0,1,.26-.08,1.384,1.384,0,0,1,1.21.37,1.732,1.732,0,0,1,.17.21,1.008,1.008,0,0,1,.12.23,1.21,1.21,0,0,1,.08.25,1.242,1.242,0,0,1,.03.27,1.154,1.154,0,0,1-.03.26,1.044,1.044,0,0,1-.08.25,1.343,1.343,0,0,1-.12.24,1.632,1.632,0,0,1-.17.2,1.348,1.348,0,0,1-.95.4" fill="#fff"/>
      <path id="패스_6976" data-name="패스 6976" d="M209.784,111.607a1.222,1.222,0,0,1-.26-.03,1.17,1.17,0,0,1-.25-.07,1.709,1.709,0,0,1-.23-.13.87.87,0,0,1-.21-.17,1.632,1.632,0,0,1-.17-.2,1.008,1.008,0,0,1-.12-.23,2.58,2.58,0,0,1-.08-.26,1.7,1.7,0,0,1,0-.52,2.58,2.58,0,0,1,.08-.26,1.007,1.007,0,0,1,.12-.23,1.632,1.632,0,0,1,.17-.2.87.87,0,0,1,.21-.17,1.007,1.007,0,0,1,.23-.12,1.209,1.209,0,0,1,.25-.08,1.185,1.185,0,0,1,.53,0,1.209,1.209,0,0,1,.25.08,1.007,1.007,0,0,1,.23.12.87.87,0,0,1,.21.17,1.632,1.632,0,0,1,.17.2,1.665,1.665,0,0,1,.12.23,2.584,2.584,0,0,1,.08.26,1.7,1.7,0,0,1,0,.52,2.584,2.584,0,0,1-.08.26,1.666,1.666,0,0,1-.12.23,1.632,1.632,0,0,1-.17.2.87.87,0,0,1-.21.17,1.709,1.709,0,0,1-.23.13,1.17,1.17,0,0,1-.25.07,1.241,1.241,0,0,1-.27.03" fill="#fff"/>
      <path id="패스_6977" data-name="패스 6977" d="M208.444,240.747a1.345,1.345,0,1,1,1.34,1.35,1.342,1.342,0,0,1-1.34-1.35m0-7.25a1.345,1.345,0,1,1,1.34,1.35,1.342,1.342,0,0,1-1.34-1.35m0-7.25a1.345,1.345,0,1,1,1.34,1.35,1.342,1.342,0,0,1-1.34-1.35m0-7.25a1.345,1.345,0,1,1,1.34,1.35,1.349,1.349,0,0,1-1.34-1.35m0-7.25a1.345,1.345,0,1,1,1.34,1.35,1.349,1.349,0,0,1-1.34-1.35m0-7.25a1.345,1.345,0,1,1,1.34,1.35,1.349,1.349,0,0,1-1.34-1.35m0-7.25a1.345,1.345,0,1,1,1.34,1.35,1.349,1.349,0,0,1-1.34-1.35m0-7.25a1.345,1.345,0,1,1,1.34,1.35,1.349,1.349,0,0,1-1.34-1.35m0-7.25a1.345,1.345,0,1,1,1.34,1.35,1.349,1.349,0,0,1-1.34-1.35m0-7.25a1.345,1.345,0,1,1,1.34,1.35,1.34,1.34,0,0,1-1.34-1.35m0-7.24a1.345,1.345,0,1,1,1.34,1.34,1.342,1.342,0,0,1-1.34-1.34m0-7.25a1.345,1.345,0,1,1,1.34,1.34,1.342,1.342,0,0,1-1.34-1.34m0-7.25a1.345,1.345,0,1,1,1.34,1.35,1.342,1.342,0,0,1-1.34-1.35m0-7.25a1.345,1.345,0,1,1,1.34,1.35,1.342,1.342,0,0,1-1.34-1.35m0-7.25a1.345,1.345,0,1,1,1.34,1.35,1.342,1.342,0,0,1-1.34-1.35m0-7.25a1.345,1.345,0,1,1,1.34,1.35,1.342,1.342,0,0,1-1.34-1.35m0-7.25a1.345,1.345,0,1,1,1.34,1.35,1.342,1.342,0,0,1-1.34-1.35m0-7.25a1.345,1.345,0,1,1,1.34,1.35,1.342,1.342,0,0,1-1.34-1.35" fill="#fff"/>
      <path id="패스_6978" data-name="패스 6978" d="M209.784,249.347a1.366,1.366,0,0,1-.95-.4,1.633,1.633,0,0,1-.17-.2,1.343,1.343,0,0,1-.12-.24,1.827,1.827,0,0,1-.08-.25,1.14,1.14,0,0,1-.02-.26,1.228,1.228,0,0,1,.02-.27,2.411,2.411,0,0,1,.08-.25,1.008,1.008,0,0,1,.12-.23,1.734,1.734,0,0,1,.17-.21,1.4,1.4,0,0,1,1.22-.37,2.411,2.411,0,0,1,.25.08,1.71,1.71,0,0,1,.23.13.834.834,0,0,1,.21.16,1.734,1.734,0,0,1,.17.21,1.666,1.666,0,0,1,.12.23,2.414,2.414,0,0,1,.08.25,1.228,1.228,0,0,1,.02.27,1.14,1.14,0,0,1-.02.26,1.83,1.83,0,0,1-.08.25c-.03.08-.08.16-.12.24a1.633,1.633,0,0,1-.17.2,1.2,1.2,0,0,1-.21.17,1.007,1.007,0,0,1-.23.12,1.21,1.21,0,0,1-.25.08,1.241,1.241,0,0,1-.27.03" fill="#fff"/>
      <path id="패스_6979" data-name="패스 6979" d="M202.634,111.607a1.366,1.366,0,0,1-.95-.4,1.061,1.061,0,0,1-.17-.2,1.709,1.709,0,0,1-.13-.23,1.255,1.255,0,0,1-.07-.26,1.142,1.142,0,0,1,0-.52,1.255,1.255,0,0,1,.07-.26,1.709,1.709,0,0,1,.13-.23,1.06,1.06,0,0,1,.17-.2,1.381,1.381,0,0,1,1.9,0,1.061,1.061,0,0,1,.17.2,1.71,1.71,0,0,1,.13.23,2.5,2.5,0,0,1,.07.26,1.142,1.142,0,0,1,0,.52,2.5,2.5,0,0,1-.07.26,1.711,1.711,0,0,1-.13.23,1.061,1.061,0,0,1-.17.2,1.366,1.366,0,0,1-.95.4" fill="#fff"/>
      <path id="패스_6980" data-name="패스 6980" d="M201.284,240.747a1.35,1.35,0,1,1,1.35,1.35,1.351,1.351,0,0,1-1.35-1.35m0-7.25a1.35,1.35,0,1,1,1.35,1.35,1.351,1.351,0,0,1-1.35-1.35m0-7.25a1.35,1.35,0,1,1,1.35,1.35,1.351,1.351,0,0,1-1.35-1.35m0-7.25a1.35,1.35,0,1,1,1.35,1.35,1.357,1.357,0,0,1-1.35-1.35m0-7.25a1.35,1.35,0,1,1,1.35,1.35,1.357,1.357,0,0,1-1.35-1.35m0-7.25a1.35,1.35,0,1,1,1.35,1.35,1.357,1.357,0,0,1-1.35-1.35m0-7.25a1.35,1.35,0,1,1,1.35,1.35,1.357,1.357,0,0,1-1.35-1.35m0-7.25a1.35,1.35,0,1,1,1.35,1.35,1.357,1.357,0,0,1-1.35-1.35m0-7.25a1.35,1.35,0,1,1,1.35,1.35,1.357,1.357,0,0,1-1.35-1.35m0-7.25a1.35,1.35,0,1,1,1.35,1.35,1.349,1.349,0,0,1-1.35-1.35m0-7.24a1.35,1.35,0,1,1,1.35,1.34,1.351,1.351,0,0,1-1.35-1.34m0-7.25a1.35,1.35,0,1,1,1.35,1.34,1.351,1.351,0,0,1-1.35-1.34m0-7.25a1.35,1.35,0,1,1,1.35,1.35,1.351,1.351,0,0,1-1.35-1.35m0-7.25a1.35,1.35,0,1,1,1.35,1.35,1.351,1.351,0,0,1-1.35-1.35m0-7.25a1.35,1.35,0,1,1,1.35,1.35,1.351,1.351,0,0,1-1.35-1.35m0-7.25a1.35,1.35,0,1,1,1.35,1.35,1.351,1.351,0,0,1-1.35-1.35m0-7.25a1.35,1.35,0,1,1,1.35,1.35,1.351,1.351,0,0,1-1.35-1.35m0-7.25a1.35,1.35,0,1,1,1.35,1.35,1.351,1.351,0,0,1-1.35-1.35" fill="#fff"/>
      <path id="패스_6981" data-name="패스 6981" d="M202.634,249.347a1.09,1.09,0,0,1-.26-.03,1.123,1.123,0,0,1-.26-.08,1.007,1.007,0,0,1-.23-.12,1.632,1.632,0,0,1-.2-.17,1.061,1.061,0,0,1-.17-.2c-.05-.08-.09-.16-.13-.24a1.028,1.028,0,0,1-.07-.25,1.154,1.154,0,0,1-.03-.26,1.242,1.242,0,0,1,.03-.27,1.171,1.171,0,0,1,.07-.25,1.709,1.709,0,0,1,.13-.23,1.118,1.118,0,0,1,.17-.21,1,1,0,0,1,.2-.16,1.71,1.71,0,0,1,.23-.13,1.974,1.974,0,0,1,.26-.08,1.384,1.384,0,0,1,1.21.37,1.734,1.734,0,0,1,.17.21,1.008,1.008,0,0,1,.12.23,1.208,1.208,0,0,1,.08.25,1.241,1.241,0,0,1,.03.27,1.153,1.153,0,0,1-.03.26,1.043,1.043,0,0,1-.08.25,1.343,1.343,0,0,1-.12.24,1.633,1.633,0,0,1-.17.2,1.348,1.348,0,0,1-.95.4" fill="#fff"/>
      <path id="패스_6982" data-name="패스 6982" d="M195.474,111.607a1.222,1.222,0,0,1-.26-.03,1.027,1.027,0,0,1-.25-.07,1.71,1.71,0,0,1-.23-.13.87.87,0,0,1-.21-.17,1.632,1.632,0,0,1-.17-.2,1.008,1.008,0,0,1-.12-.23,2.58,2.58,0,0,1-.08-.26,1.7,1.7,0,0,1,0-.52,2.58,2.58,0,0,1,.08-.26,1.008,1.008,0,0,1,.12-.23,1.632,1.632,0,0,1,.17-.2,1.393,1.393,0,0,1,1.91,0,1.632,1.632,0,0,1,.17.2,1.665,1.665,0,0,1,.12.23,2.584,2.584,0,0,1,.08.26,1.7,1.7,0,0,1,0,.52,2.584,2.584,0,0,1-.08.26,1.666,1.666,0,0,1-.12.23,1.632,1.632,0,0,1-.17.2,1.371,1.371,0,0,1-.96.4" fill="#fff"/>
      <path id="패스_6983" data-name="패스 6983" d="M194.134,240.747a1.345,1.345,0,1,1,1.35,1.35,1.344,1.344,0,0,1-1.35-1.35m0-7.25a1.345,1.345,0,1,1,1.35,1.35,1.344,1.344,0,0,1-1.35-1.35m0-7.25a1.345,1.345,0,1,1,1.35,1.35,1.344,1.344,0,0,1-1.35-1.35m0-7.25a1.345,1.345,0,1,1,1.35,1.35,1.351,1.351,0,0,1-1.35-1.35m0-7.25a1.345,1.345,0,1,1,1.35,1.35,1.351,1.351,0,0,1-1.35-1.35m0-7.25a1.345,1.345,0,1,1,1.35,1.35,1.351,1.351,0,0,1-1.35-1.35m0-7.25a1.345,1.345,0,1,1,1.35,1.35,1.351,1.351,0,0,1-1.35-1.35m0-7.25a1.345,1.345,0,1,1,1.35,1.35,1.351,1.351,0,0,1-1.35-1.35m0-7.25a1.345,1.345,0,1,1,1.35,1.35,1.351,1.351,0,0,1-1.35-1.35m0-7.25a1.345,1.345,0,1,1,1.35,1.35,1.342,1.342,0,0,1-1.35-1.35m0-7.24a1.345,1.345,0,1,1,1.35,1.34,1.344,1.344,0,0,1-1.35-1.34m0-7.25a1.345,1.345,0,1,1,1.35,1.34,1.344,1.344,0,0,1-1.35-1.34m0-7.25a1.345,1.345,0,1,1,1.35,1.35,1.344,1.344,0,0,1-1.35-1.35m0-7.25a1.345,1.345,0,1,1,1.35,1.35,1.344,1.344,0,0,1-1.35-1.35m0-7.25a1.345,1.345,0,1,1,1.35,1.35,1.344,1.344,0,0,1-1.35-1.35m0-7.25a1.345,1.345,0,1,1,1.35,1.35,1.344,1.344,0,0,1-1.35-1.35m0-7.25a1.345,1.345,0,1,1,1.35,1.35,1.344,1.344,0,0,1-1.35-1.35m0-7.25a1.345,1.345,0,1,1,1.35,1.35,1.344,1.344,0,0,1-1.35-1.35" fill="#fff"/>
      <path id="패스_6984" data-name="패스 6984" d="M195.474,249.347a1.366,1.366,0,0,1-.95-.4,1.633,1.633,0,0,1-.17-.2,1.344,1.344,0,0,1-.12-.24,1.827,1.827,0,0,1-.08-.25,1.14,1.14,0,0,1-.02-.26,1.228,1.228,0,0,1,.02-.27,2.411,2.411,0,0,1,.08-.25,1.008,1.008,0,0,1,.12-.23,1.734,1.734,0,0,1,.17-.21,1.4,1.4,0,0,1,1.22-.37,2.411,2.411,0,0,1,.25.08,1.71,1.71,0,0,1,.23.13.835.835,0,0,1,.21.16,1.734,1.734,0,0,1,.17.21,1.666,1.666,0,0,1,.12.23,2.414,2.414,0,0,1,.08.25,1.228,1.228,0,0,1,.02.27,1.14,1.14,0,0,1-.02.26,1.83,1.83,0,0,1-.08.25c-.03.08-.08.16-.12.24a1.633,1.633,0,0,1-.17.2,1.2,1.2,0,0,1-.21.17,1.007,1.007,0,0,1-.23.12,1.21,1.21,0,0,1-.25.08,1.241,1.241,0,0,1-.27.03" fill="#fff"/>
      <path id="패스_6985" data-name="패스 6985" d="M188.324,111.607a1.348,1.348,0,0,1-.95-.4,1.062,1.062,0,0,1-.17-.2,1.711,1.711,0,0,1-.13-.23,1.255,1.255,0,0,1-.07-.26,1.142,1.142,0,0,1,0-.52,1.255,1.255,0,0,1,.07-.26,1.71,1.71,0,0,1,.13-.23,1.062,1.062,0,0,1,.17-.2,1.381,1.381,0,0,1,1.9,0,1.062,1.062,0,0,1,.17.2,1.007,1.007,0,0,1,.12.23,1.293,1.293,0,0,1,.08.26,1.142,1.142,0,0,1,0,.52,1.293,1.293,0,0,1-.08.26,1.008,1.008,0,0,1-.12.23,1.062,1.062,0,0,1-.17.2,1.366,1.366,0,0,1-.95.4" fill="#fff"/>
      <path id="패스_6986" data-name="패스 6986" d="M186.974,240.747a1.35,1.35,0,1,1,1.35,1.35,1.344,1.344,0,0,1-1.35-1.35m0-7.25a1.35,1.35,0,1,1,1.35,1.35,1.344,1.344,0,0,1-1.35-1.35m0-7.25a1.35,1.35,0,1,1,1.35,1.35,1.344,1.344,0,0,1-1.35-1.35m0-7.25a1.35,1.35,0,1,1,1.35,1.35,1.351,1.351,0,0,1-1.35-1.35m0-7.25a1.35,1.35,0,1,1,1.35,1.35,1.351,1.351,0,0,1-1.35-1.35m0-7.25a1.35,1.35,0,1,1,1.35,1.35,1.351,1.351,0,0,1-1.35-1.35m0-7.25a1.35,1.35,0,1,1,1.35,1.35,1.351,1.351,0,0,1-1.35-1.35m0-7.25a1.35,1.35,0,1,1,1.35,1.35,1.351,1.351,0,0,1-1.35-1.35m0-7.25a1.35,1.35,0,1,1,1.35,1.35,1.351,1.351,0,0,1-1.35-1.35m0-7.25a1.35,1.35,0,1,1,1.35,1.35,1.342,1.342,0,0,1-1.35-1.35m0-7.24a1.35,1.35,0,1,1,1.35,1.34,1.344,1.344,0,0,1-1.35-1.34m0-7.25a1.35,1.35,0,1,1,1.35,1.34,1.344,1.344,0,0,1-1.35-1.34m0-7.25a1.35,1.35,0,1,1,1.35,1.35,1.344,1.344,0,0,1-1.35-1.35m0-7.25a1.35,1.35,0,1,1,1.35,1.35,1.344,1.344,0,0,1-1.35-1.35m0-7.25a1.35,1.35,0,1,1,1.35,1.35,1.344,1.344,0,0,1-1.35-1.35m0-7.25a1.35,1.35,0,1,1,1.35,1.35,1.344,1.344,0,0,1-1.35-1.35m0-7.25a1.35,1.35,0,1,1,1.35,1.35,1.344,1.344,0,0,1-1.35-1.35m0-7.25a1.35,1.35,0,1,1,1.35,1.35,1.344,1.344,0,0,1-1.35-1.35" fill="#fff"/>
      <path id="패스_6987" data-name="패스 6987" d="M188.324,249.347a1.09,1.09,0,0,1-.26-.03,1.123,1.123,0,0,1-.26-.08,1.007,1.007,0,0,1-.23-.12,1.633,1.633,0,0,1-.2-.17,1.062,1.062,0,0,1-.17-.2c-.05-.08-.09-.16-.13-.24a1.028,1.028,0,0,1-.07-.25,1.153,1.153,0,0,1-.03-.26,1.241,1.241,0,0,1,.03-.27,1.171,1.171,0,0,1,.07-.25,1.711,1.711,0,0,1,.13-.23,1.119,1.119,0,0,1,.17-.21,1,1,0,0,1,.2-.16,1.71,1.71,0,0,1,.23-.13,1.974,1.974,0,0,1,.26-.08,1.513,1.513,0,0,1,.52,0,2.58,2.58,0,0,1,.26.08c.08.04.15.08.23.13a1,1,0,0,1,.2.16,1.734,1.734,0,0,1,.17.21,1.008,1.008,0,0,1,.12.23,1.209,1.209,0,0,1,.08.25,1.241,1.241,0,0,1,.03.27,1.153,1.153,0,0,1-.03.26,1.043,1.043,0,0,1-.08.25,1.343,1.343,0,0,1-.12.24,1.624,1.624,0,0,1-.37.37,1.267,1.267,0,0,1-.23.12,1.294,1.294,0,0,1-.26.08,1.09,1.09,0,0,1-.26.03" fill="#fff"/>
      <path id="패스_6988" data-name="패스 6988" d="M181.164,111.607a1.222,1.222,0,0,1-.26-.03,1.027,1.027,0,0,1-.25-.07,1.71,1.71,0,0,1-.23-.13.87.87,0,0,1-.21-.17,1.631,1.631,0,0,1-.17-.2,1.008,1.008,0,0,1-.12-.23,2.584,2.584,0,0,1-.08-.26,1.7,1.7,0,0,1,0-.52,2.584,2.584,0,0,1,.08-.26,1.007,1.007,0,0,1,.12-.23,1.63,1.63,0,0,1,.17-.2,1.393,1.393,0,0,1,1.91,0,1.631,1.631,0,0,1,.17.2,1.665,1.665,0,0,1,.12.23,2.584,2.584,0,0,1,.08.26,1.7,1.7,0,0,1,0,.52,2.584,2.584,0,0,1-.08.26,1.666,1.666,0,0,1-.12.23,1.631,1.631,0,0,1-.17.2.87.87,0,0,1-.21.17,1.71,1.71,0,0,1-.23.13,1.17,1.17,0,0,1-.25.07,1.242,1.242,0,0,1-.27.03" fill="#fff"/>
      <path id="패스_6989" data-name="패스 6989" d="M179.824,240.747a1.345,1.345,0,1,1,1.34,1.35,1.342,1.342,0,0,1-1.34-1.35m0-7.25a1.345,1.345,0,1,1,1.34,1.35,1.342,1.342,0,0,1-1.34-1.35m0-7.25a1.345,1.345,0,1,1,1.34,1.35,1.342,1.342,0,0,1-1.34-1.35m0-7.25a1.345,1.345,0,1,1,1.34,1.35,1.349,1.349,0,0,1-1.34-1.35m0-7.25a1.345,1.345,0,1,1,1.34,1.35,1.349,1.349,0,0,1-1.34-1.35m0-7.25a1.345,1.345,0,1,1,1.34,1.35,1.349,1.349,0,0,1-1.34-1.35m0-7.25a1.345,1.345,0,1,1,1.34,1.35,1.349,1.349,0,0,1-1.34-1.35m0-7.25a1.345,1.345,0,1,1,1.34,1.35,1.349,1.349,0,0,1-1.34-1.35m0-7.25a1.345,1.345,0,1,1,1.34,1.35,1.349,1.349,0,0,1-1.34-1.35m0-7.25a1.345,1.345,0,1,1,1.34,1.35,1.34,1.34,0,0,1-1.34-1.35m0-7.24a1.345,1.345,0,1,1,1.34,1.34,1.342,1.342,0,0,1-1.34-1.34m0-7.25a1.345,1.345,0,1,1,1.34,1.34,1.342,1.342,0,0,1-1.34-1.34m0-7.25a1.345,1.345,0,1,1,1.34,1.35,1.342,1.342,0,0,1-1.34-1.35m0-7.25a1.345,1.345,0,1,1,1.34,1.35,1.342,1.342,0,0,1-1.34-1.35m0-7.25a1.345,1.345,0,1,1,1.34,1.35,1.342,1.342,0,0,1-1.34-1.35m0-7.25a1.345,1.345,0,1,1,1.34,1.35,1.342,1.342,0,0,1-1.34-1.35m0-7.25a1.345,1.345,0,1,1,1.34,1.35,1.342,1.342,0,0,1-1.34-1.35m0-7.25a1.345,1.345,0,1,1,1.34,1.35,1.342,1.342,0,0,1-1.34-1.35" fill="#fff"/>
      <path id="패스_6990" data-name="패스 6990" d="M181.164,249.347a1.366,1.366,0,0,1-.95-.4,1.632,1.632,0,0,1-.17-.2,1.343,1.343,0,0,1-.12-.24,1.83,1.83,0,0,1-.08-.25,1.141,1.141,0,0,1-.02-.26,1.229,1.229,0,0,1,.02-.27,2.414,2.414,0,0,1,.08-.25,1.008,1.008,0,0,1,.12-.23,1.732,1.732,0,0,1,.17-.21,1.4,1.4,0,0,1,1.22-.37,2.411,2.411,0,0,1,.25.08,1.711,1.711,0,0,1,.23.13.834.834,0,0,1,.21.16,1.732,1.732,0,0,1,.17.21,1.666,1.666,0,0,1,.12.23,2.414,2.414,0,0,1,.08.25,2.453,2.453,0,0,1,.02.27,2.276,2.276,0,0,1-.02.26,1.83,1.83,0,0,1-.08.25c-.03.08-.08.16-.12.24a1.632,1.632,0,0,1-.17.2,1.2,1.2,0,0,1-.21.17,1.007,1.007,0,0,1-.23.12,1.21,1.21,0,0,1-.25.08,1.241,1.241,0,0,1-.27.03" fill="#fff"/>
      <path id="패스_6991" data-name="패스 6991" d="M174.014,111.607a1.09,1.09,0,0,1-.26-.03,1.107,1.107,0,0,1-.26-.07,1.709,1.709,0,0,1-.23-.13,1.624,1.624,0,0,1-.37-.37,1.709,1.709,0,0,1-.13-.23,1.254,1.254,0,0,1-.07-.26,1.142,1.142,0,0,1,0-.52,1.254,1.254,0,0,1,.07-.26,1.709,1.709,0,0,1,.13-.23,1.623,1.623,0,0,1,.37-.37,1.007,1.007,0,0,1,.23-.12,1.123,1.123,0,0,1,.26-.08,1.142,1.142,0,0,1,.52,0,1.044,1.044,0,0,1,.25.08,1.077,1.077,0,0,1,.24.12,1.061,1.061,0,0,1,.2.17,1.632,1.632,0,0,1,.17.2,1.007,1.007,0,0,1,.12.23,1.293,1.293,0,0,1,.08.26,1.142,1.142,0,0,1,0,.52,1.293,1.293,0,0,1-.08.26,1.008,1.008,0,0,1-.12.23,1.632,1.632,0,0,1-.17.2,1.061,1.061,0,0,1-.2.17,1.834,1.834,0,0,1-.24.13,1.027,1.027,0,0,1-.25.07,1.09,1.09,0,0,1-.26.03" fill="#fff"/>
      <path id="패스_6992" data-name="패스 6992" d="M172.664,240.747a1.35,1.35,0,1,1,1.35,1.35,1.344,1.344,0,0,1-1.35-1.35m0-7.25a1.35,1.35,0,1,1,1.35,1.35,1.344,1.344,0,0,1-1.35-1.35m0-7.25a1.35,1.35,0,1,1,1.35,1.35,1.344,1.344,0,0,1-1.35-1.35m0-7.25a1.35,1.35,0,1,1,1.35,1.35,1.351,1.351,0,0,1-1.35-1.35m0-7.25a1.35,1.35,0,1,1,1.35,1.35,1.351,1.351,0,0,1-1.35-1.35m0-7.25a1.35,1.35,0,1,1,1.35,1.35,1.351,1.351,0,0,1-1.35-1.35m0-7.25a1.35,1.35,0,1,1,1.35,1.35,1.351,1.351,0,0,1-1.35-1.35m0-7.25a1.35,1.35,0,1,1,1.35,1.35,1.351,1.351,0,0,1-1.35-1.35m0-7.25a1.35,1.35,0,1,1,1.35,1.35,1.351,1.351,0,0,1-1.35-1.35m0-7.25a1.35,1.35,0,1,1,1.35,1.35,1.342,1.342,0,0,1-1.35-1.35m0-7.24a1.35,1.35,0,1,1,1.35,1.34,1.344,1.344,0,0,1-1.35-1.34m0-7.25a1.35,1.35,0,1,1,1.35,1.34,1.344,1.344,0,0,1-1.35-1.34m0-7.25a1.35,1.35,0,1,1,1.35,1.35,1.344,1.344,0,0,1-1.35-1.35m0-7.25a1.35,1.35,0,1,1,1.35,1.35,1.344,1.344,0,0,1-1.35-1.35m0-7.25a1.35,1.35,0,1,1,1.35,1.35,1.344,1.344,0,0,1-1.35-1.35m0-7.25a1.35,1.35,0,1,1,1.35,1.35,1.344,1.344,0,0,1-1.35-1.35m0-7.25a1.35,1.35,0,1,1,1.35,1.35,1.344,1.344,0,0,1-1.35-1.35m0-7.25a1.35,1.35,0,1,1,1.35,1.35,1.344,1.344,0,0,1-1.35-1.35" fill="#fff"/>
      <path id="패스_6993" data-name="패스 6993" d="M174.014,249.347a1.09,1.09,0,0,1-.26-.03,1.123,1.123,0,0,1-.26-.08,1.007,1.007,0,0,1-.23-.12c-.07-.05-.14-.11-.21-.17a1.559,1.559,0,0,1-.16-.2c-.05-.08-.09-.16-.13-.24a1.026,1.026,0,0,1-.07-.25,1.153,1.153,0,0,1-.03-.26,1.241,1.241,0,0,1,.03-.27,1.169,1.169,0,0,1,.07-.25,1.709,1.709,0,0,1,.13-.23,1.661,1.661,0,0,1,.16-.21,1.462,1.462,0,0,1,.21-.16,1.71,1.71,0,0,1,.23-.13,1.974,1.974,0,0,1,.26-.08,1.384,1.384,0,0,1,1.21.37,1.734,1.734,0,0,1,.17.21,1.008,1.008,0,0,1,.12.23,1.209,1.209,0,0,1,.08.25,1.241,1.241,0,0,1,.03.27,1.153,1.153,0,0,1-.03.26,1.043,1.043,0,0,1-.08.25,1.343,1.343,0,0,1-.12.24,1.633,1.633,0,0,1-.17.2,1.348,1.348,0,0,1-.95.4" fill="#fff"/>
      <path id="패스_6994" data-name="패스 6994" d="M166.854,111.607a1.366,1.366,0,0,1-.95-.4,1.631,1.631,0,0,1-.17-.2,1.008,1.008,0,0,1-.12-.23,1.294,1.294,0,0,1-.08-.26,1.7,1.7,0,0,1,0-.52,1.294,1.294,0,0,1,.08-.26,1.008,1.008,0,0,1,.12-.23,1.631,1.631,0,0,1,.17-.2,1.393,1.393,0,0,1,1.91,0,1.63,1.63,0,0,1,.17.2,1.664,1.664,0,0,1,.12.23,2.584,2.584,0,0,1,.08.26,1.7,1.7,0,0,1,0,.52,2.584,2.584,0,0,1-.08.26,1.664,1.664,0,0,1-.12.23,1.631,1.631,0,0,1-.17.2,1.371,1.371,0,0,1-.96.4" fill="#fff"/>
      <path id="패스_6995" data-name="패스 6995" d="M165.514,240.747a1.345,1.345,0,1,1,1.34,1.35,1.342,1.342,0,0,1-1.34-1.35m0-7.25a1.345,1.345,0,1,1,1.34,1.35,1.342,1.342,0,0,1-1.34-1.35m0-7.25a1.345,1.345,0,1,1,1.34,1.35,1.342,1.342,0,0,1-1.34-1.35m0-7.25a1.345,1.345,0,1,1,1.34,1.35,1.349,1.349,0,0,1-1.34-1.35m0-7.25a1.345,1.345,0,1,1,1.34,1.35,1.349,1.349,0,0,1-1.34-1.35m0-7.25a1.345,1.345,0,1,1,1.34,1.35,1.349,1.349,0,0,1-1.34-1.35m0-7.25a1.345,1.345,0,1,1,1.34,1.35,1.349,1.349,0,0,1-1.34-1.35m0-7.25a1.345,1.345,0,1,1,1.34,1.35,1.349,1.349,0,0,1-1.34-1.35m0-7.25a1.345,1.345,0,1,1,1.34,1.35,1.349,1.349,0,0,1-1.34-1.35m0-7.25a1.345,1.345,0,1,1,1.34,1.35,1.34,1.34,0,0,1-1.34-1.35m0-7.24a1.345,1.345,0,1,1,1.34,1.34,1.342,1.342,0,0,1-1.34-1.34m0-7.25a1.345,1.345,0,1,1,1.34,1.34,1.342,1.342,0,0,1-1.34-1.34m0-7.25a1.345,1.345,0,1,1,1.34,1.35,1.342,1.342,0,0,1-1.34-1.35m0-7.25a1.345,1.345,0,1,1,1.34,1.35,1.342,1.342,0,0,1-1.34-1.35m0-7.25a1.345,1.345,0,1,1,1.34,1.35,1.342,1.342,0,0,1-1.34-1.35m0-7.25a1.345,1.345,0,1,1,1.34,1.35,1.342,1.342,0,0,1-1.34-1.35m0-7.25a1.345,1.345,0,1,1,1.34,1.35,1.342,1.342,0,0,1-1.34-1.35m0-7.25a1.345,1.345,0,1,1,1.34,1.35,1.342,1.342,0,0,1-1.34-1.35" fill="#fff"/>
      <path id="패스_6996" data-name="패스 6996" d="M166.854,249.347a1.366,1.366,0,0,1-.95-.4,1.632,1.632,0,0,1-.17-.2,1.344,1.344,0,0,1-.12-.24,1.83,1.83,0,0,1-.08-.25,1.141,1.141,0,0,1-.02-.26,1.229,1.229,0,0,1,.02-.27,1.21,1.21,0,0,1,.08-.25,1.008,1.008,0,0,1,.12-.23,1.732,1.732,0,0,1,.17-.21,1.4,1.4,0,0,1,1.22-.37,2.409,2.409,0,0,1,.25.08,1.711,1.711,0,0,1,.23.13.834.834,0,0,1,.21.16,1.061,1.061,0,0,1,.16.21,1.711,1.711,0,0,1,.13.23,1.17,1.17,0,0,1,.07.25,1.241,1.241,0,0,1,.03.27,1.153,1.153,0,0,1-.03.26,1.027,1.027,0,0,1-.07.25c-.04.08-.08.16-.13.24a1,1,0,0,1-.16.2,1.2,1.2,0,0,1-.21.17,1.008,1.008,0,0,1-.23.12,1.209,1.209,0,0,1-.25.08,1.241,1.241,0,0,1-.27.03" fill="#fff"/>
      <path id="패스_6997" data-name="패스 6997" d="M159.7,111.607a1.09,1.09,0,0,1-.26-.03,1.107,1.107,0,0,1-.26-.07,1.71,1.71,0,0,1-.23-.13,1.624,1.624,0,0,1-.37-.37,1.711,1.711,0,0,1-.13-.23,1.254,1.254,0,0,1-.07-.26,1.142,1.142,0,0,1,0-.52,1.254,1.254,0,0,1,.07-.26,1.71,1.71,0,0,1,.13-.23,1.062,1.062,0,0,1,.17-.2,1.381,1.381,0,0,1,1.9,0,1.632,1.632,0,0,1,.17.2,1.008,1.008,0,0,1,.12.23,1.294,1.294,0,0,1,.08.26,1.142,1.142,0,0,1,0,.52,1.294,1.294,0,0,1-.08.26,1.008,1.008,0,0,1-.12.23,1.632,1.632,0,0,1-.17.2,1.062,1.062,0,0,1-.2.17,1.834,1.834,0,0,1-.24.13,1.027,1.027,0,0,1-.25.07,1.153,1.153,0,0,1-.26.03" fill="#fff"/>
      <path id="패스_6998" data-name="패스 6998" d="M158.354,240.747a1.35,1.35,0,1,1,1.35,1.35,1.344,1.344,0,0,1-1.35-1.35m0-7.25a1.35,1.35,0,1,1,1.35,1.35,1.344,1.344,0,0,1-1.35-1.35m0-7.25a1.35,1.35,0,1,1,1.35,1.35,1.344,1.344,0,0,1-1.35-1.35m0-7.25a1.35,1.35,0,1,1,1.35,1.35,1.351,1.351,0,0,1-1.35-1.35m0-7.25a1.35,1.35,0,1,1,1.35,1.35,1.351,1.351,0,0,1-1.35-1.35m0-7.25a1.35,1.35,0,1,1,1.35,1.35,1.351,1.351,0,0,1-1.35-1.35m0-7.25a1.35,1.35,0,1,1,1.35,1.35,1.351,1.351,0,0,1-1.35-1.35m0-7.25a1.35,1.35,0,1,1,1.35,1.35,1.351,1.351,0,0,1-1.35-1.35m0-7.25a1.35,1.35,0,1,1,1.35,1.35,1.351,1.351,0,0,1-1.35-1.35m0-7.25a1.35,1.35,0,1,1,1.35,1.35,1.342,1.342,0,0,1-1.35-1.35m0-7.24a1.35,1.35,0,1,1,1.35,1.34,1.344,1.344,0,0,1-1.35-1.34m0-7.25a1.35,1.35,0,1,1,1.35,1.34,1.344,1.344,0,0,1-1.35-1.34m0-7.25a1.35,1.35,0,1,1,1.35,1.35,1.344,1.344,0,0,1-1.35-1.35m0-7.25a1.35,1.35,0,1,1,1.35,1.35,1.344,1.344,0,0,1-1.35-1.35m0-7.25a1.35,1.35,0,1,1,1.35,1.35,1.344,1.344,0,0,1-1.35-1.35m0-7.25a1.35,1.35,0,1,1,1.35,1.35,1.344,1.344,0,0,1-1.35-1.35m0-7.25a1.35,1.35,0,1,1,1.35,1.35,1.344,1.344,0,0,1-1.35-1.35m0-7.25a1.35,1.35,0,1,1,1.35,1.35,1.344,1.344,0,0,1-1.35-1.35" fill="#fff"/>
      <path id="패스_6999" data-name="패스 6999" d="M159.7,249.347a1.09,1.09,0,0,1-.26-.03,1.123,1.123,0,0,1-.26-.08,1.008,1.008,0,0,1-.23-.12c-.07-.05-.14-.11-.21-.17a1.559,1.559,0,0,1-.16-.2c-.05-.08-.09-.16-.13-.24a1.027,1.027,0,0,1-.07-.25,1.153,1.153,0,0,1-.03-.26,1.241,1.241,0,0,1,.03-.27,1.17,1.17,0,0,1,.07-.25,1.711,1.711,0,0,1,.13-.23,1.661,1.661,0,0,1,.16-.21,1.462,1.462,0,0,1,.21-.16,1.711,1.711,0,0,1,.23-.13,1.974,1.974,0,0,1,.26-.08,1.513,1.513,0,0,1,.52,0,1.435,1.435,0,0,1,.49.21,1,1,0,0,1,.2.16,1.734,1.734,0,0,1,.17.21,1.008,1.008,0,0,1,.12.23,1.21,1.21,0,0,1,.08.25,1.241,1.241,0,0,1,.03.27,1.153,1.153,0,0,1-.03.26,1.044,1.044,0,0,1-.08.25,1.344,1.344,0,0,1-.12.24,1.623,1.623,0,0,1-.37.37,1.077,1.077,0,0,1-.24.12,1.044,1.044,0,0,1-.25.08,1.09,1.09,0,0,1-.26.03" fill="#fff"/>
      <path id="패스_7000" data-name="패스 7000" d="M152.544,111.607a1.366,1.366,0,0,1-.95-.4,1.632,1.632,0,0,1-.17-.2,1.008,1.008,0,0,1-.12-.23,1.294,1.294,0,0,1-.08-.26,1.7,1.7,0,0,1,0-.52,1.294,1.294,0,0,1,.08-.26,1.007,1.007,0,0,1,.12-.23,1.632,1.632,0,0,1,.17-.2,1.393,1.393,0,0,1,1.91,0,1,1,0,0,1,.16.2,1.046,1.046,0,0,1,.13.23,2.58,2.58,0,0,1,.08.26,1.7,1.7,0,0,1,0,.52,2.58,2.58,0,0,1-.08.26,1.046,1.046,0,0,1-.13.23,1,1,0,0,1-.16.2,1.371,1.371,0,0,1-.96.4" fill="#fff"/>
      <path id="패스_7001" data-name="패스 7001" d="M151.194,240.747a1.35,1.35,0,1,1,1.35,1.35,1.351,1.351,0,0,1-1.35-1.35m0-7.25a1.35,1.35,0,1,1,1.35,1.35,1.351,1.351,0,0,1-1.35-1.35m0-7.25a1.35,1.35,0,1,1,1.35,1.35,1.351,1.351,0,0,1-1.35-1.35m0-7.25a1.35,1.35,0,1,1,1.35,1.35,1.357,1.357,0,0,1-1.35-1.35m0-7.25a1.35,1.35,0,1,1,1.35,1.35,1.357,1.357,0,0,1-1.35-1.35m0-7.25a1.35,1.35,0,1,1,1.35,1.35,1.357,1.357,0,0,1-1.35-1.35m0-7.25a1.35,1.35,0,1,1,1.35,1.35,1.357,1.357,0,0,1-1.35-1.35m0-7.25a1.35,1.35,0,1,1,1.35,1.35,1.357,1.357,0,0,1-1.35-1.35m0-7.25a1.35,1.35,0,1,1,1.35,1.35,1.357,1.357,0,0,1-1.35-1.35m0-7.25a1.35,1.35,0,1,1,1.35,1.35,1.349,1.349,0,0,1-1.35-1.35m0-7.24a1.35,1.35,0,1,1,1.35,1.34,1.351,1.351,0,0,1-1.35-1.34m0-7.25a1.35,1.35,0,1,1,1.35,1.34,1.351,1.351,0,0,1-1.35-1.34m0-7.25a1.35,1.35,0,1,1,1.35,1.35,1.351,1.351,0,0,1-1.35-1.35m0-7.25a1.35,1.35,0,1,1,1.35,1.35,1.351,1.351,0,0,1-1.35-1.35m0-7.25a1.35,1.35,0,1,1,1.35,1.35,1.351,1.351,0,0,1-1.35-1.35m0-7.25a1.35,1.35,0,1,1,1.35,1.35,1.351,1.351,0,0,1-1.35-1.35m0-7.25a1.35,1.35,0,1,1,1.35,1.35,1.351,1.351,0,0,1-1.35-1.35m0-7.25a1.35,1.35,0,1,1,1.35,1.35,1.351,1.351,0,0,1-1.35-1.35" fill="#fff"/>
      <path id="패스_7002" data-name="패스 7002" d="M152.544,249.347a1.366,1.366,0,0,1-.95-.4,1.633,1.633,0,0,1-.17-.2,1.343,1.343,0,0,1-.12-.24,1.044,1.044,0,0,1-.08-.25,1.14,1.14,0,0,1-.02-.26,1.228,1.228,0,0,1,.02-.27,1.21,1.21,0,0,1,.08-.25,1.008,1.008,0,0,1,.12-.23,1.734,1.734,0,0,1,.17-.21,1.4,1.4,0,0,1,1.22-.37,2.411,2.411,0,0,1,.25.08,1.711,1.711,0,0,1,.23.13.834.834,0,0,1,.21.16,1.062,1.062,0,0,1,.16.21,1.046,1.046,0,0,1,.13.23,2.411,2.411,0,0,1,.08.25,2.449,2.449,0,0,1,.02.27,2.273,2.273,0,0,1-.02.26,1.827,1.827,0,0,1-.08.25,1.414,1.414,0,0,1-.13.24,1,1,0,0,1-.16.2,1.2,1.2,0,0,1-.21.17,1.008,1.008,0,0,1-.23.12,1.21,1.21,0,0,1-.25.08,1.241,1.241,0,0,1-.27.03" fill="#fff"/>
      <path id="패스_7003" data-name="패스 7003" d="M145.394,111.607a1.09,1.09,0,0,1-.26-.03,1.107,1.107,0,0,1-.26-.07,1.711,1.711,0,0,1-.23-.13,1.624,1.624,0,0,1-.37-.37,1.711,1.711,0,0,1-.13-.23,1.254,1.254,0,0,1-.07-.26,1.142,1.142,0,0,1,0-.52,1.254,1.254,0,0,1,.07-.26,1.71,1.71,0,0,1,.13-.23,1.061,1.061,0,0,1,.17-.2,1.381,1.381,0,0,1,1.9,0,1.631,1.631,0,0,1,.17.2,1.008,1.008,0,0,1,.12.23,1.294,1.294,0,0,1,.08.26,1.142,1.142,0,0,1,0,.52,1.294,1.294,0,0,1-.08.26,1.008,1.008,0,0,1-.12.23,1.631,1.631,0,0,1-.17.2,1.061,1.061,0,0,1-.2.17,1.834,1.834,0,0,1-.24.13,1.027,1.027,0,0,1-.25.07,1.153,1.153,0,0,1-.26.03" fill="#fff"/>
      <path id="패스_7004" data-name="패스 7004" d="M144.044,240.747a1.35,1.35,0,1,1,1.35,1.35,1.344,1.344,0,0,1-1.35-1.35m0-7.25a1.35,1.35,0,1,1,1.35,1.35,1.344,1.344,0,0,1-1.35-1.35m0-7.25a1.35,1.35,0,1,1,1.35,1.35,1.344,1.344,0,0,1-1.35-1.35m0-7.25a1.35,1.35,0,1,1,1.35,1.35,1.351,1.351,0,0,1-1.35-1.35m0-7.25a1.35,1.35,0,1,1,1.35,1.35,1.351,1.351,0,0,1-1.35-1.35m0-7.25a1.35,1.35,0,1,1,1.35,1.35,1.351,1.351,0,0,1-1.35-1.35m0-7.25a1.35,1.35,0,1,1,1.35,1.35,1.351,1.351,0,0,1-1.35-1.35m0-7.25a1.35,1.35,0,1,1,1.35,1.35,1.351,1.351,0,0,1-1.35-1.35m0-7.25a1.35,1.35,0,1,1,1.35,1.35,1.351,1.351,0,0,1-1.35-1.35m0-7.25a1.35,1.35,0,1,1,1.35,1.35,1.342,1.342,0,0,1-1.35-1.35m0-7.24a1.35,1.35,0,1,1,1.35,1.34,1.344,1.344,0,0,1-1.35-1.34m0-7.25a1.35,1.35,0,1,1,1.35,1.34,1.344,1.344,0,0,1-1.35-1.34m0-7.25a1.35,1.35,0,1,1,1.35,1.35,1.344,1.344,0,0,1-1.35-1.35m0-7.25a1.35,1.35,0,1,1,1.35,1.35,1.344,1.344,0,0,1-1.35-1.35m0-7.25a1.35,1.35,0,1,1,1.35,1.35,1.344,1.344,0,0,1-1.35-1.35m0-7.25a1.35,1.35,0,1,1,1.35,1.35,1.344,1.344,0,0,1-1.35-1.35m0-7.25a1.35,1.35,0,1,1,1.35,1.35,1.344,1.344,0,0,1-1.35-1.35m0-7.25a1.35,1.35,0,1,1,1.35,1.35,1.344,1.344,0,0,1-1.35-1.35" fill="#fff"/>
      <path id="패스_7005" data-name="패스 7005" d="M145.394,249.347a1.09,1.09,0,0,1-.26-.03,1.123,1.123,0,0,1-.26-.08,1.008,1.008,0,0,1-.23-.12c-.07-.05-.14-.11-.21-.17a1.558,1.558,0,0,1-.16-.2c-.05-.08-.09-.16-.13-.24a1.027,1.027,0,0,1-.07-.25,1.153,1.153,0,0,1-.03-.26,1.241,1.241,0,0,1,.03-.27,1.17,1.17,0,0,1,.07-.25,1.711,1.711,0,0,1,.13-.23,1.66,1.66,0,0,1,.16-.21,1.462,1.462,0,0,1,.21-.16,1.712,1.712,0,0,1,.23-.13,1.974,1.974,0,0,1,.26-.08,1.513,1.513,0,0,1,.52,0,1.435,1.435,0,0,1,.49.21,1,1,0,0,1,.2.16,1.732,1.732,0,0,1,.17.21,1.008,1.008,0,0,1,.12.23,1.21,1.21,0,0,1,.08.25,1.242,1.242,0,0,1,.03.27,1.154,1.154,0,0,1-.03.26,1.044,1.044,0,0,1-.08.25,1.344,1.344,0,0,1-.12.24,1.624,1.624,0,0,1-.37.37,1.077,1.077,0,0,1-.24.12,1.044,1.044,0,0,1-.25.08,1.09,1.09,0,0,1-.26.03" fill="#fff"/>
      <path id="패스_7006" data-name="패스 7006" d="M138.234,111.607a1.366,1.366,0,0,1-.95-.4,1.632,1.632,0,0,1-.17-.2,1.008,1.008,0,0,1-.12-.23,1.293,1.293,0,0,1-.08-.26,1.7,1.7,0,0,1,0-.52,1.293,1.293,0,0,1,.08-.26,1.007,1.007,0,0,1,.12-.23,1.632,1.632,0,0,1,.17-.2,1.393,1.393,0,0,1,1.91,0,1,1,0,0,1,.16.2,1.709,1.709,0,0,1,.13.23,2.576,2.576,0,0,1,.08.26,1.7,1.7,0,0,1,0,.52,2.576,2.576,0,0,1-.08.26,1.709,1.709,0,0,1-.13.23,1,1,0,0,1-.16.2,1.371,1.371,0,0,1-.96.4" fill="#fff"/>
      <path id="패스_7007" data-name="패스 7007" d="M136.884,240.747a1.35,1.35,0,1,1,1.35,1.35,1.351,1.351,0,0,1-1.35-1.35m0-7.25a1.35,1.35,0,1,1,1.35,1.35,1.351,1.351,0,0,1-1.35-1.35m0-7.25a1.35,1.35,0,1,1,1.35,1.35,1.351,1.351,0,0,1-1.35-1.35m0-7.25a1.35,1.35,0,1,1,1.35,1.35,1.357,1.357,0,0,1-1.35-1.35m0-7.25a1.35,1.35,0,1,1,1.35,1.35,1.357,1.357,0,0,1-1.35-1.35m0-7.25a1.35,1.35,0,1,1,1.35,1.35,1.357,1.357,0,0,1-1.35-1.35m0-7.25a1.35,1.35,0,1,1,1.35,1.35,1.357,1.357,0,0,1-1.35-1.35m0-7.25a1.35,1.35,0,1,1,1.35,1.35,1.357,1.357,0,0,1-1.35-1.35m0-7.25a1.35,1.35,0,1,1,1.35,1.35,1.357,1.357,0,0,1-1.35-1.35m0-7.25a1.35,1.35,0,1,1,1.35,1.35,1.349,1.349,0,0,1-1.35-1.35m0-7.24a1.35,1.35,0,1,1,1.35,1.34,1.351,1.351,0,0,1-1.35-1.34m0-7.25a1.35,1.35,0,1,1,1.35,1.34,1.351,1.351,0,0,1-1.35-1.34m0-7.25a1.35,1.35,0,1,1,1.35,1.35,1.351,1.351,0,0,1-1.35-1.35m0-7.25a1.35,1.35,0,1,1,1.35,1.35,1.351,1.351,0,0,1-1.35-1.35m0-7.25a1.35,1.35,0,1,1,1.35,1.35,1.351,1.351,0,0,1-1.35-1.35m0-7.25a1.35,1.35,0,1,1,1.35,1.35,1.351,1.351,0,0,1-1.35-1.35m0-7.25a1.35,1.35,0,1,1,1.35,1.35,1.351,1.351,0,0,1-1.35-1.35m0-7.25a1.35,1.35,0,1,1,1.35,1.35,1.351,1.351,0,0,1-1.35-1.35" fill="#fff"/>
      <path id="패스_7008" data-name="패스 7008" d="M138.234,249.347a1.366,1.366,0,0,1-.95-.4,1.633,1.633,0,0,1-.17-.2,1.343,1.343,0,0,1-.12-.24,1.043,1.043,0,0,1-.08-.25,1.153,1.153,0,0,1-.03-.26,1.241,1.241,0,0,1,.03-.27,1.209,1.209,0,0,1,.08-.25,1.008,1.008,0,0,1,.12-.23,1.734,1.734,0,0,1,.17-.21,1.4,1.4,0,0,1,1.22-.37,2.411,2.411,0,0,1,.25.08,1.71,1.71,0,0,1,.23.13.834.834,0,0,1,.21.16,1.062,1.062,0,0,1,.16.21,1.709,1.709,0,0,1,.13.23,2.407,2.407,0,0,1,.08.25,2.449,2.449,0,0,1,.02.27,2.273,2.273,0,0,1-.02.26,1.825,1.825,0,0,1-.08.25c-.04.08-.08.16-.13.24a1,1,0,0,1-.16.2,1.2,1.2,0,0,1-.21.17,1.007,1.007,0,0,1-.23.12,1.21,1.21,0,0,1-.25.08,1.241,1.241,0,0,1-.27.03" fill="#fff"/>
      <path id="패스_7009" data-name="패스 7009" d="M131.084,111.607a1.39,1.39,0,0,1-.96-.4,1.559,1.559,0,0,1-.16-.2,1.709,1.709,0,0,1-.13-.23,1.254,1.254,0,0,1-.07-.26,1.141,1.141,0,0,1,0-.52,1.254,1.254,0,0,1,.07-.26,1.709,1.709,0,0,1,.13-.23,1.558,1.558,0,0,1,.16-.2,1.393,1.393,0,0,1,1.91,0,1.63,1.63,0,0,1,.17.2,1.007,1.007,0,0,1,.12.23,1.294,1.294,0,0,1,.08.26,1.142,1.142,0,0,1,0,.52,1.294,1.294,0,0,1-.08.26,1.008,1.008,0,0,1-.12.23,1.631,1.631,0,0,1-.17.2,1.366,1.366,0,0,1-.95.4" fill="#fff"/>
      <path id="패스_7010" data-name="패스 7010" d="M129.734,240.747a1.35,1.35,0,1,1,1.35,1.35,1.344,1.344,0,0,1-1.35-1.35m0-7.25a1.35,1.35,0,1,1,1.35,1.35,1.344,1.344,0,0,1-1.35-1.35m0-7.25a1.35,1.35,0,1,1,1.35,1.35,1.344,1.344,0,0,1-1.35-1.35m0-7.25a1.35,1.35,0,1,1,1.35,1.35,1.351,1.351,0,0,1-1.35-1.35m0-7.25a1.35,1.35,0,1,1,1.35,1.35,1.351,1.351,0,0,1-1.35-1.35m0-7.25a1.35,1.35,0,1,1,1.35,1.35,1.351,1.351,0,0,1-1.35-1.35m0-7.25a1.35,1.35,0,1,1,1.35,1.35,1.351,1.351,0,0,1-1.35-1.35m0-7.25a1.35,1.35,0,1,1,1.35,1.35,1.351,1.351,0,0,1-1.35-1.35m0-7.25a1.35,1.35,0,1,1,1.35,1.35,1.351,1.351,0,0,1-1.35-1.35m0-7.25a1.35,1.35,0,1,1,1.35,1.35,1.342,1.342,0,0,1-1.35-1.35m0-7.24a1.35,1.35,0,1,1,1.35,1.34,1.344,1.344,0,0,1-1.35-1.34m0-7.25a1.35,1.35,0,1,1,1.35,1.34,1.344,1.344,0,0,1-1.35-1.34m0-7.25a1.35,1.35,0,1,1,1.35,1.35,1.344,1.344,0,0,1-1.35-1.35m0-7.25a1.35,1.35,0,1,1,1.35,1.35,1.344,1.344,0,0,1-1.35-1.35m0-7.25a1.35,1.35,0,1,1,1.35,1.35,1.344,1.344,0,0,1-1.35-1.35m0-7.25a1.35,1.35,0,1,1,1.35,1.35,1.344,1.344,0,0,1-1.35-1.35m0-7.25a1.35,1.35,0,1,1,1.35,1.35,1.344,1.344,0,0,1-1.35-1.35m0-7.25a1.35,1.35,0,1,1,1.35,1.35,1.344,1.344,0,0,1-1.35-1.35" fill="#fff"/>
      <path id="패스_7011" data-name="패스 7011" d="M131.084,249.347a1.371,1.371,0,0,1-.96-.4,1.559,1.559,0,0,1-.16-.2c-.05-.08-.09-.16-.13-.24a1.027,1.027,0,0,1-.07-.25,1.153,1.153,0,0,1-.03-.26,1.241,1.241,0,0,1,.03-.27,1.17,1.17,0,0,1,.07-.25,1.709,1.709,0,0,1,.13-.23,1.661,1.661,0,0,1,.16-.21,1.4,1.4,0,0,1,1.22-.37,1.826,1.826,0,0,1,.25.08c.08.04.16.08.24.13a1,1,0,0,1,.2.16,1.732,1.732,0,0,1,.17.21,1.008,1.008,0,0,1,.12.23,1.21,1.21,0,0,1,.08.25,1.242,1.242,0,0,1,.03.27,1.154,1.154,0,0,1-.03.26,1.044,1.044,0,0,1-.08.25,1.343,1.343,0,0,1-.12.24,1.624,1.624,0,0,1-.37.37,1.344,1.344,0,0,1-.24.12,1.044,1.044,0,0,1-.25.08,1.153,1.153,0,0,1-.26.03" fill="#fff"/>
      <path id="패스_7012" data-name="패스 7012" d="M123.924,111.607a1.366,1.366,0,0,1-.95-.4,1.632,1.632,0,0,1-.17-.2,1.008,1.008,0,0,1-.12-.23,1.294,1.294,0,0,1-.08-.26,1.142,1.142,0,0,1,0-.52,1.294,1.294,0,0,1,.08-.26,1.007,1.007,0,0,1,.12-.23,1.631,1.631,0,0,1,.17-.2,1.061,1.061,0,0,1,.2-.17,1.344,1.344,0,0,1,.24-.12,1.044,1.044,0,0,1,.25-.08,1.185,1.185,0,0,1,.53,0,1.209,1.209,0,0,1,.25.08,1.008,1.008,0,0,1,.23.12,1.223,1.223,0,0,1,.37.37,1.709,1.709,0,0,1,.13.23,2.582,2.582,0,0,1,.08.26,1.7,1.7,0,0,1,0,.52,2.582,2.582,0,0,1-.08.26,1.71,1.71,0,0,1-.13.23,1.558,1.558,0,0,1-.16.2,1.39,1.39,0,0,1-.96.4" fill="#fff"/>
      <path id="패스_7013" data-name="패스 7013" d="M122.584,240.747a1.345,1.345,0,1,1,1.34,1.35,1.342,1.342,0,0,1-1.34-1.35m0-7.25a1.345,1.345,0,1,1,1.34,1.35,1.342,1.342,0,0,1-1.34-1.35m0-7.25a1.345,1.345,0,1,1,1.34,1.35,1.342,1.342,0,0,1-1.34-1.35m0-7.25a1.345,1.345,0,1,1,1.34,1.35,1.349,1.349,0,0,1-1.34-1.35m0-7.25a1.345,1.345,0,1,1,1.34,1.35,1.349,1.349,0,0,1-1.34-1.35m0-7.25a1.345,1.345,0,1,1,1.34,1.35,1.349,1.349,0,0,1-1.34-1.35m0-7.25a1.345,1.345,0,1,1,1.34,1.35,1.349,1.349,0,0,1-1.34-1.35m0-7.25a1.345,1.345,0,1,1,1.34,1.35,1.349,1.349,0,0,1-1.34-1.35m0-7.25a1.345,1.345,0,1,1,1.34,1.35,1.349,1.349,0,0,1-1.34-1.35m0-7.25a1.345,1.345,0,1,1,1.34,1.35,1.34,1.34,0,0,1-1.34-1.35m0-7.24a1.345,1.345,0,1,1,1.34,1.34,1.342,1.342,0,0,1-1.34-1.34m0-7.25a1.345,1.345,0,1,1,1.34,1.34,1.342,1.342,0,0,1-1.34-1.34m0-7.25a1.345,1.345,0,1,1,1.34,1.35,1.342,1.342,0,0,1-1.34-1.35m0-7.25a1.345,1.345,0,1,1,1.34,1.35,1.342,1.342,0,0,1-1.34-1.35m0-7.25a1.345,1.345,0,1,1,1.34,1.35,1.342,1.342,0,0,1-1.34-1.35m0-7.25a1.345,1.345,0,1,1,1.34,1.35,1.342,1.342,0,0,1-1.34-1.35m0-7.25a1.345,1.345,0,1,1,1.34,1.35,1.342,1.342,0,0,1-1.34-1.35m0-7.25a1.345,1.345,0,1,1,1.34,1.35,1.342,1.342,0,0,1-1.34-1.35" fill="#fff"/>
      <path id="패스_7014" data-name="패스 7014" d="M123.924,249.347a1.366,1.366,0,0,1-.95-.4,1.632,1.632,0,0,1-.17-.2,1.343,1.343,0,0,1-.12-.24,1.044,1.044,0,0,1-.08-.25,1.153,1.153,0,0,1-.03-.26,1.241,1.241,0,0,1,.03-.27,1.209,1.209,0,0,1,.08-.25,1.008,1.008,0,0,1,.12-.23,1.733,1.733,0,0,1,.17-.21,1.4,1.4,0,0,1,1.22-.37,2.411,2.411,0,0,1,.25.08,1.711,1.711,0,0,1,.23.13.986.986,0,0,1,.37.37,1.71,1.71,0,0,1,.13.23,1.17,1.17,0,0,1,.07.25,1.241,1.241,0,0,1,.03.27,1.153,1.153,0,0,1-.03.26,1.027,1.027,0,0,1-.07.25c-.04.08-.08.16-.13.24a1.559,1.559,0,0,1-.16.2,1.734,1.734,0,0,1-.21.17,1.008,1.008,0,0,1-.23.12,1.21,1.21,0,0,1-.25.08,1.241,1.241,0,0,1-.27.03" fill="#fff"/>
    </g>
  </g>
  <g id="그룹_1815" data-name="그룹 1815">
    <g id="그룹_1814" data-name="그룹 1814" clip-path="url(#clip-path)">
      <rect id="사각형_2124" data-name="사각형 2124" width="4.296" height="23.929" transform="translate(4.17 236.418)" fill="#fff"/>
      <path id="패스_7016" data-name="패스 7016" d="M16.961,260.347h-4.23V242.4h4.032v3.04h.231a5.329,5.329,0,0,1,5.321-3.272c3.735,0,6.181,2.446,6.147,6.742v11.436h-4.2V249.573c0-2.413-1.289-3.834-3.5-3.834-2.248,0-3.8,1.487-3.8,4.1Z" fill="#fff"/>
      <path id="패스_7017" data-name="패스 7017" d="M41.454,245.639H37.918v9.32c0,1.719.859,2.082,1.917,2.082.5,0,1.322-.032,1.85-.066v3.437a13.255,13.255,0,0,1-2.379.166c-3.173,0-5.618-1.553-5.586-4.925V245.639H31.142V242.4H33.72v-4.3h4.2v4.3h3.536Z" fill="#fff"/>
      <path id="패스_7018" data-name="패스 7018" d="M43.936,251.489c0-5.553,3.371-9.32,8.494-9.32,4.4,0,8.2,2.743,8.2,9.055v1.322H48.1c.05,3.058,1.851,4.859,4.594,4.859a3.838,3.838,0,0,0,3.636-1.851h4.131c-.76,3.107-3.636,5.156-7.8,5.156-5.42,0-8.725-3.6-8.725-9.221m12.658-1.818a4.01,4.01,0,0,0-4.1-4.23,4.321,4.321,0,0,0-4.363,4.23Z" fill="#fff"/>
      <path id="패스_7019" data-name="패스 7019" d="M63.669,261.966h4.2c.3,1.554,1.784,2.314,3.932,2.314,2.513,0,4.166-1.091,4.166-3.735v-3.437h-.2a5.349,5.349,0,0,1-5.189,2.975c-4.132,0-7.4-3.008-7.4-8.858,0-5.916,3.272-9.056,7.437-9.056a5.375,5.375,0,0,1,5.156,3.173h.2V242.4h4.163v18.244c0,4.594-3.536,6.809-8.395,6.809-4.759,0-7.767-2.116-8.064-5.487M76,251.291c0-3.4-1.521-5.685-4.264-5.685-2.809,0-4.263,2.413-4.263,5.685,0,3.3,1.487,5.486,4.263,5.486,2.71,0,4.264-2.049,4.264-5.486" fill="#fff"/>
      <path id="패스_7020" data-name="패스 7020" d="M84.164,242.4h4.1v2.975h.2a4.493,4.493,0,0,1,4.429-3.24,11.2,11.2,0,0,1,1.521.1v3.9a7.345,7.345,0,0,0-1.95-.264,3.848,3.848,0,0,0-4.066,3.9v10.576h-4.23Z" fill="#fff"/>
      <path id="패스_7021" data-name="패스 7021" d="M102.773,249.87c1.24-.082,3.818-.231,4.594-.265v-1.421c0-1.784-1.157-2.81-3.239-2.81-1.883,0-3.04.86-3.371,2.149H96.692c.3-3.041,3.04-5.354,7.535-5.354,3.405,0,7.337,1.388,7.337,6.181v12h-4.031v-2.478H107.4a5.59,5.59,0,0,1-5.288,2.842c-3.437,0-6.015-1.883-6.015-5.42,0-4.032,3.338-5.222,6.676-5.42m.43,7.734c2.545,0,4.2-1.687,4.2-3.7v-1.487l-3.966.265c-2.016.164-3.272.991-3.272,2.577,0,1.554,1.256,2.347,3.041,2.347" fill="#fff"/>
      <path id="패스_7022" data-name="패스 7022" d="M124.49,245.639h-3.536v9.32c0,1.719.859,2.082,1.917,2.082.495,0,1.322-.032,1.85-.066v3.437a13.255,13.255,0,0,1-2.379.166c-3.173,0-5.619-1.553-5.586-4.925V245.639h-2.578V242.4h2.578v-4.3h4.2v4.3h3.536Z" fill="#fff"/>
      <path id="패스_7023" data-name="패스 7023" d="M127.434,237.542a2.449,2.449,0,1,1,2.445,2.313,2.388,2.388,0,0,1-2.445-2.313m.3,4.858h4.23v17.946h-4.23Z" fill="#fff"/>
      <path id="패스_7024" data-name="패스 7024" d="M140.225,260.347h-4.23V242.4h4.032v3.04h.231a5.329,5.329,0,0,1,5.321-3.272c3.735,0,6.181,2.446,6.148,6.742v11.436h-4.2V249.573c0-2.413-1.289-3.834-3.5-3.834-2.248,0-3.8,1.487-3.8,4.1Z" fill="#fff"/>
      <path id="패스_7025" data-name="패스 7025" d="M155.531,261.966h4.2c.3,1.554,1.785,2.314,3.933,2.314,2.512,0,4.165-1.091,4.165-3.735v-3.437h-.2a5.349,5.349,0,0,1-5.189,2.975c-4.132,0-7.4-3.008-7.4-8.858,0-5.916,3.272-9.056,7.437-9.056a5.376,5.376,0,0,1,5.156,3.173h.2V242.4h4.164v18.244c0,4.594-3.536,6.809-8.4,6.809-4.759,0-7.767-2.116-8.064-5.487m12.328-10.675c0-3.4-1.521-5.685-4.264-5.685-2.809,0-4.263,2.413-4.263,5.685,0,3.3,1.487,5.486,4.263,5.486,2.71,0,4.264-2.049,4.264-5.486" fill="#fff"/>
      <path id="패스_7026" data-name="패스 7026" d="M194.667,239.955c-3.933,0-6.676,3.007-6.676,8.428,0,5.486,2.776,8.427,6.676,8.427a5.472,5.472,0,0,0,5.718-4.4h4.329c-.661,4.594-4.429,8.263-10.113,8.263-6.313,0-10.94-4.6-10.94-12.3,0-7.734,4.693-12.295,10.94-12.295,5.288,0,9.386,3.074,10.113,8.4h-4.329a5.429,5.429,0,0,0-5.718-4.528" fill="#fff"/>
      <path id="패스_7027" data-name="패스 7027" d="M219.689,242.4h4.2v17.946h-4.066v-3.173h-.2a5.565,5.565,0,0,1-5.387,3.4c-3.536,0-5.982-2.446-6.015-6.742V242.4h4.23v10.774c0,2.281,1.355,3.735,3.4,3.735a3.837,3.837,0,0,0,3.833-4.1Z" fill="#fff"/>
      <path id="패스_7028" data-name="패스 7028" d="M236.879,245.639h-3.536v9.32c0,1.719.859,2.082,1.917,2.082.5,0,1.322-.032,1.85-.066v3.437a13.255,13.255,0,0,1-2.379.166c-3.173,0-5.619-1.553-5.586-4.925V245.639h-2.578V242.4h2.578v-4.3h4.2v4.3h3.536Z" fill="#fff"/>
      <path id="패스_7029" data-name="패스 7029" d="M249.076,245.639H245.54v9.32c0,1.719.859,2.082,1.917,2.082.495,0,1.322-.032,1.85-.066v3.437a13.255,13.255,0,0,1-2.379.166c-3.173,0-5.619-1.553-5.586-4.925V245.639h-2.578V242.4h2.578v-4.3h4.2v4.3h3.536Z" fill="#fff"/>
      <path id="패스_7030" data-name="패스 7030" d="M252.02,237.542a2.449,2.449,0,1,1,2.446,2.313,2.388,2.388,0,0,1-2.446-2.313m.3,4.858h4.23v17.946h-4.23Z" fill="#fff"/>
      <path id="패스_7031" data-name="패스 7031" d="M264.811,260.347h-4.23V242.4h4.032v3.04h.231a5.329,5.329,0,0,1,5.321-3.272c3.735,0,6.181,2.446,6.147,6.742v11.436h-4.2V249.573c0-2.413-1.289-3.834-3.5-3.834-2.248,0-3.8,1.487-3.8,4.1Z" fill="#fff"/>
      <path id="패스_7032" data-name="패스 7032" d="M280.117,261.966h4.2c.3,1.554,1.785,2.314,3.933,2.314,2.512,0,4.165-1.091,4.165-3.735v-3.437h-.2a5.349,5.349,0,0,1-5.189,2.975c-4.132,0-7.4-3.008-7.4-8.858,0-5.916,3.272-9.056,7.437-9.056a5.376,5.376,0,0,1,5.156,3.173h.2V242.4h4.164v18.244c0,4.594-3.536,6.809-8.395,6.809-4.759,0-7.767-2.116-8.064-5.487m12.328-10.675c0-3.4-1.521-5.685-4.264-5.685-2.809,0-4.263,2.413-4.263,5.685,0,3.3,1.487,5.486,4.263,5.486,2.71,0,4.264-2.049,4.264-5.486" fill="#fff"/>
      <rect id="사각형_2125" data-name="사각형 2125" width="10.774" height="3.47" transform="translate(300.711 248.647)" fill="#fff"/>
      <path id="패스_7033" data-name="패스 7033" d="M315.817,236.418h15.567v3.6H320.113v6.543h10.445v3.6H320.113v6.544H331.45v3.636H315.817Z" fill="#fff"/>
      <path id="패스_7034" data-name="패스 7034" d="M334.592,251.39c0-5.982,3.272-9.221,7.437-9.221a5.284,5.284,0,0,1,5.122,3.173h.166v-8.924h4.2v23.929h-4.131V257.5h-.232A5.4,5.4,0,0,1,342,260.677c-4.231,0-7.4-3.371-7.4-9.287m12.824-.033c0-3.47-1.521-5.751-4.264-5.751-2.809,0-4.263,2.413-4.263,5.751,0,3.4,1.487,5.85,4.263,5.85,2.71,0,4.264-2.347,4.264-5.85" fill="#fff"/>
      <path id="패스_7035" data-name="패스 7035" d="M355.549,261.966h4.2c.3,1.554,1.785,2.314,3.933,2.314,2.512,0,4.165-1.091,4.165-3.735v-3.437h-.2a5.349,5.349,0,0,1-5.189,2.975c-4.132,0-7.4-3.008-7.4-8.858,0-5.916,3.272-9.056,7.437-9.056a5.376,5.376,0,0,1,5.156,3.173h.2V242.4h4.164v18.244c0,4.594-3.536,6.809-8.395,6.809-4.759,0-7.767-2.116-8.064-5.487m12.328-10.675c0-3.4-1.521-5.685-4.264-5.685-2.809,0-4.263,2.413-4.263,5.685,0,3.3,1.487,5.486,4.263,5.486,2.71,0,4.264-2.049,4.264-5.486" fill="#fff"/>
      <path id="패스_7036" data-name="패스 7036" d="M375.284,251.489c0-5.553,3.371-9.32,8.494-9.32,4.395,0,8.2,2.743,8.2,9.055v1.322H379.448c.05,3.058,1.851,4.859,4.594,4.859a3.838,3.838,0,0,0,3.636-1.851h4.131c-.76,3.107-3.636,5.156-7.8,5.156-5.42,0-8.725-3.6-8.725-9.221m12.658-1.818a4.01,4.01,0,0,0-4.1-4.23,4.321,4.321,0,0,0-4.363,4.23Z" fill="#fff"/>
      <rect id="사각형_2126" data-name="사각형 2126" width="4.296" height="23.929" transform="translate(403.48 236.418)" fill="#fff"/>
      <path id="패스_7037" data-name="패스 7037" d="M416.272,260.347h-4.23V242.4h4.032v3.04h.231a5.329,5.329,0,0,1,5.321-3.272c3.735,0,6.181,2.446,6.147,6.742v11.436h-4.2V249.573c0-2.413-1.289-3.834-3.5-3.834-2.248,0-3.8,1.487-3.8,4.1Z" fill="#fff"/>
      <path id="패스_7038" data-name="패스 7038" d="M438.815,245.309c-1.818,0-3.14.893-3.107,2.115-.033.926.727,1.62,2.545,2.05l3.041.627c3.4.761,5.023,2.314,5.056,4.892-.033,3.371-2.974,5.718-7.667,5.718-4.561,0-7.271-2.049-7.7-5.487h4.3c.265,1.521,1.454,2.281,3.4,2.281,2.016,0,3.371-.826,3.371-2.149,0-1.024-.826-1.685-2.611-2.082l-2.876-.628c-3.338-.661-5.056-2.412-5.056-4.99,0-3.305,2.842-5.487,7.238-5.487,4.3,0,6.941,2.082,7.238,5.354h-4c-.265-1.355-1.388-2.214-3.173-2.214" fill="#fff"/>
      <path id="패스_7039" data-name="패스 7039" d="M449.262,237.542a2.449,2.449,0,1,1,2.446,2.313,2.389,2.389,0,0,1-2.446-2.313m.3,4.858h4.23v17.946h-4.23Z" fill="#fff"/>
      <path id="패스_7040" data-name="패스 7040" d="M457.592,261.966h4.2c.3,1.554,1.785,2.314,3.933,2.314,2.512,0,4.165-1.091,4.165-3.735v-3.437h-.2a5.349,5.349,0,0,1-5.189,2.975c-4.132,0-7.4-3.008-7.4-8.858,0-5.916,3.272-9.056,7.436-9.056a5.377,5.377,0,0,1,5.157,3.173h.2V242.4h4.164v18.244c0,4.594-3.536,6.809-8.395,6.809-4.759,0-7.767-2.116-8.064-5.487m12.328-10.675c0-3.4-1.521-5.685-4.264-5.685-2.809,0-4.263,2.413-4.263,5.685,0,3.3,1.487,5.486,4.263,5.486,2.71,0,4.264-2.049,4.264-5.486" fill="#fff"/>
      <path id="패스_7041" data-name="패스 7041" d="M482.317,260.347h-4.23V236.418h4.131v9.023h.231c.826-2.016,2.545-3.272,5.321-3.272,3.735,0,6.181,2.413,6.181,6.742v11.436h-4.2V249.573c0-2.446-1.323-3.834-3.537-3.834a3.734,3.734,0,0,0-3.9,4.1Z" fill="#fff"/>
      <path id="패스_7042" data-name="패스 7042" d="M506.909,245.639h-3.536v9.32c0,1.719.859,2.082,1.917,2.082.495,0,1.322-.032,1.85-.066v3.437a13.256,13.256,0,0,1-2.379.166c-3.173,0-5.619-1.553-5.586-4.925V245.639H496.6V242.4h2.578v-4.3h4.2v4.3h3.536Z" fill="#fff"/>
      <path id="패스_7043" data-name="패스 7043" d="M517.157,245.309c-1.818,0-3.14.893-3.107,2.115-.033.926.727,1.62,2.545,2.05l3.041.627c3.4.761,5.023,2.314,5.056,4.892-.033,3.371-2.974,5.718-7.667,5.718-4.561,0-7.271-2.049-7.7-5.487h4.3c.265,1.521,1.454,2.281,3.405,2.281,2.016,0,3.371-.826,3.371-2.149,0-1.024-.826-1.685-2.611-2.082l-2.876-.628c-3.338-.661-5.056-2.412-5.056-4.99,0-3.305,2.842-5.487,7.238-5.487,4.3,0,6.941,2.082,7.238,5.354h-4c-.265-1.355-1.388-2.214-3.173-2.214" fill="#fff"/>
      <path id="패스_7044" data-name="패스 7044" d="M3.674,278.161A2.388,2.388,0,0,1,6.12,275.88a2.3,2.3,0,1,1,0,4.594,2.393,2.393,0,0,1-2.446-2.313m.3,4.858H8.2v17.946H3.971Z" fill="#fff"/>
      <path id="패스_7045" data-name="패스 7045" d="M16.465,300.965h-4.23V283.019h4.032v3.04H16.5a5.329,5.329,0,0,1,5.321-3.272c3.735,0,6.181,2.446,6.147,6.742v11.436h-4.2V290.191c0-2.413-1.289-3.834-3.5-3.834-2.248,0-3.8,1.487-3.8,4.1Z" fill="#fff"/>
      <path id="패스_7046" data-name="패스 7046" d="M50.611,301.3c-6.28,0-10.973-4.6-10.973-12.295,0-7.734,4.693-12.3,10.973-12.3s10.973,4.561,10.973,12.3S56.891,301.3,50.611,301.3m0-20.723c-3.9,0-6.643,2.975-6.643,8.428s2.743,8.427,6.643,8.427,6.643-2.974,6.643-8.427-2.743-8.428-6.643-8.428" fill="#fff"/>
      <path id="패스_7047" data-name="패스 7047" d="M65.421,277.037h4.231v8.924h.165a5.322,5.322,0,0,1,5.123-3.173c4.164,0,7.436,3.239,7.436,9.221,0,5.916-3.206,9.287-7.4,9.287a5.4,5.4,0,0,1-5.156-3.173h-.264v2.843H65.421Zm8.362,20.789c2.809,0,4.3-2.446,4.3-5.85,0-3.338-1.454-5.751-4.3-5.751-2.71,0-4.23,2.281-4.23,5.751,0,3.5,1.52,5.85,4.23,5.85" fill="#fff"/>
      <path id="패스_7048" data-name="패스 7048" d="M84.924,292.108c0-5.553,3.371-9.32,8.494-9.32,4.4,0,8.2,2.743,8.2,9.055v1.322H89.088c.05,3.058,1.851,4.859,4.594,4.859a3.838,3.838,0,0,0,3.636-1.851h4.131c-.76,3.107-3.636,5.156-7.8,5.156-5.42,0-8.725-3.6-8.725-9.221m12.658-1.818a4.01,4.01,0,0,0-4.1-4.23,4.321,4.321,0,0,0-4.363,4.23Z" fill="#fff"/>
      <path id="패스_7049" data-name="패스 7049" d="M111.9,285.927c-1.818,0-3.14.893-3.107,2.115-.033.926.727,1.62,2.545,2.05l3.041.627c3.4.761,5.023,2.314,5.056,4.892-.033,3.371-2.974,5.718-7.667,5.718-4.561,0-7.271-2.049-7.7-5.487h4.3c.265,1.521,1.454,2.281,3.4,2.281,2.016,0,3.371-.826,3.371-2.149,0-1.024-.826-1.685-2.611-2.082l-2.876-.628c-3.338-.661-5.056-2.412-5.056-4.99,0-3.3,2.842-5.487,7.238-5.487,4.3,0,6.941,2.082,7.238,5.354h-4c-.265-1.355-1.388-2.214-3.173-2.214" fill="#fff"/>
      <path id="패스_7050" data-name="패스 7050" d="M122.343,278.161a2.449,2.449,0,1,1,2.446,2.313,2.389,2.389,0,0,1-2.446-2.313m.3,4.858h4.23v17.946h-4.23Z" fill="#fff"/>
      <path id="패스_7051" data-name="패스 7051" d="M139.861,286.258h-3.536v9.32c0,1.719.859,2.082,1.917,2.082.495,0,1.322-.032,1.85-.066v3.437a13.256,13.256,0,0,1-2.379.166c-3.173,0-5.619-1.554-5.586-4.925V286.258h-2.578v-3.239h2.578v-4.3h4.2v4.3h3.536Z" fill="#fff"/>
      <path id="패스_7052" data-name="패스 7052" d="M143.466,307.608v-3.371c.528.033,1.223.066,1.785.066,1.024,0,1.883-.1,2.611-2.016l.363-.958-6.544-18.31h4.462l4.164,13.55h.2l4.164-13.55h4.462l-7.205,20.127c-1.025,2.876-2.909,4.561-6.28,4.561a19.807,19.807,0,0,1-2.181-.1" fill="#fff"/>
      <path id="패스_7053" data-name="패스 7053" d="M175.3,277.037l7.106,17.385h.3l7.106-17.385h5.288v23.929h-4.131V284.507h-.231L184.089,300.9h-3.074l-6.643-16.46h-.2v16.526h-4.164V277.037Z" fill="#fff"/>
      <path id="패스_7054" data-name="패스 7054" d="M205.179,290.488c1.24-.082,3.818-.231,4.594-.264V288.8c0-1.785-1.157-2.81-3.239-2.81-1.883,0-3.04.859-3.371,2.148H199.1c.3-3.04,3.04-5.354,7.535-5.354,3.4,0,7.338,1.389,7.338,6.181v12h-4.032v-2.479h-.133a5.59,5.59,0,0,1-5.288,2.843c-3.437,0-6.015-1.884-6.015-5.42,0-4.033,3.338-5.223,6.676-5.421m.43,7.734c2.544,0,4.2-1.686,4.2-3.7v-1.487l-3.966.264c-2.016.166-3.272.992-3.272,2.578,0,1.554,1.256,2.347,3.041,2.347" fill="#fff"/>
      <path id="패스_7055" data-name="패스 7055" d="M222.17,300.965h-4.23V283.019h4.032v3.04h.231a5.329,5.329,0,0,1,5.321-3.272c3.735,0,6.181,2.446,6.147,6.742v11.436h-4.2V290.191c0-2.413-1.289-3.834-3.5-3.834-2.248,0-3.8,1.487-3.8,4.1Z" fill="#fff"/>
      <path id="패스_7056" data-name="패스 7056" d="M243.556,290.488c1.24-.082,3.818-.231,4.594-.264V288.8c0-1.785-1.157-2.81-3.239-2.81-1.883,0-3.04.859-3.371,2.148h-4.065c.3-3.04,3.04-5.354,7.535-5.354,3.4,0,7.337,1.389,7.337,6.181v12h-4.031v-2.479h-.133a5.59,5.59,0,0,1-5.288,2.843c-3.437,0-6.015-1.884-6.015-5.42,0-4.033,3.338-5.223,6.676-5.421m.43,7.734c2.545,0,4.2-1.686,4.2-3.7v-1.487l-3.966.264c-2.016.166-3.272.992-3.272,2.578,0,1.554,1.256,2.347,3.041,2.347" fill="#fff"/>
      <path id="패스_7057" data-name="패스 7057" d="M256.086,302.585h4.2c.3,1.554,1.785,2.314,3.933,2.314,2.512,0,4.165-1.091,4.165-3.735v-3.437h-.2a5.349,5.349,0,0,1-5.19,2.974c-4.131,0-7.4-3.007-7.4-8.857,0-5.916,3.272-9.056,7.437-9.056a5.376,5.376,0,0,1,5.156,3.173h.2v-2.942h4.164v18.244c0,4.594-3.536,6.809-8.4,6.809-4.759,0-7.767-2.116-8.064-5.487m12.328-10.675c0-3.4-1.521-5.685-4.264-5.685-2.809,0-4.263,2.413-4.263,5.685,0,3.3,1.487,5.486,4.263,5.486,2.71,0,4.264-2.049,4.264-5.486" fill="#fff"/>
      <path id="패스_7058" data-name="패스 7058" d="M275.82,292.108c0-5.553,3.371-9.32,8.494-9.32,4.4,0,8.2,2.743,8.2,9.055v1.322H279.984c.05,3.058,1.851,4.859,4.594,4.859a3.838,3.838,0,0,0,3.636-1.851h4.131c-.76,3.107-3.636,5.156-7.8,5.156-5.42,0-8.725-3.6-8.725-9.221m12.658-1.818a4.01,4.01,0,0,0-4.1-4.23,4.321,4.321,0,0,0-4.363,4.23Z" fill="#fff"/>
      <path id="패스_7059" data-name="패스 7059" d="M295.785,283.019h4.032v3.041h.232a4.932,4.932,0,0,1,4.924-3.272,4.765,4.765,0,0,1,4.858,3.272h.2a5.5,5.5,0,0,1,5.387-3.272c3.272,0,5.586,2.115,5.586,6.114v12.063h-4.2v-11.4a2.894,2.894,0,0,0-3.074-3.239,3.133,3.133,0,0,0-3.272,3.437v11.2h-4.1V289.4a2.906,2.906,0,0,0-3.04-3.073,3.433,3.433,0,0,0-3.306,3.735v10.906h-4.23Z" fill="#fff"/>
      <path id="패스_7060" data-name="패스 7060" d="M324.279,292.108c0-5.553,3.371-9.32,8.494-9.32,4.395,0,8.2,2.743,8.2,9.055v1.322H328.443c.05,3.058,1.851,4.859,4.594,4.859a3.838,3.838,0,0,0,3.636-1.851H340.8c-.76,3.107-3.636,5.156-7.8,5.156-5.42,0-8.725-3.6-8.725-9.221m12.658-1.818a4.01,4.01,0,0,0-4.1-4.23,4.321,4.321,0,0,0-4.363,4.23Z" fill="#fff"/>
      <path id="패스_7061" data-name="패스 7061" d="M348.475,300.965h-4.23V283.019h4.032v3.04h.231a5.329,5.329,0,0,1,5.321-3.272c3.735,0,6.181,2.446,6.147,6.742v11.436h-4.2V290.191c0-2.413-1.289-3.834-3.5-3.834-2.248,0-3.8,1.487-3.8,4.1Z" fill="#fff"/>
      <path id="패스_7062" data-name="패스 7062" d="M372.968,286.258h-3.536v9.32c0,1.719.859,2.082,1.917,2.082.495,0,1.322-.032,1.85-.066v3.437a13.256,13.256,0,0,1-2.379.166c-3.173,0-5.619-1.554-5.586-4.925V286.258h-2.578v-3.239h2.578v-4.3h4.2v4.3h3.536Z" fill="#fff"/>
      <line id="선_755" data-name="선 755" x2="522.005" transform="translate(1.954 322.62)" fill="none" stroke="#fff" stroke-miterlimit="10" stroke-width="1.144"/>
      <line id="선_756" data-name="선 756" x2="522.005" transform="translate(1.954 445.859)" fill="none" stroke="#fff" stroke-miterlimit="10" stroke-width="1.144"/>
    </g>
  </g>
</svg>
