<svg xmlns="http://www.w3.org/2000/svg" width="158.173" height="183.943" viewBox="0 0 158.173 183.943">
  <g id="그룹_1830" data-name="그룹 1830" transform="translate(-89 -602)">
    <path id="패스_5938" data-name="패스 5938" d="M154.551,75.677A75.677,75.677,0,1,1,78.874,0a75.677,75.677,0,0,1,75.677,75.677" transform="translate(89 602)" fill="#fff"/>
    <path id="패스_5963" data-name="패스 5963" d="M90.328,106.768H67.42a1.179,1.179,0,0,0-1.179,1.18v7.994a1.179,1.179,0,0,0,1.179,1.179h2.713a8.863,8.863,0,0,0,17.482,0h2.713a1.179,1.179,0,0,0,1.18-1.179v-7.994a1.18,1.18,0,0,0-1.18-1.18" transform="translate(89 602)" fill="#592583"/>
    <path id="패스_5964" data-name="패스 5964" d="M78.874,40.057A2.959,2.959,0,0,0,81.832,37.1V29.8a2.958,2.958,0,0,0-5.916,0v7.3a2.958,2.958,0,0,0,2.958,2.958" transform="translate(89 602)" fill="#29aae1"/>
    <path id="패스_5965" data-name="패스 5965" d="M59.442,43.1a2.958,2.958,0,0,0,5.124-2.958l-3.652-6.325a2.958,2.958,0,1,0-5.123,2.958Z" transform="translate(89 602)" fill="#29aae1"/>
    <path id="패스_5966" data-name="패스 5966" d="M51.133,51.408l-6.324-3.651a2.958,2.958,0,1,0-2.958,5.123l6.324,3.651a2.958,2.958,0,1,0,2.958-5.123" transform="translate(89 602)" fill="#29aae1"/>
    <path id="패스_5967" data-name="패스 5967" d="M48.092,70.84a2.958,2.958,0,0,0-2.958-2.958h-7.3a2.958,2.958,0,1,0,0,5.916h7.3a2.958,2.958,0,0,0,2.958-2.958" transform="translate(89 602)" fill="#29aae1"/>
    <path id="패스_5968" data-name="패스 5968" d="M48.175,85.148,41.851,88.8a2.958,2.958,0,1,0,2.958,5.123l6.324-3.651a2.958,2.958,0,0,0-2.958-5.123" transform="translate(89 602)" fill="#29aae1"/>
    <path id="패스_5969" data-name="패스 5969" d="M115.9,88.8l-6.325-3.651a2.958,2.958,0,1,0-2.957,5.123l6.324,3.651A2.958,2.958,0,1,0,115.9,88.8" transform="translate(89 602)" fill="#29aae1"/>
    <path id="패스_5970" data-name="패스 5970" d="M119.917,67.882h-7.3a2.958,2.958,0,1,0,0,5.916h7.3a2.958,2.958,0,1,0,0-5.916" transform="translate(89 602)" fill="#29aae1"/>
    <path id="패스_5971" data-name="패스 5971" d="M108.1,56.928a2.943,2.943,0,0,0,1.476-.4l6.324-3.652a2.958,2.958,0,1,0-2.957-5.123l-6.325,3.652a2.958,2.958,0,0,0,1.482,5.52" transform="translate(89 602)" fill="#29aae1"/>
    <path id="패스_5972" data-name="패스 5972" d="M94.265,44.182A2.956,2.956,0,0,0,98.306,43.1l3.651-6.324a2.958,2.958,0,1,0-5.123-2.958l-3.652,6.324a2.959,2.959,0,0,0,1.083,4.041" transform="translate(89 602)" fill="#29aae1"/>
    <path id="패스_5973" data-name="패스 5973" d="M80.051,45.723a25.085,25.085,0,0,0-21.167,9.846A24.521,24.521,0,0,0,53.9,67.842,25.031,25.031,0,0,0,59.125,86.4a37.356,37.356,0,0,1,6.36,11.314l.5,1.507a1.761,1.761,0,0,0,1.672,1.2H90.09a1.762,1.762,0,0,0,1.671-1.2l.5-1.507a36.8,36.8,0,0,1,6.1-10.983,26.3,26.3,0,0,0,4.9-9.769A25.224,25.224,0,0,0,80.051,45.723" transform="translate(89 602)" fill="#592583"/>
    <path id="패스_5974" data-name="패스 5974" d="M84.7,87.433c-1.661,1.842-4.458,5.117-9.557,5.117a4.073,4.073,0,0,1-3.921-5.171L75.37,72.544a1.051,1.051,0,0,0-1.233-1.31A8.559,8.559,0,0,0,70.974,72.7a1.054,1.054,0,0,1-1.464-.187h0a1.042,1.042,0,0,1,.045-1.343c1.661-1.837,4.458-5.113,9.556-5.113a4.072,4.072,0,0,1,3.924,5.169L78.885,86.061a1.045,1.045,0,0,0,1.231,1.307A8.5,8.5,0,0,0,83.281,85.9a1.059,1.059,0,0,1,1.464.187,1.041,1.041,0,0,1-.045,1.343M81.641,62.957a4.514,4.514,0,1,1,4.514-4.513,4.514,4.514,0,0,1-4.514,4.513" transform="translate(89 602)" fill="#fff"/>
    <path id="패스_6010" data-name="패스 6010" d="M7.5,183.693H0v-1.825l2.15-.8V168.493L0,167.668v-1.825H7.5v1.825l-2.15.825v12.575l2.15.8Z" transform="translate(89 602)" fill="#fff"/>
    <path id="패스_6011" data-name="패스 6011" d="M18.3,168.292a4.487,4.487,0,0,0-3.787,1.75,7.637,7.637,0,0,0-1.338,4.75,7.9,7.9,0,0,0,1.25,4.738,4.448,4.448,0,0,0,3.851,1.712,10.182,10.182,0,0,0,2.2-.237,20.989,20.989,0,0,0,2.25-.638v2.726a10.949,10.949,0,0,1-2.212.649,14.559,14.559,0,0,1-2.563.2A8.369,8.369,0,0,1,13.4,182.8a6.835,6.835,0,0,1-2.676-3.2,12.326,12.326,0,0,1-.875-4.837,11.027,11.027,0,0,1,.975-4.763,7.5,7.5,0,0,1,2.863-3.237,8.557,8.557,0,0,1,4.612-1.175,11.424,11.424,0,0,1,2.663.312,12.245,12.245,0,0,1,2.462.863l-1.1,2.625a20.879,20.879,0,0,0-1.962-.763,6.486,6.486,0,0,0-2.063-.338" transform="translate(89 602)" fill="#fff"/>
    <path id="패스_6012" data-name="패스 6012" d="M42.526,174.742a11.878,11.878,0,0,1-.913,4.838,6.99,6.99,0,0,1-2.787,3.212,8.849,8.849,0,0,1-4.7,1.15,8.835,8.835,0,0,1-4.713-1.15,7,7,0,0,1-2.774-3.225,11.966,11.966,0,0,1-.913-4.849,11.812,11.812,0,0,1,.913-4.813,6.945,6.945,0,0,1,2.774-3.2,8.964,8.964,0,0,1,4.739-1.138,8.851,8.851,0,0,1,4.687,1.138,6.952,6.952,0,0,1,2.775,3.2,11.876,11.876,0,0,1,.913,4.837m-13.426,0a8.206,8.206,0,0,0,1.2,4.75,4.331,4.331,0,0,0,3.825,1.726,4.327,4.327,0,0,0,3.838-1.726,10.135,10.135,0,0,0,.012-9.5,4.294,4.294,0,0,0-3.824-1.725,4.367,4.367,0,0,0-3.838,1.725,8.138,8.138,0,0,0-1.213,4.75" transform="translate(89 602)" fill="#fff"/>
    <path id="패스_6013" data-name="패스 6013" d="M54,183.693l-4.9-14.625H49c.017.334.041.805.075,1.412s.063,1.268.087,1.976.038,1.371.038,1.987v9.25H46.325v-17.85h4.45l4.7,14.025h.1l4.9-14.025h4.45v17.85h-3.05v-9.4q0-.851.037-1.863t.075-1.912c.026-.6.046-1.075.063-1.425h-.1l-5.1,14.6Z" transform="translate(89 602)" fill="#fff"/>
    <path id="패스_6014" data-name="패스 6014" d="M79.7,183.693H69.55v-17.85H79.7v2.675H72.75v4.55h6.5v2.675h-6.5v5.25H79.7Z" transform="translate(89 602)" fill="#fff"/>
    <path id="패스_6015" data-name="패스 6015" d="M93.874,178.818a4.534,4.534,0,0,1-1.726,3.75,7.463,7.463,0,0,1-4.774,1.375,11.322,11.322,0,0,1-5-1v-3a21.437,21.437,0,0,0,2.475.912,9.325,9.325,0,0,0,2.75.413,3.634,3.634,0,0,0,2.35-.625,2.159,2.159,0,0,0-.2-3.425,16.7,16.7,0,0,0-2.775-1.425,14.106,14.106,0,0,1-2.1-1.125,5.547,5.547,0,0,1-1.65-1.65,4.59,4.59,0,0,1-.65-2.55,4.335,4.335,0,0,1,1.612-3.588,6.72,6.72,0,0,1,4.313-1.287,11.274,11.274,0,0,1,2.662.3,14.929,14.929,0,0,1,2.487.85l-1.024,2.575a17.154,17.154,0,0,0-2.138-.75,7.9,7.9,0,0,0-2.088-.275,2.929,2.929,0,0,0-1.974.587,1.916,1.916,0,0,0-.675,1.513,2.024,2.024,0,0,0,.375,1.25,3.515,3.515,0,0,0,1.162.925q.789.425,2.038.975a16.626,16.626,0,0,1,2.449,1.3,4.366,4.366,0,0,1,2.1,3.975" transform="translate(89 602)" fill="#fff"/>
    <path id="패스_6016" data-name="패스 6016" d="M114.724,183.693H102.5v-2.325l4.55-4.6q1.351-1.376,2.213-2.35a8.2,8.2,0,0,0,1.275-1.837,4.269,4.269,0,0,0,.413-1.863,2.318,2.318,0,0,0-.7-1.838,2.71,2.71,0,0,0-1.85-.612,4.845,4.845,0,0,0-2.1.462,10.261,10.261,0,0,0-2.025,1.313l-1.725-2.075a12.514,12.514,0,0,1,2.5-1.663,7.757,7.757,0,0,1,3.526-.712,6.688,6.688,0,0,1,2.974.613,4.5,4.5,0,0,1,1.912,1.687,4.666,4.666,0,0,1,.663,2.5,6.131,6.131,0,0,1-.575,2.662,10.25,10.25,0,0,1-1.662,2.425q-1.089,1.214-2.588,2.613l-2.825,2.725v.15h8.25Z" transform="translate(89 602)" fill="#fff"/>
    <path id="패스_6017" data-name="패스 6017" d="M128.974,174.768a17.682,17.682,0,0,1-.6,4.925,6.16,6.16,0,0,1-1.95,3.15,5.482,5.482,0,0,1-3.575,1.1,5.015,5.015,0,0,1-4.625-2.438,13.007,13.007,0,0,1-1.475-6.737,17.754,17.754,0,0,1,.6-4.95,6.212,6.212,0,0,1,1.937-3.151,5.442,5.442,0,0,1,3.563-1.1,5.057,5.057,0,0,1,4.625,2.425,12.883,12.883,0,0,1,1.5,6.775m-9.05,0a14.4,14.4,0,0,0,.638,4.925,2.3,2.3,0,0,0,2.287,1.65,2.326,2.326,0,0,0,2.287-1.638,18.761,18.761,0,0,0,0-9.887,2.328,2.328,0,0,0-2.287-1.651,2.3,2.3,0,0,0-2.287,1.651,14.494,14.494,0,0,0-.638,4.95" transform="translate(89 602)" fill="#fff"/>
    <path id="패스_6018" data-name="패스 6018" d="M143.323,183.693H131.1v-2.325l4.55-4.6q1.352-1.376,2.213-2.35a8.2,8.2,0,0,0,1.275-1.837,4.269,4.269,0,0,0,.413-1.863,2.318,2.318,0,0,0-.7-1.838,2.71,2.71,0,0,0-1.85-.612,4.845,4.845,0,0,0-2.1.462,10.261,10.261,0,0,0-2.025,1.313l-1.725-2.075a12.514,12.514,0,0,1,2.5-1.663,7.757,7.757,0,0,1,3.526-.712,6.688,6.688,0,0,1,2.974.613,4.5,4.5,0,0,1,1.912,1.687,4.666,4.666,0,0,1,.663,2.5,6.131,6.131,0,0,1-.575,2.662,10.25,10.25,0,0,1-1.662,2.425q-1.089,1.214-2.588,2.613l-2.825,2.725v.15h8.25Z" transform="translate(89 602)" fill="#fff"/>
    <path id="패스_6019" data-name="패스 6019" d="M158.173,179.867h-2.324v3.825h-3.1v-3.825H144.8v-2.349l8.025-11.726h3.026v11.5h2.324Zm-5.425-6.575c0-.449.009-.933.025-1.449s.037-1,.063-1.438.046-.779.062-1.012h-.1a11.087,11.087,0,0,1-1.074,1.95l-4.051,5.949h5.075Z" transform="translate(89 602)" fill="#fff"/>
  </g>
</svg>
