<svg xmlns="http://www.w3.org/2000/svg" width="151.354" height="184.472" viewBox="0 0 151.354 184.472">
  <g id="그룹_1834" data-name="그룹 1834" transform="translate(-511.197 -845.092)">
    <path id="패스_5935" data-name="패스 5935" d="M573.551,318.769a75.677,75.677,0,1,1-75.677-75.677,75.677,75.677,0,0,1,75.677,75.677" transform="translate(89 602)" fill="#fff"/>
    <path id="패스_5948" data-name="패스 5948" d="M478.185,314.167c.706,1.907,1.36,3.759,1.946,5.478a3.326,3.326,0,0,0,6.3,0c.587-1.717,1.24-3.569,1.946-5.476a52.066,52.066,0,0,1,8.423-15.18A17.493,17.493,0,0,0,482.433,270.4a17.642,17.642,0,0,0-16.652,16.993,17.41,17.41,0,0,0,3.838,11.422,54.865,54.865,0,0,1,8.566,15.354m5.1-35.414a9.13,9.13,0,1,1-9.129,9.131,9.13,9.13,0,0,1,9.129-9.131" transform="translate(89 602)" fill="#29aae1"/>
    <path id="패스_5949" data-name="패스 5949" d="M533.225,317.578a4.979,4.979,0,0,0-4.586-3.037H514.621l-4.291,10.574,29.25,7.467Z" transform="translate(89 602)" fill="#592583"/>
    <path id="패스_5950" data-name="패스 5950" d="M507.907,314.545H494.924c-.249.582-.477,1.184-.706,1.787-.622,1.7-1.267,3.489-1.89,5.316a9.553,9.553,0,0,1-18.093,0c-.624-1.827-1.267-3.614-1.89-5.316-.228-.6-.459-1.2-.706-1.787h-4.53a4.985,4.985,0,0,0-4.589,3.032l-8.331,19.652h44.494Z" transform="translate(89 602)" fill="#592583"/>
    <path id="패스_5951" data-name="패스 5951" d="M451.555,343.47l-2.3,5.421a4.98,4.98,0,0,0,4.585,6.922H507.6l-8.453-12.343Z" transform="translate(89 602)" fill="#592583"/>
    <path id="패스_5952" data-name="패스 5952" d="M546.49,348.892l-3.853-9.1-34.671-8.849-3.665,9.03,10.848,15.839H541.9a4.98,4.98,0,0,0,4.586-6.922" transform="translate(89 602)" fill="#592583"/>
    <path id="패스_6053" data-name="패스 6053" d="M440.488,427.313h-3.149v-17.85h10.125v2.675h-6.976v5.25h6.5v2.675h-6.5Z" transform="translate(89 602)" fill="#fff"/>
    <rect id="사각형_2049" data-name="사각형 2049" width="3.149" height="19" transform="translate(539.489 1010.313)" fill="#fff"/>
    <path id="패스_6054" data-name="패스 6054" d="M469.763,420.513a7.263,7.263,0,0,1-1.75,5.212,6.249,6.249,0,0,1-4.75,1.838,6.561,6.561,0,0,1-3.3-.825,5.751,5.751,0,0,1-2.275-2.4,8.16,8.16,0,0,1-.826-3.825,7.2,7.2,0,0,1,1.739-5.187,6.25,6.25,0,0,1,4.737-1.813,6.683,6.683,0,0,1,3.325.813,5.7,5.7,0,0,1,2.275,2.374,8.1,8.1,0,0,1,.825,3.813m-9.675,0a6.09,6.09,0,0,0,.763,3.325,3.167,3.167,0,0,0,4.924,0,6.1,6.1,0,0,0,.763-3.325,5.968,5.968,0,0,0-.763-3.3,2.763,2.763,0,0,0-2.487-1.15,2.711,2.711,0,0,0-2.437,1.15,5.959,5.959,0,0,0-.763,3.3" transform="translate(89 602)" fill="#fff"/>
    <path id="패스_6055" data-name="패스 6055" d="M485.113,420.513a7.263,7.263,0,0,1-1.75,5.212,6.249,6.249,0,0,1-4.75,1.838,6.561,6.561,0,0,1-3.3-.825,5.751,5.751,0,0,1-2.275-2.4,8.16,8.16,0,0,1-.826-3.825,7.2,7.2,0,0,1,1.739-5.187,6.25,6.25,0,0,1,4.737-1.813,6.683,6.683,0,0,1,3.325.813,5.7,5.7,0,0,1,2.275,2.374,8.1,8.1,0,0,1,.825,3.813m-9.675,0a6.09,6.09,0,0,0,.763,3.325,3.167,3.167,0,0,0,4.924,0,6.1,6.1,0,0,0,.763-3.325,5.968,5.968,0,0,0-.763-3.3,2.763,2.763,0,0,0-2.487-1.15,2.711,2.711,0,0,0-2.437,1.15,5.959,5.959,0,0,0-.763,3.3" transform="translate(89 602)" fill="#fff"/>
    <path id="패스_6056" data-name="패스 6056" d="M495.462,413.513c.217,0,.454.009.713.024a3.482,3.482,0,0,1,.662.1l-.275,2.925c-.166-.033-.367-.063-.6-.088a6.181,6.181,0,0,0-.625-.037,4.354,4.354,0,0,0-1.875.412,3.289,3.289,0,0,0-1.412,1.275,4.014,4.014,0,0,0-.538,2.162v7.026h-3.15v-13.55h2.425l.45,2.35h.15a5.678,5.678,0,0,1,1.65-1.837,4.015,4.015,0,0,1,2.425-.763" transform="translate(89 602)" fill="#fff"/>
    <path id="패스_6057" data-name="패스 6057" d="M511.462,409.464q3.475,0,5.063,1.449a5.152,5.152,0,0,1,1.587,4,6.469,6.469,0,0,1-.65,2.863,4.831,4.831,0,0,1-2.187,2.149,8.967,8.967,0,0,1-4.163.813h-1.775v6.575h-3.2V409.464Zm-.2,2.649h-1.925v5.976h1.449a5.392,5.392,0,0,0,3.013-.713,2.608,2.608,0,0,0,1.063-2.338,2.692,2.692,0,0,0-.875-2.2,4.223,4.223,0,0,0-2.725-.726" transform="translate(89 602)" fill="#fff"/>
    <rect id="사각형_2050" data-name="사각형 2050" width="3.149" height="19" transform="translate(610.313 1010.313)" fill="#fff"/>
    <path id="패스_6058" data-name="패스 6058" d="M533.886,413.514a6.044,6.044,0,0,1,3.987,1.149,4.392,4.392,0,0,1,1.363,3.551v9.1h-2.225l-.625-1.875h-.1a5.962,5.962,0,0,1-1.85,1.612,5.736,5.736,0,0,1-2.65.513,4.491,4.491,0,0,1-3.025-1.026,3.947,3.947,0,0,1-1.2-3.175,3.557,3.557,0,0,1,1.538-3.149,9,9,0,0,1,4.662-1.176l2.35-.074v-.676a2.368,2.368,0,0,0-.625-1.837,2.525,2.525,0,0,0-1.75-.562,6.375,6.375,0,0,0-1.963.3q-.937.3-1.862.7l-1-2.2a10.378,10.378,0,0,1,2.287-.85,10.929,10.929,0,0,1,2.688-.325m.575,7.45a5.079,5.079,0,0,0-2.875.712,2.078,2.078,0,0,0-.8,1.713,1.611,1.611,0,0,0,.563,1.388,2.463,2.463,0,0,0,1.487.412,3.53,3.53,0,0,0,2.325-.787,2.865,2.865,0,0,0,.95-2.338v-1.151Z" transform="translate(89 602)" fill="#fff"/>
    <path id="패스_6059" data-name="패스 6059" d="M550.437,413.513A5.1,5.1,0,0,1,554,414.688a4.93,4.93,0,0,1,1.287,3.8v8.825h-3.151v-8.2q0-3.051-2.5-3.05a2.749,2.749,0,0,0-2.6,1.2,6.861,6.861,0,0,0-.7,3.425v6.625h-3.149v-13.55h2.425l.45,1.774h.175A3.821,3.821,0,0,1,548.024,414a6.061,6.061,0,0,1,2.413-.487" transform="translate(89 602)" fill="#fff"/>
  </g>
</svg>
