<?xml version="1.0" encoding="utf-8"?>
<!-- Generator: Adobe Illustrator 27.7.0, SVG Export Plug-In . SVG Version: 6.00 Build 0)  -->
<svg version="1.1" id="그룹_1846" xmlns="http://www.w3.org/2000/svg" xmlns:xlink="http://www.w3.org/1999/xlink" x="0px"
	 y="0px" viewBox="0 0 750 141.4" style="enable-background:new 0 0 750 141.4;" xml:space="preserve">
<style type="text/css">
	.st0{clip-path:url(#SVGID_00000093887585442630780340000017580611622028085921_);}
	.st1{fill:#662D90;}
	.st2{fill:none;stroke:#FFFFFF;stroke-width:1.681;stroke-linecap:round;stroke-linejoin:round;}
	.st3{fill:#FFFFFF;}
	.st4{fill-rule:evenodd;clip-rule:evenodd;fill:#FFFFFF;}
	.st5{fill:none;stroke:#FFFFFF;stroke-width:1.681;stroke-linecap:round;}
</style>
<g id="그룹_1845">
	<g>
		<defs>
			<rect id="SVGID_1_" y="-62.6" width="750" height="204"/>
		</defs>
		<clipPath id="SVGID_00000067931292495887419540000013652971501650083204_">
			<use xlink:href="#SVGID_1_"  style="overflow:visible;"/>
		</clipPath>
		<g id="그룹_1844" style="clip-path:url(#SVGID_00000067931292495887419540000013652971501650083204_);">
			<path id="패스_7344" class="st1" d="M374.9,1.6c27.1,0,49,21.7,49,48.5s-21.9,48.5-49,48.5s-49-21.7-49-48.5
				S347.9,1.6,374.9,1.6"/>
			<path id="패스_7345" class="st1" d="M321.8,63.8c8,29.3,38.3,46.7,67.6,38.7c18.8-5.1,33.5-19.8,38.7-38.7
				c5.7-15.4,20.4-25.7,36.8-25.7h284.9v103.2H0V38.2h284.9C301.4,38.2,316.1,48.4,321.8,63.8L321.8,63.8z"/>
			<path id="패스_7346" class="st2" d="M54.1,75.9l21.7-20l7.9,7.3"/>
			<line id="선_763" class="st2" x1="97.5" y1="76.4" x2="89.6" y2="69.1"/>
			<path id="패스_7347" class="st2" d="M58,73.7v25.5h11.8V88.3c0.3-3.3,3.1-5.7,6.4-5.5c2.9,0.2,5.2,2.5,5.5,5.5v10.9h11.8V73.7"
				/>
			<path id="패스_7348" class="st2" d="M83.7,63.2v-5.5h5.9v10.9"/>
			<rect id="사각형_2161" x="357.1" y="32.3" class="st3" width="6.7" height="6.7"/>
			<path id="패스_7349" class="st4" d="M350.5,54.6h20v20h-20V54.6z M353.4,71.6h14.1V57.5h-14.1V71.6z"/>
			<rect id="사각형_2162" x="357.1" y="61.2" class="st3" width="6.7" height="6.7"/>
			<path id="패스_7350" class="st4" d="M350.5,25.6h20v20h-20V25.6z M353.4,42.7h14.1V28.6h-14.1V42.7z"/>
			<path id="패스_7351" class="st4" d="M379.4,25.6h20v20h-20V25.6z M382.4,42.7h14.1V28.6h-14.1V42.7z"/>
			<rect id="사각형_2163" x="386" y="32.3" class="st3" width="6.7" height="6.7"/>
			<path id="패스_7352" class="st4" d="M393.5,74.6h5.9v-3h-3v-3.8h-3L393.5,74.6z"/>
			<rect id="사각형_2164" x="357.1" y="48.6" class="st3" width="6.7" height="3"/>
			<rect id="사각형_2165" x="373.5" y="25.6" class="st3" width="3" height="3"/>
			<rect id="사각형_2166" x="373.5" y="38.9" class="st3" width="3" height="6.7"/>
			<rect id="사각형_2167" x="350.5" y="48.6" class="st3" width="3" height="3"/>
			<rect id="사각형_2168" x="392.7" y="48.6" class="st3" width="6.7" height="3"/>
			<path id="패스_7353" class="st4" d="M382.6,55.1h3.8v3.8h3.4v3h-10.1v-3.8h3L382.6,55.1z"/>
			<rect id="사각형_2169" x="389.7" y="61.9" class="st3" width="6.7" height="3"/>
			<rect id="사각형_2170" x="386.7" y="64.9" class="st3" width="3" height="3"/>
			<path id="패스_7354" class="st4" d="M382.8,74.6h6.7v-3h-3.8v-3.8h-3V74.6z"/>
			<path id="패스_7355" class="st4" d="M373.5,64.9h6.7v6.7h-3.8v3h-3V64.9z"/>
			<rect id="사각형_2171" x="373.5" y="54.6" class="st3" width="3" height="7.3"/>
			<path id="패스_7356" class="st4" d="M399.4,61.9v-6.7h-6.7v3h3.8v3.8H399.4z"/>
			<rect id="사각형_2172" x="396.4" y="64.9" class="st3" width="3" height="3"/>
			<path id="패스_7357" class="st4" d="M373.5,51.6h12.9v3.6h3v-6.5h-15.8V51.6z"/>
			<path id="패스_7358" class="st3" d="M185.2,116.3c1.3-0.1,2.6,0.3,3.6,1c0.8,0.7,1.2,1.8,1.1,2.9c0,0.7-0.2,1.4-0.5,2.1
				c-0.3,0.7-0.9,1.2-1.6,1.5c-0.9,0.4-2,0.6-3,0.6h-1.3v4.7h-2.3v-12.9H185.2z M185.1,118.2h-1.4v4.3h1c0.8,0,1.5-0.1,2.2-0.5
				c0.5-0.4,0.8-1,0.8-1.7c0-0.6-0.2-1.2-0.6-1.6C186.5,118.4,185.8,118.2,185.1,118.2"/>
			<path id="패스_7359" class="st3" d="M196.2,116.3c1.3-0.1,2.6,0.2,3.8,0.9c0.8,0.7,1.3,1.8,1.2,2.8c0,1.1-0.4,2.1-1.3,2.7
				c-0.4,0.3-0.8,0.5-1.2,0.7l3.7,5.7h-2.6l-3.1-5.1h-1.9v5.1h-2.3v-12.9H196.2z M196,118.3h-1.2v4h1.3c0.7,0.1,1.4-0.1,2.1-0.5
				c0.4-0.4,0.7-0.9,0.6-1.5c0.1-0.6-0.2-1.1-0.7-1.5C197.5,118.4,196.8,118.2,196,118.3"/>
			<path id="패스_7360" class="st3" d="M215.6,122.7c0,1.2-0.2,2.4-0.7,3.5c-0.4,1-1.1,1.8-2,2.3c-2.1,1.1-4.7,1.1-6.8,0
				c-0.9-0.5-1.6-1.4-2-2.3c-0.5-1.1-0.7-2.3-0.7-3.5c0-1.2,0.2-2.4,0.7-3.5c0.4-1,1.1-1.8,2-2.3c1-0.6,2.2-0.9,3.4-0.8
				c1.2,0,2.3,0.2,3.4,0.8c0.9,0.5,1.6,1.3,2,2.3C215.5,120.4,215.7,121.6,215.6,122.7 M206,122.7c-0.1,1.2,0.2,2.4,0.9,3.4
				c1.3,1.5,3.7,1.7,5.2,0.3c0.1-0.1,0.2-0.2,0.3-0.3c1.1-2.1,1.1-4.7,0-6.8c-0.6-0.9-1.7-1.3-2.8-1.2c-1.1-0.1-2.1,0.4-2.8,1.2
				C206.2,120.3,205.9,121.5,206,122.7"/>
			<path id="패스_7361" class="st3" d="M223.5,122.1h4.9v6.5c-0.7,0.2-1.4,0.4-2.1,0.5c-0.8,0.1-1.6,0.2-2.4,0.2
				c-1.7,0.1-3.3-0.5-4.5-1.7c-1.1-1.4-1.7-3.1-1.6-4.9c0-1.2,0.2-2.4,0.8-3.5c0.5-1,1.3-1.8,2.3-2.3c1.1-0.6,2.4-0.8,3.6-0.8
				c0.7,0,1.4,0.1,2,0.2c0.6,0.1,1.2,0.3,1.8,0.6l-0.8,1.9c-0.5-0.2-0.9-0.4-1.4-0.5c-0.5-0.1-1.1-0.2-1.7-0.2
				c-0.8,0-1.6,0.2-2.3,0.6c-0.6,0.4-1.1,1-1.5,1.6c-0.4,0.8-0.5,1.6-0.5,2.5c0,0.8,0.1,1.6,0.4,2.4c0.2,0.7,0.7,1.2,1.3,1.6
				c0.7,0.4,1.5,0.6,2.2,0.6c0.4,0,0.8,0,1.2-0.1c0.3,0,0.6-0.1,0.9-0.2v-3.1h-2.6L223.5,122.1z"/>
			<path id="패스_7362" class="st3" d="M235.1,116.3c1.3-0.1,2.6,0.2,3.8,0.9c0.8,0.7,1.3,1.8,1.2,2.8c0,1.1-0.4,2.1-1.3,2.7
				c-0.4,0.3-0.8,0.5-1.2,0.7l3.7,5.7h-2.6l-3.1-5.1h-1.9v5.1h-2.3v-12.9H235.1z M235,118.3h-1.2v4h1.3c0.7,0.1,1.5-0.1,2.1-0.5
				c0.4-0.4,0.7-0.9,0.6-1.5c0.1-0.6-0.2-1.1-0.7-1.5C236.4,118.4,235.7,118.2,235,118.3"/>
			<path id="패스_7363" class="st3" d="M251,129.2l-1.2-3.4H245l-1.2,3.4h-2.4l4.7-12.9h2.6l4.7,12.9H251z M248.1,120.5
				c0-0.2-0.1-0.4-0.2-0.7s-0.2-0.6-0.3-0.9s-0.2-0.6-0.2-0.8c-0.1,0.2-0.1,0.5-0.2,0.8s-0.2,0.6-0.3,0.9s-0.1,0.5-0.2,0.6l-1.1,3.3
				h3.6L248.1,120.5z"/>
			<path id="패스_7364" class="st3" d="M260.7,129.2l-3.5-10.5h-0.1c0,0.2,0,0.6,0.1,1s0,0.9,0.1,1.4s0,1,0,1.4v6.7h-2.1v-12.9
				h3.2l3.4,10.1h0.1l3.5-10.1h3.2v12.9h-2.2v-6.8c0-0.4,0-0.9,0-1.3c0-0.5,0-0.9,0.1-1.4s0-0.8,0-1h-0.1l-3.7,10.5H260.7z"/>
			<path id="패스_7365" class="st3" d="M634.1,129.2l-3.5-10.5h-0.1c0,0.2,0,0.6,0.1,1s0,0.9,0.1,1.4s0,1,0,1.4v6.7h-2.1v-12.9
				h3.2l3.4,10.1h0.1l3.5-10.1h3.2v12.9h-2.2v-6.8c0-0.4,0-0.9,0-1.3c0-0.5,0-0.9,0.1-1.4s0-0.8,0-1h-0.1l-3.7,10.5H634.1z"/>
			<path id="패스_7366" class="st3" d="M649,122l2.9-5.7h2.5l-4.3,7.8v5h-2.3v-4.9l-4.3-7.9h2.5L649,122z"/>
			<path id="패스_7367" class="st3" d="M664.6,116.3c1.3-0.1,2.6,0.3,3.6,1c0.8,0.7,1.2,1.8,1.1,2.9c0,0.7-0.2,1.4-0.5,2.1
				c-0.3,0.7-0.9,1.2-1.6,1.5c-0.9,0.4-2,0.6-3,0.6h-1.3v4.7h-2.3v-12.9H664.6z M664.5,118.2h-1.4v4.3h1c0.8,0,1.5-0.1,2.2-0.5
				c0.5-0.4,0.8-1,0.8-1.7c0-0.6-0.2-1.2-0.6-1.6C665.9,118.4,665.2,118.2,664.5,118.2"/>
			<path id="패스_7368" class="st3" d="M679.9,129.2l-1.2-3.4h-4.8l-1.2,3.4h-2.4l4.7-12.9h2.6l4.7,12.9H679.9z M677,120.5
				c0-0.2-0.1-0.4-0.2-0.7s-0.2-0.6-0.3-0.9s-0.2-0.6-0.2-0.8c-0.1,0.2-0.1,0.5-0.2,0.8s-0.2,0.6-0.3,0.9s-0.1,0.5-0.2,0.6l-1.1,3.3
				h3.6L677,120.5z"/>
			<path id="패스_7369" class="st3" d="M689.1,122.1h4.9v6.5c-0.7,0.2-1.4,0.4-2.1,0.5c-0.8,0.1-1.6,0.2-2.4,0.2
				c-1.7,0.1-3.3-0.5-4.5-1.7c-1.1-1.4-1.7-3.1-1.6-4.9c0-1.2,0.2-2.4,0.8-3.5c0.5-1,1.3-1.8,2.3-2.3c1.1-0.6,2.4-0.8,3.6-0.8
				c0.7,0,1.4,0.1,2,0.2c0.6,0.1,1.2,0.3,1.8,0.6l-0.8,1.9c-0.5-0.2-0.9-0.4-1.4-0.5c-0.5-0.1-1.1-0.2-1.7-0.2
				c-0.8,0-1.6,0.2-2.3,0.6c-0.6,0.4-1.1,1-1.5,1.6c-0.4,0.8-0.5,1.6-0.5,2.5c0,0.8,0.1,1.6,0.4,2.4c0.2,0.7,0.7,1.2,1.3,1.6
				c0.7,0.4,1.5,0.6,2.2,0.6c0.4,0,0.8,0,1.2-0.1c0.3,0,0.6-0.1,0.9-0.2v-3.1h-2.6L689.1,122.1z"/>
			<path id="패스_7370" class="st3" d="M704.4,129.2h-7.3v-12.9h7.3v1.9h-5v3.3h4.7v1.9h-4.7v3.8h5V129.2z"/>
			<path id="패스_7371" class="st3" d="M348.4,122.7c0,1.3-0.3,2.6-0.8,3.8c-0.5,1.1-1.4,1.9-2.5,2.3l3.1,3.4H345l-2.4-2.9h-0.3
				c-1.2,0-2.4-0.2-3.4-0.8c-0.9-0.5-1.6-1.4-2-2.3c-0.5-1.1-0.7-2.3-0.7-3.5c0-1.2,0.2-2.4,0.7-3.5c0.4-1,1.1-1.8,2-2.3
				c1-0.6,2.2-0.9,3.4-0.8c1.2,0,2.3,0.2,3.4,0.8c0.9,0.5,1.6,1.3,2,2.3C348.2,120.4,348.4,121.6,348.4,122.7 M338.7,122.7
				c-0.1,1.2,0.2,2.4,0.9,3.4c1.3,1.5,3.7,1.7,5.2,0.3c0.1-0.1,0.2-0.2,0.3-0.3c1.1-2.1,1.1-4.7,0-6.8c-0.6-0.9-1.7-1.3-2.8-1.2
				c-1.1-0.1-2.1,0.4-2.8,1.2C338.9,120.3,338.6,121.5,338.7,122.7"/>
			<path id="패스_7372" class="st3" d="M354.8,116.3c1.3-0.1,2.6,0.2,3.8,0.9c0.8,0.7,1.3,1.8,1.2,2.8c0,1.1-0.4,2.1-1.3,2.7
				c-0.4,0.3-0.8,0.5-1.2,0.7l3.7,5.7h-2.6l-3.1-5.1h-1.9v5.1h-2.3v-12.9H354.8z M354.6,118.3h-1.2v4h1.3c0.7,0.1,1.5-0.1,2.1-0.5
				c0.4-0.4,0.7-0.9,0.6-1.5c0.1-0.6-0.2-1.1-0.7-1.5C356.1,118.4,355.3,118.2,354.6,118.3"/>
			<path id="패스_7373" class="st3" d="M372.9,118.1c-1.1-0.1-2.1,0.4-2.7,1.3c-0.7,1-1,2.2-1,3.4c-0.1,1.2,0.2,2.4,0.9,3.4
				c0.7,0.9,1.7,1.3,2.8,1.2c0.5,0,1.1-0.1,1.6-0.2c0.5-0.1,1.1-0.3,1.6-0.5v2c-0.5,0.2-1,0.4-1.6,0.5c-0.6,0.1-1.2,0.2-1.8,0.1
				c-1.1,0-2.3-0.2-3.3-0.8c-0.9-0.5-1.5-1.4-1.9-2.3c-0.4-1.1-0.7-2.3-0.6-3.5c0-1.2,0.2-2.4,0.7-3.4c0.4-1,1.2-1.8,2.1-2.3
				c1-0.6,2.2-0.9,3.3-0.8c0.6,0,1.3,0.1,1.9,0.2c0.6,0.1,1.2,0.4,1.8,0.6l-0.8,1.9c-0.5-0.2-0.9-0.4-1.4-0.5
				C373.9,118.2,373.4,118.1,372.9,118.1"/>
			<path id="패스_7374" class="st3" d="M390.3,122.7c0,1.2-0.2,2.4-0.7,3.5c-0.4,1-1.1,1.8-2,2.3c-2.1,1.1-4.7,1.1-6.8,0
				c-0.9-0.5-1.6-1.4-2-2.3c-0.5-1.1-0.7-2.3-0.7-3.5c0-1.2,0.2-2.4,0.7-3.5c0.4-1,1.1-1.8,2-2.3c1-0.6,2.2-0.9,3.4-0.8
				c1.2,0,2.3,0.2,3.4,0.8c0.9,0.5,1.6,1.3,2,2.3C390.1,120.4,390.3,121.6,390.3,122.7 M380.7,122.7c-0.1,1.2,0.2,2.4,0.9,3.4
				c1.3,1.5,3.7,1.7,5.2,0.3c0.1-0.1,0.2-0.2,0.3-0.3c1.1-2.1,1.1-4.7,0-6.8c-0.6-0.9-1.7-1.3-2.8-1.2c-1.1-0.1-2.1,0.4-2.8,1.2
				C380.9,120.3,380.6,121.5,380.7,122.7"/>
			<path id="패스_7375" class="st3" d="M403.6,122.6c0.1,1.8-0.5,3.6-1.8,4.9c-1.4,1.2-3.2,1.8-5.1,1.6h-3.6v-12.8h4
				c1.2,0,2.4,0.2,3.4,0.7c1,0.5,1.7,1.2,2.3,2.1C403.3,120.2,403.6,121.4,403.6,122.6 M401.2,122.7c0.1-1.2-0.3-2.4-1.1-3.4
				c-0.8-0.8-1.9-1.2-3-1.1h-1.7v9h1.4C399.7,127.3,401.2,125.7,401.2,122.7"/>
			<path id="패스_7376" class="st3" d="M413.6,129.2h-7.3v-12.9h7.3v1.9h-5v3.3h4.7v1.9h-4.7v3.8h5L413.6,129.2z"/>
			<path id="패스_7377" class="st3" d="M59.9,129.2h-2.3v-5.7h-5.7v5.7h-2.3v-12.9h2.3v5.2h5.7v-5.2h2.3L59.9,129.2z"/>
			<path id="패스_7378" class="st3" d="M74.7,122.7c0,1.2-0.2,2.4-0.7,3.5c-0.4,1-1.1,1.8-2,2.3c-2.1,1.1-4.7,1.1-6.8,0
				c-0.9-0.5-1.6-1.4-2-2.3c-0.5-1.1-0.7-2.3-0.7-3.5c0-1.2,0.2-2.4,0.7-3.5c0.4-1,1.1-1.8,2-2.3c1-0.6,2.2-0.9,3.4-0.8
				c1.2,0,2.3,0.2,3.4,0.8c0.9,0.5,1.6,1.3,2,2.3C74.5,120.4,74.8,121.6,74.7,122.7 M65.1,122.7c-0.1,1.2,0.2,2.4,0.9,3.4
				c1.3,1.5,3.7,1.7,5.2,0.3c0.1-0.1,0.2-0.2,0.3-0.3c1.1-2.1,1.1-4.7,0-6.8c-0.6-0.9-1.7-1.3-2.8-1.2c-1.1-0.1-2.1,0.4-2.8,1.2
				C65.3,120.3,65,121.5,65.1,122.7"/>
			<path id="패스_7379" class="st3" d="M83,129.2l-3.5-10.5h-0.1c0,0.2,0,0.6,0.1,1s0,0.9,0.1,1.4s0,1,0,1.4v6.7h-2.1v-12.9h3.2
				l3.4,10.1h0.1l3.5-10.1h3.2v12.9h-2.2v-6.8c0-0.4,0-0.9,0-1.3c0-0.5,0-0.9,0.1-1.4s0-0.8,0-1h-0.1L85,129.2H83z"/>
			<path id="패스_7380" class="st3" d="M101.5,129.2h-7.3v-12.9h7.3v1.9h-5v3.3h4.7v1.9h-4.7v3.8h5V129.2z"/>
			<path id="패스_7381" class="st3" d="M469.9,131.4l-3.5-10.5h-0.1c0,0.2,0,0.6,0.1,1s0,0.9,0.1,1.4s0,1,0,1.4v6.7h-2.1v-12.9
				h3.2l3.4,10.1h0.1l3.5-10.1h3.2v12.9h-2.2v-6.8c0-0.4,0-0.9,0-1.3s0-0.9,0.1-1.4s0-0.8,0-1h-0.1l-3.7,10.5L469.9,131.4z"/>
			<path id="패스_7382" class="st3" d="M484.8,124.3l2.9-5.7h2.5l-4.3,7.8v5h-2.3v-4.9l-4.3-7.9h2.5L484.8,124.3z"/>
			<path id="패스_7383" class="st3" d="M504.1,127.9c0,1-0.4,2.1-1.2,2.7c-1,0.7-2.2,1.1-3.4,1c-1.2,0-2.5-0.2-3.6-0.7v-2.2
				c0.6,0.3,1.2,0.5,1.8,0.7c0.6,0.2,1.3,0.3,2,0.3c0.6,0,1.2-0.1,1.7-0.5c0.7-0.6,0.7-1.5,0.2-2.2c-0.1-0.1-0.2-0.2-0.3-0.3
				c-0.6-0.4-1.3-0.7-2-1c-0.5-0.2-1-0.5-1.5-0.8c-0.5-0.3-0.9-0.7-1.2-1.2c-0.3-0.6-0.5-1.2-0.5-1.8c0-1,0.4-2,1.2-2.6
				c0.9-0.7,2-1,3.1-0.9c0.6,0,1.3,0.1,1.9,0.2c0.6,0.2,1.2,0.4,1.8,0.6l-0.7,1.9c-0.5-0.2-1-0.4-1.5-0.5c-0.5-0.1-1-0.2-1.5-0.2
				c-0.5,0-1,0.1-1.4,0.4c-0.3,0.3-0.5,0.7-0.5,1.1c0,0.3,0.1,0.6,0.3,0.9c0.2,0.3,0.5,0.5,0.8,0.7c0.4,0.2,0.9,0.4,1.5,0.7
				c0.6,0.3,1.2,0.6,1.8,0.9C503.5,125.7,504.1,126.8,504.1,127.9"/>
			<path id="패스_7384" class="st3" d="M512,120.4c-1.1-0.1-2.1,0.4-2.7,1.3c-0.7,1-1,2.2-1,3.4c-0.1,1.2,0.2,2.4,0.9,3.4
				c0.7,0.9,1.7,1.3,2.8,1.2c0.5,0,1.1-0.1,1.6-0.2c0.5-0.1,1.1-0.3,1.6-0.5v2c-0.5,0.2-1,0.4-1.6,0.5c-0.6,0.1-1.2,0.2-1.8,0.1
				c-1.1,0-2.3-0.2-3.3-0.8c-0.9-0.5-1.5-1.4-1.9-2.3c-0.4-1.1-0.7-2.3-0.6-3.5c0-1.2,0.2-2.4,0.7-3.4c0.4-1,1.2-1.8,2.1-2.3
				c1-0.6,2.2-0.9,3.3-0.8c0.6,0,1.3,0.1,1.9,0.2c0.6,0.1,1.2,0.4,1.8,0.6l-0.8,1.9c-0.5-0.2-0.9-0.4-1.4-0.5
				C513,120.4,512.5,120.4,512,120.4"/>
			<path id="패스_7385" class="st3" d="M528.2,131.4h-2.3v-5.7h-5.7v5.7h-2.3v-12.9h2.3v5.2h5.7v-5.2h2.3V131.4z"/>
			<path id="패스_7386" class="st3" d="M538.8,131.4h-7.3v-12.9h7.3v1.9h-5v3.3h4.7v1.9h-4.7v3.8h5V131.4z"/>
			<path id="패스_7387" class="st3" d="M552.1,124.9c0.1,1.8-0.5,3.6-1.8,4.9c-1.4,1.2-3.2,1.8-5.1,1.6h-3.6v-12.8h4
				c1.2,0,2.4,0.2,3.4,0.7c1,0.5,1.7,1.2,2.3,2.1C551.9,122.5,552.1,123.7,552.1,124.9 M549.7,125c0.1-1.2-0.3-2.4-1.1-3.4
				c-0.8-0.8-1.9-1.2-3-1.1h-1.7v9h1.4C548.2,129.5,549.7,128,549.7,125"/>
			<path id="패스_7388" class="st3" d="M565,126.9c0,0.8-0.2,1.7-0.6,2.4c-0.4,0.7-1,1.3-1.7,1.7c-0.9,0.4-1.9,0.7-2.9,0.6
				c-1.4,0.1-2.8-0.4-3.8-1.3c-0.9-0.9-1.4-2.2-1.3-3.4v-8.3h2.3v8c-0.1,0.8,0.2,1.7,0.7,2.3c0.6,0.5,1.4,0.8,2.1,0.7
				c0.8,0.1,1.6-0.2,2.2-0.8c0.5-0.6,0.7-1.4,0.7-2.3v-8h2.3L565,126.9z"/>
			<path id="패스_7389" class="st3" d="M568.3,131.4v-12.9h2.3v10.9h5.4v1.9L568.3,131.4z"/>
			<path id="패스_7390" class="st3" d="M585.5,131.4h-7.3v-12.9h7.3v1.9h-5v3.3h4.7v1.9h-4.7v3.8h5V131.4z"/>
			<path id="사각형_2173" class="st5" d="M204.5,62.4h40.9c0.5,0,0.8,0.4,0.8,0.8c0,0,0,0,0,0v35.3c0,0.5-0.4,0.8-0.8,0.8l0,0
				h-40.9c-0.5,0-0.8-0.4-0.8-0.8c0,0,0,0,0,0V63.2C203.7,62.7,204.1,62.4,204.5,62.4z"/>
			<line id="선_764" class="st2" x1="203.7" y1="71.6" x2="246.2" y2="71.6"/>
			<line id="선_765" class="st2" x1="238.8" y1="56.8" x2="238.8" y2="66.1"/>
			<line id="선_766" class="st2" x1="211.1" y1="56.8" x2="211.1" y2="66.1"/>
			<path id="패스_7391" class="st3" d="M214.3,82.6h-4c-0.6,0-1-0.4-1-1v-4c0-0.6,0.4-1,1-1h4c0.6,0,1,0.4,1,1v4
				C215.3,82.1,214.9,82.6,214.3,82.6"/>
			<path id="패스_7392" class="st3" d="M227,82.6h-4c-0.6,0-1-0.4-1-1v-4c0-0.6,0.4-1,1-1h4c0.6,0,1,0.4,1,1v4
				C228,82.1,227.5,82.6,227,82.6"/>
			<path id="패스_7393" class="st3" d="M239.6,82.6h-4c-0.6,0-1-0.4-1-1v-4c0-0.6,0.4-1,1-1h4c0.6,0,1,0.4,1,1v4
				C240.6,82.1,240.2,82.6,239.6,82.6"/>
			<path id="패스_7394" class="st3" d="M214.3,94h-4c-0.6,0-1-0.4-1-1v-4c0-0.6,0.4-1,1-1h4c0.6,0,1,0.4,1,1v4
				C215.3,93.6,214.9,94,214.3,94"/>
			<path id="패스_7395" class="st3" d="M227,94h-4c-0.6,0-1-0.4-1-1v-4c0-0.6,0.4-1,1-1h4c0.6,0,1,0.4,1,1v4
				C228,93.6,227.5,94,227,94"/>
			<path id="패스_7396" class="st3" d="M239.6,94h-4c-0.6,0-1-0.4-1-1v-4c0-0.6,0.4-1,1-1h4c0.6,0,1,0.4,1,1v4
				C240.6,93.6,240.2,94,239.6,94"/>
			<path id="패스_7397" class="st3" d="M511.8,56.7H538c4.3,0,7.8,3.5,7.8,7.8v26.1c0,4.3-3.5,7.8-7.8,7.8h-26.1
				c-4.3,0-7.8-3.5-7.8-7.8l0,0V64.5C504,60.2,507.5,56.7,511.8,56.7L511.8,56.7"/>
			<path id="패스_7398" class="st1" d="M530.3,87.6c-0.3,0-0.6-0.1-0.8-0.2L525,85c-0.1,0-0.2,0-0.3,0l-4.4,2.3
				c-0.8,0.4-1.9,0.1-2.3-0.7c-0.2-0.3-0.2-0.7-0.2-1.1l0.8-4.9c0-0.1,0-0.2-0.1-0.3l-3.6-3.5c-0.7-0.7-0.7-1.7,0-2.4
				c0.3-0.3,0.6-0.4,1-0.5l5-0.7c0.1,0,0.2-0.1,0.2-0.2l2.2-4.5c0.4-0.8,1.4-1.2,2.3-0.8c0.3,0.2,0.6,0.4,0.8,0.8l2.2,4.5
				c0,0.1,0.1,0.1,0.2,0.2l5,0.7c0.9,0.1,1.6,1,1.5,1.9c-0.1,0.4-0.2,0.7-0.5,1l-3.6,3.5c-0.1,0.1-0.1,0.2-0.1,0.3l0.8,4.9
				c0.2,0.9-0.5,1.8-1.4,2C530.5,87.6,530.4,87.6,530.3,87.6"/>
			<path id="패스_7399" class="st5" d="M674.7,79.7c-5,3.4-11.5,3.4-16.5,0c-4.3,1.5-7.2,5.5-7.2,10.1v5.9c0,0.5,0.4,1,1,1
				c0,0,0,0,0,0h28.9c0.5,0,1-0.4,1-1v-5.9C681.9,85.3,679,81.2,674.7,79.7"/>
			<path id="패스_7400" class="st5" d="M657.2,67.7c0,5.1,4.2,9.3,9.3,9.3c5.1,0,9.3-4.2,9.3-9.3c0-5.1-4.2-9.3-9.3-9.3
				c0,0,0,0,0,0C661.3,58.4,657.2,62.6,657.2,67.7C657.2,67.7,657.2,67.7,657.2,67.7"/>
		</g>
	</g>
</g>
</svg>
