<svg xmlns="http://www.w3.org/2000/svg" width="151.354" height="182.943" viewBox="0 0 151.354 182.943">
  <g id="그룹_1831" data-name="그룹 1831" transform="translate(-511.197 -603)">
    <path id="패스_5934" data-name="패스 5934" d="M573.551,76.677A75.677,75.677,0,1,1,497.874,1a75.677,75.677,0,0,1,75.677,75.677" transform="translate(89 602)" fill="#fff"/>
    <path id="패스_5953" data-name="패스 5953" d="M543.064,47.794V99.657a2.539,2.539,0,0,1-2.56,2.524c-2.958,0-5.879.108-8.8.362a8.55,8.55,0,0,0-3.245-4.329l-6.384-4.436a87.841,87.841,0,0,1,9.737-.829V43.682a89.6,89.6,0,0,0-31.341,6.6V78.811l-.4-.289a8.488,8.488,0,0,0-4.8-1.514V50.283a89.408,89.408,0,0,0-31.3-6.6V92.949a96.413,96.413,0,0,1,23.874,3.785l1.3,11.146a102.883,102.883,0,0,0-33.867-5.7,2.57,2.57,0,0,1-2.6-2.524V47.794a2.632,2.632,0,0,1,2.6-2.6c1.155,0,2.273.071,3.39.145h.181V41.085a2.526,2.526,0,0,1,2.524-2.6,95.03,95.03,0,0,1,36.5,7.214,95.3,95.3,0,0,1,36.5-7.214,2.506,2.506,0,0,1,2.526,2.6v4.257h.214c1.082-.074,2.2-.145,3.392-.145a2.6,2.6,0,0,1,2.56,2.6" transform="translate(89 602)" fill="#592583"/>
    <path id="패스_5954" data-name="패스 5954" d="M488.715,54.909a95.8,95.8,0,0,0-17.173-3.466,2.624,2.624,0,0,0-2.812,2.286,2.571,2.571,0,0,0,.553,1.893,2.533,2.533,0,0,0,1.727.941,91.265,91.265,0,0,1,16.238,3.283,2.638,2.638,0,0,0,.734.1,2.573,2.573,0,0,0,.733-5.039" transform="translate(89 602)" fill="#592583"/>
    <path id="패스_5955" data-name="패스 5955" d="M488.715,64.733a95.853,95.853,0,0,0-17.157-3.465,2.575,2.575,0,0,0-.548,5.121,90.591,90.591,0,0,1,16.244,3.282,2.633,2.633,0,0,0,.728.106,2.576,2.576,0,0,0,.733-5.044" transform="translate(89 602)" fill="#592583"/>
    <path id="패스_5956" data-name="패스 5956" d="M490.448,77.764a2.585,2.585,0,0,0-1.733-3.209,96.984,96.984,0,0,0-17.173-3.467,2.633,2.633,0,0,0-2.813,2.286,2.572,2.572,0,0,0,2.282,2.839,90.941,90.941,0,0,1,16.238,3.28,2.706,2.706,0,0,0,.734.1,2.564,2.564,0,0,0,2.465-1.833" transform="translate(89 602)" fill="#592583"/>
    <path id="패스_5957" data-name="패스 5957" d="M486.982,89.234A89.564,89.564,0,0,0,471,86.023a2.626,2.626,0,0,1-1.73-.9,2.693,2.693,0,0,1-.541-1.912,2.559,2.559,0,0,1,2.814-2.307,93.588,93.588,0,0,1,15.219,2.956,8.684,8.684,0,0,0-.108,2.741Z" transform="translate(89 602)" fill="#592583"/>
    <path id="패스_5958" data-name="패스 5958" d="M507.781,59.949a2.51,2.51,0,0,0,.733-.106,91.591,91.591,0,0,1,16.234-3.28,2.572,2.572,0,0,0-.335-5.128c-.07,0-.143,0-.218.009a95.754,95.754,0,0,0-17.147,3.465,2.567,2.567,0,0,0-1.732,3.2,2.582,2.582,0,0,0,2.465,1.839" transform="translate(89 602)" fill="#592583"/>
    <path id="패스_5959" data-name="패스 5959" d="M505.315,67.936a2.581,2.581,0,0,0,2.465,1.839,2.642,2.642,0,0,0,.734-.105,90.446,90.446,0,0,1,16.234-3.281,2.575,2.575,0,0,0-.547-5.121h-.007a96.141,96.141,0,0,0-17.146,3.465,2.565,2.565,0,0,0-1.733,3.2" transform="translate(89 602)" fill="#592583"/>
    <path id="패스_5960" data-name="패스 5960" d="M505.315,77.761A2.579,2.579,0,0,0,507.78,79.6a2.653,2.653,0,0,0,.734-.106,90.9,90.9,0,0,1,16.234-3.279,2.575,2.575,0,0,0,2.286-2.833,2.639,2.639,0,0,0-2.824-2.291l-.016.005a96.466,96.466,0,0,0-17.146,3.46,2.574,2.574,0,0,0-1.733,3.207" transform="translate(89 602)" fill="#592583"/>
    <path id="패스_5961" data-name="패스 5961" d="M527.052,83.21a2.489,2.489,0,0,1-2.273,2.815,89.5,89.5,0,0,0-11.144,1.91l-5.553-3.859A97.448,97.448,0,0,1,524.2,80.9a2.617,2.617,0,0,1,2.85,2.308" transform="translate(89 602)" fill="#592583"/>
    <path id="패스_5962" data-name="패스 5962" d="M524.75,103.532,496.388,83.871a2.106,2.106,0,0,0-3.291,1.976l4.024,34.274a2.1,2.1,0,0,0,3.558,1.264l7.143-6.949,5.978,9.96a2.107,2.107,0,0,0,2.89.722l3.269-1.964a2.1,2.1,0,0,0,.72-2.888l-5.98-9.959,9.494-3.039a2.106,2.106,0,0,0,.557-3.736" transform="translate(89 602)" fill="#29aae1"/>
    <path id="패스_6027" data-name="패스 6027" d="M459.688,183.692l-1.625-4.724h-6.726l-1.6,4.724h-3.4l6.551-17.925h3.651l6.548,17.925Zm-4-12.075c-.067-.233-.166-.55-.3-.95s-.263-.813-.388-1.238-.22-.778-.288-1.062q-.125.5-.311,1.15t-.362,1.225c-.118.384-.2.675-.25.875l-1.577,4.6h5.026Z" transform="translate(89 602)" fill="#fff"/>
    <path id="패스_6028" data-name="패스 6028" d="M468.287,169.193q0,.8-.05,1.55t-.1,1.175h.15a4.947,4.947,0,0,1,7.788-.25,10.119,10.119,0,0,1-.013,10.5,4.794,4.794,0,0,1-3.875,1.775,4.7,4.7,0,0,1-2.437-.55,5.1,5.1,0,0,1-1.463-1.275h-.225l-.575,1.575h-2.35v-19h3.15Zm3.075,3.25a2.629,2.629,0,0,0-2.375,1.025,5.949,5.949,0,0,0-.7,3.15v.275a6.752,6.752,0,0,0,.663,3.325,2.592,2.592,0,0,0,2.462,1.15,2.411,2.411,0,0,0,2.15-1.162,6.173,6.173,0,0,0,.75-3.338,5.882,5.882,0,0,0-.762-3.325,2.5,2.5,0,0,0-2.188-1.1" transform="translate(89 602)" fill="#fff"/>
    <path id="패스_6029" data-name="패스 6029" d="M490.013,179.768a3.6,3.6,0,0,1-1.463,3.112,7.042,7.042,0,0,1-4.187,1.063,12.818,12.818,0,0,1-2.438-.2,9.053,9.053,0,0,1-1.962-.625v-2.675a12.971,12.971,0,0,0,2.212.8,8.885,8.885,0,0,0,2.288.325,3.36,3.36,0,0,0,1.875-.4,1.245,1.245,0,0,0,.575-1.074,1.193,1.193,0,0,0-.225-.713,2.832,2.832,0,0,0-.888-.687,20.1,20.1,0,0,0-1.962-.925,12.76,12.76,0,0,1-2.163-1.038,3.86,3.86,0,0,1-1.3-1.262,3.584,3.584,0,0,1-.437-1.875,3.088,3.088,0,0,1,1.437-2.763,6.94,6.94,0,0,1,3.838-.937,10.733,10.733,0,0,1,2.362.25,12.016,12.016,0,0,1,2.238.75l-1,2.325q-.951-.4-1.85-.676a6.341,6.341,0,0,0-1.85-.274q-2.074,0-2.075,1.175a1.059,1.059,0,0,0,.262.724,3.144,3.144,0,0,0,.926.638q.661.339,1.887.813a15.285,15.285,0,0,1,2.075.987,3.885,3.885,0,0,1,1.35,1.263,3.488,3.488,0,0,1,.475,1.9" transform="translate(89 602)" fill="#fff"/>
    <path id="패스_6030" data-name="패스 6030" d="M498.287,181.417a5.782,5.782,0,0,0,1.137-.112,9.745,9.745,0,0,0,1.038-.263v2.351a6.339,6.339,0,0,1-1.3.387,8.433,8.433,0,0,1-1.676.162,5.509,5.509,0,0,1-2.1-.387,3.022,3.022,0,0,1-1.5-1.337,5.309,5.309,0,0,1-.55-2.651v-7.049h-1.825v-1.375l2-1.1,1-2.875h1.974v2.976h3.851v2.375h-3.851v7.024a1.674,1.674,0,0,0,1.8,1.875" transform="translate(89 602)" fill="#fff"/>
    <path id="패스_6031" data-name="패스 6031" d="M510.287,169.893c.217,0,.454.009.713.024a3.479,3.479,0,0,1,.662.1l-.275,2.925c-.166-.033-.367-.063-.6-.088a6.184,6.184,0,0,0-.625-.037,4.354,4.354,0,0,0-1.875.412,3.289,3.289,0,0,0-1.412,1.275,4.014,4.014,0,0,0-.538,2.162v7.026h-3.15v-13.55h2.425l.45,2.35h.15a5.678,5.678,0,0,1,1.65-1.837,4.014,4.014,0,0,1,2.425-.763" transform="translate(89 602)" fill="#fff"/>
    <path id="패스_6032" data-name="패스 6032" d="M519.562,169.893a6.044,6.044,0,0,1,3.987,1.149,4.392,4.392,0,0,1,1.363,3.551v9.1h-2.225l-.625-1.875h-.1a5.962,5.962,0,0,1-1.85,1.612,5.737,5.737,0,0,1-2.65.513,4.491,4.491,0,0,1-3.025-1.026,3.947,3.947,0,0,1-1.2-3.175,3.557,3.557,0,0,1,1.538-3.149,9,9,0,0,1,4.662-1.176l2.35-.074v-.676a2.368,2.368,0,0,0-.625-1.837,2.525,2.525,0,0,0-1.75-.562,6.375,6.375,0,0,0-1.963.3q-.937.3-1.862.7l-1-2.2a10.378,10.378,0,0,1,2.287-.85,10.928,10.928,0,0,1,2.688-.325m.575,7.45a5.078,5.078,0,0,0-2.875.712,2.078,2.078,0,0,0-.8,1.713,1.611,1.611,0,0,0,.563,1.388,2.463,2.463,0,0,0,1.487.412,3.53,3.53,0,0,0,2.325-.787,2.865,2.865,0,0,0,.95-2.338v-1.151Z" transform="translate(89 602)" fill="#fff"/>
    <path id="패스_6033" data-name="패스 6033" d="M534.337,183.943a6.219,6.219,0,0,1-4.6-1.675q-1.676-1.674-1.675-5.275a8.576,8.576,0,0,1,.838-4.063,5.278,5.278,0,0,1,2.312-2.3,7.454,7.454,0,0,1,3.375-.737,9.4,9.4,0,0,1,2.275.25,8.357,8.357,0,0,1,1.7.6l-.925,2.475a15.867,15.867,0,0,0-1.55-.512,5.655,5.655,0,0,0-1.5-.213q-3.3,0-3.3,4.475a5.363,5.363,0,0,0,.837,3.275,2.852,2.852,0,0,0,2.413,1.1,6.651,6.651,0,0,0,2-.275,7.992,7.992,0,0,0,1.675-.75v2.725a6.461,6.461,0,0,1-1.662.675,9.187,9.187,0,0,1-2.213.225" transform="translate(89 602)" fill="#fff"/>
    <path id="패스_6034" data-name="패스 6034" d="M546.637,181.417a5.782,5.782,0,0,0,1.137-.112,9.745,9.745,0,0,0,1.038-.263v2.351a6.339,6.339,0,0,1-1.3.387,8.434,8.434,0,0,1-1.676.162,5.509,5.509,0,0,1-2.1-.387,3.022,3.022,0,0,1-1.5-1.337,5.309,5.309,0,0,1-.55-2.651v-7.049h-1.825v-1.375l2-1.1,1-2.875h1.974v2.976h3.851v2.375h-3.851v7.024a1.674,1.674,0,0,0,1.8,1.875" transform="translate(89 602)" fill="#fff"/>
  </g>
</svg>
