<svg id="그룹_1807" data-name="그룹 1807" xmlns="http://www.w3.org/2000/svg" xmlns:xlink="http://www.w3.org/1999/xlink" width="365" height="81.127" viewBox="0 0 365 81.127">
  <defs>
    <clipPath id="clip-path">
      <rect id="사각형_2112" data-name="사각형 2112" width="365" height="81.127" fill="none"/>
    </clipPath>
    <clipPath id="clip-path-2">
      <path id="패스_6747" data-name="패스 6747" d="M114.882,25.209A13.988,13.988,0,1,1,128.87,39.2a13.989,13.989,0,0,1-13.988-13.988m-9.349,0A23.337,23.337,0,1,0,128.87,1.871a23.337,23.337,0,0,0-23.337,23.338" transform="translate(-105.533 -1.871)" fill="none"/>
    </clipPath>
    <clipPath id="clip-path-3">
      <path id="패스_6799" data-name="패스 6799" d="M105.533,39.16v0m31.72-11.2a13.989,13.989,0,0,1-16.766,22.4A11.678,11.678,0,0,1,105.533,39.2a23.337,23.337,0,0,0,46.675-.038,11.678,11.678,0,0,0-14.954-11.2" transform="translate(-105.533 -27.491)" fill="none"/>
    </clipPath>
  </defs>
  <g id="그룹_1800" data-name="그룹 1800">
    <g id="그룹_1799" data-name="그룹 1799" clip-path="url(#clip-path)">
      <path id="패스_6674" data-name="패스 6674" d="M516.725,16.374h-9a15.367,15.367,0,0,1,4.667-11.28,16.031,16.031,0,0,1,22.617,0,15.381,15.381,0,0,1,4.7,11.28,15.9,15.9,0,0,1-2.167,7.864,37.81,37.81,0,0,1-5.419,7.335,52.358,52.358,0,0,1-5.056,4.917h12.447v8.975H507.557l1.528-5.113a97.819,97.819,0,0,0,14.643-12.794,48.973,48.973,0,0,0,5.015-6.308,9.676,9.676,0,0,0,1.931-4.875,6.974,6.974,0,0,0-13.948,0" transform="translate(-286.671 -0.241)" fill="#fff"/>
      <path id="패스_6675" data-name="패스 6675" d="M605.275.426a14.96,14.96,0,0,1,12.809,6.78q4.641,6.445,4.64,15.837,0,9.447-4.64,15.892a15.02,15.02,0,0,1-12.809,6.751c-11.059,0-17.447-10.607-17.447-22.643,0-12,6.427-22.617,17.447-22.617m-.027,9.058a6.549,6.549,0,0,0-5.5,2.916A18.1,18.1,0,0,0,596.8,23.043q0,6.529,2.945,10.642a6.673,6.673,0,0,0,11.03,0Q613.7,29.6,613.7,23.043A18.049,18.049,0,0,0,610.777,12.4a6.568,6.568,0,0,0-5.529-2.918" transform="translate(-332.008 -0.241)" fill="#fff"/>
      <path id="패스_6676" data-name="패스 6676" d="M683.586,16.374h-9a15.366,15.366,0,0,1,4.668-11.28,16.031,16.031,0,0,1,22.616,0,15.381,15.381,0,0,1,4.695,11.28,15.906,15.906,0,0,1-2.167,7.864,37.809,37.809,0,0,1-5.419,7.335,52.371,52.371,0,0,1-5.056,4.917H706.37v8.975H674.418l1.528-5.113a97.809,97.809,0,0,0,14.643-12.794A48.939,48.939,0,0,0,695.6,21.25a9.675,9.675,0,0,0,1.931-4.875,6.974,6.974,0,0,0-13.948,0" transform="translate(-380.915 -0.241)" fill="#fff"/>
      <path id="패스_6677" data-name="패스 6677" d="M777.776.609l-9.585,26.34h9.585V9.529h8.975V26.95h4.5v8.974h-4.5v9.613h-8.975V35.923H754.688L768.052.554Z" transform="translate(-426.252 -0.313)" fill="#fff"/>
      <path id="패스_6678" data-name="패스 6678" d="M.167,129.5V128.9l.758-.736c1.825-1.736,2.648-2.659,2.659-3.736a1.274,1.274,0,0,0-1.417-1.4,2.437,2.437,0,0,0-1.516.6l-.308-.681a3.14,3.14,0,0,1,2.023-.725,2.01,2.01,0,0,1,2.186,2.078c0,1.318-.956,2.384-2.462,3.834l-.571.527v.022H4.727v.8Z" transform="translate(-0.094 -69.037)" fill="#fff"/>
      <path id="패스_6679" data-name="패스 6679" d="M17.741,125.848c0,2.428-.9,3.768-2.483,3.768-1.4,0-2.34-1.307-2.362-3.669,0-2.4,1.033-3.714,2.483-3.714,1.5,0,2.362,1.341,2.362,3.615m-3.878.11c0,1.857.571,2.912,1.451,2.912.989,0,1.461-1.154,1.461-2.978,0-1.758-.451-2.912-1.451-2.912-.846,0-1.461,1.033-1.461,2.978" transform="translate(-7.284 -69.038)" fill="#fff"/>
      <path id="패스_6680" data-name="패스 6680" d="M26.079,129.5V128.9l.758-.736c1.824-1.736,2.649-2.659,2.659-3.736a1.274,1.274,0,0,0-1.417-1.4,2.433,2.433,0,0,0-1.516.6l-.308-.681a3.135,3.135,0,0,1,2.021-.725,2.01,2.01,0,0,1,2.186,2.078c0,1.318-.956,2.384-2.461,3.834l-.571.527v.022h3.208v.8Z" transform="translate(-14.73 -69.037)" fill="#fff"/>
      <path id="패스_6681" data-name="패스 6681" d="M41.6,129.653v-1.945H38.278v-.637l3.186-4.56h1.044v4.439h1v.758h-1v1.945Zm0-2.7v-2.384q0-.561.033-1.121H41.6c-.219.418-.4.725-.593,1.055l-1.747,2.429v.021Z" transform="translate(-21.62 -69.195)" fill="#fff"/>
      <rect id="사각형_2108" data-name="사각형 2108" width="1.681" height="7.406" transform="translate(25.187 53.052)" fill="#fff"/>
      <path id="패스_6682" data-name="패스 6682" d="M65.194,127.985c0-.55-.01-1-.044-1.44h.857l.055.879h.022a1.956,1.956,0,0,1,1.758-1c.736,0,1.879.44,1.879,2.264v3.175h-.967V128.8c0-.856-.319-1.571-1.23-1.571a1.373,1.373,0,0,0-1.3.989,1.389,1.389,0,0,0-.066.45v3.2h-.967Z" transform="translate(-36.797 -71.405)" fill="#fff"/>
      <path id="패스_6683" data-name="패스 6683" d="M79.547,123.193v1.527h1.384v.737H79.547v2.868c0,.659.187,1.033.725,1.033a2.152,2.152,0,0,0,.561-.066l.043.725a2.363,2.363,0,0,1-.857.131,1.338,1.338,0,0,1-1.043-.406,1.969,1.969,0,0,1-.374-1.384v-2.9h-.825v-.737H78.6v-1.274Z" transform="translate(-43.929 -69.58)" fill="#fff"/>
      <path id="패스_6684" data-name="패스 6684" d="M87.417,129.38a1.7,1.7,0,0,0,1.824,1.846,3.493,3.493,0,0,0,1.473-.275l.165.692a4.3,4.3,0,0,1-1.769.329,2.469,2.469,0,0,1-2.615-2.681,2.582,2.582,0,0,1,2.494-2.868,2.253,2.253,0,0,1,2.2,2.505,3.691,3.691,0,0,1-.033.451Zm2.835-.692a1.377,1.377,0,0,0-1.34-1.571,1.6,1.6,0,0,0-1.484,1.571Z" transform="translate(-48.852 -71.405)" fill="#fff"/>
      <path id="패스_6685" data-name="패스 6685" d="M99.973,128.2c0-.626-.01-1.165-.044-1.659h.846l.033,1.044h.044a1.6,1.6,0,0,1,1.472-1.165,1.039,1.039,0,0,1,.275.033v.912a1.466,1.466,0,0,0-.329-.033,1.356,1.356,0,0,0-1.3,1.242,2.7,2.7,0,0,0-.044.45v2.835h-.957Z" transform="translate(-56.44 -71.405)" fill="#fff"/>
      <path id="패스_6686" data-name="패스 6686" d="M108.333,127.985c0-.55-.011-1-.044-1.44h.857l.055.879h.021a1.958,1.958,0,0,1,1.758-1c.736,0,1.879.44,1.879,2.264v3.175h-.967V128.8c0-.856-.319-1.571-1.231-1.571a1.374,1.374,0,0,0-1.3.989,1.389,1.389,0,0,0-.066.45v3.2h-.967Z" transform="translate(-61.162 -71.405)" fill="#fff"/>
      <path id="패스_6687" data-name="패스 6687" d="M124.81,131.863l-.077-.67H124.7a1.98,1.98,0,0,1-1.626.791,1.515,1.515,0,0,1-1.626-1.527c0-1.286,1.142-1.989,3.2-1.978v-.109a1.1,1.1,0,0,0-1.209-1.231,2.652,2.652,0,0,0-1.384.4l-.219-.637a3.3,3.3,0,0,1,1.747-.473c1.626,0,2.021,1.11,2.021,2.175v1.989a7.465,7.465,0,0,0,.088,1.275Zm-.142-2.714c-1.055-.021-2.253.165-2.253,1.2a.855.855,0,0,0,.911.923,1.325,1.325,0,0,0,1.286-.89,1.019,1.019,0,0,0,.055-.308Z" transform="translate(-68.595 -71.405)" fill="#fff"/>
      <path id="패스_6688" data-name="패스 6688" d="M134.86,123.193v1.527h1.384v.737H134.86v2.868c0,.659.187,1.033.725,1.033a2.148,2.148,0,0,0,.561-.066l.044.725a2.363,2.363,0,0,1-.857.131,1.338,1.338,0,0,1-1.044-.406,1.971,1.971,0,0,1-.374-1.384v-2.9h-.824v-.737h.824v-1.274Z" transform="translate(-75.17 -69.58)" fill="#fff"/>
      <path id="패스_6689" data-name="패스 6689" d="M143.759,122.484a.6.6,0,0,1-1.2,0,.589.589,0,0,1,.6-.6.574.574,0,0,1,.593.6m-1.077,1.494h.967V129.3h-.967Z" transform="translate(-80.52 -68.838)" fill="#fff"/>
      <path id="패스_6690" data-name="패스 6690" d="M153.063,129.16a2.6,2.6,0,0,1-2.649,2.824,2.528,2.528,0,0,1-2.549-2.736,2.6,2.6,0,0,1,2.637-2.824,2.518,2.518,0,0,1,2.56,2.736m-4.219.055c0,1.165.67,2.044,1.615,2.044.923,0,1.615-.868,1.615-2.066,0-.9-.451-2.043-1.594-2.043s-1.637,1.054-1.637,2.065" transform="translate(-83.515 -71.405)" fill="#fff"/>
      <path id="패스_6691" data-name="패스 6691" d="M162.559,127.985c0-.55-.01-1-.044-1.44h.857l.055.879h.022a1.956,1.956,0,0,1,1.758-1c.736,0,1.879.44,1.879,2.264v3.175h-.967V128.8c0-.856-.319-1.571-1.23-1.571a1.373,1.373,0,0,0-1.3.989,1.39,1.39,0,0,0-.066.45v3.2h-.967Z" transform="translate(-91.789 -71.405)" fill="#fff"/>
      <path id="패스_6692" data-name="패스 6692" d="M179.036,131.863l-.077-.67h-.033a1.981,1.981,0,0,1-1.626.791,1.515,1.515,0,0,1-1.626-1.527c0-1.286,1.142-1.989,3.2-1.978v-.109a1.1,1.1,0,0,0-1.209-1.231,2.652,2.652,0,0,0-1.384.4l-.219-.637a3.3,3.3,0,0,1,1.747-.473c1.626,0,2.021,1.11,2.021,2.175v1.989a7.468,7.468,0,0,0,.088,1.275Zm-.142-2.714c-1.055-.021-2.253.165-2.253,1.2a.855.855,0,0,0,.911.923,1.325,1.325,0,0,0,1.286-.89,1.019,1.019,0,0,0,.055-.308Z" transform="translate(-99.222 -71.405)" fill="#fff"/>
      <rect id="사각형_2109" data-name="사각형 2109" width="0.967" height="7.801" transform="translate(82.168 52.657)" fill="#fff"/>
      <path id="패스_6693" data-name="패스 6693" d="M204.941,128.945a4.769,4.769,0,0,1-1.9.319,3.522,3.522,0,0,1-3.879-3.7,3.775,3.775,0,0,1,4.044-3.933,4.369,4.369,0,0,1,1.823.329l-.341,1.329a3.625,3.625,0,0,0-1.407-.274,2.435,2.435,0,0,0,.011,4.867,4.17,4.17,0,0,0,1.4-.242Z" transform="translate(-112.487 -68.696)" fill="#fff"/>
      <path id="패스_6694" data-name="패스 6694" d="M219.464,129.16a2.6,2.6,0,0,1-2.649,2.824,2.528,2.528,0,0,1-2.549-2.736,2.6,2.6,0,0,1,2.637-2.824,2.519,2.519,0,0,1,2.56,2.736m-4.219.055c0,1.165.67,2.044,1.615,2.044.923,0,1.615-.868,1.615-2.066,0-.9-.45-2.043-1.593-2.043s-1.637,1.054-1.637,2.065" transform="translate(-121.019 -71.405)" fill="#fff"/>
      <path id="패스_6695" data-name="패스 6695" d="M228.959,127.985c0-.55-.011-1-.044-1.44h.857l.055.879h.022a1.957,1.957,0,0,1,1.758-1c.736,0,1.879.44,1.879,2.264v3.175h-.967V128.8c0-.856-.319-1.571-1.231-1.571a1.373,1.373,0,0,0-1.3.989,1.389,1.389,0,0,0-.066.45v3.2h-.967Z" transform="translate(-129.292 -71.405)" fill="#fff"/>
      <path id="패스_6696" data-name="패스 6696" d="M247.115,126.546c-.022.385-.044.813-.044,1.461v3.087a3.06,3.06,0,0,1-.758,2.428,2.819,2.819,0,0,1-1.934.637,3.427,3.427,0,0,1-1.769-.44l.243-.735a3,3,0,0,0,1.56.417c.989,0,1.714-.516,1.714-1.856v-.594h-.021a1.9,1.9,0,0,1-1.693.89,2.377,2.377,0,0,1-2.263-2.593,2.552,2.552,0,0,1,2.4-2.824,1.768,1.768,0,0,1,1.659.923h.022l.044-.8Zm-1,2.1a1.351,1.351,0,0,0-.055-.44,1.393,1.393,0,0,0-1.351-1.022c-.924,0-1.583.78-1.583,2.011,0,1.044.528,1.912,1.571,1.912a1.414,1.414,0,0,0,1.34-.989,1.673,1.673,0,0,0,.077-.517Z" transform="translate(-136.767 -71.406)" fill="#fff"/>
      <path id="패스_6697" data-name="패스 6697" d="M256.944,128.2c0-.626-.011-1.165-.044-1.659h.846l.033,1.044h.044a1.6,1.6,0,0,1,1.472-1.165,1.033,1.033,0,0,1,.275.033v.912a1.459,1.459,0,0,0-.329-.033,1.356,1.356,0,0,0-1.3,1.242,2.746,2.746,0,0,0-.044.45v2.835h-.956Z" transform="translate(-145.099 -71.405)" fill="#fff"/>
      <path id="패스_6698" data-name="패스 6698" d="M265.047,129.38a1.7,1.7,0,0,0,1.824,1.846,3.493,3.493,0,0,0,1.473-.275l.165.692a4.3,4.3,0,0,1-1.769.329,2.469,2.469,0,0,1-2.615-2.681,2.582,2.582,0,0,1,2.494-2.868,2.253,2.253,0,0,1,2.2,2.505,3.627,3.627,0,0,1-.032.451Zm2.835-.692a1.377,1.377,0,0,0-1.34-1.571,1.6,1.6,0,0,0-1.484,1.571Z" transform="translate(-149.179 -71.405)" fill="#fff"/>
      <path id="패스_6699" data-name="패스 6699" d="M277.043,130.875a2.539,2.539,0,0,0,1.274.384c.7,0,1.034-.352,1.034-.791,0-.461-.275-.714-.99-.977-.956-.341-1.406-.868-1.406-1.505a1.64,1.64,0,0,1,1.835-1.561,2.656,2.656,0,0,1,1.307.33l-.241.7a2.072,2.072,0,0,0-1.088-.308c-.571,0-.89.329-.89.725,0,.44.319.637,1.011.9.923.352,1.4.812,1.4,1.6,0,.934-.725,1.593-1.988,1.593a3.023,3.023,0,0,1-1.495-.363Z" transform="translate(-156.339 -71.405)" fill="#fff"/>
      <path id="패스_6700" data-name="패스 6700" d="M287.046,130.875a2.539,2.539,0,0,0,1.274.384c.7,0,1.034-.352,1.034-.791,0-.461-.276-.714-.99-.977-.956-.341-1.406-.868-1.406-1.505a1.64,1.64,0,0,1,1.835-1.561,2.656,2.656,0,0,1,1.307.33l-.242.7a2.071,2.071,0,0,0-1.087-.308c-.571,0-.89.329-.89.725,0,.44.319.637,1.011.9.923.352,1.4.812,1.4,1.6,0,.934-.725,1.593-1.988,1.593a3.023,3.023,0,0,1-1.494-.363Z" transform="translate(-161.989 -71.405)" fill="#fff"/>
      <path id="패스_6701" data-name="패스 6701" d="M307.331,129.16a2.6,2.6,0,0,1-2.648,2.824,2.529,2.529,0,0,1-2.549-2.736,2.6,2.6,0,0,1,2.637-2.824,2.519,2.519,0,0,1,2.56,2.736m-4.219.055c0,1.165.67,2.044,1.615,2.044.923,0,1.615-.868,1.615-2.066,0-.9-.451-2.043-1.594-2.043s-1.637,1.054-1.637,2.065" transform="translate(-170.647 -71.405)" fill="#fff"/>
      <path id="패스_6702" data-name="패스 6702" d="M316.827,127.985c0-.55-.011-1-.044-1.44h.856l.055.879h.022a1.957,1.957,0,0,1,1.758-1c.736,0,1.879.44,1.879,2.264v3.175h-.967V128.8c0-.856-.319-1.571-1.23-1.571a1.373,1.373,0,0,0-1.3.989,1.391,1.391,0,0,0-.066.45v3.2h-.967Z" transform="translate(-178.921 -71.405)" fill="#fff"/>
      <path id="패스_6703" data-name="패스 6703" d="M342.416,125.375c0,2.428-1.473,3.9-3.637,3.9a3.453,3.453,0,0,1-3.483-3.768,3.585,3.585,0,0,1,3.6-3.878,3.452,3.452,0,0,1,3.516,3.747m-5.351.1c0,1.451.681,2.472,1.8,2.472s1.78-1.077,1.78-2.516c0-1.33-.638-2.472-1.791-2.472-1.131,0-1.791,1.077-1.791,2.516" transform="translate(-189.377 -68.696)" fill="#fff"/>
      <path id="패스_6704" data-name="패스 6704" d="M354.265,128.8c.022-.363.044-.9.044-1.373V121h.956v3.34h.022a1.98,1.98,0,0,1,1.813-.978c1.318,0,2.252,1.1,2.241,2.714,0,1.9-1.2,2.845-2.384,2.845a1.894,1.894,0,0,1-1.78-1h-.033l-.044.88Zm1-2.132a1.833,1.833,0,0,0,.044.352,1.492,1.492,0,0,0,1.45,1.132c1.011,0,1.615-.824,1.615-2.044,0-1.066-.549-1.978-1.582-1.978a1.542,1.542,0,0,0-1.473,1.187,1.913,1.913,0,0,0-.055.4Z" transform="translate(-200.091 -68.339)" fill="#fff"/>
      <path id="패스_6705" data-name="패스 6705" d="M368.775,129.38a1.7,1.7,0,0,0,1.824,1.846,3.493,3.493,0,0,0,1.473-.275l.164.692a4.3,4.3,0,0,1-1.769.329,2.469,2.469,0,0,1-2.615-2.681,2.582,2.582,0,0,1,2.494-2.868,2.253,2.253,0,0,1,2.2,2.505,3.623,3.623,0,0,1-.032.451Zm2.835-.692a1.377,1.377,0,0,0-1.34-1.571,1.6,1.6,0,0,0-1.484,1.571Z" transform="translate(-207.765 -71.405)" fill="#fff"/>
      <path id="패스_6706" data-name="패스 6706" d="M380.773,130.875a2.539,2.539,0,0,0,1.274.384c.7,0,1.034-.352,1.034-.791,0-.461-.275-.714-.99-.977-.956-.341-1.406-.868-1.406-1.505a1.64,1.64,0,0,1,1.835-1.561,2.656,2.656,0,0,1,1.307.33l-.242.7a2.072,2.072,0,0,0-1.088-.308c-.571,0-.89.329-.89.725,0,.44.319.637,1.011.9.923.352,1.4.812,1.4,1.6,0,.934-.725,1.593-1.988,1.593a3.023,3.023,0,0,1-1.495-.363Z" transform="translate(-214.926 -71.405)" fill="#fff"/>
      <path id="패스_6707" data-name="패스 6707" d="M392.311,122.484a.6.6,0,0,1-1.2,0,.589.589,0,0,1,.6-.6.575.575,0,0,1,.594.6m-1.077,1.494h.967V129.3h-.967Z" transform="translate(-220.903 -68.838)" fill="#fff"/>
      <path id="패스_6708" data-name="패스 6708" d="M397.681,123.193v1.527h1.384v.737h-1.384v2.868c0,.659.187,1.033.725,1.033a2.147,2.147,0,0,0,.561-.066l.044.725a2.368,2.368,0,0,1-.857.131,1.339,1.339,0,0,1-1.044-.406,1.971,1.971,0,0,1-.374-1.384v-2.9h-.824v-.737h.824v-1.274Z" transform="translate(-223.613 -69.58)" fill="#fff"/>
      <path id="패스_6709" data-name="패스 6709" d="M405.327,126.7l1.164,3.143c.121.351.253.769.341,1.088h.022c.1-.319.209-.725.341-1.11l1.055-3.12h1.021l-1.45,3.791a8.093,8.093,0,0,1-1.824,3.33,2.628,2.628,0,0,1-1.187.626l-.241-.813a2.559,2.559,0,0,0,.846-.472,2.943,2.943,0,0,0,.813-1.077.7.7,0,0,0,.077-.232.851.851,0,0,0-.066-.252l-1.967-4.9Z" transform="translate(-228.335 -71.562)" fill="#fff"/>
      <path id="패스_6710" data-name="패스 6710" d="M426.036,131.865l-.073-.67h-.032a1.879,1.879,0,0,1-1.562.791,1.484,1.484,0,0,1-1.562-1.528c0-1.285,1.1-1.988,3.071-1.978v-.11a1.08,1.08,0,0,0-1.162-1.23,2.468,2.468,0,0,0-1.329.4l-.211-.638a3.072,3.072,0,0,1,1.677-.472c1.562,0,1.941,1.11,1.941,2.176v1.989a7.822,7.822,0,0,0,.084,1.274Zm-.137-2.714c-1.013-.022-2.163.165-2.163,1.2a.839.839,0,0,0,.877.923,1.276,1.276,0,0,0,1.234-.89,1.025,1.025,0,0,0,.053-.308Z" transform="translate(-238.804 -71.406)" fill="#fff"/>
      <path id="패스_6711" data-name="패스 6711" d="M435.216,127.986c0-.549-.01-1-.042-1.44H436l.053.88h.021a1.867,1.867,0,0,1,1.688-1c.707,0,1.8.439,1.8,2.263v3.175h-.928V128.8c0-.857-.306-1.572-1.182-1.572a1.329,1.329,0,0,0-1.246.989,1.452,1.452,0,0,0-.063.45v3.2h-.929Z" transform="translate(-245.788 -71.406)" fill="#fff"/>
      <path id="패스_6712" data-name="패스 6712" d="M452.513,121v6.428c0,.473.01,1.011.042,1.374h-.833l-.042-.923h-.021a1.88,1.88,0,0,1-1.741,1.044c-1.235,0-2.185-1.088-2.185-2.7-.01-1.769,1.044-2.857,2.289-2.857a1.692,1.692,0,0,1,1.541.813h.021V121Zm-.929,4.648a1.747,1.747,0,0,0-.043-.406,1.378,1.378,0,0,0-1.34-1.12c-.96,0-1.53.879-1.53,2.055,0,1.077.506,1.966,1.509,1.966a1.41,1.41,0,0,0,1.361-1.154,1.714,1.714,0,0,0,.043-.417Z" transform="translate(-252.882 -68.34)" fill="#fff"/>
      <path id="패스_6713" data-name="패스 6713" d="M473.051,126.477c-.033-.89-.066-1.967-.066-3.043h-.033c-.23.945-.537,2-.823,2.868l-.9,2.89H469.92l-.792-2.868c-.241-.868-.494-1.923-.67-2.89h-.022c-.043,1-.077,2.142-.132,3.065l-.132,2.813h-1.549l.473-7.406h2.229l.726,2.472c.231.857.461,1.78.627,2.648h.033c.208-.858.461-1.835.7-2.659l.79-2.461h2.187l.407,7.406h-1.637Z" transform="translate(-263.552 -68.853)" fill="#fff"/>
      <path id="패스_6714" data-name="패스 6714" d="M492.63,126.18h-2.725v1.758h3.043v1.373h-4.724v-7.405H492.8v1.373h-2.89v1.539h2.725Z" transform="translate(-275.752 -68.853)" fill="#fff"/>
      <path id="패스_6715" data-name="패스 6715" d="M502.035,123.194v1.527h1.33v.736h-1.33v2.868c0,.659.179,1.033.7,1.033a1.985,1.985,0,0,0,.538-.066l.042.725a2.185,2.185,0,0,1-.823.132,1.264,1.264,0,0,1-1-.406,2.032,2.032,0,0,1-.358-1.384v-2.9h-.791v-.736h.791v-1.274Z" transform="translate(-282.592 -69.581)" fill="#fff"/>
      <path id="패스_6716" data-name="패스 6716" d="M511.857,131.865l-.074-.67h-.031a1.88,1.88,0,0,1-1.562.791,1.484,1.484,0,0,1-1.561-1.528c0-1.285,1.1-1.988,3.07-1.978v-.11a1.08,1.08,0,0,0-1.161-1.23,2.465,2.465,0,0,0-1.329.4L509,126.9a3.074,3.074,0,0,1,1.678-.472c1.561,0,1.942,1.11,1.942,2.176v1.989a7.721,7.721,0,0,0,.084,1.274Zm-.137-2.714c-1.013-.022-2.163.165-2.163,1.2a.839.839,0,0,0,.876.923,1.276,1.276,0,0,0,1.235-.89,1.051,1.051,0,0,0,.053-.308Z" transform="translate(-287.276 -71.406)" fill="#fff"/>
      <path id="패스_6717" data-name="패스 6717" d="M520.993,128.8c.021-.363.043-.9.043-1.373V121h.917v3.341h.021a1.887,1.887,0,0,1,1.741-.977c1.266,0,2.163,1.1,2.152,2.713,0,1.9-1.149,2.846-2.289,2.846a1.807,1.807,0,0,1-1.71-1h-.031l-.042.879Zm.96-2.132a1.847,1.847,0,0,0,.043.352,1.444,1.444,0,0,0,1.392,1.132c.972,0,1.551-.824,1.551-2.044,0-1.066-.527-1.978-1.519-1.978a1.5,1.5,0,0,0-1.414,1.186,2,2,0,0,0-.052.4Z" transform="translate(-294.26 -68.339)" fill="#fff"/>
      <path id="패스_6718" data-name="패스 6718" d="M538.883,129.162a2.551,2.551,0,0,1-2.542,2.824,2.485,2.485,0,0,1-2.448-2.736,2.552,2.552,0,0,1,2.532-2.824,2.476,2.476,0,0,1,2.458,2.736m-4.052.055c0,1.164.644,2.044,1.551,2.044.886,0,1.551-.869,1.551-2.066,0-.9-.432-2.043-1.53-2.043s-1.572,1.054-1.572,2.065" transform="translate(-301.546 -71.406)" fill="#fff"/>
      <rect id="사각형_2110" data-name="사각형 2110" width="0.929" height="7.801" transform="translate(238.446 52.657)" fill="#fff"/>
      <path id="패스_6719" data-name="패스 6719" d="M554.367,122.485a.575.575,0,1,1-1.15,0,.579.579,0,0,1,.581-.6.564.564,0,0,1,.57.6m-1.034,1.494h.929V129.3h-.929Z" transform="translate(-312.46 -68.838)" fill="#fff"/>
      <path id="패스_6720" data-name="패스 6720" d="M562.174,131.681a3.314,3.314,0,0,1-1.467.308,2.48,2.48,0,0,1-2.543-2.714,2.649,2.649,0,0,1,2.743-2.824,3,3,0,0,1,1.288.275l-.212.747a2.084,2.084,0,0,0-1.076-.252,2.012,2.012,0,0,0-.031,4,2.549,2.549,0,0,0,1.139-.263Z" transform="translate(-315.254 -71.42)" fill="#fff"/>
      <path id="패스_6721" data-name="패스 6721" d="M574.3,127.43a4.269,4.269,0,0,0,1.857.462c.77,0,1.175-.319,1.175-.8,0-.462-.352-.725-1.242-1.044-1.231-.429-2.032-1.11-2.032-2.187,0-1.263,1.055-2.23,2.8-2.23a4.524,4.524,0,0,1,1.89.374l-.374,1.351a3.512,3.512,0,0,0-1.549-.352c-.725,0-1.077.329-1.077.714,0,.472.418.681,1.374,1.044,1.307.483,1.923,1.164,1.923,2.208,0,1.242-.957,2.3-2.989,2.3a4.842,4.842,0,0,1-2.1-.451Z" transform="translate(-324.178 -68.697)" fill="#fff"/>
      <path id="패스_6722" data-name="패스 6722" d="M587.678,126.7l1.118,3.143c.117.351.243.769.327,1.088h.021c.095-.319.2-.725.327-1.109l1.012-3.122h.981l-1.392,3.791a8.192,8.192,0,0,1-1.752,3.329,2.482,2.482,0,0,1-1.14.626l-.232-.813a2.428,2.428,0,0,0,.813-.472,2.914,2.914,0,0,0,.78-1.077.7.7,0,0,0,.074-.231.893.893,0,0,0-.063-.253l-1.889-4.9Z" transform="translate(-331.352 -71.562)" fill="#fff"/>
      <path id="패스_6723" data-name="패스 6723" d="M599.437,127.986c0-.549-.01-1-.042-1.44h.823l.053.88h.021a1.867,1.867,0,0,1,1.688-1c.707,0,1.8.439,1.8,2.263v3.175h-.928V128.8c0-.857-.307-1.572-1.182-1.572a1.329,1.329,0,0,0-1.246.989,1.45,1.45,0,0,0-.063.45v3.2h-.929Z" transform="translate(-338.541 -71.406)" fill="#fff"/>
      <path id="패스_6724" data-name="패스 6724" d="M616.734,121v6.428c0,.473.01,1.011.042,1.374h-.833l-.042-.923h-.021a1.881,1.881,0,0,1-1.741,1.044c-1.235,0-2.185-1.088-2.185-2.7-.01-1.769,1.044-2.857,2.289-2.857a1.692,1.692,0,0,1,1.541.813h.021V121Zm-.929,4.648a1.756,1.756,0,0,0-.043-.406,1.378,1.378,0,0,0-1.34-1.12c-.96,0-1.531.879-1.531,2.055,0,1.077.507,1.966,1.509,1.966a1.41,1.41,0,0,0,1.361-1.154,1.722,1.722,0,0,0,.043-.417Z" transform="translate(-345.635 -68.34)" fill="#fff"/>
      <path id="패스_6725" data-name="패스 6725" d="M626.277,128.206c0-.627-.011-1.165-.043-1.66h.813l.031,1.044h.043a1.544,1.544,0,0,1,1.414-1.164.959.959,0,0,1,.264.033v.912a1.272,1.272,0,0,0-1.562,1.209,2.788,2.788,0,0,0-.043.45v2.835h-.917Z" transform="translate(-353.7 -71.406)" fill="#fff"/>
      <path id="패스_6726" data-name="패스 6726" d="M638.015,129.162a2.551,2.551,0,0,1-2.543,2.824,2.485,2.485,0,0,1-2.448-2.736,2.552,2.552,0,0,1,2.532-2.824,2.477,2.477,0,0,1,2.459,2.736m-4.052.055c0,1.164.644,2.044,1.552,2.044.885,0,1.551-.869,1.551-2.066,0-.9-.432-2.043-1.53-2.043s-1.572,1.054-1.572,2.065" transform="translate(-357.535 -71.406)" fill="#fff"/>
      <path id="패스_6727" data-name="패스 6727" d="M646.984,127.986c0-.549-.01-1-.042-1.44h.812l.042.857h.032a1.751,1.751,0,0,1,1.6-.977,1.515,1.515,0,0,1,1.446,1.066h.021a2.147,2.147,0,0,1,.57-.692,1.7,1.7,0,0,1,1.129-.373c.675,0,1.678.461,1.678,2.307v3.131h-.908v-3.01c0-1.022-.359-1.638-1.108-1.638a1.211,1.211,0,0,0-1.1.879,1.637,1.637,0,0,0-.074.484v3.284h-.907v-3.186c0-.846-.359-1.462-1.066-1.462a1.283,1.283,0,0,0-1.15.967,1.383,1.383,0,0,0-.074.472v3.208h-.908Z" transform="translate(-365.396 -71.406)" fill="#fff"/>
      <path id="패스_6728" data-name="패스 6728" d="M667.153,129.381a1.669,1.669,0,0,0,1.751,1.846,3.252,3.252,0,0,0,1.414-.275l.158.692a4,4,0,0,1-1.7.33,2.425,2.425,0,0,1-2.512-2.681c0-1.6.907-2.868,2.4-2.868a2.227,2.227,0,0,1,2.11,2.505,3.719,3.719,0,0,1-.031.45Zm2.722-.692c.011-.615-.242-1.571-1.287-1.571-.94,0-1.351.9-1.425,1.571Z" transform="translate(-376.311 -71.406)" fill="#fff"/>
      <path id="패스_6729" data-name="패스 6729" d="M684.111,121h.929v3.318h.021a1.757,1.757,0,0,1,.665-.681,1.851,1.851,0,0,1,.95-.275c.686,0,1.783.439,1.783,2.274V128.8h-.928v-3.055c0-.857-.307-1.583-1.182-1.583a1.342,1.342,0,0,0-1.245.967,1.215,1.215,0,0,0-.063.461V128.8h-.929Z" transform="translate(-386.39 -68.339)" fill="#fff"/>
      <path id="패스_6730" data-name="패스 6730" d="M701.565,129.162a2.551,2.551,0,0,1-2.543,2.824,2.486,2.486,0,0,1-2.448-2.736,2.553,2.553,0,0,1,2.533-2.824,2.477,2.477,0,0,1,2.459,2.736m-4.052.055c0,1.164.644,2.044,1.551,2.044.886,0,1.551-.869,1.551-2.066,0-.9-.433-2.043-1.531-2.043s-1.571,1.054-1.571,2.065" transform="translate(-393.429 -71.406)" fill="#fff"/>
      <path id="패스_6731" data-name="패스 6731" d="M710,130.875a2.364,2.364,0,0,0,1.224.385c.675,0,.992-.352.992-.792,0-.461-.264-.714-.95-.977-.919-.341-1.351-.868-1.351-1.505a1.6,1.6,0,0,1,1.763-1.561,2.465,2.465,0,0,1,1.255.33l-.232.7a1.93,1.93,0,0,0-1.045-.307.756.756,0,0,0-.855.725c0,.44.306.637.971.9.886.352,1.34.813,1.34,1.6,0,.934-.7,1.594-1.909,1.594a2.823,2.823,0,0,1-1.435-.362Z" transform="translate(-400.879 -71.406)" fill="#fff"/>
      <path id="패스_6732" data-name="패스 6732" d="M720.41,123.194v1.527h1.33v.736h-1.33v2.868c0,.659.179,1.033.7,1.033a1.981,1.981,0,0,0,.538-.066l.043.725a2.194,2.194,0,0,1-.824.132,1.261,1.261,0,0,1-1-.406,2.026,2.026,0,0,1-.359-1.384v-2.9h-.791v-.736h.791v-1.274Z" transform="translate(-405.932 -69.581)" fill="#fff"/>
      <path id="패스_6733" data-name="패스 6733" d="M727.817,129.381a1.669,1.669,0,0,0,1.751,1.846,3.247,3.247,0,0,0,1.414-.275l.159.692a4,4,0,0,1-1.7.33,2.425,2.425,0,0,1-2.511-2.681c0-1.6.908-2.868,2.395-2.868a2.227,2.227,0,0,1,2.11,2.505,3.686,3.686,0,0,1-.032.45Zm2.723-.692c.01-.615-.243-1.571-1.287-1.571-.94,0-1.351.9-1.425,1.571Z" transform="translate(-410.574 -71.406)" fill="#fff"/>
      <path id="패스_6734" data-name="패스 6734" d="M743.711,121v6.428c0,.473.01,1.011.042,1.374h-.834l-.042-.923h-.021a1.878,1.878,0,0,1-1.741,1.044c-1.235,0-2.185-1.088-2.185-2.7-.01-1.769,1.044-2.857,2.29-2.857a1.691,1.691,0,0,1,1.54.813h.021V121Zm-.929,4.648a1.8,1.8,0,0,0-.042-.406,1.38,1.38,0,0,0-1.341-1.12c-.96,0-1.53.879-1.53,2.055,0,1.077.506,1.966,1.508,1.966a1.411,1.411,0,0,0,1.362-1.154,1.76,1.76,0,0,0,.042-.417Z" transform="translate(-417.352 -68.34)" fill="#fff"/>
      <path id="패스_6735" data-name="패스 6735" d="M758.208,128.8c.021-.363.042-.9.042-1.373V121h.918v3.341h.021a1.885,1.885,0,0,1,1.741-.977c1.266,0,2.163,1.1,2.152,2.713,0,1.9-1.15,2.846-2.289,2.846a1.806,1.806,0,0,1-1.71-1h-.031l-.043.879Zm.96-2.132a1.936,1.936,0,0,0,.042.352,1.446,1.446,0,0,0,1.393,1.132c.971,0,1.551-.824,1.551-2.044,0-1.066-.528-1.978-1.519-1.978a1.5,1.5,0,0,0-1.414,1.186,2,2,0,0,0-.052.4Z" transform="translate(-428.24 -68.339)" fill="#fff"/>
      <path id="패스_6736" data-name="패스 6736" d="M771.247,126.7l1.118,3.143c.116.351.243.769.328,1.088h.021c.094-.319.2-.725.326-1.109l1.013-3.122h.981l-1.393,3.791a8.179,8.179,0,0,1-1.752,3.329,2.478,2.478,0,0,1-1.139.626l-.232-.813a2.418,2.418,0,0,0,.812-.472,2.917,2.917,0,0,0,.781-1.077.712.712,0,0,0,.074-.231.872.872,0,0,0-.064-.253l-1.889-4.9Z" transform="translate(-435.033 -71.562)" fill="#fff"/>
      <path id="패스_6737" data-name="패스 6737" d="M788.128,121.906h.918v3.571h.032c.19-.285.38-.549.559-.792l2.173-2.78h1.14l-2.574,3.143,2.775,4.263h-1.087l-2.342-3.637-.675.813v2.824h-.918Z" transform="translate(-445.139 -68.853)" fill="#fff"/>
      <path id="패스_6738" data-name="패스 6738" d="M800.533,127.991a3.16,3.16,0,0,0,1.646.483c.939,0,1.487-.516,1.487-1.263,0-.692-.38-1.088-1.339-1.472-1.16-.429-1.878-1.055-1.878-2.1a2.077,2.077,0,0,1,2.3-2.01,3.126,3.126,0,0,1,1.572.363l-.253.779a2.752,2.752,0,0,0-1.35-.352c-.971,0-1.34.6-1.34,1.11,0,.692.432,1.033,1.414,1.429,1.2.484,1.815,1.088,1.815,2.176,0,1.143-.812,2.132-2.491,2.132a3.554,3.554,0,0,1-1.814-.473Z" transform="translate(-452.015 -68.697)" fill="#fff"/>
      <path id="패스_6739" data-name="패스 6739" d="M812.341,127.991a3.157,3.157,0,0,0,1.645.483c.94,0,1.488-.516,1.488-1.263,0-.692-.38-1.088-1.34-1.472-1.161-.429-1.878-1.055-1.878-2.1a2.077,2.077,0,0,1,2.3-2.01,3.126,3.126,0,0,1,1.572.363l-.253.779a2.755,2.755,0,0,0-1.35-.352c-.971,0-1.34.6-1.34,1.11,0,.692.432,1.033,1.414,1.429,1.2.484,1.815,1.088,1.815,2.176,0,1.143-.812,2.132-2.491,2.132a3.555,3.555,0,0,1-1.814-.473Z" transform="translate(-458.684 -68.697)" fill="#fff"/>
      <path id="패스_6740" data-name="패스 6740" d="M830.27,125.376c0,2.549-1.487,3.9-3.3,3.9-1.878,0-3.2-1.517-3.2-3.757,0-2.352,1.4-3.89,3.3-3.89,1.941,0,3.2,1.549,3.2,3.747m-5.518.121c0,1.582.823,3,2.269,3s2.279-1.4,2.279-3.076c0-1.473-.739-3.011-2.269-3.011s-2.279,1.461-2.279,3.088" transform="translate(-465.27 -68.697)" fill="#fff"/>
      <path id="패스_6741" data-name="패스 6741" d="M407.711,37.132c2.436,0,5.126-2.024,5.126-4.46,0-4.008-5.379-4.567-8.415-5.619-5.352-1.824-10.078-6.218-10.078-12.2A13.393,13.393,0,0,1,421,13.006l-8.76,1.85a4.454,4.454,0,0,0-8.908.027c0,3.954,5.006,5.006,8.056,5.911,5.538,1.6,10.425,5.819,10.425,11.931,0,7.4-6.644,13.38-14.034,13.38-6.79,0-12.928-4.979-13.927-11.517l8.76-1.863c0,2.449,2.663,4.447,5.14,4.447Z" transform="translate(-222.449 -0.841)" fill="#fff"/>
      <rect id="사각형_2111" data-name="사각형 2111" width="8.824" height="43.899" transform="translate(0 1.164)" fill="#fff"/>
      <path id="패스_6742" data-name="패스 6742" d="M238.16,29.492,259.646,0V44.933h-8.824V26.741L238.16,44.225l-12.69-17.484V44.933h-8.824V0Z" transform="translate(-122.363 0)" fill="#fff"/>
      <path id="패스_6743" data-name="패스 6743" d="M354.46,2.127v8.8H336.814v8.851h13.235v8.8H336.814V37.42H354.46v8.768H327.991V2.127Z" transform="translate(-185.251 -1.201)" fill="#fff"/>
      <path id="패스_6744" data-name="패스 6744" d="M51,37.584A13.375,13.375,0,0,1,37.626,24.212v0a13.031,13.031,0,0,1,3.931-9.474A12.763,12.763,0,0,1,51,10.8a12.966,12.966,0,0,1,9.109,3.6A25.767,25.767,0,0,1,64.918,6.8,22.271,22.271,0,0,0,50.975,1.793,21.493,21.493,0,0,0,35.223,8.372a21.653,21.653,0,0,0-6.552,15.806,21.507,21.507,0,0,0,6.552,15.78,21.647,21.647,0,0,0,15.752,6.5A22.156,22.156,0,0,0,64.958,41.6,25.487,25.487,0,0,1,60.12,34,12.9,12.9,0,0,1,51,37.584" transform="translate(-16.192 -1.013)" fill="#fff"/>
    </g>
  </g>
  <g id="그룹_1802" data-name="그룹 1802" transform="translate(48.066 0.852)">
    <g id="그룹_1801" data-name="그룹 1801" clip-path="url(#clip-path-2)">
      <path id="패스_6745" data-name="패스 6745" d="M152.208,25.208A23.337,23.337,0,1,1,128.87,1.87a23.337,23.337,0,0,1,23.338,23.338" transform="translate(-105.533 -1.87)" fill="#005392"/>
      <path id="패스_6746" data-name="패스 6746" d="M128.87,1.871a23.337,23.337,0,0,0-23.337,23.337,11.669,11.669,0,0,0,23.337,0,11.669,11.669,0,1,1,23.337,0A23.337,23.337,0,0,0,128.87,1.871" transform="translate(-105.533 -1.871)" fill="#f04e3e"/>
    </g>
  </g>
  <g id="그룹_1804" data-name="그룹 1804" transform="translate(48.066 12.114)">
    <g id="그룹_1803" data-name="그룹 1803" clip-path="url(#clip-path-3)">
      <path id="패스_6748" data-name="패스 6748" d="M206.1,12.751a.391.391,0,0,1-.1-.009.368.368,0,0,1-.1-.032.483.483,0,0,1-.1-.05.419.419,0,0,1-.146-.146.908.908,0,0,1-.05-.091.919.919,0,0,1-.032-.1.751.751,0,0,1-.009-.1.886.886,0,0,1,.009-.1.851.851,0,0,1,.032-.1.585.585,0,0,1,.05-.091,1,1,0,0,1,.064-.082l.082-.068a.912.912,0,0,1,.1-.046.368.368,0,0,1,.1-.032.541.541,0,0,1,.21,0,.426.426,0,0,1,.1.032.567.567,0,0,1,.091.046.65.65,0,0,1,.082.068.543.543,0,0,1,.068.082.584.584,0,0,1,.05.091.411.411,0,0,1,.027.1.441.441,0,0,1,.014.1.388.388,0,0,1-.014.1.445.445,0,0,1-.027.1.9.9,0,0,1-.05.091.543.543,0,0,1-.068.082.393.393,0,0,1-.082.064.356.356,0,0,1-.091.05.476.476,0,0,1-.2.041" transform="translate(-160.003 -18.881)" fill="#fff"/>
      <path id="패스_6749" data-name="패스 6749" d="M205.562,67.626a.537.537,0,1,1,.537.537.538.538,0,0,1-.537-.537m0-2.888a.537.537,0,1,1,.537.537.535.535,0,0,1-.537-.537m0-2.883a.537.537,0,1,1,.537.537.538.538,0,0,1-.537-.537m0-2.888a.537.537,0,1,1,.537.537.538.538,0,0,1-.537-.537m0-2.888a.537.537,0,1,1,.537.537.538.538,0,0,1-.537-.537m0-2.888a.537.537,0,1,1,.537.537.538.538,0,0,1-.537-.537m0-2.888a.537.537,0,1,1,.537.537.535.535,0,0,1-.537-.537m0-2.883a.537.537,0,1,1,.537.533.538.538,0,0,1-.537-.533m0-2.888a.537.537,0,1,1,.537.537.538.538,0,0,1-.537-.537m0-2.888a.537.537,0,1,1,.537.537.538.538,0,0,1-.537-.537m0-2.888a.537.537,0,1,1,.537.537.538.538,0,0,1-.537-.537m0-2.888a.537.537,0,1,1,.537.537.538.538,0,0,1-.537-.537m0-2.888a.537.537,0,1,1,.537.537.535.535,0,0,1-.537-.537m0-2.883a.537.537,0,1,1,.537.537.536.536,0,0,1-.537-.537m0-2.888a.537.537,0,1,1,.537.537.538.538,0,0,1-.537-.537m0-2.888a.537.537,0,1,1,.537.537.538.538,0,0,1-.537-.537m0-2.888a.537.537,0,1,1,.537.537.538.538,0,0,1-.537-.537m0-2.888a.537.537,0,1,1,.537.537.538.538,0,0,1-.537-.537" transform="translate(-160.002 -22.329)" fill="#fff"/>
      <path id="패스_6750" data-name="패스 6750" d="M206.1,133.176a.749.749,0,0,1-.1-.009.644.644,0,0,1-.1-.032.964.964,0,0,1-.1-.05.543.543,0,0,1-.082-.068.54.54,0,0,1,0-.756.542.542,0,0,1,.082-.068.964.964,0,0,1,.1-.05.646.646,0,0,1,.1-.032.54.54,0,0,1,.21,0,.85.85,0,0,1,.1.032.583.583,0,0,1,.091.05.3.3,0,0,1,.082.068.528.528,0,0,1,0,.756.3.3,0,0,1-.082.068.583.583,0,0,1-.091.05.848.848,0,0,1-.1.032.883.883,0,0,1-.1.009" transform="translate(-160.003 -84.454)" fill="#fff"/>
      <path id="패스_6751" data-name="패스 6751" d="M199.839,12.751a.813.813,0,0,1-.1-.009.852.852,0,0,1-.1-.032.356.356,0,0,1-.091-.05.393.393,0,0,1-.082-.064.549.549,0,0,1-.159-.383.441.441,0,0,1,.014-.1.41.41,0,0,1,.027-.1.584.584,0,0,1,.05-.091.543.543,0,0,1,.068-.082.65.65,0,0,1,.082-.068.341.341,0,0,1,.091-.046.426.426,0,0,1,.1-.032.541.541,0,0,1,.21,0,.368.368,0,0,1,.1.032.456.456,0,0,1,.1.046l.082.068a1,1,0,0,1,.064.082.356.356,0,0,1,.05.091.848.848,0,0,1,.032.1.888.888,0,0,1,.009.1.746.746,0,0,1-.009.1.916.916,0,0,1-.032.1.356.356,0,0,1-.05.091.418.418,0,0,1-.146.146.482.482,0,0,1-.1.05.645.645,0,0,1-.1.032.748.748,0,0,1-.1.009" transform="translate(-156.594 -18.881)" fill="#fff"/>
      <path id="패스_6752" data-name="패스 6752" d="M199.3,67.626a.537.537,0,1,1,.537.537.534.534,0,0,1-.537-.537m0-2.888a.537.537,0,1,1,.537.537.534.534,0,0,1-.537-.537m0-2.883a.537.537,0,1,1,.537.537.538.538,0,0,1-.537-.537m0-2.888a.537.537,0,1,1,.537.537.538.538,0,0,1-.537-.537m0-2.888a.537.537,0,1,1,.537.537.538.538,0,0,1-.537-.537m0-2.888a.537.537,0,1,1,.537.537.538.538,0,0,1-.537-.537m0-2.888a.537.537,0,1,1,.537.537.534.534,0,0,1-.537-.537m0-2.883a.537.537,0,1,1,.537.533.535.535,0,0,1-.537-.533m0-2.888a.537.537,0,1,1,.537.537.538.538,0,0,1-.537-.537m0-2.888a.537.537,0,1,1,.537.537.538.538,0,0,1-.537-.537m0-2.888a.537.537,0,1,1,.537.537.538.538,0,0,1-.537-.537m0-2.888a.537.537,0,1,1,.537.537.538.538,0,0,1-.537-.537m0-2.888a.537.537,0,1,1,.537.537.534.534,0,0,1-.537-.537m0-2.883a.537.537,0,1,1,.537.533.535.535,0,0,1-.537-.533m0-2.888a.537.537,0,1,1,.537.537.538.538,0,0,1-.537-.537m0-2.888a.537.537,0,1,1,.537.537.538.538,0,0,1-.537-.537m0-2.888a.537.537,0,1,1,.537.537.538.538,0,0,1-.537-.537m0-2.888a.537.537,0,1,1,.537.537.538.538,0,0,1-.537-.537" transform="translate(-156.594 -22.329)" fill="#fff"/>
      <path id="패스_6753" data-name="패스 6753" d="M199.839,133.181a.891.891,0,0,1-.1-.009.853.853,0,0,1-.1-.032.583.583,0,0,1-.091-.05.392.392,0,0,1-.082-.064.543.543,0,0,1-.068-.082.966.966,0,0,1-.05-.1.361.361,0,0,1-.027-.1.388.388,0,0,1-.014-.1.769.769,0,0,1,.041-.2.585.585,0,0,1,.05-.091.59.59,0,0,1,.15-.15.582.582,0,0,1,.091-.05.41.41,0,0,1,.1-.027.54.54,0,0,1,.21,0,.361.361,0,0,1,.1.027.96.96,0,0,1,.1.05.542.542,0,0,1,.082.068.393.393,0,0,1,.064.082.357.357,0,0,1,.05.091.849.849,0,0,1,.032.1.812.812,0,0,1,.009.1.747.747,0,0,1-.009.1.644.644,0,0,1-.032.1.484.484,0,0,1-.05.1.418.418,0,0,1-.146.146.96.96,0,0,1-.1.05.646.646,0,0,1-.1.032.749.749,0,0,1-.1.009" transform="translate(-156.594 -84.46)" fill="#fff"/>
      <path id="패스_6754" data-name="패스 6754" d="M193.586,12.751a.476.476,0,0,1-.2-.041.549.549,0,0,1-.091-.046l-.082-.068a.545.545,0,0,1-.155-.383.476.476,0,0,1,.041-.2.531.531,0,0,1,.046-.091c.023-.027.045-.059.068-.082l.082-.068a.335.335,0,0,1,.091-.046.42.42,0,0,1,.1-.032.564.564,0,0,1,.214,0,.426.426,0,0,1,.1.032.341.341,0,0,1,.091.046.723.723,0,0,1,.082.068c.023.023.046.055.068.082a.566.566,0,0,1,.046.091.472.472,0,0,1,.032.1.447.447,0,0,1,.009.1.544.544,0,0,1-.154.383.723.723,0,0,1-.082.068.567.567,0,0,1-.091.046.426.426,0,0,1-.1.032.443.443,0,0,1-.109.009" transform="translate(-153.191 -18.881)" fill="#fff"/>
      <path id="패스_6755" data-name="패스 6755" d="M193.053,67.626a.535.535,0,1,1,.537.537.535.535,0,0,1-.537-.537m0-2.888a.535.535,0,1,1,.537.537.532.532,0,0,1-.537-.537m0-2.883a.535.535,0,1,1,.537.537.535.535,0,0,1-.537-.537m0-2.888a.535.535,0,1,1,.537.537.535.535,0,0,1-.537-.537m0-2.888a.535.535,0,1,1,.537.537.535.535,0,0,1-.537-.537m0-2.888a.535.535,0,1,1,.537.537.535.535,0,0,1-.537-.537m0-2.888a.535.535,0,1,1,.537.537.535.535,0,0,1-.537-.537m0-2.888a.535.535,0,1,1,.537.537.532.532,0,0,1-.537-.537m0-2.883a.535.535,0,1,1,.537.537.535.535,0,0,1-.537-.537m0-2.888a.535.535,0,1,1,.537.537.535.535,0,0,1-.537-.537m0-2.888a.535.535,0,1,1,.537.537.535.535,0,0,1-.537-.537m0-2.888a.535.535,0,1,1,.537.537.535.535,0,0,1-.537-.537m0-2.888a.535.535,0,1,1,.537.537.535.535,0,0,1-.537-.537m0-2.883a.535.535,0,1,1,.537.533.533.533,0,0,1-.537-.533m0-2.888a.535.535,0,1,1,.537.537.535.535,0,0,1-.537-.537m0-2.888a.535.535,0,1,1,.537.537.535.535,0,0,1-.537-.537m0-2.888a.535.535,0,1,1,.537.537.535.535,0,0,1-.537-.537m0-2.888a.535.535,0,1,1,.537.537.535.535,0,0,1-.537-.537" transform="translate(-153.191 -22.329)" fill="#fff"/>
      <path id="패스_6756" data-name="패스 6756" d="M193.586,133.181a.882.882,0,0,1-.1-.009.825.825,0,0,1-.1-.032.564.564,0,0,1-.091-.05.866.866,0,0,1-.082-.064l-.068-.082a.826.826,0,0,1-.046-.1.367.367,0,0,1-.032-.1.391.391,0,0,1-.009-.1.408.408,0,0,1,.009-.1.426.426,0,0,1,.032-.1.532.532,0,0,1,.046-.091.615.615,0,0,1,.068-.082.5.5,0,0,1,.082-.068.564.564,0,0,1,.091-.05.4.4,0,0,1,.1-.027.564.564,0,0,1,.214,0,.41.41,0,0,1,.1.027.583.583,0,0,1,.091.05.312.312,0,0,1,.082.068.65.65,0,0,1,.068.082.567.567,0,0,1,.046.091.473.473,0,0,1,.032.1.429.429,0,0,1,.009.1.411.411,0,0,1-.009.1.4.4,0,0,1-.032.1.909.909,0,0,1-.046.1l-.068.082a.418.418,0,0,1-.082.064.583.583,0,0,1-.091.05.852.852,0,0,1-.1.032.886.886,0,0,1-.109.009" transform="translate(-153.191 -84.46)" fill="#fff"/>
      <path id="패스_6757" data-name="패스 6757" d="M187.33,12.751a.813.813,0,0,1-.1-.009.63.63,0,0,1-.1-.032.348.348,0,0,1-.091-.05.393.393,0,0,1-.082-.064.542.542,0,0,1-.068-.082.822.822,0,0,1-.05-.091.919.919,0,0,1-.032-.1.746.746,0,0,1-.009-.1.888.888,0,0,1,.009-.1.851.851,0,0,1,.032-.1.549.549,0,0,1,.05-.091.542.542,0,0,1,.068-.082.65.65,0,0,1,.082-.068.548.548,0,0,1,.091-.046.363.363,0,0,1,.1-.032.538.538,0,0,1,.209,0,.366.366,0,0,1,.1.032.543.543,0,0,1,.091.046.624.624,0,0,1,.082.068.513.513,0,0,1,.068.082.551.551,0,0,1,.051.091.943.943,0,0,1,.032.1.882.882,0,0,1,.009.1.749.749,0,0,1-.009.1,1.018,1.018,0,0,1-.032.1.827.827,0,0,1-.051.091.513.513,0,0,1-.068.082.384.384,0,0,1-.082.064.345.345,0,0,1-.091.05.635.635,0,0,1-.1.032.806.806,0,0,1-.1.009" transform="translate(-149.782 -18.881)" fill="#fff"/>
      <path id="패스_6758" data-name="패스 6758" d="M186.792,67.626a.537.537,0,1,1,.537.537.538.538,0,0,1-.537-.537m0-2.883a.537.537,0,1,1,.537.533.536.536,0,0,1-.537-.533m0-2.888a.537.537,0,1,1,.537.537.536.536,0,0,1-.537-.537m0-2.888a.537.537,0,1,1,.537.537.538.538,0,0,1-.537-.537m0-2.888a.537.537,0,1,1,.537.537.538.538,0,0,1-.537-.537m0-2.888a.537.537,0,1,1,.537.537.538.538,0,0,1-.537-.537m0-2.888a.537.537,0,1,1,.537.537.535.535,0,0,1-.537-.537m0-2.883a.537.537,0,1,1,.537.533.538.538,0,0,1-.537-.533m0-2.888a.537.537,0,1,1,.537.537.538.538,0,0,1-.537-.537m0-2.888a.537.537,0,1,1,.537.537.538.538,0,0,1-.537-.537m0-2.888a.537.537,0,1,1,.537.537.538.538,0,0,1-.537-.537m0-2.888a.537.537,0,1,1,.537.537.538.538,0,0,1-.537-.537m0-2.888a.537.537,0,1,1,.537.537.535.535,0,0,1-.537-.537m0-2.883a.537.537,0,1,1,.537.533.536.536,0,0,1-.537-.533m0-2.888a.537.537,0,1,1,.537.537.538.538,0,0,1-.537-.537m0-2.888a.537.537,0,1,1,.537.537.538.538,0,0,1-.537-.537m0-2.888a.537.537,0,1,1,.537.537.538.538,0,0,1-.537-.537m0-2.888a.537.537,0,1,1,.537.537.538.538,0,0,1-.537-.537" transform="translate(-149.781 -22.329)" fill="#fff"/>
      <path id="패스_6759" data-name="패스 6759" d="M187.33,133.188a.815.815,0,0,1-.1-.009.631.631,0,0,1-.1-.032.563.563,0,0,1-.091-.05.392.392,0,0,1-.082-.064.542.542,0,0,1-.068-.082.877.877,0,0,1-.05-.1.645.645,0,0,1-.032-.1.747.747,0,0,1-.009-.1.812.812,0,0,1,.009-.1.852.852,0,0,1,.032-.1.55.55,0,0,1,.05-.091.3.3,0,0,1,.068-.082.551.551,0,0,1,.756,0,.289.289,0,0,1,.068.082.551.551,0,0,1,.051.091.944.944,0,0,1,.032.1.811.811,0,0,1,.009.1.749.749,0,0,1-.009.1.7.7,0,0,1-.032.1.883.883,0,0,1-.051.1.513.513,0,0,1-.068.082.384.384,0,0,1-.082.064.557.557,0,0,1-.091.05.636.636,0,0,1-.1.032.808.808,0,0,1-.1.009" transform="translate(-149.782 -84.466)" fill="#fff"/>
      <path id="패스_6760" data-name="패스 6760" d="M181.069,12.751a.476.476,0,0,1-.2-.041.356.356,0,0,1-.091-.05.393.393,0,0,1-.082-.064.549.549,0,0,1-.159-.383.539.539,0,0,1,.159-.378.652.652,0,0,1,.082-.068.567.567,0,0,1,.091-.046.426.426,0,0,1,.1-.032.541.541,0,0,1,.21,0,.368.368,0,0,1,.1.032.618.618,0,0,1,.1.046l.082.068a.534.534,0,0,1,.155.378.545.545,0,0,1-.155.383,1,1,0,0,1-.082.064.384.384,0,0,1-.1.05.368.368,0,0,1-.1.032.391.391,0,0,1-.1.009" transform="translate(-146.373 -18.881)" fill="#fff"/>
      <path id="패스_6761" data-name="패스 6761" d="M180.533,67.626a.537.537,0,1,1,.537.537.538.538,0,0,1-.537-.537m0-2.883a.537.537,0,1,1,.537.533.535.535,0,0,1-.537-.533m0-2.888a.537.537,0,1,1,.537.537.538.538,0,0,1-.537-.537m0-2.888a.537.537,0,1,1,.537.537.538.538,0,0,1-.537-.537m0-2.888a.537.537,0,1,1,.537.537.538.538,0,0,1-.537-.537m0-2.888a.537.537,0,1,1,.537.537.538.538,0,0,1-.537-.537m0-2.888a.537.537,0,1,1,.537.537.534.534,0,0,1-.537-.537m0-2.883a.537.537,0,1,1,.537.537.535.535,0,0,1-.537-.537m0-2.888a.537.537,0,1,1,.537.537.538.538,0,0,1-.537-.537m0-2.888a.537.537,0,1,1,.537.537.538.538,0,0,1-.537-.537m0-2.888a.537.537,0,1,1,.537.537.538.538,0,0,1-.537-.537m0-2.888a.537.537,0,1,1,.537.537.538.538,0,0,1-.537-.537m0-2.888a.537.537,0,1,1,.537.537.538.538,0,0,1-.537-.537m0-2.883a.537.537,0,1,1,.537.537.535.535,0,0,1-.537-.537m0-2.888a.537.537,0,1,1,.537.537.538.538,0,0,1-.537-.537m0-2.888a.537.537,0,1,1,.537.537.538.538,0,0,1-.537-.537m0-2.888a.537.537,0,1,1,.537.537.538.538,0,0,1-.537-.537m0-2.888a.537.537,0,1,1,.537.537.538.538,0,0,1-.537-.537" transform="translate(-146.373 -22.329)" fill="#fff"/>
      <path id="패스_6762" data-name="패스 6762" d="M181.069,133.181a.536.536,0,0,1-.537-.537.539.539,0,0,1,.159-.378.3.3,0,0,1,.082-.068.583.583,0,0,1,.091-.05.41.41,0,0,1,.1-.027.54.54,0,0,1,.21,0,.362.362,0,0,1,.1.027.633.633,0,0,1,.1.05.541.541,0,0,1,.082.068.534.534,0,0,1,.155.378.545.545,0,0,1-.155.383,1,1,0,0,1-.082.064.633.633,0,0,1-.1.05.646.646,0,0,1-.1.032.748.748,0,0,1-.1.009" transform="translate(-146.373 -84.46)" fill="#fff"/>
      <path id="패스_6763" data-name="패스 6763" d="M174.819,12.758a.545.545,0,0,1-.383-.155,1.006,1.006,0,0,1-.064-.082.452.452,0,0,1-.05-.091.919.919,0,0,1-.032-.1.749.749,0,0,1-.009-.1.534.534,0,0,1,.155-.378.556.556,0,0,1,.761,0,.539.539,0,0,1,.159.378.388.388,0,0,1-.014.1.445.445,0,0,1-.027.1.9.9,0,0,1-.05.091.543.543,0,0,1-.068.082.534.534,0,0,1-.378.155" transform="translate(-142.969 -18.888)" fill="#fff"/>
      <path id="패스_6764" data-name="패스 6764" d="M174.283,67.626a.537.537,0,1,1,.537.537.538.538,0,0,1-.537-.537m0-2.888a.537.537,0,1,1,.537.537.534.534,0,0,1-.537-.537m0-2.883a.537.537,0,1,1,.537.537.535.535,0,0,1-.537-.537m0-2.888a.537.537,0,1,1,.537.537.538.538,0,0,1-.537-.537m0-2.888a.537.537,0,1,1,.537.537.538.538,0,0,1-.537-.537m0-2.888a.537.537,0,1,1,.537.537.538.538,0,0,1-.537-.537m0-2.888a.537.537,0,1,1,.537.537.538.538,0,0,1-.537-.537m0-2.883a.537.537,0,1,1,.537.537.535.535,0,0,1-.537-.537m0-2.888a.537.537,0,1,1,.537.537.538.538,0,0,1-.537-.537m0-2.888a.537.537,0,1,1,.537.537.538.538,0,0,1-.537-.537m0-2.888a.537.537,0,1,1,.537.537.538.538,0,0,1-.537-.537m0-2.888a.537.537,0,1,1,.537.537.538.538,0,0,1-.537-.537m0-2.888a.537.537,0,1,1,.537.537.534.534,0,0,1-.537-.537m0-2.883a.537.537,0,1,1,.537.537.535.535,0,0,1-.537-.537m0-2.888a.537.537,0,1,1,.537.537.538.538,0,0,1-.537-.537m0-2.888a.537.537,0,1,1,.537.537.538.538,0,0,1-.537-.537m0-2.888a.537.537,0,1,1,.537.537.538.538,0,0,1-.537-.537m0-2.888a.537.537,0,1,1,.537.537.538.538,0,0,1-.537-.537" transform="translate(-142.97 -22.329)" fill="#fff"/>
      <path id="패스_6765" data-name="패스 6765" d="M174.819,133.188a.565.565,0,0,1-.383-.155.545.545,0,0,1-.155-.383.534.534,0,0,1,.155-.378.556.556,0,0,1,.761,0,.539.539,0,0,1,.159.378.536.536,0,0,1-.537.537" transform="translate(-142.969 -84.466)" fill="#fff"/>
      <path id="패스_6766" data-name="패스 6766" d="M168.559,12.758a.534.534,0,0,1-.378-.155.549.549,0,0,1-.159-.383.539.539,0,0,1,.159-.378.556.556,0,0,1,.761,0,.534.534,0,0,1,.155.378.529.529,0,0,1-.537.537" transform="translate(-139.561 -18.888)" fill="#fff"/>
      <path id="패스_6767" data-name="패스 6767" d="M168.022,67.626a.537.537,0,1,1,.537.537.538.538,0,0,1-.537-.537m0-2.888a.537.537,0,1,1,.537.542.535.535,0,0,1-.537-.542m0-2.883a.537.537,0,1,1,.537.537.538.538,0,0,1-.537-.537m0-2.888a.537.537,0,1,1,.537.537.538.538,0,0,1-.537-.537m0-2.888a.537.537,0,1,1,.537.537.538.538,0,0,1-.537-.537m0-2.888a.537.537,0,1,1,.537.537.538.538,0,0,1-.537-.537m0-2.888a.537.537,0,1,1,.537.537.538.538,0,0,1-.537-.537m0-2.883a.537.537,0,1,1,.537.533.536.536,0,0,1-.537-.533m0-2.888a.537.537,0,1,1,.537.537.538.538,0,0,1-.537-.537m0-2.888a.537.537,0,1,1,.537.537.538.538,0,0,1-.537-.537m0-2.888a.537.537,0,1,1,.537.537.538.538,0,0,1-.537-.537m0-2.888a.537.537,0,1,1,.537.537.538.538,0,0,1-.537-.537m0-2.888a.537.537,0,1,1,.537.537.535.535,0,0,1-.537-.537m0-2.883a.537.537,0,1,1,.537.537.536.536,0,0,1-.537-.537m0-2.888a.537.537,0,1,1,.537.537.538.538,0,0,1-.537-.537m0-2.888a.537.537,0,1,1,.537.537.538.538,0,0,1-.537-.537m0-2.888a.537.537,0,1,1,.537.537.538.538,0,0,1-.537-.537m0-2.888a.537.537,0,1,1,.537.537.538.538,0,0,1-.537-.537" transform="translate(-139.561 -22.329)" fill="#fff"/>
      <path id="패스_6768" data-name="패스 6768" d="M168.559,133.188a.536.536,0,0,1-.537-.537.539.539,0,0,1,.159-.378.556.556,0,0,1,.761,0,.534.534,0,0,1,.155.378.545.545,0,0,1-.155.383.565.565,0,0,1-.383.155" transform="translate(-139.561 -84.466)" fill="#fff"/>
      <path id="패스_6769" data-name="패스 6769" d="M162.309,12.751a.538.538,0,0,1-.383-.915l.082-.068a.775.775,0,0,1,.2-.077.541.541,0,0,1,.21,0,.426.426,0,0,1,.1.032.341.341,0,0,1,.091.046.589.589,0,0,1,.15.15.341.341,0,0,1,.046.091.427.427,0,0,1,.032.1.441.441,0,0,1,.014.1.449.449,0,0,1-.014.109.506.506,0,0,1-.032.1.341.341,0,0,1-.046.091l-.068.082a.534.534,0,0,1-.378.155" transform="translate(-136.157 -18.881)" fill="#fff"/>
      <path id="패스_6770" data-name="패스 6770" d="M161.772,67.626a.537.537,0,1,1,.537.537.536.536,0,0,1-.537-.537m0-2.883a.537.537,0,1,1,1.075,0,.537.537,0,0,1-1.075,0m0-2.888a.537.537,0,1,1,.537.537.536.536,0,0,1-.537-.537m0-2.888a.537.537,0,1,1,.537.537.536.536,0,0,1-.537-.537m0-2.888a.537.537,0,1,1,.537.537.536.536,0,0,1-.537-.537m0-2.888a.537.537,0,1,1,.537.537.536.536,0,0,1-.537-.537m0-2.888a.537.537,0,0,1,1.075,0,.537.537,0,1,1-1.075,0m0-2.883a.537.537,0,1,1,.537.533.536.536,0,0,1-.537-.533m0-2.888a.537.537,0,1,1,.537.537.536.536,0,0,1-.537-.537m0-2.888a.537.537,0,1,1,.537.537.536.536,0,0,1-.537-.537m0-2.888a.537.537,0,1,1,.537.537.536.536,0,0,1-.537-.537m0-2.888a.537.537,0,1,1,.537.537.536.536,0,0,1-.537-.537m0-2.888a.537.537,0,1,1,.537.537.536.536,0,0,1-.537-.537m0-2.888a.537.537,0,1,1,.537.537.532.532,0,0,1-.537-.537m0-2.883a.537.537,0,1,1,.537.537.536.536,0,0,1-.537-.537m0-2.888a.537.537,0,1,1,.537.537.536.536,0,0,1-.537-.537m0-2.888a.537.537,0,1,1,.537.537.536.536,0,0,1-.537-.537m0-2.888a.537.537,0,1,1,.537.537.536.536,0,0,1-.537-.537" transform="translate(-136.157 -22.329)" fill="#fff"/>
      <path id="패스_6771" data-name="패스 6771" d="M162.309,133.188a.749.749,0,0,1-.1-.009.646.646,0,0,1-.1-.032.632.632,0,0,1-.1-.05,1,1,0,0,1-.082-.064.553.553,0,0,1-.155-.383.534.534,0,0,1,.155-.378.556.556,0,0,1,.761,0,.539.539,0,0,1,.159.378.388.388,0,0,1-.014.1.369.369,0,0,1-.032.1.456.456,0,0,1-.046.1l-.068.082a.392.392,0,0,1-.082.064.582.582,0,0,1-.091.05.853.853,0,0,1-.1.032.891.891,0,0,1-.1.009" transform="translate(-136.157 -84.466)" fill="#fff"/>
      <path id="패스_6772" data-name="패스 6772" d="M156.049,12.758a.534.534,0,0,1-.378-.155.536.536,0,0,1,.756-.761.535.535,0,0,1-.378.915" transform="translate(-132.748 -18.888)" fill="#fff"/>
      <path id="패스_6773" data-name="패스 6773" d="M155.512,67.626a.537.537,0,1,1,.537.537.538.538,0,0,1-.537-.537m0-2.888a.537.537,0,1,1,.537.542.535.535,0,0,1-.537-.542m0-2.883a.537.537,0,1,1,.537.537.538.538,0,0,1-.537-.537m0-2.888a.537.537,0,1,1,.537.537.538.538,0,0,1-.537-.537m0-2.888a.537.537,0,1,1,.537.537.538.538,0,0,1-.537-.537m0-2.888a.537.537,0,1,1,.537.537.538.538,0,0,1-.537-.537m0-2.888a.537.537,0,1,1,.537.537.535.535,0,0,1-.537-.537m0-2.883a.537.537,0,1,1,.537.533.536.536,0,0,1-.537-.533m0-2.888a.537.537,0,1,1,.537.537.538.538,0,0,1-.537-.537m0-2.888a.537.537,0,1,1,.537.537.538.538,0,0,1-.537-.537m0-2.888a.537.537,0,1,1,.537.537.538.538,0,0,1-.537-.537m0-2.888a.537.537,0,1,1,.537.537.538.538,0,0,1-.537-.537m0-2.888a.537.537,0,1,1,.537.537.538.538,0,0,1-.537-.537m0-2.883a.537.537,0,1,1,.537.537.536.536,0,0,1-.537-.537m0-2.888a.537.537,0,1,1,.537.537.538.538,0,0,1-.537-.537m0-2.888a.537.537,0,1,1,.537.537.538.538,0,0,1-.537-.537m0-2.888a.537.537,0,1,1,.537.537.538.538,0,0,1-.537-.537m0-2.888a.537.537,0,1,1,.537.537.538.538,0,0,1-.537-.537" transform="translate(-132.748 -22.329)" fill="#fff"/>
      <path id="패스_6774" data-name="패스 6774" d="M156.049,133.188a.534.534,0,0,1-.378-.155.542.542,0,0,1-.068-.082.962.962,0,0,1-.05-.1.645.645,0,0,1-.032-.1.749.749,0,0,1-.009-.1.538.538,0,0,1,.159-.378.551.551,0,0,1,.756,0,.3.3,0,0,1,.068.082.584.584,0,0,1,.05.091.852.852,0,0,1,.032.1.814.814,0,0,1,.009.1.749.749,0,0,1-.009.1.645.645,0,0,1-.032.1.962.962,0,0,1-.05.1.543.543,0,0,1-.068.082.393.393,0,0,1-.082.064.582.582,0,0,1-.091.05.645.645,0,0,1-.1.032.815.815,0,0,1-.1.009" transform="translate(-132.748 -84.466)" fill="#fff"/>
      <path id="패스_6775" data-name="패스 6775" d="M149.789,12.751a.476.476,0,0,1-.2-.041.567.567,0,0,1-.091-.046c-.027-.023-.059-.046-.082-.068l-.068-.082a.9.9,0,0,1-.05-.091.892.892,0,0,1-.027-.1.389.389,0,0,1-.014-.1.538.538,0,0,1,.642-.524.774.774,0,0,1,.2.077l.082.068.068.082a.566.566,0,0,1,.046.091.477.477,0,0,1,.041.2.39.39,0,0,1-.009.1.46.46,0,0,1-.032.1.566.566,0,0,1-.046.091l-.068.082-.082.068a.618.618,0,0,1-.1.046.368.368,0,0,1-.1.032.391.391,0,0,1-.1.009" transform="translate(-129.34 -18.881)" fill="#fff"/>
      <path id="패스_6776" data-name="패스 6776" d="M149.252,67.626a.537.537,0,1,1,1.075,0,.537.537,0,0,1-1.075,0m0-2.888a.537.537,0,1,1,.537.537.535.535,0,0,1-.537-.537m0-2.883a.537.537,0,1,1,.537.537.536.536,0,0,1-.537-.537m0-2.888a.537.537,0,1,1,.537.537.538.538,0,0,1-.537-.537m0-2.888a.537.537,0,1,1,.537.537.538.538,0,0,1-.537-.537m0-2.888a.537.537,0,1,1,.537.537.538.538,0,0,1-.537-.537m0-2.888a.537.537,0,1,1,.537.537.538.538,0,0,1-.537-.537m0-2.883a.537.537,0,0,1,1.075,0,.537.537,0,0,1-1.075,0m0-2.888a.537.537,0,1,1,.537.537.538.538,0,0,1-.537-.537m0-2.888a.537.537,0,1,1,.537.537.538.538,0,0,1-.537-.537m0-2.888a.537.537,0,1,1,.537.537.538.538,0,0,1-.537-.537m0-2.888a.537.537,0,1,1,.537.537.538.538,0,0,1-.537-.537m0-2.888a.537.537,0,1,1,.537.537.535.535,0,0,1-.537-.537m0-2.883a.537.537,0,1,1,.537.537.536.536,0,0,1-.537-.537m0-2.888a.537.537,0,1,1,.537.537.538.538,0,0,1-.537-.537m0-2.888a.537.537,0,1,1,.537.537.538.538,0,0,1-.537-.537m0-2.888a.537.537,0,1,1,.537.537.538.538,0,0,1-.537-.537m0-2.888a.537.537,0,1,1,.537.537.538.538,0,0,1-.537-.537" transform="translate(-129.34 -22.329)" fill="#fff"/>
      <path id="패스_6777" data-name="패스 6777" d="M149.789,133.181a.891.891,0,0,1-.1-.009.851.851,0,0,1-.1-.032.583.583,0,0,1-.091-.05.563.563,0,0,1-.082-.064l-.068-.082a.962.962,0,0,1-.05-.1.646.646,0,0,1-.027-.1.389.389,0,0,1-.014-.1.539.539,0,0,1,.159-.378.384.384,0,0,1,.082-.068.583.583,0,0,1,.091-.05.41.41,0,0,1,.1-.027.54.54,0,0,1,.21,0,.361.361,0,0,1,.1.027.633.633,0,0,1,.1.05.543.543,0,0,1,.082.068.534.534,0,0,1,.155.378.39.39,0,0,1-.009.1.368.368,0,0,1-.032.1.909.909,0,0,1-.046.1l-.068.082a1,1,0,0,1-.082.064.633.633,0,0,1-.1.05.646.646,0,0,1-.1.032.749.749,0,0,1-.1.009" transform="translate(-129.34 -84.46)" fill="#fff"/>
      <path id="패스_6778" data-name="패스 6778" d="M143.539,12.751a.545.545,0,0,1-.383-.155,1,1,0,0,1-.064-.082.9.9,0,0,1-.05-.091.92.92,0,0,1-.032-.1.749.749,0,0,1-.009-.1.891.891,0,0,1,.009-.1.851.851,0,0,1,.032-.1.583.583,0,0,1,.05-.091.564.564,0,0,1,.064-.082.548.548,0,0,1,.487-.146.426.426,0,0,1,.1.032.342.342,0,0,1,.091.046.651.651,0,0,1,.082.068.384.384,0,0,1,.068.082.583.583,0,0,1,.05.091.411.411,0,0,1,.027.1.441.441,0,0,1,.014.1.388.388,0,0,1-.014.1.445.445,0,0,1-.027.1.9.9,0,0,1-.05.091.542.542,0,0,1-.068.082.393.393,0,0,1-.082.064.356.356,0,0,1-.091.05.426.426,0,0,1-.1.032.408.408,0,0,1-.1.009" transform="translate(-125.936 -18.881)" fill="#fff"/>
      <path id="패스_6779" data-name="패스 6779" d="M143,67.626a.537.537,0,1,1,.537.537.538.538,0,0,1-.537-.537m0-2.888a.537.537,0,1,1,.537.542.535.535,0,0,1-.537-.542m0-2.883a.537.537,0,1,1,.537.537.538.538,0,0,1-.537-.537m0-2.888a.537.537,0,1,1,.537.537.538.538,0,0,1-.537-.537m0-2.888a.537.537,0,1,1,.537.537A.538.538,0,0,1,143,56.08m0-2.888a.537.537,0,1,1,.537.537.538.538,0,0,1-.537-.537m0-2.888a.537.537,0,1,1,.537.537A.535.535,0,0,1,143,50.3m0-2.883a.537.537,0,1,1,.537.533.536.536,0,0,1-.537-.533m0-2.888a.537.537,0,1,1,.537.537.538.538,0,0,1-.537-.537m0-2.888a.537.537,0,1,1,.537.537.538.538,0,0,1-.537-.537m0-2.888a.537.537,0,1,1,.537.537.538.538,0,0,1-.537-.537m0-2.888a.537.537,0,1,1,.537.537.538.538,0,0,1-.537-.537m0-2.888a.537.537,0,1,1,.537.537.535.535,0,0,1-.537-.537m0-2.883a.537.537,0,1,1,.537.533A.536.536,0,0,1,143,30.1m0-2.888a.537.537,0,1,1,.537.537.538.538,0,0,1-.537-.537m0-2.888a.537.537,0,1,1,.537.537.538.538,0,0,1-.537-.537m0-2.888a.537.537,0,1,1,.537.537.538.538,0,0,1-.537-.537m0-2.888a.537.537,0,1,1,.537.537.538.538,0,0,1-.537-.537" transform="translate(-125.936 -22.329)" fill="#fff"/>
      <path id="패스_6780" data-name="패스 6780" d="M143.539,133.18a.529.529,0,0,1-.537-.537.814.814,0,0,1,.009-.1.851.851,0,0,1,.032-.1.582.582,0,0,1,.05-.091.393.393,0,0,1,.064-.082.539.539,0,0,1,.487-.146.411.411,0,0,1,.1.027.584.584,0,0,1,.091.05.59.59,0,0,1,.15.15.582.582,0,0,1,.05.091.768.768,0,0,1,.041.2.549.549,0,0,1-.159.383.393.393,0,0,1-.082.064.584.584,0,0,1-.091.05.849.849,0,0,1-.1.032.814.814,0,0,1-.1.009" transform="translate(-125.936 -84.459)" fill="#fff"/>
      <path id="패스_6781" data-name="패스 6781" d="M137.279,12.751a.408.408,0,0,1-.1-.009.426.426,0,0,1-.1-.032.356.356,0,0,1-.091-.05.393.393,0,0,1-.082-.064.543.543,0,0,1-.068-.082.584.584,0,0,1-.05-.091.474.474,0,0,1-.027-.1.448.448,0,0,1-.014-.109.539.539,0,0,1,.159-.378.65.65,0,0,1,.082-.068.567.567,0,0,1,.091-.046.426.426,0,0,1,.1-.032.538.538,0,0,1,.642.524.886.886,0,0,1-.009.109c-.009.032-.018.064-.032.1a.584.584,0,0,1-.05.091.543.543,0,0,1-.068.082.526.526,0,0,1-.378.155" transform="translate(-122.527 -18.881)" fill="#fff"/>
      <path id="패스_6782" data-name="패스 6782" d="M136.742,67.626a.537.537,0,1,1,.537.537.535.535,0,0,1-.537-.537m0-2.883a.537.537,0,1,1,.537.537.536.536,0,0,1-.537-.537m0-2.888a.537.537,0,1,1,.537.537.538.538,0,0,1-.537-.537m0-2.888a.537.537,0,1,1,.537.537.538.538,0,0,1-.537-.537m0-2.888a.537.537,0,1,1,.537.537.538.538,0,0,1-.537-.537m0-2.888a.537.537,0,1,1,.537.537.538.538,0,0,1-.537-.537m0-2.888a.537.537,0,1,1,.537.537.535.535,0,0,1-.537-.537m0-2.883a.537.537,0,1,1,.537.537.536.536,0,0,1-.537-.537m0-2.888a.537.537,0,1,1,.537.537.538.538,0,0,1-.537-.537m0-2.888a.537.537,0,1,1,.537.537.538.538,0,0,1-.537-.537m0-2.888a.537.537,0,1,1,.537.537.538.538,0,0,1-.537-.537m0-2.888a.537.537,0,1,1,.537.537.538.538,0,0,1-.537-.537m0-2.888a.537.537,0,1,1,.537.537.538.538,0,0,1-.537-.537m0-2.883a.537.537,0,1,1,.537.537.538.538,0,0,1-.537-.537m0-2.888a.537.537,0,1,1,.537.537.538.538,0,0,1-.537-.537m0-2.888a.537.537,0,1,1,.537.537.538.538,0,0,1-.537-.537m0-2.888a.537.537,0,1,1,.537.537.538.538,0,0,1-.537-.537m0-2.888a.537.537,0,1,1,.537.537.538.538,0,0,1-.537-.537" transform="translate(-122.527 -22.329)" fill="#fff"/>
      <path id="패스_6783" data-name="패스 6783" d="M137.279,133.18a.814.814,0,0,1-.1-.009.849.849,0,0,1-.1-.032.582.582,0,0,1-.091-.05.392.392,0,0,1-.082-.064.544.544,0,0,1-.068-.082.966.966,0,0,1-.05-.1.362.362,0,0,1-.027-.1.388.388,0,0,1-.014-.1.441.441,0,0,1,.014-.1.41.41,0,0,1,.027-.1.584.584,0,0,1,.05-.091.589.589,0,0,1,.15-.15.583.583,0,0,1,.091-.05.411.411,0,0,1,.1-.027.523.523,0,0,1,.483.146.3.3,0,0,1,.068.082.584.584,0,0,1,.05.091.851.851,0,0,1,.032.1.891.891,0,0,1,.009.1.749.749,0,0,1-.009.1.646.646,0,0,1-.032.1.966.966,0,0,1-.05.1.54.54,0,0,1-.446.237" transform="translate(-122.527 -84.459)" fill="#fff"/>
      <path id="패스_6784" data-name="패스 6784" d="M131.029,12.751a.391.391,0,0,1-.1-.009.46.46,0,0,1-.1-.032.356.356,0,0,1-.091-.05.419.419,0,0,1-.146-.146.452.452,0,0,1-.05-.091.919.919,0,0,1-.032-.1.391.391,0,0,1-.009-.1.426.426,0,0,1,.009-.1.851.851,0,0,1,.032-.1.356.356,0,0,1,.05-.091,1,1,0,0,1,.064-.082l.082-.068a.342.342,0,0,1,.091-.046.46.46,0,0,1,.1-.032.54.54,0,0,1,.21,0,.426.426,0,0,1,.1.032.341.341,0,0,1,.091.046c.027.023.059.046.082.068a.547.547,0,0,1,.159.378.388.388,0,0,1-.014.1.46.46,0,0,1-.032.1.848.848,0,0,1-.046.091l-.068.082a.564.564,0,0,1-.082.064.356.356,0,0,1-.091.05.476.476,0,0,1-.2.041" transform="translate(-119.124 -18.881)" fill="#fff"/>
      <path id="패스_6785" data-name="패스 6785" d="M130.492,67.626a.537.537,0,1,1,.537.537.538.538,0,0,1-.537-.537m0-2.888a.537.537,0,1,1,.537.542.535.535,0,0,1-.537-.542m0-2.883a.537.537,0,1,1,.537.537.538.538,0,0,1-.537-.537m0-2.888a.537.537,0,1,1,.537.537.538.538,0,0,1-.537-.537m0-2.888a.537.537,0,1,1,.537.537.538.538,0,0,1-.537-.537m0-2.888a.537.537,0,1,1,.537.537.538.538,0,0,1-.537-.537m0-2.888a.537.537,0,1,1,.537.537.538.538,0,0,1-.537-.537m0-2.888a.537.537,0,1,1,.537.542.535.535,0,0,1-.537-.542m0-2.883a.537.537,0,1,1,.537.537.538.538,0,0,1-.537-.537m0-2.888a.537.537,0,1,1,.537.537.538.538,0,0,1-.537-.537m0-2.888a.537.537,0,1,1,.537.537.538.538,0,0,1-.537-.537m0-2.888a.537.537,0,1,1,.537.537.538.538,0,0,1-.537-.537m0-2.888a.537.537,0,1,1,.537.537.535.535,0,0,1-.537-.537m0-2.883a.537.537,0,1,1,.537.537.536.536,0,0,1-.537-.537m0-2.888a.537.537,0,1,1,.537.537.538.538,0,0,1-.537-.537m0-2.888a.537.537,0,1,1,.537.537.538.538,0,0,1-.537-.537m0-2.888a.537.537,0,1,1,.537.537.538.538,0,0,1-.537-.537m0-2.888a.537.537,0,1,1,.537.537.538.538,0,0,1-.537-.537" transform="translate(-119.124 -22.329)" fill="#fff"/>
      <path id="패스_6786" data-name="패스 6786" d="M131.029,133.18a.749.749,0,0,1-.1-.009.916.916,0,0,1-.1-.032.583.583,0,0,1-.091-.05,1,1,0,0,1-.082-.064.545.545,0,0,1-.155-.383.534.534,0,0,1,.155-.378.542.542,0,0,1,.082-.068.583.583,0,0,1,.091-.05.445.445,0,0,1,.1-.027.527.527,0,0,1,.483.146.648.648,0,0,1,.068.082.566.566,0,0,1,.046.091.426.426,0,0,1,.032.1.413.413,0,0,1,.014.1.536.536,0,0,1-.537.537" transform="translate(-119.124 -84.459)" fill="#fff"/>
      <path id="패스_6787" data-name="패스 6787" d="M124.769,12.751a.408.408,0,0,1-.1-.009.368.368,0,0,1-.1-.032.356.356,0,0,1-.091-.05.392.392,0,0,1-.082-.064.536.536,0,0,1,.483-.906.368.368,0,0,1,.1.032.341.341,0,0,1,.091.046.65.65,0,0,1,.082.068.533.533,0,0,1,0,.761.392.392,0,0,1-.082.064.356.356,0,0,1-.091.05.368.368,0,0,1-.1.032.408.408,0,0,1-.1.009" transform="translate(-115.715 -18.881)" fill="#fff"/>
      <path id="패스_6788" data-name="패스 6788" d="M124.232,67.626a.537.537,0,1,1,.537.537.538.538,0,0,1-.537-.537m0-2.888a.537.537,0,1,1,.537.537.535.535,0,0,1-.537-.537m0-2.883a.537.537,0,1,1,.537.537.538.538,0,0,1-.537-.537m0-2.888a.537.537,0,1,1,.537.537.538.538,0,0,1-.537-.537m0-2.888a.537.537,0,1,1,.537.537.538.538,0,0,1-.537-.537m0-2.888a.537.537,0,1,1,.537.537.538.538,0,0,1-.537-.537m0-2.888a.537.537,0,1,1,.537.537.538.538,0,0,1-.537-.537m0-2.883a.537.537,0,1,1,.537.533.536.536,0,0,1-.537-.533m0-2.888a.537.537,0,1,1,.537.537.538.538,0,0,1-.537-.537m0-2.888a.537.537,0,1,1,.537.537.538.538,0,0,1-.537-.537m0-2.888a.537.537,0,1,1,.537.537.538.538,0,0,1-.537-.537m0-2.888a.537.537,0,1,1,.537.537.538.538,0,0,1-.537-.537m0-2.888a.537.537,0,1,1,.537.537.538.538,0,0,1-.537-.537m0-2.883a.537.537,0,1,1,.537.537.536.536,0,0,1-.537-.537m0-2.888a.537.537,0,1,1,.537.537.538.538,0,0,1-.537-.537m0-2.888a.537.537,0,1,1,.537.537.538.538,0,0,1-.537-.537m0-2.888a.537.537,0,1,1,.537.537.538.538,0,0,1-.537-.537m0-2.888a.537.537,0,1,1,.537.537.538.538,0,0,1-.537-.537" transform="translate(-115.715 -22.329)" fill="#fff"/>
      <path id="패스_6789" data-name="패스 6789" d="M124.769,133.177a.544.544,0,0,1-.537-.537.814.814,0,0,1,.009-.1.851.851,0,0,1,.032-.1.584.584,0,0,1,.05-.091.59.59,0,0,1,.15-.15.583.583,0,0,1,.091-.05.361.361,0,0,1,.1-.027.408.408,0,0,1,.21,0,.361.361,0,0,1,.1.027.583.583,0,0,1,.091.05.59.59,0,0,1,.15.15.584.584,0,0,1,.05.091.849.849,0,0,1,.032.1.814.814,0,0,1,.009.1.749.749,0,0,1-.009.1.644.644,0,0,1-.032.1.962.962,0,0,1-.05.1.362.362,0,0,1-.068.077.3.3,0,0,1-.082.068.583.583,0,0,1-.091.05.646.646,0,0,1-.1.032.814.814,0,0,1-.1.009" transform="translate(-115.715 -84.455)" fill="#fff"/>
      <path id="패스_6790" data-name="패스 6790" d="M118.515,12.751a.476.476,0,0,1-.2-.041.356.356,0,0,1-.091-.05,1,1,0,0,1-.082-.064.544.544,0,0,1,0-.761l.082-.068a.341.341,0,0,1,.091-.046.426.426,0,0,1,.1-.032.551.551,0,0,1,.487.146.535.535,0,0,1-.383.915" transform="translate(-112.312 -18.881)" fill="#fff"/>
      <path id="패스_6791" data-name="패스 6791" d="M117.973,67.626a.537.537,0,1,1,1.075,0,.537.537,0,0,1-1.075,0m0-2.883a.537.537,0,1,1,.537.533.536.536,0,0,1-.537-.533m0-2.888a.537.537,0,1,1,.537.537.538.538,0,0,1-.537-.537m0-2.888a.537.537,0,1,1,.537.537.538.538,0,0,1-.537-.537m0-2.888a.537.537,0,1,1,.537.537.538.538,0,0,1-.537-.537m0-2.888a.537.537,0,1,1,.537.537.538.538,0,0,1-.537-.537m0-2.888a.537.537,0,1,1,.537.537.535.535,0,0,1-.537-.537m0-2.883a.537.537,0,1,1,.537.533.536.536,0,0,1-.537-.533m0-2.888a.537.537,0,1,1,.537.537.538.538,0,0,1-.537-.537m0-2.888a.537.537,0,1,1,.537.537.538.538,0,0,1-.537-.537m0-2.888a.537.537,0,1,1,.537.537.538.538,0,0,1-.537-.537m0-2.888a.537.537,0,1,1,.537.537.538.538,0,0,1-.537-.537m0-2.888a.537.537,0,1,1,.537.537.535.535,0,0,1-.537-.537m0-2.883a.537.537,0,1,1,.537.537.536.536,0,0,1-.537-.537m0-2.888a.537.537,0,1,1,.537.537.538.538,0,0,1-.537-.537m0-2.888a.537.537,0,1,1,.537.537.538.538,0,0,1-.537-.537m0-2.888a.537.537,0,1,1,.537.537.538.538,0,0,1-.537-.537m0-2.888a.537.537,0,1,1,.537.537.538.538,0,0,1-.537-.537" transform="translate(-112.307 -22.329)" fill="#fff"/>
      <path id="패스_6792" data-name="패스 6792" d="M118.515,133.18a.891.891,0,0,1-.1-.009.848.848,0,0,1-.1-.032.583.583,0,0,1-.091-.05,1,1,0,0,1-.082-.064.545.545,0,0,1-.155-.383.408.408,0,0,1,.009-.1.426.426,0,0,1,.032-.1.341.341,0,0,1,.046-.091.65.65,0,0,1,.068-.082.542.542,0,0,1,.082-.068.583.583,0,0,1,.091-.05.411.411,0,0,1,.1-.027.539.539,0,0,1,.487.146.392.392,0,0,1,.064.082.356.356,0,0,1,.05.091.849.849,0,0,1,.032.1.408.408,0,0,1,.009.1.553.553,0,0,1-.155.383.565.565,0,0,1-.383.155" transform="translate(-112.312 -84.459)" fill="#fff"/>
      <path id="패스_6793" data-name="패스 6793" d="M112.259,12.758a.545.545,0,0,1-.383-.155,1,1,0,0,1-.064-.082.9.9,0,0,1-.05-.091c-.014-.036-.023-.068-.032-.1a.884.884,0,0,1-.009-.109.534.534,0,0,1,.155-.378.556.556,0,0,1,.761,0,.539.539,0,0,1,.159.378.449.449,0,0,1-.014.109.474.474,0,0,1-.027.1.906.906,0,0,1-.05.091.543.543,0,0,1-.068.082.393.393,0,0,1-.082.064.356.356,0,0,1-.091.05.85.85,0,0,1-.1.032.889.889,0,0,1-.1.009" transform="translate(-108.903 -18.888)" fill="#fff"/>
      <path id="패스_6794" data-name="패스 6794" d="M111.723,67.626a.537.537,0,1,1,.537.537.535.535,0,0,1-.537-.537m0-2.883a.537.537,0,1,1,.537.533.536.536,0,0,1-.537-.533m0-2.888a.537.537,0,1,1,.537.537.538.538,0,0,1-.537-.537m0-2.888a.537.537,0,1,1,.537.537.538.538,0,0,1-.537-.537m0-2.888a.537.537,0,1,1,.537.537.538.538,0,0,1-.537-.537m0-2.888a.537.537,0,1,1,.537.537.538.538,0,0,1-.537-.537m0-2.888a.537.537,0,1,1,.537.537.538.538,0,0,1-.537-.537m0-2.883a.537.537,0,1,1,.537.533.536.536,0,0,1-.537-.533m0-2.888a.537.537,0,1,1,.537.537.538.538,0,0,1-.537-.537m0-2.888a.537.537,0,1,1,.537.537.538.538,0,0,1-.537-.537m0-2.888a.537.537,0,1,1,.537.537.538.538,0,0,1-.537-.537m0-2.888a.537.537,0,1,1,.537.537.538.538,0,0,1-.537-.537m0-2.888a.537.537,0,1,1,.537.537.538.538,0,0,1-.537-.537m0-2.883a.537.537,0,1,1,.537.537.536.536,0,0,1-.537-.537m0-2.888a.537.537,0,1,1,.537.537.538.538,0,0,1-.537-.537m0-2.888a.537.537,0,1,1,.537.537.538.538,0,0,1-.537-.537m0-2.888a.537.537,0,1,1,.537.537.538.538,0,0,1-.537-.537m0-2.888a.537.537,0,1,1,.537.537.538.538,0,0,1-.537-.537" transform="translate(-108.904 -22.329)" fill="#fff"/>
      <path id="패스_6795" data-name="패스 6795" d="M112.259,133.188a.565.565,0,0,1-.383-.155.545.545,0,0,1-.155-.383.889.889,0,0,1,.009-.1.852.852,0,0,1,.032-.1.585.585,0,0,1,.05-.091.393.393,0,0,1,.064-.082.556.556,0,0,1,.761,0,.539.539,0,0,1,.159.378.558.558,0,0,1-.159.383.392.392,0,0,1-.082.064.356.356,0,0,1-.091.05.851.851,0,0,1-.1.032.891.891,0,0,1-.1.009" transform="translate(-108.903 -84.466)" fill="#fff"/>
      <path id="패스_6796" data-name="패스 6796" d="M106,12.751a.889.889,0,0,1-.1-.009.85.85,0,0,1-.1-.032.356.356,0,0,1-.091-.05.392.392,0,0,1-.082-.064.543.543,0,0,1-.068-.082.9.9,0,0,1-.05-.091.445.445,0,0,1-.027-.1.388.388,0,0,1-.014-.1.539.539,0,0,1,.159-.378.649.649,0,0,1,.082-.068.567.567,0,0,1,.091-.046.426.426,0,0,1,.1-.032.541.541,0,0,1,.21,0,.368.368,0,0,1,.1.032.91.91,0,0,1,.1.046l.082.068a.544.544,0,0,1,0,.761,1,1,0,0,1-.082.064.483.483,0,0,1-.1.05.645.645,0,0,1-.1.032.747.747,0,0,1-.1.009" transform="translate(-105.494 -18.881)" fill="#fff"/>
      <path id="패스_6797" data-name="패스 6797" d="M105.462,67.626a.537.537,0,1,1,.537.537.535.535,0,0,1-.537-.537m0-2.883a.537.537,0,1,1,.537.537.536.536,0,0,1-.537-.537m0-2.888a.537.537,0,1,1,.537.537.538.538,0,0,1-.537-.537m0-2.888A.537.537,0,1,1,106,59.5a.538.538,0,0,1-.537-.537m0-2.888a.537.537,0,1,1,.537.537.538.538,0,0,1-.537-.537m0-2.888a.537.537,0,1,1,.537.537.538.538,0,0,1-.537-.537m0-2.888a.537.537,0,1,1,.537.537.538.538,0,0,1-.537-.537m0-2.883a.537.537,0,1,1,.537.533.536.536,0,0,1-.537-.533m0-2.888a.537.537,0,1,1,.537.537.538.538,0,0,1-.537-.537m0-2.888a.537.537,0,1,1,.537.537.538.538,0,0,1-.537-.537m0-2.888A.537.537,0,1,1,106,39.3a.538.538,0,0,1-.537-.537m0-2.888a.537.537,0,1,1,.537.537.538.538,0,0,1-.537-.537m0-2.888a.537.537,0,1,1,.537.537.535.535,0,0,1-.537-.537m0-2.883a.537.537,0,1,1,.537.537.536.536,0,0,1-.537-.537m0-2.888a.537.537,0,1,1,.537.537.538.538,0,0,1-.537-.537m0-2.888a.537.537,0,1,1,.537.537.538.538,0,0,1-.537-.537m0-2.888a.537.537,0,1,1,.537.537.538.538,0,0,1-.537-.537m0-2.888a.537.537,0,1,1,.537.537.538.538,0,0,1-.537-.537" transform="translate(-105.494 -22.329)" fill="#fff"/>
      <path id="패스_6798" data-name="패스 6798" d="M106,133.18a.891.891,0,0,1-.1-.009.848.848,0,0,1-.1-.032.582.582,0,0,1-.091-.05.392.392,0,0,1-.082-.064.544.544,0,0,1-.068-.082.964.964,0,0,1-.05-.1.362.362,0,0,1-.027-.1.388.388,0,0,1-.014-.1.768.768,0,0,1,.041-.2.583.583,0,0,1,.05-.091.3.3,0,0,1,.068-.082.527.527,0,0,1,.483-.146.362.362,0,0,1,.1.027.962.962,0,0,1,.1.05.542.542,0,0,1,.082.068.392.392,0,0,1,.064.082.583.583,0,0,1,.05.091.849.849,0,0,1,.032.1.814.814,0,0,1,.009.1.553.553,0,0,1-.155.383,1,1,0,0,1-.082.064.962.962,0,0,1-.1.05.644.644,0,0,1-.1.032.749.749,0,0,1-.1.009" transform="translate(-105.494 -84.459)" fill="#fff"/>
    </g>
  </g>
  <g id="그룹_1806" data-name="그룹 1806">
    <g id="그룹_1805" data-name="그룹 1805" clip-path="url(#clip-path)">
      <rect id="사각형_2113" data-name="사각형 2113" width="1.735" height="9.664" transform="translate(0.894 68.594)" fill="#fff"/>
      <path id="패스_6800" data-name="패스 6800" d="M11.7,170.294H10v-7.248h1.628v1.228h.093a2.153,2.153,0,0,1,2.149-1.322,2.4,2.4,0,0,1,2.483,2.723v4.618h-1.7v-4.352a1.359,1.359,0,0,0-1.415-1.548A1.485,1.485,0,0,0,11.7,166.05Z" transform="translate(-5.646 -92.037)" fill="#fff"/>
      <path id="패스_6801" data-name="패스 6801" d="M31.238,162.223H29.81v3.764c0,.694.347.841.774.841.2,0,.534-.014.747-.027v1.388a5.4,5.4,0,0,1-.961.067c-1.281,0-2.269-.628-2.256-1.989v-4.044H27.074v-1.308h1.041V159.18h1.7v1.736h1.428Z" transform="translate(-15.292 -89.906)" fill="#fff"/>
      <path id="패스_6802" data-name="패스 6802" d="M38.939,166.718c0-2.243,1.362-3.764,3.431-3.764,1.775,0,3.31,1.108,3.31,3.657v.534H40.621a1.789,1.789,0,0,0,1.855,1.962,1.55,1.55,0,0,0,1.468-.748h1.668a2.955,2.955,0,0,1-3.15,2.082c-2.189,0-3.524-1.455-3.524-3.724m5.112-.734a1.62,1.62,0,0,0-1.655-1.709,1.745,1.745,0,0,0-1.762,1.709Z" transform="translate(-21.993 -92.037)" fill="#fff"/>
      <path id="패스_6803" data-name="패스 6803" d="M56.985,170.948h1.7c.12.627.721.934,1.588.934,1.014,0,1.682-.44,1.682-1.508v-1.388h-.08a2.159,2.159,0,0,1-2.1,1.2c-1.669,0-2.99-1.214-2.99-3.577,0-2.389,1.321-3.657,3-3.657a2.17,2.17,0,0,1,2.082,1.281h.08v-1.188h1.682v7.368c0,1.855-1.428,2.75-3.39,2.75-1.922,0-3.136-.854-3.257-2.216m4.979-4.311c0-1.375-.614-2.3-1.722-2.3-1.134,0-1.722.974-1.722,2.3s.6,2.216,1.722,2.216c1.095,0,1.722-.827,1.722-2.216" transform="translate(-32.072 -92.037)" fill="#fff"/>
      <path id="패스_6804" data-name="패스 6804" d="M76.255,163.029H77.91v1.2h.08a1.815,1.815,0,0,1,1.789-1.308,4.4,4.4,0,0,1,.614.04v1.575a2.936,2.936,0,0,0-.787-.107,1.554,1.554,0,0,0-1.642,1.575v4.271H76.255Z" transform="translate(-43.069 -92.019)" fill="#fff"/>
      <path id="패스_6805" data-name="패스 6805" d="M90.019,166.063c.5-.034,1.542-.094,1.855-.107v-.574c0-.721-.467-1.135-1.308-1.135a1.253,1.253,0,0,0-1.362.868H87.563c.12-1.228,1.228-2.162,3.043-2.162,1.375,0,2.963.561,2.963,2.5v4.845H91.941v-1h-.054a2.258,2.258,0,0,1-2.136,1.148,2.164,2.164,0,0,1-2.429-2.189c0-1.629,1.348-2.109,2.7-2.189m.174,3.123a1.556,1.556,0,0,0,1.7-1.495v-.6l-1.6.107c-.814.067-1.322.4-1.322,1.041s.507.948,1.228.948" transform="translate(-49.321 -92.037)" fill="#fff"/>
      <path id="패스_6806" data-name="패스 6806" d="M108.259,162.223h-1.428v3.764c0,.694.347.841.774.841.2,0,.534-.014.747-.027v1.388a5.4,5.4,0,0,1-.961.067c-1.281,0-2.269-.628-2.256-1.989v-4.044H104.1v-1.308h1.041V159.18h1.7v1.736h1.428Z" transform="translate(-58.793 -89.906)" fill="#fff"/>
      <path id="패스_6807" data-name="패스 6807" d="M116.39,157.464a.989.989,0,1,1,.987.934.965.965,0,0,1-.987-.934m.12,1.962h1.709v7.248H116.51Z" transform="translate(-65.738 -88.416)" fill="#fff"/>
      <path id="패스_6808" data-name="패스 6808" d="M126.04,170.294h-1.709v-7.248h1.628v1.228h.093a2.153,2.153,0,0,1,2.149-1.322,2.4,2.4,0,0,1,2.483,2.723v4.618h-1.7v-4.352a1.359,1.359,0,0,0-1.415-1.548,1.485,1.485,0,0,0-1.535,1.655Z" transform="translate(-70.223 -92.037)" fill="#fff"/>
      <path id="패스_6809" data-name="패스 6809" d="M142.192,170.948h1.7c.12.627.721.934,1.588.934,1.014,0,1.682-.44,1.682-1.508v-1.388h-.08a2.159,2.159,0,0,1-2.1,1.2c-1.669,0-2.99-1.214-2.99-3.577,0-2.389,1.321-3.657,3-3.657a2.17,2.17,0,0,1,2.082,1.281h.08v-1.188h1.682v7.368c0,1.855-1.428,2.75-3.39,2.75-1.922,0-3.136-.854-3.257-2.216m4.979-4.311c0-1.375-.614-2.3-1.722-2.3-1.134,0-1.722.974-1.722,2.3s.6,2.216,1.722,2.216c1.095,0,1.722-.827,1.722-2.216" transform="translate(-80.198 -92.037)" fill="#fff"/>
      <path id="패스_6810" data-name="패스 6810" d="M172.99,158.871c-1.588,0-2.7,1.215-2.7,3.4,0,2.216,1.121,3.4,2.7,3.4A2.21,2.21,0,0,0,175.3,163.9h1.749a3.911,3.911,0,0,1-4.084,3.337c-2.549,0-4.418-1.855-4.418-4.965s1.9-4.965,4.418-4.965a3.849,3.849,0,0,1,4.084,3.39H175.3a2.192,2.192,0,0,0-2.309-1.829" transform="translate(-95.195 -88.849)" fill="#fff"/>
      <path id="패스_6811" data-name="패스 6811" d="M195.958,163.168h1.7v7.248h-1.642v-1.282h-.08a2.247,2.247,0,0,1-2.176,1.375c-1.428,0-2.416-.988-2.429-2.723v-4.618h1.709v4.352a1.356,1.356,0,0,0,1.375,1.508,1.55,1.55,0,0,0,1.548-1.655Z" transform="translate(-108.062 -92.158)" fill="#fff"/>
      <path id="패스_6812" data-name="패스 6812" d="M212.506,162.223h-1.428v3.764c0,.694.347.841.774.841.2,0,.534-.014.747-.027v1.388a5.4,5.4,0,0,1-.961.067c-1.281,0-2.269-.628-2.256-1.989v-4.044h-1.041v-1.308h1.041V159.18h1.7v1.736h1.428Z" transform="translate(-117.673 -89.906)" fill="#fff"/>
      <path id="패스_6813" data-name="패스 6813" d="M223.82,162.223h-1.428v3.764c0,.694.347.841.774.841.2,0,.534-.014.747-.027v1.388a5.4,5.4,0,0,1-.961.067c-1.281,0-2.269-.628-2.256-1.989v-4.044h-1.041v-1.308H220.7V159.18h1.7v1.736h1.428Z" transform="translate(-124.063 -89.906)" fill="#fff"/>
      <path id="패스_6814" data-name="패스 6814" d="M231.952,157.464a.989.989,0,1,1,.987.934.964.964,0,0,1-.987-.934m.12,1.962h1.709v7.248h-1.709Z" transform="translate(-131.008 -88.416)" fill="#fff"/>
      <path id="패스_6815" data-name="패스 6815" d="M241.6,170.294h-1.709v-7.248h1.628v1.228h.094a2.153,2.153,0,0,1,2.149-1.322,2.4,2.4,0,0,1,2.482,2.723v4.618h-1.7v-4.352a1.359,1.359,0,0,0-1.415-1.548,1.485,1.485,0,0,0-1.535,1.655Z" transform="translate(-135.493 -92.037)" fill="#fff"/>
      <path id="패스_6816" data-name="패스 6816" d="M257.754,170.948h1.7c.12.627.72.934,1.588.934,1.015,0,1.682-.44,1.682-1.508v-1.388h-.08a2.159,2.159,0,0,1-2.1,1.2c-1.669,0-2.99-1.214-2.99-3.577,0-2.389,1.321-3.657,3-3.657a2.171,2.171,0,0,1,2.082,1.281h.08v-1.188H264.4v7.368c0,1.855-1.428,2.75-3.39,2.75-1.922,0-3.136-.854-3.257-2.216m4.978-4.311c0-1.375-.614-2.3-1.722-2.3-1.134,0-1.722.974-1.722,2.3s.6,2.216,1.722,2.216c1.095,0,1.722-.827,1.722-2.216" transform="translate(-145.468 -92.037)" fill="#fff"/>
      <rect id="사각형_2114" data-name="사각형 2114" width="4.351" height="1.402" transform="translate(120.599 73.532)" fill="#fff"/>
      <path id="패스_6817" data-name="패스 6817" d="M291.128,157.617h6.287v1.455h-4.552v2.643h4.218v1.455h-4.218v2.643h4.578v1.468h-6.313Z" transform="translate(-164.431 -89.023)" fill="#fff"/>
      <path id="패스_6818" data-name="패스 6818" d="M308.544,163.664c0-2.417,1.321-3.724,3-3.724a2.134,2.134,0,0,1,2.069,1.281h.067v-3.6h1.7v9.664h-1.669v-1.148h-.094a2.18,2.18,0,0,1-2.082,1.281c-1.709,0-2.99-1.361-2.99-3.751m5.178-.014c0-1.4-.614-2.322-1.722-2.322-1.134,0-1.722.974-1.722,2.322,0,1.375.6,2.363,1.722,2.363,1.095,0,1.722-.948,1.722-2.363" transform="translate(-174.267 -89.023)" fill="#fff"/>
      <path id="패스_6819" data-name="패스 6819" d="M327.723,170.948h1.7c.12.627.72.934,1.588.934,1.015,0,1.682-.44,1.682-1.508v-1.388h-.08a2.159,2.159,0,0,1-2.1,1.2c-1.669,0-2.99-1.214-2.99-3.577,0-2.389,1.321-3.657,3-3.657a2.171,2.171,0,0,1,2.082,1.281h.08v-1.188h1.682v7.368c0,1.855-1.428,2.75-3.39,2.75-1.922,0-3.137-.854-3.257-2.216m4.978-4.311c0-1.375-.614-2.3-1.722-2.3-1.134,0-1.722.974-1.722,2.3s.6,2.216,1.722,2.216c1.094,0,1.722-.827,1.722-2.216" transform="translate(-184.987 -92.037)" fill="#fff"/>
      <path id="패스_6820" data-name="패스 6820" d="M346.287,166.718c0-2.243,1.362-3.764,3.431-3.764,1.775,0,3.31,1.108,3.31,3.657v.534h-5.059a1.789,1.789,0,0,0,1.855,1.962,1.55,1.55,0,0,0,1.468-.748h1.669a2.956,2.956,0,0,1-3.15,2.082c-2.189,0-3.524-1.455-3.524-3.724m5.112-.734a1.619,1.619,0,0,0-1.655-1.709,1.745,1.745,0,0,0-1.762,1.709Z" transform="translate(-195.585 -92.037)" fill="#fff"/>
      <rect id="사각형_2115" data-name="사각형 2115" width="1.735" height="9.664" transform="translate(162.084 68.594)" fill="#fff"/>
      <path id="패스_6821" data-name="패스 6821" d="M382.091,170.294h-1.709v-7.248h1.628v1.228h.094a2.153,2.153,0,0,1,2.149-1.322,2.4,2.4,0,0,1,2.482,2.723v4.618h-1.7v-4.352a1.359,1.359,0,0,0-1.415-1.548,1.485,1.485,0,0,0-1.535,1.655Z" transform="translate(-214.842 -92.037)" fill="#fff"/>
      <path id="패스_6822" data-name="패스 6822" d="M401.114,164.221c-.734,0-1.268.36-1.255.854-.013.374.294.654,1.028.828l1.228.253c1.375.307,2.029.934,2.042,1.975-.014,1.362-1.2,2.309-3.1,2.309-1.842,0-2.936-.827-3.11-2.216h1.735c.107.614.587.921,1.375.921.814,0,1.362-.333,1.362-.867,0-.414-.334-.681-1.054-.841l-1.162-.254c-1.348-.267-2.042-.974-2.042-2.015,0-1.335,1.148-2.216,2.923-2.216,1.736,0,2.8.841,2.923,2.162H402.4a1.161,1.161,0,0,0-1.281-.894" transform="translate(-224.765 -92.037)" fill="#fff"/>
      <path id="패스_6823" data-name="패스 6823" d="M414.907,157.464a.989.989,0,1,1,.988.934.965.965,0,0,1-.988-.934m.12,1.962h1.708v7.248h-1.708Z" transform="translate(-234.342 -88.416)" fill="#fff"/>
      <path id="패스_6824" data-name="패스 6824" d="M422.374,170.948h1.7c.12.627.72.934,1.588.934,1.015,0,1.682-.44,1.682-1.508v-1.388h-.08a2.159,2.159,0,0,1-2.1,1.2c-1.669,0-2.99-1.214-2.99-3.577,0-2.389,1.321-3.657,3-3.657a2.171,2.171,0,0,1,2.082,1.281h.08v-1.188h1.682v7.368c0,1.855-1.428,2.75-3.39,2.75-1.922,0-3.137-.854-3.257-2.216m4.978-4.311c0-1.375-.614-2.3-1.722-2.3-1.134,0-1.722.974-1.722,2.3s.6,2.216,1.722,2.216c1.095,0,1.722-.827,1.722-2.216" transform="translate(-238.446 -92.037)" fill="#fff"/>
      <path id="패스_6825" data-name="패스 6825" d="M443.352,167.281h-1.709v-9.664h1.668v3.644h.093a2.118,2.118,0,0,1,2.149-1.322,2.409,2.409,0,0,1,2.5,2.723v4.618h-1.7v-4.352a1.362,1.362,0,0,0-1.428-1.548,1.508,1.508,0,0,0-1.575,1.655Z" transform="translate(-249.442 -89.023)" fill="#fff"/>
      <path id="패스_6826" data-name="패스 6826" d="M462.978,162.223H461.55v3.764c0,.694.347.841.774.841.2,0,.534-.014.748-.027v1.388a5.409,5.409,0,0,1-.961.067c-1.281,0-2.269-.628-2.256-1.989v-4.044h-1.041v-1.308h1.041V159.18h1.7v1.736h1.428Z" transform="translate(-259.141 -89.906)" fill="#fff"/>
      <path id="패스_6827" data-name="패스 6827" d="M473.781,164.221c-.735,0-1.268.36-1.255.854-.013.374.293.654,1.028.828l1.227.253c1.375.307,2.029.934,2.043,1.975-.014,1.362-1.2,2.309-3.1,2.309-1.842,0-2.936-.827-3.11-2.216h1.735c.107.614.587.921,1.375.921.814,0,1.362-.333,1.362-.867,0-.414-.334-.681-1.054-.841l-1.162-.254c-1.348-.267-2.042-.974-2.042-2.015,0-1.335,1.148-2.216,2.922-2.216,1.736,0,2.8.841,2.924,2.162h-1.615a1.16,1.16,0,0,0-1.281-.894" transform="translate(-265.807 -92.037)" fill="#fff"/>
      <path id="패스_6828" data-name="패스 6828" d="M495.024,157.464a.989.989,0,1,1,.988.934.965.965,0,0,1-.988-.934m.121,1.962h1.708v7.248h-1.708Z" transform="translate(-279.592 -88.416)" fill="#fff"/>
      <path id="패스_6829" data-name="패스 6829" d="M504.674,170.294h-1.709v-7.248h1.628v1.228h.094a2.153,2.153,0,0,1,2.149-1.322,2.4,2.4,0,0,1,2.482,2.723v4.618h-1.7v-4.352a1.359,1.359,0,0,0-1.415-1.548,1.485,1.485,0,0,0-1.535,1.655Z" transform="translate(-284.077 -92.037)" fill="#fff"/>
      <path id="패스_6830" data-name="패스 6830" d="M532.815,167.24c-2.536,0-4.432-1.855-4.432-4.965s1.9-4.965,4.432-4.965,4.432,1.842,4.432,4.965-1.9,4.965-4.432,4.965m0-8.369c-1.575,0-2.683,1.2-2.683,3.4s1.108,3.4,2.683,3.4,2.683-1.2,2.683-3.4-1.108-3.4-2.683-3.4" transform="translate(-298.434 -88.849)" fill="#fff"/>
      <path id="패스_6831" data-name="패스 6831" d="M552.3,157.616h1.708v3.6h.067a2.15,2.15,0,0,1,2.069-1.281c1.682,0,3,1.308,3,3.724,0,2.389-1.3,3.75-2.99,3.75a2.181,2.181,0,0,1-2.082-1.281h-.107v1.148H552.3Zm3.377,8.4c1.134,0,1.735-.988,1.735-2.363,0-1.348-.587-2.322-1.735-2.322-1.095,0-1.709.921-1.709,2.322s.614,2.363,1.709,2.363" transform="translate(-311.941 -89.022)" fill="#fff"/>
      <path id="패스_6832" data-name="패스 6832" d="M570.389,166.718c0-2.243,1.362-3.764,3.431-3.764,1.776,0,3.31,1.108,3.31,3.657v.534h-5.059a1.789,1.789,0,0,0,1.855,1.962,1.55,1.55,0,0,0,1.468-.748h1.668a2.956,2.956,0,0,1-3.15,2.082c-2.189,0-3.524-1.455-3.524-3.724m5.112-.734a1.619,1.619,0,0,0-1.655-1.709,1.745,1.745,0,0,0-1.762,1.709Z" transform="translate(-322.159 -92.037)" fill="#fff"/>
      <path id="패스_6833" data-name="패스 6833" d="M591.305,164.221c-.734,0-1.268.36-1.255.854-.013.374.294.654,1.028.828l1.228.253c1.375.307,2.029.934,2.042,1.975-.013,1.362-1.2,2.309-3.1,2.309-1.842,0-2.936-.827-3.11-2.216h1.735c.107.614.587.921,1.375.921.814,0,1.362-.333,1.362-.867,0-.414-.334-.681-1.054-.841l-1.161-.254c-1.348-.267-2.042-.974-2.042-2.015,0-1.335,1.148-2.216,2.923-2.216,1.735,0,2.8.841,2.923,2.162h-1.615a1.16,1.16,0,0,0-1.281-.894" transform="translate(-332.186 -92.037)" fill="#fff"/>
      <path id="패스_6834" data-name="패스 6834" d="M605.1,157.464a.989.989,0,1,1,.988.934.965.965,0,0,1-.988-.934m.12,1.962h1.709v7.248h-1.709Z" transform="translate(-341.762 -88.416)" fill="#fff"/>
      <path id="패스_6835" data-name="패스 6835" d="M615.945,162.223h-1.428v3.764c0,.694.347.841.774.841.2,0,.534-.014.747-.027v1.388a5.408,5.408,0,0,1-.961.067c-1.281,0-2.269-.628-2.256-1.989v-4.044h-1.041v-1.308h1.041V159.18h1.7v1.736h1.428Z" transform="translate(-345.537 -89.906)" fill="#fff"/>
      <path id="패스_6836" data-name="패스 6836" d="M623.755,173.1v-1.361c.214.013.494.027.721.027.414,0,.761-.04,1.054-.814l.147-.387-2.643-7.394h1.8l1.682,5.472h.08l1.682-5.472h1.8l-2.909,8.129a2.469,2.469,0,0,1-2.537,1.842,7.924,7.924,0,0,1-.881-.04" transform="translate(-351.893 -92.158)" fill="#fff"/>
      <path id="패스_6837" data-name="패스 6837" d="M651.447,157.617l2.87,7.021h.12l2.87-7.021h2.135v9.664h-1.669v-6.647h-.094L655,167.254h-1.241l-2.682-6.647h-.081v6.674h-1.682v-9.664Z" transform="translate(-366.734 -89.023)" fill="#fff"/>
      <path id="패스_6838" data-name="패스 6838" d="M678.438,166.063c.5-.034,1.541-.094,1.855-.107v-.574c0-.721-.467-1.135-1.308-1.135a1.253,1.253,0,0,0-1.361.868h-1.642c.12-1.228,1.228-2.162,3.043-2.162,1.374,0,2.963.561,2.963,2.5v4.845H680.36v-1h-.053a2.259,2.259,0,0,1-2.136,1.148,2.164,2.164,0,0,1-2.429-2.189c0-1.629,1.348-2.109,2.7-2.189m.173,3.123a1.556,1.556,0,0,0,1.7-1.495v-.6l-1.6.107c-.814.067-1.321.4-1.321,1.041s.507.948,1.228.948" transform="translate(-381.662 -92.037)" fill="#fff"/>
      <path id="패스_6839" data-name="패스 6839" d="M695.479,170.294H693.77v-7.248H695.4v1.228h.094a2.153,2.153,0,0,1,2.15-1.322,2.4,2.4,0,0,1,2.482,2.723v4.618h-1.695v-4.352a1.359,1.359,0,0,0-1.415-1.548,1.485,1.485,0,0,0-1.535,1.655Z" transform="translate(-391.845 -92.037)" fill="#fff"/>
      <path id="패스_6840" data-name="패스 6840" d="M714.034,166.063c.5-.034,1.541-.094,1.855-.107v-.574c0-.721-.467-1.135-1.308-1.135a1.253,1.253,0,0,0-1.361.868h-1.642c.12-1.228,1.228-2.162,3.044-2.162,1.374,0,2.963.561,2.963,2.5v4.845h-1.629v-1H715.9a2.259,2.259,0,0,1-2.136,1.148,2.164,2.164,0,0,1-2.429-2.189c0-1.629,1.348-2.109,2.7-2.189m.173,3.123a1.556,1.556,0,0,0,1.7-1.495v-.6l-1.6.107c-.814.067-1.321.4-1.321,1.041s.507.948,1.228.948" transform="translate(-401.768 -92.037)" fill="#fff"/>
      <path id="패스_6841" data-name="패스 6841" d="M728.894,170.948h1.7c.12.627.72.934,1.588.934,1.015,0,1.682-.44,1.682-1.508v-1.388h-.08a2.159,2.159,0,0,1-2.1,1.2c-1.668,0-2.99-1.214-2.99-3.577,0-2.389,1.321-3.657,3-3.657a2.171,2.171,0,0,1,2.082,1.281h.08v-1.188h1.682v7.368c0,1.855-1.428,2.75-3.39,2.75-1.922,0-3.136-.854-3.257-2.216m4.978-4.311c0-1.375-.614-2.3-1.722-2.3-1.134,0-1.722.974-1.722,2.3s.6,2.216,1.722,2.216c1.094,0,1.722-.827,1.722-2.216" transform="translate(-411.57 -92.037)" fill="#fff"/>
      <path id="패스_6842" data-name="패스 6842" d="M747.457,166.718c0-2.243,1.362-3.764,3.431-3.764,1.775,0,3.31,1.108,3.31,3.657v.534h-5.059a1.789,1.789,0,0,0,1.855,1.962,1.55,1.55,0,0,0,1.468-.748h1.669a2.956,2.956,0,0,1-3.15,2.082c-2.19,0-3.524-1.455-3.524-3.724m5.112-.734a1.619,1.619,0,0,0-1.655-1.709,1.745,1.745,0,0,0-1.762,1.709Z" transform="translate(-422.168 -92.037)" fill="#fff"/>
      <path id="패스_6843" data-name="패스 6843" d="M765.977,163.047h1.628v1.228h.094a1.992,1.992,0,0,1,1.989-1.322,1.925,1.925,0,0,1,1.962,1.322h.08a2.22,2.22,0,0,1,2.176-1.322,2.187,2.187,0,0,1,2.255,2.469v4.872h-1.695v-4.6a1.169,1.169,0,0,0-1.242-1.308,1.266,1.266,0,0,0-1.321,1.388v4.525h-1.655v-4.672a1.174,1.174,0,0,0-1.228-1.241,1.386,1.386,0,0,0-1.334,1.508v4.4h-1.708Z" transform="translate(-432.628 -92.037)" fill="#fff"/>
      <path id="패스_6844" data-name="패스 6844" d="M792.406,166.718c0-2.243,1.362-3.764,3.431-3.764,1.775,0,3.31,1.108,3.31,3.657v.534h-5.059a1.789,1.789,0,0,0,1.855,1.962,1.55,1.55,0,0,0,1.468-.748h1.669a2.956,2.956,0,0,1-3.15,2.082c-2.189,0-3.524-1.455-3.524-3.724m5.112-.734a1.619,1.619,0,0,0-1.655-1.709,1.745,1.745,0,0,0-1.762,1.709Z" transform="translate(-447.555 -92.037)" fill="#fff"/>
      <path id="패스_6845" data-name="패스 6845" d="M812.635,170.294h-1.709v-7.248h1.628v1.228h.094a2.153,2.153,0,0,1,2.149-1.322,2.4,2.4,0,0,1,2.482,2.723v4.618h-1.7v-4.352a1.359,1.359,0,0,0-1.415-1.548,1.485,1.485,0,0,0-1.535,1.655Z" transform="translate(-458.016 -92.037)" fill="#fff"/>
      <path id="패스_6846" data-name="패스 6846" d="M832.168,162.223H830.74v3.764c0,.694.347.841.774.841.2,0,.534-.014.748-.027v1.388a5.409,5.409,0,0,1-.961.067c-1.281,0-2.269-.628-2.256-1.989v-4.044H828v-1.308h1.041V159.18h1.7v1.736h1.428Z" transform="translate(-467.661 -89.906)" fill="#fff"/>
    </g>
  </g>
</svg>
